<?xml version="1.0" encoding="utf-8" standalone="no"?>
<!DOCTYPE svg PUBLIC "-//W3C//DTD SVG 1.1//EN"
  "http://www.w3.org/Graphics/SVG/1.1/DTD/svg11.dtd">
<svg xmlns:xlink="http://www.w3.org/1999/xlink" width="460.8pt" height="345.6pt" viewBox="0 0 460.8 345.6" xmlns="http://www.w3.org/2000/svg" version="1.1">
 <metadata>
  <rdf:RDF xmlns:dc="http://purl.org/dc/elements/1.1/" xmlns:cc="http://creativecommons.org/ns#" xmlns:rdf="http://www.w3.org/1999/02/22-rdf-syntax-ns#">
   <cc:Work>
    <dc:type rdf:resource="http://purl.org/dc/dcmitype/StillImage"/>
    <dc:date>2025-01-15T10:50:08.027692</dc:date>
    <dc:format>image/svg+xml</dc:format>
    <dc:creator>
     <cc:Agent>
      <dc:title>Matplotlib v3.9.2, https://matplotlib.org/</dc:title>
     </cc:Agent>
    </dc:creator>
   </cc:Work>
  </rdf:RDF>
 </metadata>
 <defs>
  <style type="text/css">*{stroke-linejoin: round; stroke-linecap: butt}</style>
 </defs>
 <g id="figure_1">
  <g id="patch_1">
   <path d="M 0 345.6 
L 460.8 345.6 
L 460.8 0 
L 0 0 
z
" style="fill: #ffffff"/>
  </g>
  <g id="axes_1">
   <g id="patch_2">
    <path d="M 66.72 287.7 
L 443.52 287.7 
L 443.52 37.68 
L 66.72 37.68 
z
" style="fill: #ffffff"/>
   </g>
   <g id="matplotlib.axis_1">
    <g id="xtick_1">
     <g id="line2d_1">
      <defs>
       <path id="mc9bc85f37e" d="M 0 0 
L 0 -3.5 
" style="stroke: #000000; stroke-width: 0.8"/>
      </defs>
      <g>
       <use xlink:href="#mc9bc85f37e" x="83.847273" y="287.7" style="stroke: #000000; stroke-width: 0.8"/>
      </g>
     </g>
     <g id="text_1">
      <!-- 0 -->
      <g transform="translate(78.757273 303.3575) scale(0.16 -0.16)">
       <defs>
        <path id="DejaVuSans-30" d="M 2034 4250 
Q 1547 4250 1301 3770 
Q 1056 3291 1056 2328 
Q 1056 1369 1301 889 
Q 1547 409 2034 409 
Q 2525 409 2770 889 
Q 3016 1369 3016 2328 
Q 3016 3291 2770 3770 
Q 2525 4250 2034 4250 
z
M 2034 4750 
Q 2819 4750 3233 4129 
Q 3647 3509 3647 2328 
Q 3647 1150 3233 529 
Q 2819 -91 2034 -91 
Q 1250 -91 836 529 
Q 422 1150 422 2328 
Q 422 3509 836 4129 
Q 1250 4750 2034 4750 
z
" transform="scale(0.015625)"/>
       </defs>
       <use xlink:href="#DejaVuSans-30"/>
      </g>
     </g>
    </g>
    <g id="xtick_2">
     <g id="line2d_2">
      <g>
       <use xlink:href="#mc9bc85f37e" x="152.356364" y="287.7" style="stroke: #000000; stroke-width: 0.8"/>
      </g>
     </g>
     <g id="text_2">
      <!-- 20 -->
      <g transform="translate(142.176364 303.3575) scale(0.16 -0.16)">
       <defs>
        <path id="DejaVuSans-32" d="M 1228 531 
L 3431 531 
L 3431 0 
L 469 0 
L 469 531 
Q 828 903 1448 1529 
Q 2069 2156 2228 2338 
Q 2531 2678 2651 2914 
Q 2772 3150 2772 3378 
Q 2772 3750 2511 3984 
Q 2250 4219 1831 4219 
Q 1534 4219 1204 4116 
Q 875 4013 500 3803 
L 500 4441 
Q 881 4594 1212 4672 
Q 1544 4750 1819 4750 
Q 2544 4750 2975 4387 
Q 3406 4025 3406 3419 
Q 3406 3131 3298 2873 
Q 3191 2616 2906 2266 
Q 2828 2175 2409 1742 
Q 1991 1309 1228 531 
z
" transform="scale(0.015625)"/>
       </defs>
       <use xlink:href="#DejaVuSans-32"/>
       <use xlink:href="#DejaVuSans-30" x="63.623047"/>
      </g>
     </g>
    </g>
    <g id="xtick_3">
     <g id="line2d_3">
      <g>
       <use xlink:href="#mc9bc85f37e" x="220.865455" y="287.7" style="stroke: #000000; stroke-width: 0.8"/>
      </g>
     </g>
     <g id="text_3">
      <!-- 40 -->
      <g transform="translate(210.685455 303.3575) scale(0.16 -0.16)">
       <defs>
        <path id="DejaVuSans-34" d="M 2419 4116 
L 825 1625 
L 2419 1625 
L 2419 4116 
z
M 2253 4666 
L 3047 4666 
L 3047 1625 
L 3713 1625 
L 3713 1100 
L 3047 1100 
L 3047 0 
L 2419 0 
L 2419 1100 
L 313 1100 
L 313 1709 
L 2253 4666 
z
" transform="scale(0.015625)"/>
       </defs>
       <use xlink:href="#DejaVuSans-34"/>
       <use xlink:href="#DejaVuSans-30" x="63.623047"/>
      </g>
     </g>
    </g>
    <g id="xtick_4">
     <g id="line2d_4">
      <g>
       <use xlink:href="#mc9bc85f37e" x="289.374545" y="287.7" style="stroke: #000000; stroke-width: 0.8"/>
      </g>
     </g>
     <g id="text_4">
      <!-- 60 -->
      <g transform="translate(279.194545 303.3575) scale(0.16 -0.16)">
       <defs>
        <path id="DejaVuSans-36" d="M 2113 2584 
Q 1688 2584 1439 2293 
Q 1191 2003 1191 1497 
Q 1191 994 1439 701 
Q 1688 409 2113 409 
Q 2538 409 2786 701 
Q 3034 994 3034 1497 
Q 3034 2003 2786 2293 
Q 2538 2584 2113 2584 
z
M 3366 4563 
L 3366 3988 
Q 3128 4100 2886 4159 
Q 2644 4219 2406 4219 
Q 1781 4219 1451 3797 
Q 1122 3375 1075 2522 
Q 1259 2794 1537 2939 
Q 1816 3084 2150 3084 
Q 2853 3084 3261 2657 
Q 3669 2231 3669 1497 
Q 3669 778 3244 343 
Q 2819 -91 2113 -91 
Q 1303 -91 875 529 
Q 447 1150 447 2328 
Q 447 3434 972 4092 
Q 1497 4750 2381 4750 
Q 2619 4750 2861 4703 
Q 3103 4656 3366 4563 
z
" transform="scale(0.015625)"/>
       </defs>
       <use xlink:href="#DejaVuSans-36"/>
       <use xlink:href="#DejaVuSans-30" x="63.623047"/>
      </g>
     </g>
    </g>
    <g id="xtick_5">
     <g id="line2d_5">
      <g>
       <use xlink:href="#mc9bc85f37e" x="357.883636" y="287.7" style="stroke: #000000; stroke-width: 0.8"/>
      </g>
     </g>
     <g id="text_5">
      <!-- 80 -->
      <g transform="translate(347.703636 303.3575) scale(0.16 -0.16)">
       <defs>
        <path id="DejaVuSans-38" d="M 2034 2216 
Q 1584 2216 1326 1975 
Q 1069 1734 1069 1313 
Q 1069 891 1326 650 
Q 1584 409 2034 409 
Q 2484 409 2743 651 
Q 3003 894 3003 1313 
Q 3003 1734 2745 1975 
Q 2488 2216 2034 2216 
z
M 1403 2484 
Q 997 2584 770 2862 
Q 544 3141 544 3541 
Q 544 4100 942 4425 
Q 1341 4750 2034 4750 
Q 2731 4750 3128 4425 
Q 3525 4100 3525 3541 
Q 3525 3141 3298 2862 
Q 3072 2584 2669 2484 
Q 3125 2378 3379 2068 
Q 3634 1759 3634 1313 
Q 3634 634 3220 271 
Q 2806 -91 2034 -91 
Q 1263 -91 848 271 
Q 434 634 434 1313 
Q 434 1759 690 2068 
Q 947 2378 1403 2484 
z
M 1172 3481 
Q 1172 3119 1398 2916 
Q 1625 2713 2034 2713 
Q 2441 2713 2670 2916 
Q 2900 3119 2900 3481 
Q 2900 3844 2670 4047 
Q 2441 4250 2034 4250 
Q 1625 4250 1398 4047 
Q 1172 3844 1172 3481 
z
" transform="scale(0.015625)"/>
       </defs>
       <use xlink:href="#DejaVuSans-38"/>
       <use xlink:href="#DejaVuSans-30" x="63.623047"/>
      </g>
     </g>
    </g>
    <g id="xtick_6">
     <g id="line2d_6">
      <g>
       <use xlink:href="#mc9bc85f37e" x="426.392727" y="287.7" style="stroke: #000000; stroke-width: 0.8"/>
      </g>
     </g>
     <g id="text_6">
      <!-- 100 -->
      <g transform="translate(411.122727 303.3575) scale(0.16 -0.16)">
       <defs>
        <path id="DejaVuSans-31" d="M 794 531 
L 1825 531 
L 1825 4091 
L 703 3866 
L 703 4441 
L 1819 4666 
L 2450 4666 
L 2450 531 
L 3481 531 
L 3481 0 
L 794 0 
L 794 531 
z
" transform="scale(0.015625)"/>
       </defs>
       <use xlink:href="#DejaVuSans-31"/>
       <use xlink:href="#DejaVuSans-30" x="63.623047"/>
       <use xlink:href="#DejaVuSans-30" x="127.246094"/>
      </g>
     </g>
    </g>
    <g id="text_7">
     <!-- Time(ns) -->
     <g transform="translate(220.06625 322.8425) scale(0.16 -0.16)">
      <defs>
       <path id="DejaVuSans-54" d="M -19 4666 
L 3928 4666 
L 3928 4134 
L 2272 4134 
L 2272 0 
L 1638 0 
L 1638 4134 
L -19 4134 
L -19 4666 
z
" transform="scale(0.015625)"/>
       <path id="DejaVuSans-69" d="M 603 3500 
L 1178 3500 
L 1178 0 
L 603 0 
L 603 3500 
z
M 603 4863 
L 1178 4863 
L 1178 4134 
L 603 4134 
L 603 4863 
z
" transform="scale(0.015625)"/>
       <path id="DejaVuSans-6d" d="M 3328 2828 
Q 3544 3216 3844 3400 
Q 4144 3584 4550 3584 
Q 5097 3584 5394 3201 
Q 5691 2819 5691 2113 
L 5691 0 
L 5113 0 
L 5113 2094 
Q 5113 2597 4934 2840 
Q 4756 3084 4391 3084 
Q 3944 3084 3684 2787 
Q 3425 2491 3425 1978 
L 3425 0 
L 2847 0 
L 2847 2094 
Q 2847 2600 2669 2842 
Q 2491 3084 2119 3084 
Q 1678 3084 1418 2786 
Q 1159 2488 1159 1978 
L 1159 0 
L 581 0 
L 581 3500 
L 1159 3500 
L 1159 2956 
Q 1356 3278 1631 3431 
Q 1906 3584 2284 3584 
Q 2666 3584 2933 3390 
Q 3200 3197 3328 2828 
z
" transform="scale(0.015625)"/>
       <path id="DejaVuSans-65" d="M 3597 1894 
L 3597 1613 
L 953 1613 
Q 991 1019 1311 708 
Q 1631 397 2203 397 
Q 2534 397 2845 478 
Q 3156 559 3463 722 
L 3463 178 
Q 3153 47 2828 -22 
Q 2503 -91 2169 -91 
Q 1331 -91 842 396 
Q 353 884 353 1716 
Q 353 2575 817 3079 
Q 1281 3584 2069 3584 
Q 2775 3584 3186 3129 
Q 3597 2675 3597 1894 
z
M 3022 2063 
Q 3016 2534 2758 2815 
Q 2500 3097 2075 3097 
Q 1594 3097 1305 2825 
Q 1016 2553 972 2059 
L 3022 2063 
z
" transform="scale(0.015625)"/>
       <path id="DejaVuSans-28" d="M 1984 4856 
Q 1566 4138 1362 3434 
Q 1159 2731 1159 2009 
Q 1159 1288 1364 580 
Q 1569 -128 1984 -844 
L 1484 -844 
Q 1016 -109 783 600 
Q 550 1309 550 2009 
Q 550 2706 781 3412 
Q 1013 4119 1484 4856 
L 1984 4856 
z
" transform="scale(0.015625)"/>
       <path id="DejaVuSans-6e" d="M 3513 2113 
L 3513 0 
L 2938 0 
L 2938 2094 
Q 2938 2591 2744 2837 
Q 2550 3084 2163 3084 
Q 1697 3084 1428 2787 
Q 1159 2491 1159 1978 
L 1159 0 
L 581 0 
L 581 3500 
L 1159 3500 
L 1159 2956 
Q 1366 3272 1645 3428 
Q 1925 3584 2291 3584 
Q 2894 3584 3203 3211 
Q 3513 2838 3513 2113 
z
" transform="scale(0.015625)"/>
       <path id="DejaVuSans-73" d="M 2834 3397 
L 2834 2853 
Q 2591 2978 2328 3040 
Q 2066 3103 1784 3103 
Q 1356 3103 1142 2972 
Q 928 2841 928 2578 
Q 928 2378 1081 2264 
Q 1234 2150 1697 2047 
L 1894 2003 
Q 2506 1872 2764 1633 
Q 3022 1394 3022 966 
Q 3022 478 2636 193 
Q 2250 -91 1575 -91 
Q 1294 -91 989 -36 
Q 684 19 347 128 
L 347 722 
Q 666 556 975 473 
Q 1284 391 1588 391 
Q 1994 391 2212 530 
Q 2431 669 2431 922 
Q 2431 1156 2273 1281 
Q 2116 1406 1581 1522 
L 1381 1569 
Q 847 1681 609 1914 
Q 372 2147 372 2553 
Q 372 3047 722 3315 
Q 1072 3584 1716 3584 
Q 2034 3584 2315 3537 
Q 2597 3491 2834 3397 
z
" transform="scale(0.015625)"/>
       <path id="DejaVuSans-29" d="M 513 4856 
L 1013 4856 
Q 1481 4119 1714 3412 
Q 1947 2706 1947 2009 
Q 1947 1309 1714 600 
Q 1481 -109 1013 -844 
L 513 -844 
Q 928 -128 1133 580 
Q 1338 1288 1338 2009 
Q 1338 2731 1133 3434 
Q 928 4138 513 4856 
z
" transform="scale(0.015625)"/>
      </defs>
      <use xlink:href="#DejaVuSans-54"/>
      <use xlink:href="#DejaVuSans-69" x="57.958984"/>
      <use xlink:href="#DejaVuSans-6d" x="85.742188"/>
      <use xlink:href="#DejaVuSans-65" x="183.154297"/>
      <use xlink:href="#DejaVuSans-28" x="244.677734"/>
      <use xlink:href="#DejaVuSans-6e" x="283.691406"/>
      <use xlink:href="#DejaVuSans-73" x="347.070312"/>
      <use xlink:href="#DejaVuSans-29" x="399.169922"/>
     </g>
    </g>
   </g>
   <g id="matplotlib.axis_2">
    <g id="ytick_1">
     <g id="line2d_7">
      <defs>
       <path id="mb2fe63dcc1" d="M 0 0 
L 3.5 0 
" style="stroke: #000000; stroke-width: 0.8"/>
      </defs>
      <g>
       <use xlink:href="#mb2fe63dcc1" x="66.72" y="276.576525" style="stroke: #000000; stroke-width: 0.8"/>
      </g>
     </g>
     <g id="text_8">
      <!-- 0.0 -->
      <g transform="translate(37.775 282.655275) scale(0.16 -0.16)">
       <defs>
        <path id="DejaVuSans-2e" d="M 684 794 
L 1344 794 
L 1344 0 
L 684 0 
L 684 794 
z
" transform="scale(0.015625)"/>
       </defs>
       <use xlink:href="#DejaVuSans-30"/>
       <use xlink:href="#DejaVuSans-2e" x="63.623047"/>
       <use xlink:href="#DejaVuSans-30" x="95.410156"/>
      </g>
     </g>
    </g>
    <g id="ytick_2">
     <g id="line2d_8">
      <g>
       <use xlink:href="#mb2fe63dcc1" x="66.72" y="228.372007" style="stroke: #000000; stroke-width: 0.8"/>
      </g>
     </g>
     <g id="text_9">
      <!-- 0.1 -->
      <g transform="translate(37.775 234.450757) scale(0.16 -0.16)">
       <use xlink:href="#DejaVuSans-30"/>
       <use xlink:href="#DejaVuSans-2e" x="63.623047"/>
       <use xlink:href="#DejaVuSans-31" x="95.410156"/>
      </g>
     </g>
    </g>
    <g id="ytick_3">
     <g id="line2d_9">
      <g>
       <use xlink:href="#mb2fe63dcc1" x="66.72" y="180.167488" style="stroke: #000000; stroke-width: 0.8"/>
      </g>
     </g>
     <g id="text_10">
      <!-- 0.2 -->
      <g transform="translate(37.775 186.246238) scale(0.16 -0.16)">
       <use xlink:href="#DejaVuSans-30"/>
       <use xlink:href="#DejaVuSans-2e" x="63.623047"/>
       <use xlink:href="#DejaVuSans-32" x="95.410156"/>
      </g>
     </g>
    </g>
    <g id="ytick_4">
     <g id="line2d_10">
      <g>
       <use xlink:href="#mb2fe63dcc1" x="66.72" y="131.96297" style="stroke: #000000; stroke-width: 0.8"/>
      </g>
     </g>
     <g id="text_11">
      <!-- 0.3 -->
      <g transform="translate(37.775 138.04172) scale(0.16 -0.16)">
       <defs>
        <path id="DejaVuSans-33" d="M 2597 2516 
Q 3050 2419 3304 2112 
Q 3559 1806 3559 1356 
Q 3559 666 3084 287 
Q 2609 -91 1734 -91 
Q 1441 -91 1130 -33 
Q 819 25 488 141 
L 488 750 
Q 750 597 1062 519 
Q 1375 441 1716 441 
Q 2309 441 2620 675 
Q 2931 909 2931 1356 
Q 2931 1769 2642 2001 
Q 2353 2234 1838 2234 
L 1294 2234 
L 1294 2753 
L 1863 2753 
Q 2328 2753 2575 2939 
Q 2822 3125 2822 3475 
Q 2822 3834 2567 4026 
Q 2313 4219 1838 4219 
Q 1578 4219 1281 4162 
Q 984 4106 628 3988 
L 628 4550 
Q 988 4650 1302 4700 
Q 1616 4750 1894 4750 
Q 2613 4750 3031 4423 
Q 3450 4097 3450 3541 
Q 3450 3153 3228 2886 
Q 3006 2619 2597 2516 
z
" transform="scale(0.015625)"/>
       </defs>
       <use xlink:href="#DejaVuSans-30"/>
       <use xlink:href="#DejaVuSans-2e" x="63.623047"/>
       <use xlink:href="#DejaVuSans-33" x="95.410156"/>
      </g>
     </g>
    </g>
    <g id="ytick_5">
     <g id="line2d_11">
      <g>
       <use xlink:href="#mb2fe63dcc1" x="66.72" y="83.758451" style="stroke: #000000; stroke-width: 0.8"/>
      </g>
     </g>
     <g id="text_12">
      <!-- 0.4 -->
      <g transform="translate(37.775 89.837201) scale(0.16 -0.16)">
       <use xlink:href="#DejaVuSans-30"/>
       <use xlink:href="#DejaVuSans-2e" x="63.623047"/>
       <use xlink:href="#DejaVuSans-34" x="95.410156"/>
      </g>
     </g>
    </g>
    <g id="text_13">
     <!-- RMSD (nm) -->
     <g transform="translate(30.4475 208.0375) rotate(-90) scale(0.16 -0.16)">
      <defs>
       <path id="DejaVuSans-52" d="M 2841 2188 
Q 3044 2119 3236 1894 
Q 3428 1669 3622 1275 
L 4263 0 
L 3584 0 
L 2988 1197 
Q 2756 1666 2539 1819 
Q 2322 1972 1947 1972 
L 1259 1972 
L 1259 0 
L 628 0 
L 628 4666 
L 2053 4666 
Q 2853 4666 3247 4331 
Q 3641 3997 3641 3322 
Q 3641 2881 3436 2590 
Q 3231 2300 2841 2188 
z
M 1259 4147 
L 1259 2491 
L 2053 2491 
Q 2509 2491 2742 2702 
Q 2975 2913 2975 3322 
Q 2975 3731 2742 3939 
Q 2509 4147 2053 4147 
L 1259 4147 
z
" transform="scale(0.015625)"/>
       <path id="DejaVuSans-4d" d="M 628 4666 
L 1569 4666 
L 2759 1491 
L 3956 4666 
L 4897 4666 
L 4897 0 
L 4281 0 
L 4281 4097 
L 3078 897 
L 2444 897 
L 1241 4097 
L 1241 0 
L 628 0 
L 628 4666 
z
" transform="scale(0.015625)"/>
       <path id="DejaVuSans-53" d="M 3425 4513 
L 3425 3897 
Q 3066 4069 2747 4153 
Q 2428 4238 2131 4238 
Q 1616 4238 1336 4038 
Q 1056 3838 1056 3469 
Q 1056 3159 1242 3001 
Q 1428 2844 1947 2747 
L 2328 2669 
Q 3034 2534 3370 2195 
Q 3706 1856 3706 1288 
Q 3706 609 3251 259 
Q 2797 -91 1919 -91 
Q 1588 -91 1214 -16 
Q 841 59 441 206 
L 441 856 
Q 825 641 1194 531 
Q 1563 422 1919 422 
Q 2459 422 2753 634 
Q 3047 847 3047 1241 
Q 3047 1584 2836 1778 
Q 2625 1972 2144 2069 
L 1759 2144 
Q 1053 2284 737 2584 
Q 422 2884 422 3419 
Q 422 4038 858 4394 
Q 1294 4750 2059 4750 
Q 2388 4750 2728 4690 
Q 3069 4631 3425 4513 
z
" transform="scale(0.015625)"/>
       <path id="DejaVuSans-44" d="M 1259 4147 
L 1259 519 
L 2022 519 
Q 2988 519 3436 956 
Q 3884 1394 3884 2338 
Q 3884 3275 3436 3711 
Q 2988 4147 2022 4147 
L 1259 4147 
z
M 628 4666 
L 1925 4666 
Q 3281 4666 3915 4102 
Q 4550 3538 4550 2338 
Q 4550 1131 3912 565 
Q 3275 0 1925 0 
L 628 0 
L 628 4666 
z
" transform="scale(0.015625)"/>
       <path id="DejaVuSans-20" transform="scale(0.015625)"/>
      </defs>
      <use xlink:href="#DejaVuSans-52"/>
      <use xlink:href="#DejaVuSans-4d" x="69.482422"/>
      <use xlink:href="#DejaVuSans-53" x="155.761719"/>
      <use xlink:href="#DejaVuSans-44" x="219.238281"/>
      <use xlink:href="#DejaVuSans-20" x="296.240234"/>
      <use xlink:href="#DejaVuSans-28" x="328.027344"/>
      <use xlink:href="#DejaVuSans-6e" x="367.041016"/>
      <use xlink:href="#DejaVuSans-6d" x="430.419922"/>
      <use xlink:href="#DejaVuSans-29" x="527.832031"/>
     </g>
    </g>
   </g>
   <g id="line2d_12">
    <path d="M 83.847273 276.335455 
L 84.189818 231.005853 
L 84.532364 215.592266 
L 84.874909 213.441187 
L 85.217455 216.64674 
L 85.56 209.452697 
L 85.902545 207.107981 
L 86.245091 212.77664 
L 86.587636 204.632149 
L 86.930182 199.341462 
L 87.272727 200.323485 
L 87.957818 193.991532 
L 88.300364 193.908524 
L 88.642909 194.059934 
L 88.985455 188.919452 
L 89.328 189.166404 
L 89.670545 186.211515 
L 90.013091 178.998191 
L 90.698182 189.931651 
L 91.040727 184.586878 
L 91.383273 188.935022 
L 91.725818 183.667088 
L 92.068364 186.258177 
L 92.410909 182.266361 
L 92.753455 190.209164 
L 93.096 190.333436 
L 93.438545 194.976688 
L 94.123636 188.18202 
L 94.466182 189.312367 
L 94.808727 184.410546 
L 95.151273 185.695197 
L 95.493818 183.841974 
L 95.836364 186.177724 
L 96.178909 175.768199 
L 96.521455 177.070926 
L 96.864 188.541143 
L 97.206545 184.037492 
L 97.549091 173.00796 
L 97.891636 175.797267 
L 98.234182 182.992803 
L 98.576727 182.509023 
L 98.919273 185.120599 
L 99.261818 182.177135 
L 99.604364 186.396765 
L 99.946909 182.838983 
L 100.289455 184.142095 
L 100.632 183.672439 
L 100.974545 178.60894 
L 101.317091 178.242007 
L 101.659636 179.089201 
L 102.002182 184.601051 
L 102.344727 183.583068 
L 102.687273 186.530244 
L 103.029818 191.035872 
L 103.372364 187.494286 
L 103.714909 191.339271 
L 104.057455 179.654689 
L 104.742545 183.184127 
L 105.085091 186.343403 
L 105.427636 176.034288 
L 105.770182 177.88968 
L 106.112727 180.378961 
L 106.455273 183.82462 
L 106.797818 181.308586 
L 107.140364 177.925785 
L 107.482909 169.854999 
L 107.825455 174.905724 
L 108.168 182.304925 
L 108.510545 178.043115 
L 108.853091 178.033667 
L 109.195636 171.464837 
L 109.538182 172.871975 
L 109.880727 171.641459 
L 110.223273 159.987582 
L 110.565818 173.623195 
L 110.908364 167.082082 
L 111.250909 163.812707 
L 111.593455 169.640585 
L 111.936 164.099717 
L 112.278545 173.319313 
L 112.621091 172.155463 
L 112.963636 176.0635 
L 113.306182 166.341998 
L 113.648727 168.170589 
L 114.333818 178.465242 
L 114.676364 180.996895 
L 115.018909 169.228581 
L 115.361455 170.956713 
L 115.704 164.123193 
L 116.046545 171.214559 
L 116.389091 148.860533 
L 117.074182 168.84362 
L 117.416727 144.000506 
L 117.759273 167.042506 
L 118.101818 152.719594 
L 118.444364 166.690131 
L 118.786909 167.182926 
L 119.129455 155.001211 
L 119.472 151.149091 
L 119.814545 156.492176 
L 120.157091 164.08757 
L 120.499636 155.34192 
L 121.184727 145.274455 
L 121.869818 137.815866 
L 122.212364 145.88805 
L 122.554909 123.421611 
L 122.897455 115.439521 
L 123.24 91.386189 
L 123.582545 117.170063 
L 123.925091 129.481401 
L 124.267636 136.469851 
L 124.610182 130.781525 
L 124.952727 146.415118 
L 125.295273 152.057602 
L 125.637818 143.936104 
L 125.980364 143.931766 
L 126.322909 144.755244 
L 126.665455 141.260272 
L 127.008 142.196837 
L 127.350545 139.81833 
L 127.693091 144.642108 
L 128.035636 144.235021 
L 128.720727 137.109332 
L 129.063273 135.995808 
L 129.405818 142.938994 
L 129.748364 156.049611 
L 130.090909 150.014935 
L 130.433455 154.175949 
L 130.776 148.283381 
L 131.118545 147.561904 
L 131.461091 144.874936 
L 131.803636 143.139428 
L 132.488727 152.803277 
L 132.831273 152.228824 
L 133.173818 154.205836 
L 133.516364 140.169451 
L 133.858909 162.501207 
L 134.201455 152.282042 
L 134.544 136.605306 
L 134.886545 136.032443 
L 135.229091 135.844687 
L 135.571636 152.227185 
L 135.914182 141.21332 
L 136.256727 139.48649 
L 136.599273 126.939721 
L 136.941818 127.268187 
L 137.284364 122.063883 
L 137.626909 122.117582 
L 137.969455 135.080549 
L 138.312 132.082179 
L 138.654545 126.294552 
L 138.997091 124.308767 
L 139.339636 133.663866 
L 139.682182 131.209822 
L 140.024727 120.463203 
L 140.367273 123.330167 
L 140.709818 114.020959 
L 141.052364 126.123378 
L 141.394909 120.38005 
L 141.737455 117.095973 
L 142.08 133.490956 
L 142.765091 118.068981 
L 143.107636 126.889396 
L 143.450182 122.409316 
L 143.792727 120.276025 
L 144.135273 120.942983 
L 144.477818 110.833049 
L 144.820364 119.830423 
L 145.162909 120.61794 
L 145.505455 126.292672 
L 145.848 124.841186 
L 146.190545 127.013522 
L 146.533091 110.959104 
L 146.875636 119.621601 
L 147.218182 124.839499 
L 147.560727 113.919681 
L 147.903273 124.140533 
L 148.245818 121.763376 
L 148.588364 133.848056 
L 148.930909 125.699516 
L 149.273455 136.163849 
L 149.616 140.153255 
L 149.958545 141.332144 
L 150.301091 134.970257 
L 150.643636 133.51636 
L 150.986182 136.355173 
L 151.328727 145.985327 
L 151.671273 144.089588 
L 152.013818 155.335895 
L 152.356364 144.289251 
L 152.698909 144.572211 
L 153.041455 137.313478 
L 153.384 143.823547 
L 153.726545 160.143958 
L 154.069091 150.756996 
L 154.411636 152.105613 
L 154.754182 135.994024 
L 155.439273 160.317012 
L 155.781818 161.001854 
L 156.124364 145.569948 
L 156.466909 153.108267 
L 156.809455 140.02344 
L 157.152 138.76723 
L 157.494545 137.077083 
L 157.837091 144.11557 
L 158.179636 142.586956 
L 158.522182 131.860294 
L 158.864727 155.735992 
L 159.549818 129.663421 
L 159.892364 137.879544 
L 160.234909 131.33848 
L 160.577455 141.538604 
L 160.92 143.324534 
L 161.262545 133.977292 
L 161.605091 140.866826 
L 161.947636 141.644606 
L 162.290182 132.364561 
L 162.632727 130.874945 
L 162.975273 133.935161 
L 163.317818 141.086398 
L 163.660364 131.690373 
L 164.002909 138.406757 
L 164.345455 122.640891 
L 164.688 128.742088 
L 165.030545 130.839612 
L 165.373091 120.62035 
L 165.715636 147.951348 
L 166.058182 125.583246 
L 166.400727 122.404688 
L 166.743273 140.459594 
L 167.085818 128.533893 
L 167.428364 141.975386 
L 167.770909 121.855784 
L 168.113455 139.871307 
L 168.456 129.273013 
L 168.798545 138.80912 
L 169.141091 142.130026 
L 170.168727 118.304942 
L 170.511273 100.654665 
L 170.853818 95.593528 
L 171.196364 102.419384 
L 171.538909 94.411987 
L 171.881455 94.716061 
L 172.224 98.715494 
L 172.566545 119.853898 
L 172.909091 117.908749 
L 173.251636 120.342017 
L 173.594182 106.387146 
L 173.936727 87.802232 
L 174.279273 110.036469 
L 174.621818 107.33316 
L 175.306909 129.686029 
L 175.649455 128.750428 
L 175.992 125.268953 
L 176.334545 118.129574 
L 176.677091 123.733446 
L 177.019636 125.974233 
L 177.362182 105.428841 
L 177.704727 112.928741 
L 178.047273 114.517224 
L 178.389818 109.345313 
L 178.732364 89.600935 
L 179.074909 103.212879 
L 179.417455 109.326176 
L 179.76 100.587372 
L 180.102545 103.289379 
L 180.445091 97.276107 
L 180.787636 95.669595 
L 181.130182 81.648828 
L 181.472727 103.538018 
L 181.815273 113.175548 
L 182.157818 101.282191 
L 182.500364 100.439287 
L 182.842909 130.934526 
L 183.185455 111.946333 
L 183.528 118.484649 
L 183.870545 121.012397 
L 184.213091 112.664001 
L 184.555636 113.082802 
L 184.898182 102.355706 
L 185.240727 112.457879 
L 185.583273 110.016609 
L 185.925818 110.844907 
L 186.610909 137.770843 
L 186.953455 138.699744 
L 187.296 135.764956 
L 187.638545 145.499329 
L 187.981091 149.679769 
L 188.323636 141.294208 
L 188.666182 147.038354 
L 189.008727 138.808927 
L 189.351273 141.15991 
L 189.693818 136.390699 
L 190.036364 136.683735 
L 190.378909 129.20784 
L 190.721455 141.289291 
L 191.064 142.571579 
L 191.406545 125.505733 
L 191.749091 126.411448 
L 192.091636 129.105358 
L 192.434182 129.265107 
L 193.119273 140.599821 
L 193.461818 140.827588 
L 193.804364 134.61147 
L 194.146909 142.562083 
L 194.489455 127.407161 
L 194.832 130.307964 
L 195.174545 117.021834 
L 195.517091 125.221953 
L 195.859636 140.022235 
L 196.202182 132.154197 
L 196.544727 132.948463 
L 196.887273 121.654674 
L 197.229818 125.291079 
L 197.572364 109.402484 
L 197.914909 103.122736 
L 198.257455 107.285727 
L 198.6 99.331933 
L 199.285091 102.009983 
L 199.627636 109.004555 
L 199.970182 103.84566 
L 200.312727 100.363992 
L 200.655273 117.140466 
L 200.997818 107.610384 
L 201.340364 115.351066 
L 201.682909 134.066567 
L 202.025455 108.08732 
L 202.368 103.163855 
L 202.710545 103.24132 
L 203.053091 94.776124 
L 203.395636 109.568211 
L 203.738182 105.160341 
L 204.080727 109.949942 
L 204.423273 116.371507 
L 204.765818 98.780377 
L 205.108364 92.282697 
L 205.450909 103.420014 
L 205.793455 85.07617 
L 206.136 86.881236 
L 206.478545 83.356763 
L 206.821091 84.698102 
L 207.163636 82.584478 
L 207.506182 92.115524 
L 207.848727 95.492347 
L 208.191273 111.340932 
L 208.533818 114.423418 
L 208.876364 114.922721 
L 209.218909 96.064968 
L 209.561455 105.146941 
L 209.904 99.317424 
L 210.246545 96.827516 
L 210.589091 84.610659 
L 210.931636 105.619586 
L 211.274182 108.376933 
L 211.959273 119.845029 
L 212.301818 108.650493 
L 212.644364 118.247097 
L 212.986909 91.687082 
L 213.329455 91.359966 
L 213.672 111.59791 
L 214.014545 98.514047 
L 214.357091 95.681935 
L 214.699636 87.717922 
L 215.042182 93.378434 
L 215.384727 103.984922 
L 215.727273 97.826554 
L 216.069818 98.764373 
L 216.412364 80.584955 
L 216.754909 103.809072 
L 217.097455 81.985055 
L 217.44 110.573468 
L 217.782545 112.004226 
L 218.125091 104.33455 
L 218.810182 133.100837 
L 219.152727 126.366039 
L 219.495273 110.72618 
L 219.837818 103.753541 
L 220.180364 112.573088 
L 220.522909 110.139049 
L 220.865455 90.375823 
L 221.208 102.205742 
L 221.550545 95.454844 
L 221.893091 113.794879 
L 222.235636 102.750694 
L 222.920727 112.841008 
L 223.263273 122.594614 
L 223.605818 122.70023 
L 223.948364 122.145782 
L 224.290909 109.733456 
L 224.633455 127.975685 
L 224.976 123.493388 
L 225.318545 131.780178 
L 225.661091 133.301416 
L 226.003636 115.326 
L 226.688727 132.14446 
L 227.031273 120.306828 
L 227.716364 131.907631 
L 228.058909 126.330416 
L 228.744 97.814985 
L 229.086545 117.263243 
L 229.429091 116.92422 
L 229.771636 118.537674 
L 230.114182 123.779626 
L 230.456727 122.976828 
L 230.799273 109.416318 
L 231.141818 105.460463 
L 231.484364 108.633332 
L 231.826909 120.115167 
L 232.169455 117.644589 
L 232.512 99.879392 
L 232.854545 103.371713 
L 233.197091 110.995402 
L 233.539636 99.975271 
L 233.882182 120.189209 
L 234.224727 114.546725 
L 234.567273 123.915563 
L 234.909818 124.816939 
L 235.252364 121.816738 
L 235.937455 96.658318 
L 236.28 106.650681 
L 236.622545 106.39134 
L 236.965091 102.083977 
L 237.307636 124.393173 
L 237.650182 103.500804 
L 237.992727 110.28588 
L 238.335273 97.296449 
L 238.677818 94.400225 
L 239.020364 108.393177 
L 239.362909 114.895871 
L 239.705455 117.285851 
L 240.048 106.698499 
L 240.390545 114.576853 
L 240.733091 116.257214 
L 241.075636 100.360521 
L 241.418182 113.75082 
L 241.760727 111.305261 
L 242.103273 115.26396 
L 242.445818 124.140871 
L 242.788364 116.517278 
L 243.130909 119.086579 
L 243.473455 122.563908 
L 243.816 119.702054 
L 244.158545 106.364876 
L 244.501091 116.616724 
L 244.843636 100.615909 
L 245.186182 99.747215 
L 245.528727 107.41101 
L 246.213818 94.187017 
L 246.556364 92.843316 
L 246.898909 92.143916 
L 247.241455 116.907252 
L 247.584 101.838182 
L 247.926545 103.690634 
L 248.269091 123.37384 
L 248.611636 97.058994 
L 248.954182 109.772357 
L 249.296727 103.638091 
L 249.639273 106.012501 
L 249.981818 110.0625 
L 250.324364 104.347228 
L 250.666909 87.779142 
L 251.009455 93.657394 
L 251.352 118.295783 
L 251.694545 119.381687 
L 252.037091 119.441846 
L 252.379636 104.770078 
L 252.722182 117.123498 
L 253.064727 110.913406 
L 253.407273 110.912153 
L 253.749818 110.699474 
L 254.092364 104.396878 
L 254.434909 103.139222 
L 254.777455 97.936412 
L 255.12 109.376646 
L 255.462545 105.597074 
L 255.805091 106.959189 
L 256.147636 121.544961 
L 256.490182 108.450734 
L 256.832727 108.941986 
L 257.175273 101.919985 
L 257.517818 114.122622 
L 257.860364 119.491497 
L 258.202909 109.685155 
L 258.545455 114.501847 
L 258.888 111.751008 
L 259.573091 117.17445 
L 259.915636 121.668413 
L 260.258182 124.55138 
L 260.600727 113.570873 
L 261.285818 130.864292 
L 261.628364 123.554945 
L 261.970909 134.349093 
L 262.313455 129.598345 
L 262.656 129.978968 
L 262.998545 116.993683 
L 263.341091 114.16591 
L 263.683636 126.879321 
L 264.026182 121.494732 
L 264.368727 127.316632 
L 264.711273 127.702943 
L 265.053818 132.505029 
L 265.396364 116.015613 
L 266.081455 129.976992 
L 267.109091 118.617934 
L 267.451636 111.537992 
L 267.794182 125.903276 
L 268.136727 126.663317 
L 268.479273 130.225197 
L 268.821818 126.305591 
L 269.164364 131.612041 
L 269.506909 110.921215 
L 269.849455 137.458188 
L 270.192 135.927454 
L 270.534545 116.776666 
L 270.877091 114.99604 
L 271.219636 116.413108 
L 271.562182 95.642311 
L 271.904727 116.283679 
L 272.247273 120.371711 
L 272.589818 107.431546 
L 272.932364 100.868597 
L 273.274909 91.689299 
L 273.617455 105.362704 
L 273.96 109.338468 
L 274.645091 80.096065 
L 274.987636 68.614809 
L 275.330182 88.817226 
L 275.672727 67.258093 
L 276.015273 61.378105 
L 276.357818 69.544336 
L 276.700364 67.078145 
L 277.042909 58.302416 
L 277.385455 64.087537 
L 277.728 79.980229 
L 278.070545 57.746763 
L 278.413091 97.022696 
L 278.755636 89.617421 
L 279.098182 72.406624 
L 279.440727 93.999887 
L 280.125818 67.134834 
L 280.468364 73.364834 
L 280.810909 71.394378 
L 281.153455 58.131579 
L 281.496 54.743814 
L 281.838545 68.535416 
L 282.181091 49.044545 
L 282.523636 61.754149 
L 282.866182 85.86817 
L 283.208727 72.091656 
L 283.551273 89.705443 
L 283.893818 98.24333 
L 284.236364 98.443958 
L 284.578909 111.637775 
L 284.921455 81.662278 
L 285.264 106.868661 
L 285.606545 93.368938 
L 285.949091 94.520447 
L 286.634182 92.212222 
L 286.976727 99.888792 
L 287.319273 92.643074 
L 287.661818 97.363357 
L 288.004364 86.327511 
L 288.346909 98.080929 
L 288.689455 101.19282 
L 289.032 84.968192 
L 289.374545 83.170163 
L 289.717091 79.304836 
L 290.059636 86.493961 
L 290.402182 86.70905 
L 290.744727 78.562486 
L 291.087273 77.668967 
L 291.429818 84.983714 
L 291.772364 83.698677 
L 292.114909 84.465997 
L 292.457455 95.342093 
L 292.8 101.706729 
L 293.142545 98.446609 
L 293.485091 97.450125 
L 293.827636 102.376048 
L 294.170182 104.138888 
L 294.512727 83.066331 
L 294.855273 88.20151 
L 295.197818 95.055469 
L 295.540364 83.672888 
L 295.882909 103.786657 
L 296.225455 98.245837 
L 296.568 75.067948 
L 297.253091 100.740469 
L 297.595636 112.101599 
L 297.938182 104.813703 
L 298.280727 121.419918 
L 298.623273 117.790504 
L 298.965818 124.523759 
L 299.308364 118.28836 
L 299.650909 103.50818 
L 299.993455 100.547169 
L 300.336 111.659034 
L 300.678545 107.505973 
L 301.021091 110.475564 
L 301.363636 99.219858 
L 301.706182 102.10861 
L 302.048727 108.27551 
L 302.391273 89.997658 
L 302.733818 96.426309 
L 303.076364 106.9173 
L 303.418909 101.518442 
L 303.761455 118.470043 
L 304.104 119.184193 
L 304.446545 106.147715 
L 304.789091 101.709717 
L 305.131636 107.277436 
L 305.474182 118.987374 
L 305.816727 107.004453 
L 306.159273 115.980665 
L 306.501818 120.822568 
L 306.844364 112.142525 
L 307.186909 88.275166 
L 307.529455 75.612369 
L 307.872 72.630101 
L 308.214545 71.226963 
L 308.557091 81.970497 
L 308.899636 75.773035 
L 309.242182 90.086306 
L 309.927273 81.149623 
L 310.269818 84.777687 
L 310.612364 78.6628 
L 310.954909 90.991443 
L 311.297455 85.643874 
L 311.64 89.537594 
L 311.982545 90.361988 
L 313.010182 80.196619 
L 313.352727 79.642412 
L 313.695273 76.65002 
L 314.037818 88.586182 
L 314.722909 74.500532 
L 315.065455 77.834887 
L 315.408 79.990979 
L 315.750545 65.943796 
L 316.093091 74.809475 
L 316.435636 101.47795 
L 316.778182 83.958982 
L 317.120727 96.950051 
L 317.463273 105.267645 
L 317.805818 106.650006 
L 318.148364 91.593083 
L 318.490909 83.911549 
L 319.176 94.473882 
L 319.861091 89.356442 
L 320.546182 116.691393 
L 320.888727 117.554639 
L 321.231273 110.466454 
L 321.573818 105.956053 
L 321.916364 107.365071 
L 322.601455 92.863754 
L 322.944 100.359461 
L 323.286545 100.258954 
L 323.629091 101.659247 
L 323.971636 95.785575 
L 324.314182 98.564083 
L 324.656727 86.686538 
L 324.999273 118.144277 
L 325.341818 108.745601 
L 325.684364 105.488759 
L 326.026909 107.662301 
L 326.369455 102.286774 
L 326.712 112.420279 
L 327.397091 103.852601 
L 327.739636 110.710031 
L 328.082182 107.280762 
L 328.424727 119.851681 
L 328.767273 113.569571 
L 329.109818 104.225511 
L 329.452364 110.18547 
L 329.794909 120.232014 
L 330.137455 104.140768 
L 330.48 113.319101 
L 330.822545 97.956562 
L 331.165091 118.689855 
L 331.507636 102.491305 
L 331.850182 116.258661 
L 332.192727 110.003016 
L 332.877818 107.516096 
L 333.220364 102.619963 
L 333.562909 105.608402 
L 333.905455 106.770035 
L 334.248 125.368688 
L 334.933091 106.961407 
L 335.275636 94.331003 
L 335.618182 114.477552 
L 335.960727 80.732075 
L 336.303273 94.702853 
L 336.645818 100.972236 
L 336.988364 117.060784 
L 337.330909 127.219067 
L 337.673455 127.570188 
L 338.016 132.31385 
L 338.701091 106.27348 
L 339.043636 120.762312 
L 339.386182 102.190124 
L 339.728727 125.218627 
L 340.071273 126.158905 
L 340.413818 118.333769 
L 340.756364 117.980622 
L 341.098909 125.682306 
L 341.441455 124.908865 
L 341.784 125.170133 
L 342.126545 113.805918 
L 342.469091 118.411089 
L 342.811636 115.745813 
L 343.154182 127.46356 
L 343.496727 129.575303 
L 343.839273 120.534257 
L 344.181818 106.406573 
L 344.524364 121.673619 
L 344.866909 121.065663 
L 345.209455 126.32227 
L 345.552 110.622203 
L 345.894545 111.873062 
L 346.237091 108.19525 
L 346.579636 115.873844 
L 346.922182 107.778088 
L 347.264727 116.11988 
L 347.607273 137.132519 
L 347.949818 128.065345 
L 348.292364 135.81991 
L 348.634909 112.004419 
L 348.977455 141.636749 
L 349.32 135.413642 
L 349.662545 141.260272 
L 350.005091 139.18526 
L 350.347636 134.761194 
L 350.690182 115.472011 
L 351.032727 126.56927 
L 351.375273 146.111864 
L 351.717818 139.665618 
L 352.060364 143.683802 
L 352.402909 126.368787 
L 352.745455 130.604373 
L 353.088 130.77092 
L 353.430545 127.532155 
L 353.773091 138.615 
L 354.115636 134.748612 
L 354.458182 116.499539 
L 354.800727 136.15575 
L 355.143273 134.13762 
L 355.485818 128.930231 
L 355.828364 140.945544 
L 356.170909 141.886448 
L 356.513455 136.334686 
L 356.856 124.108188 
L 357.198545 126.252277 
L 357.541091 131.471476 
L 357.883636 122.10341 
L 358.226182 98.669169 
L 358.911273 115.427229 
L 359.253818 116.569194 
L 359.596364 132.6924 
L 359.938909 117.254036 
L 360.281455 126.47797 
L 360.624 125.029521 
L 360.966545 125.549503 
L 361.309091 125.593225 
L 361.651636 128.450692 
L 361.994182 105.272321 
L 362.336727 112.5835 
L 362.679273 126.956207 
L 363.021818 130.055035 
L 363.364364 123.713248 
L 363.706909 113.139732 
L 364.049455 108.153746 
L 364.392 114.902571 
L 364.734545 129.105936 
L 365.077091 121.622908 
L 365.419636 123.826288 
L 366.104727 99.004287 
L 367.132364 123.178901 
L 367.817455 121.755807 
L 368.16 125.361457 
L 368.502545 110.853247 
L 368.845091 128.262791 
L 369.187636 118.100748 
L 369.530182 111.411648 
L 369.872727 107.456515 
L 370.215273 110.288627 
L 370.557818 118.76597 
L 371.242909 107.179918 
L 371.585455 106.850777 
L 371.928 115.063767 
L 372.270545 129.928016 
L 372.613091 113.365956 
L 372.955636 124.520481 
L 373.298182 130.765425 
L 373.640727 120.454189 
L 373.983273 114.790062 
L 374.325818 132.827662 
L 374.668364 120.453032 
L 375.010909 123.975384 
L 375.696 110.9619 
L 376.038545 118.32996 
L 376.723636 112.250166 
L 377.066182 117.481031 
L 377.408727 99.373196 
L 377.751273 116.995949 
L 378.093818 109.810872 
L 378.436364 109.264908 
L 378.778909 112.534861 
L 379.121455 132.065115 
L 379.464 127.084142 
L 379.806545 124.899031 
L 380.149091 126.270209 
L 380.491636 124.185219 
L 380.834182 118.680889 
L 381.519273 134.155215 
L 381.861818 104.30312 
L 382.204364 114.001339 
L 382.546909 127.733023 
L 382.889455 123.457764 
L 383.232 130.376945 
L 383.574545 114.009438 
L 383.917091 132.166537 
L 384.259636 136.430709 
L 384.602182 125.55201 
L 384.944727 125.223978 
L 385.287273 140.967959 
L 385.629818 129.104586 
L 385.972364 128.53881 
L 386.314909 129.11254 
L 386.657455 124.939812 
L 387 124.974953 
L 387.342545 128.85479 
L 387.685091 127.566766 
L 388.027636 119.729675 
L 388.370182 116.578594 
L 388.712727 117.121762 
L 389.055273 117.276885 
L 389.740364 128.009139 
L 390.082909 118.667633 
L 390.425455 115.060923 
L 390.768 105.459836 
L 391.110545 108.090453 
L 391.453091 116.228967 
L 391.795636 130.119002 
L 392.138182 131.780901 
L 392.480727 122.836842 
L 392.823273 123.536434 
L 393.165818 127.222778 
L 393.508364 117.191996 
L 393.850909 135.904026 
L 394.193455 131.303387 
L 394.536 123.179431 
L 394.878545 126.460376 
L 395.221091 132.982206 
L 395.563636 127.442061 
L 395.906182 135.144082 
L 396.248727 130.105264 
L 396.591273 132.637013 
L 396.933818 129.550719 
L 397.276364 118.36756 
L 397.618909 133.443523 
L 397.961455 133.575748 
L 398.304 135.98689 
L 398.989091 134.167796 
L 399.331636 130.556699 
L 399.674182 142.061768 
L 400.016727 127.971491 
L 400.359273 141.375577 
L 400.701818 132.181722 
L 401.044364 134.234656 
L 401.386909 138.650045 
L 401.729455 137.959081 
L 402.072 129.815748 
L 402.414545 125.866785 
L 402.757091 132.878807 
L 403.099636 146.408611 
L 403.784727 114.778155 
L 404.127273 109.979347 
L 404.469818 126.307567 
L 404.812364 131.876057 
L 405.154909 127.166813 
L 405.497455 110.783784 
L 405.84 127.49041 
L 406.182545 124.127084 
L 406.525091 126.392407 
L 406.867636 108.964642 
L 407.210182 98.852539 
L 407.552727 115.631857 
L 407.895273 118.60945 
L 408.237818 113.538142 
L 408.580364 106.320239 
L 408.922909 117.49366 
L 409.265455 119.090387 
L 409.608 113.787745 
L 409.950545 118.123645 
L 410.635636 112.096634 
L 410.978182 107.118843 
L 411.320727 112.464627 
L 411.663273 95.160651 
L 412.005818 125.107419 
L 412.348364 108.04167 
L 412.690909 112.575353 
L 413.033455 122.392493 
L 413.376 110.341315 
L 413.718545 110.751535 
L 414.061091 115.676495 
L 414.403636 111.402441 
L 414.746182 101.420731 
L 415.088727 106.095557 
L 415.431273 101.665369 
L 415.773818 100.725526 
L 416.116364 100.511931 
L 416.458909 94.04086 
L 416.801455 117.235622 
L 417.144 106.393943 
L 417.486545 108.202239 
L 417.829091 132.372419 
L 418.171636 127.016993 
L 418.514182 113.071908 
L 418.856727 113.206495 
L 419.199273 96.811704 
L 419.541818 100.499784 
L 420.226909 127.333167 
L 420.569455 111.28193 
L 420.912 125.784163 
L 421.254545 129.021916 
L 421.597091 128.395883 
L 421.939636 125.581993 
L 422.282182 128.606682 
L 422.624727 134.130341 
L 422.967273 128.940595 
L 423.309818 121.829609 
L 423.652364 110.958333 
L 423.994909 114.711344 
L 424.337455 106.016213 
L 424.68 100.218318 
L 425.365091 132.707296 
L 425.707636 121.77962 
L 426.050182 120.007863 
L 426.392727 112.534765 
L 426.392727 112.534765 
" clip-path="url(#p800502439c)" style="fill: none; stroke: #38a7d0; stroke-opacity: 0.4; stroke-width: 2; stroke-linecap: square"/>
   </g>
   <g id="line2d_13">
    <path d="M 100.974545 192.755751 
L 101.317091 190.801221 
L 102.002182 189.015883 
L 103.029818 187.319357 
L 103.372364 186.997915 
L 103.714909 186.492268 
L 104.4 185.832675 
L 105.085091 185.172991 
L 105.427636 185.020029 
L 106.112727 184.339139 
L 106.797818 184.061494 
L 107.482909 183.941987 
L 108.168 183.348192 
L 108.510545 183.302553 
L 110.223273 182.116938 
L 110.908364 181.082951 
L 112.278545 179.31232 
L 113.648727 178.440263 
L 114.676364 177.850431 
L 115.018909 178.01021 
L 115.704 177.638114 
L 116.389091 176.992277 
L 117.074182 175.766 
L 117.416727 175.486093 
L 117.759273 174.683261 
L 118.101818 174.350662 
L 118.444364 173.832876 
L 119.129455 173.363713 
L 120.842182 170.340261 
L 122.897455 165.251422 
L 123.24 164.002419 
L 123.925091 160.889473 
L 124.610182 159.02381 
L 125.295273 157.672529 
L 128.035636 152.965079 
L 128.720727 152.036017 
L 129.748364 150.215707 
L 130.090909 149.89359 
L 130.433455 149.372619 
L 130.776 149.129298 
L 131.461091 148.212349 
L 132.488727 146.35553 
L 133.516364 145.414399 
L 133.858909 145.240577 
L 134.201455 145.322611 
L 134.544 144.991379 
L 134.886545 144.843475 
L 135.229091 144.223274 
L 136.599273 142.76683 
L 137.284364 141.698163 
L 137.969455 140.193203 
L 139.682182 138.820085 
L 140.367273 139.076322 
L 140.709818 139.715202 
L 141.394909 139.585059 
L 142.765091 138.181418 
L 143.450182 137.323228 
L 145.848 134.204987 
L 146.533091 133.779978 
L 148.588364 130.104359 
L 149.273455 129.535023 
L 150.301091 128.830658 
L 150.643636 128.445947 
L 150.986182 128.312885 
L 151.328727 127.789964 
L 151.671273 127.66403 
L 152.013818 127.813716 
L 152.356364 128.199785 
L 152.698909 128.368676 
L 153.384 128.13758 
L 153.726545 128.224321 
L 154.411636 129.358182 
L 154.754182 129.959016 
L 155.439273 130.525079 
L 156.809455 132.598033 
L 157.152 132.774306 
L 158.864727 134.576093 
L 159.207273 135.348894 
L 159.892364 135.623797 
L 160.234909 136.020008 
L 160.577455 136.10899 
L 161.605091 137.213232 
L 162.290182 138.250191 
L 162.632727 138.485124 
L 163.317818 138.758649 
L 164.002909 139.454732 
L 164.345455 139.830435 
L 164.688 139.786463 
L 165.030545 140.082911 
L 165.373091 140.216892 
L 165.715636 140.194032 
L 166.058182 140.476098 
L 166.400727 140.473772 
L 166.743273 140.198589 
L 167.085818 140.204716 
L 167.428364 139.948751 
L 167.770909 140.088854 
L 168.113455 139.855642 
L 168.456 139.925965 
L 168.798545 139.591718 
L 169.141091 139.486109 
L 170.168727 138.624158 
L 170.511273 138.243988 
L 170.853818 137.38061 
L 171.538909 135.122849 
L 172.224 133.143417 
L 172.909091 131.31832 
L 173.251636 130.456458 
L 173.594182 129.951899 
L 174.621818 127.398437 
L 175.306909 126.297444 
L 175.649455 126.039426 
L 175.992 125.977228 
L 176.677091 124.887524 
L 177.019636 124.768924 
L 177.362182 124.530818 
L 178.732364 122.371642 
L 179.417455 120.57769 
L 180.102545 119.511171 
L 180.445091 118.898255 
L 181.472727 116.166475 
L 183.528 113.865243 
L 183.870545 113.786842 
L 185.240727 112.112647 
L 186.268364 110.619966 
L 186.610909 110.274038 
L 186.953455 110.347104 
L 187.638545 110.973254 
L 189.693818 116.512641 
L 190.721455 117.396194 
L 191.064 118.094237 
L 191.406545 119.189623 
L 192.434182 120.086485 
L 192.776727 120.078067 
L 193.119273 120.199765 
L 194.489455 121.50966 
L 195.174545 122.296811 
L 195.517091 122.346903 
L 195.859636 122.664436 
L 196.202182 123.672862 
L 196.887273 124.724134 
L 197.914909 125.828041 
L 198.257455 125.977104 
L 198.6 126.489842 
L 198.942545 126.40572 
L 199.285091 126.152749 
L 199.627636 126.167305 
L 199.970182 126.33861 
L 200.312727 125.796833 
L 200.655273 125.565186 
L 200.997818 125.538302 
L 201.340364 125.270262 
L 201.682909 125.324003 
L 202.025455 125.743679 
L 202.368 125.858311 
L 203.395636 125.215549 
L 203.738182 124.910241 
L 204.423273 123.683035 
L 204.765818 123.295166 
L 205.793455 120.455361 
L 206.821091 117.021501 
L 207.848727 114.163817 
L 208.533818 112.623266 
L 209.218909 112.171845 
L 210.589091 109.442869 
L 210.931636 108.318531 
L 211.616727 107.05499 
L 212.644364 106.430506 
L 212.986909 106.291009 
L 213.672 104.508422 
L 214.357091 103.618598 
L 215.042182 102.592724 
L 215.384727 102.397838 
L 216.412364 102.266462 
L 216.754909 101.837962 
L 217.097455 101.734052 
L 217.44 101.29684 
L 217.782545 101.501029 
L 218.467636 101.332788 
L 219.152727 101.389416 
L 219.495273 101.75499 
L 219.837818 101.906237 
L 220.180364 101.916481 
L 220.522909 102.27242 
L 220.865455 102.283837 
L 221.893091 101.414929 
L 222.578182 101.924579 
L 222.920727 102.026426 
L 223.605818 103.29599 
L 224.290909 104.831813 
L 226.003636 107.438362 
L 226.346182 107.446427 
L 227.373818 108.990543 
L 227.716364 109.563314 
L 228.058909 110.509254 
L 228.401455 110.92347 
L 228.744 110.943955 
L 229.086545 110.59991 
L 229.429091 110.548274 
L 229.771636 110.713749 
L 230.114182 110.71956 
L 230.799273 111.993748 
L 231.141818 111.950117 
L 231.484364 112.089045 
L 231.826909 112.348073 
L 232.512 113.481341 
L 232.854545 113.39923 
L 233.197091 113.510133 
L 233.539636 113.754754 
L 234.224727 114.470163 
L 234.567273 115.121396 
L 235.594909 115.994136 
L 235.937455 115.807646 
L 236.28 115.078795 
L 236.622545 114.684488 
L 237.307636 114.5644 
L 237.650182 114.800802 
L 237.992727 114.668037 
L 238.335273 115.066238 
L 239.362909 114.838926 
L 240.048 115.257299 
L 241.075636 114.845234 
L 241.418182 114.409528 
L 241.760727 114.489876 
L 242.103273 114.156467 
L 242.788364 113.839093 
L 243.130909 113.50341 
L 243.473455 113.578621 
L 243.816 113.524223 
L 244.843636 112.819549 
L 245.528727 111.66205 
L 245.871273 111.622247 
L 246.213818 111.698356 
L 247.241455 110.227338 
L 247.584 110.089891 
L 247.926545 109.667118 
L 248.269091 109.552604 
L 248.611636 109.910872 
L 249.639273 109.192399 
L 250.324364 109.448877 
L 251.009455 109.071991 
L 251.352 108.541354 
L 251.694545 108.616335 
L 252.379636 108.418156 
L 252.722182 108.077223 
L 253.064727 108.22322 
L 253.407273 108.508322 
L 254.434909 108.725972 
L 254.777455 108.300893 
L 255.462545 108.17142 
L 256.147636 108.588612 
L 256.490182 108.851648 
L 257.860364 108.451213 
L 258.202909 108.515898 
L 258.545455 108.702391 
L 259.573091 108.711392 
L 259.915636 108.572063 
L 260.600727 108.784382 
L 260.943273 108.604521 
L 261.285818 108.673347 
L 261.628364 109.163335 
L 261.970909 109.3021 
L 262.656 110.573786 
L 263.341091 111.33261 
L 263.683636 111.732188 
L 264.368727 112.999924 
L 264.711273 113.208112 
L 265.396364 114.301695 
L 265.738909 114.15453 
L 266.766545 115.535212 
L 267.451636 116.02854 
L 267.794182 116.172355 
L 268.479273 117.594956 
L 269.506909 118.215427 
L 269.849455 118.338449 
L 270.534545 119.245424 
L 271.562182 119.68897 
L 271.904727 119.539032 
L 272.589818 120.125879 
L 272.932364 120.162568 
L 273.274909 120.040756 
L 273.617455 119.443643 
L 274.645091 119.232338 
L 274.987636 118.551806 
L 275.330182 117.534273 
L 275.672727 117.116914 
L 277.042909 113.263197 
L 277.728 110.7866 
L 278.070545 110.114787 
L 278.413091 108.806856 
L 279.098182 107.451274 
L 279.440727 106.212424 
L 280.125818 104.542329 
L 281.496 100.352168 
L 282.866182 94.962922 
L 283.208727 94.218928 
L 283.551273 93.061221 
L 284.236364 91.848555 
L 284.578909 91.445075 
L 284.921455 91.447071 
L 285.264 90.562251 
L 285.606545 90.166358 
L 286.634182 88.027011 
L 286.976727 87.652831 
L 288.004364 85.64749 
L 288.689455 84.707476 
L 289.032 84.818486 
L 290.059636 82.885611 
L 290.402182 82.598118 
L 290.744727 82.498513 
L 291.429818 81.329119 
L 291.772364 81.147868 
L 292.114909 81.21992 
L 292.457455 81.536944 
L 292.8 81.667441 
L 294.855273 85.658163 
L 295.197818 85.822589 
L 295.540364 86.568763 
L 295.882909 86.301767 
L 296.225455 86.585151 
L 296.568 87.101936 
L 296.910545 86.723297 
L 297.253091 86.865221 
L 298.280727 88.980455 
L 299.650909 94.011799 
L 299.993455 94.84688 
L 300.336 95.14046 
L 300.678545 95.931807 
L 301.363636 96.532462 
L 301.706182 96.54798 
L 302.048727 96.357397 
L 302.391273 96.889662 
L 302.733818 96.552242 
L 303.076364 96.613389 
L 303.761455 97.025973 
L 304.446545 97.937037 
L 304.789091 98.20713 
L 305.131636 98.294057 
L 305.816727 99.131184 
L 306.159273 99.247417 
L 307.186909 101.277468 
L 307.529455 101.313093 
L 308.214545 100.972511 
L 309.242182 100.624894 
L 309.584727 100.7373 
L 309.927273 100.533425 
L 310.954909 99.473158 
L 311.297455 99.245466 
L 311.64 98.875565 
L 312.325091 99.0482 
L 312.667636 98.878506 
L 313.010182 98.846593 
L 313.695273 98.002723 
L 314.380364 98.022712 
L 314.722909 97.629218 
L 316.093091 94.472108 
L 316.435636 93.477822 
L 317.120727 92.75063 
L 318.148364 92.53374 
L 318.833455 91.849925 
L 319.518545 91.328003 
L 319.861091 91.373105 
L 320.546182 91.146316 
L 320.888727 91.449775 
L 321.231273 91.431467 
L 321.573818 91.257112 
L 321.916364 91.253279 
L 322.258909 91.366386 
L 322.601455 91.229008 
L 322.944 90.706536 
L 323.286545 90.573636 
L 324.314182 89.548796 
L 324.999273 89.976058 
L 325.684364 91.636714 
L 328.424727 95.425432 
L 329.109818 96.590228 
L 329.452364 96.867498 
L 329.794909 97.339793 
L 330.137455 98.102888 
L 330.48 98.581771 
L 330.822545 99.255305 
L 331.507636 100.28351 
L 331.850182 100.71202 
L 332.535273 102.190545 
L 332.877818 102.761783 
L 333.562909 104.149439 
L 333.905455 104.232048 
L 334.933091 105.483973 
L 335.618182 105.544959 
L 335.960727 106.15628 
L 336.303273 105.974638 
L 336.645818 105.979218 
L 336.988364 106.153607 
L 337.673455 107.199121 
L 338.701091 107.902904 
L 339.043636 107.909252 
L 339.386182 108.177197 
L 339.728727 108.212829 
L 340.413818 109.375915 
L 341.098909 110.063839 
L 342.126545 111.958341 
L 342.469091 111.871574 
L 343.154182 112.270025 
L 344.181818 113.3741 
L 344.524364 113.336349 
L 345.552 114.280712 
L 345.894545 114.096123 
L 346.237091 114.062193 
L 346.922182 114.255355 
L 347.264727 114.006276 
L 347.607273 114.245859 
L 348.634909 115.666904 
L 348.977455 115.857166 
L 350.005091 117.527088 
L 350.690182 118.803296 
L 351.032727 119.000568 
L 352.060364 120.272044 
L 352.745455 121.647248 
L 353.088 121.969784 
L 353.430545 122.970561 
L 354.458182 124.733759 
L 354.800727 124.519369 
L 355.143273 124.69108 
L 355.485818 124.727555 
L 355.828364 124.905808 
L 356.170909 125.599249 
L 356.513455 126.021732 
L 356.856 126.704623 
L 357.541091 126.684282 
L 357.883636 126.947036 
L 358.226182 127.029492 
L 358.911273 126.116975 
L 359.253818 125.922117 
L 359.596364 125.977383 
L 359.938909 126.263009 
L 360.624 126.273462 
L 360.966545 126.182546 
L 361.309091 126.282851 
L 361.651636 126.666584 
L 361.994182 126.802125 
L 362.679273 126.211483 
L 363.706909 127.212163 
L 365.419636 126.851267 
L 365.762182 126.611395 
L 366.104727 126.581333 
L 366.447273 125.728684 
L 367.132364 124.68083 
L 367.817455 124.112122 
L 368.16 124.237798 
L 368.502545 124.213642 
L 368.845091 123.50847 
L 369.187636 123.280413 
L 369.530182 122.768752 
L 369.872727 122.469609 
L 370.557818 121.597006 
L 370.900364 121.421683 
L 371.585455 120.366297 
L 371.928 120.173322 
L 372.270545 119.751482 
L 372.613091 119.66729 
L 373.983273 118.487473 
L 374.325818 118.30111 
L 374.668364 118.432618 
L 375.010909 118.212249 
L 375.353455 118.249688 
L 375.696 118.626619 
L 376.381091 118.777988 
L 376.723636 118.748091 
L 377.066182 118.339247 
L 377.408727 118.343787 
L 377.751273 117.801691 
L 378.093818 117.64102 
L 379.121455 116.681364 
L 379.464 117.21722 
L 379.806545 117.507233 
L 380.834182 117.399832 
L 381.176727 117.510655 
L 381.861818 118.264394 
L 382.204364 117.768337 
L 382.546909 117.615906 
L 382.889455 117.694041 
L 383.232 117.953169 
L 383.574545 118.580622 
L 383.917091 118.700879 
L 384.602182 119.283554 
L 385.287273 119.417314 
L 385.972364 120.094471 
L 386.314909 120.099991 
L 387 120.59079 
L 388.027636 121.488498 
L 388.712727 121.802777 
L 389.055273 122.008197 
L 389.397818 122.052459 
L 389.740364 121.919101 
L 390.082909 122.211965 
L 390.425455 122.094908 
L 391.110545 121.480931 
L 391.453091 121.346939 
L 391.795636 121.014965 
L 393.508364 121.900165 
L 393.850909 121.942517 
L 394.193455 122.415594 
L 394.536 122.692041 
L 394.878545 123.168166 
L 395.221091 123.357455 
L 396.248727 124.636609 
L 396.591273 124.597412 
L 397.276364 124.801503 
L 397.618909 124.64345 
L 398.989091 125.329328 
L 399.331636 125.926621 
L 400.016727 126.544304 
L 400.359273 126.634578 
L 400.701818 126.854551 
L 401.044364 127.217996 
L 401.729455 127.303745 
L 402.072 127.551887 
L 402.414545 127.643722 
L 402.757091 127.341699 
L 403.099636 127.417183 
L 403.442182 127.774579 
L 403.784727 127.835022 
L 404.812364 127.280932 
L 405.497455 127.515861 
L 405.84 127.399965 
L 406.525091 127.744342 
L 406.867636 127.806987 
L 407.552727 127.029795 
L 407.895273 127.041214 
L 408.237818 127.304206 
L 408.580364 127.41316 
L 410.978182 126.080835 
L 412.005818 124.567981 
L 412.348364 124.540922 
L 412.690909 124.042111 
L 413.718545 123.094466 
L 414.403636 122.379272 
L 414.746182 122.23997 
L 417.829091 116.685074 
L 418.171636 116.688888 
L 418.514182 116.544535 
L 420.569455 113.619385 
L 420.912 113.20233 
L 421.254545 113.42245 
L 421.597091 113.803302 
L 421.939636 113.845068 
L 422.282182 113.719187 
L 422.624727 113.747984 
L 422.967273 114.214915 
L 423.652364 114.197969 
L 423.994909 113.889288 
L 424.68 114.147495 
L 425.022545 113.839225 
L 425.365091 113.776601 
L 426.050182 114.469172 
L 426.392727 114.519456 
L 426.392727 114.519456 
" clip-path="url(#p800502439c)" style="fill: none; stroke: #38a7d0; stroke-width: 2; stroke-linecap: square"/>
   </g>
   <g id="patch_3">
    <path d="M 66.72 287.7 
L 66.72 37.68 
" style="fill: none; stroke: #000000; stroke-linejoin: miter; stroke-linecap: square"/>
   </g>
   <g id="patch_4">
    <path d="M 443.52 287.7 
L 443.52 37.68 
" style="fill: none; stroke: #000000; stroke-linejoin: miter; stroke-linecap: square"/>
   </g>
   <g id="patch_5">
    <path d="M 66.72 287.7 
L 443.52 287.7 
" style="fill: none; stroke: #000000; stroke-linejoin: miter; stroke-linecap: square"/>
   </g>
   <g id="patch_6">
    <path d="M 66.72 37.68 
L 443.52 37.68 
" style="fill: none; stroke: #000000; stroke-linejoin: miter; stroke-linecap: square"/>
   </g>
   <g id="text_14">
    <!--   -->
    <g transform="translate(252.069 31.68) scale(0.192 -0.192)">
     <use xlink:href="#DejaVuSans-20"/>
    </g>
   </g>
   <g id="legend_1">
    <g id="line2d_14">
     <path d="M 79.32 56.017812 
L 93.32 56.017812 
L 107.32 56.017812 
" style="fill: none; stroke: #38a7d0; stroke-width: 2; stroke-linecap: square"/>
    </g>
    <g id="text_15">
     <!-- ssDNA-hnRNPA2B1 -->
     <g transform="translate(118.52 60.917812) scale(0.14 -0.14)">
      <defs>
       <path id="DejaVuSans-4e" d="M 628 4666 
L 1478 4666 
L 3547 763 
L 3547 4666 
L 4159 4666 
L 4159 0 
L 3309 0 
L 1241 3903 
L 1241 0 
L 628 0 
L 628 4666 
z
" transform="scale(0.015625)"/>
       <path id="DejaVuSans-41" d="M 2188 4044 
L 1331 1722 
L 3047 1722 
L 2188 4044 
z
M 1831 4666 
L 2547 4666 
L 4325 0 
L 3669 0 
L 3244 1197 
L 1141 1197 
L 716 0 
L 50 0 
L 1831 4666 
z
" transform="scale(0.015625)"/>
       <path id="DejaVuSans-2d" d="M 313 2009 
L 1997 2009 
L 1997 1497 
L 313 1497 
L 313 2009 
z
" transform="scale(0.015625)"/>
       <path id="DejaVuSans-68" d="M 3513 2113 
L 3513 0 
L 2938 0 
L 2938 2094 
Q 2938 2591 2744 2837 
Q 2550 3084 2163 3084 
Q 1697 3084 1428 2787 
Q 1159 2491 1159 1978 
L 1159 0 
L 581 0 
L 581 4863 
L 1159 4863 
L 1159 2956 
Q 1366 3272 1645 3428 
Q 1925 3584 2291 3584 
Q 2894 3584 3203 3211 
Q 3513 2838 3513 2113 
z
" transform="scale(0.015625)"/>
       <path id="DejaVuSans-50" d="M 1259 4147 
L 1259 2394 
L 2053 2394 
Q 2494 2394 2734 2622 
Q 2975 2850 2975 3272 
Q 2975 3691 2734 3919 
Q 2494 4147 2053 4147 
L 1259 4147 
z
M 628 4666 
L 2053 4666 
Q 2838 4666 3239 4311 
Q 3641 3956 3641 3272 
Q 3641 2581 3239 2228 
Q 2838 1875 2053 1875 
L 1259 1875 
L 1259 0 
L 628 0 
L 628 4666 
z
" transform="scale(0.015625)"/>
       <path id="DejaVuSans-42" d="M 1259 2228 
L 1259 519 
L 2272 519 
Q 2781 519 3026 730 
Q 3272 941 3272 1375 
Q 3272 1813 3026 2020 
Q 2781 2228 2272 2228 
L 1259 2228 
z
M 1259 4147 
L 1259 2741 
L 2194 2741 
Q 2656 2741 2882 2914 
Q 3109 3088 3109 3444 
Q 3109 3797 2882 3972 
Q 2656 4147 2194 4147 
L 1259 4147 
z
M 628 4666 
L 2241 4666 
Q 2963 4666 3353 4366 
Q 3744 4066 3744 3513 
Q 3744 3084 3544 2831 
Q 3344 2578 2956 2516 
Q 3422 2416 3680 2098 
Q 3938 1781 3938 1306 
Q 3938 681 3513 340 
Q 3088 0 2303 0 
L 628 0 
L 628 4666 
z
" transform="scale(0.015625)"/>
      </defs>
      <use xlink:href="#DejaVuSans-73"/>
      <use xlink:href="#DejaVuSans-73" x="52.099609"/>
      <use xlink:href="#DejaVuSans-44" x="104.199219"/>
      <use xlink:href="#DejaVuSans-4e" x="181.201172"/>
      <use xlink:href="#DejaVuSans-41" x="256.005859"/>
      <use xlink:href="#DejaVuSans-2d" x="322.164062"/>
      <use xlink:href="#DejaVuSans-68" x="358.248047"/>
      <use xlink:href="#DejaVuSans-6e" x="421.626953"/>
      <use xlink:href="#DejaVuSans-52" x="485.005859"/>
      <use xlink:href="#DejaVuSans-4e" x="554.488281"/>
      <use xlink:href="#DejaVuSans-50" x="629.292969"/>
      <use xlink:href="#DejaVuSans-41" x="683.220703"/>
      <use xlink:href="#DejaVuSans-32" x="751.628906"/>
      <use xlink:href="#DejaVuSans-42" x="815.251953"/>
      <use xlink:href="#DejaVuSans-31" x="883.855469"/>
     </g>
    </g>
   </g>
  </g>
 </g>
 <defs>
  <clipPath id="p800502439c">
   <rect x="66.72" y="37.68" width="376.8" height="250.02"/>
  </clipPath>
 </defs>
</svg>
