<?xml version="1.0" encoding="utf-8" standalone="no"?>
<!DOCTYPE svg PUBLIC "-//W3C//DTD SVG 1.1//EN"
  "http://www.w3.org/Graphics/SVG/1.1/DTD/svg11.dtd">
<svg xmlns:xlink="http://www.w3.org/1999/xlink" width="460.8pt" height="345.6pt" viewBox="0 0 460.8 345.6" xmlns="http://www.w3.org/2000/svg" version="1.1">
 <metadata>
  <rdf:RDF xmlns:dc="http://purl.org/dc/elements/1.1/" xmlns:cc="http://creativecommons.org/ns#" xmlns:rdf="http://www.w3.org/1999/02/22-rdf-syntax-ns#">
   <cc:Work>
    <dc:type rdf:resource="http://purl.org/dc/dcmitype/StillImage"/>
    <dc:date>2025-01-15T10:50:32.497782</dc:date>
    <dc:format>image/svg+xml</dc:format>
    <dc:creator>
     <cc:Agent>
      <dc:title>Matplotlib v3.9.2, https://matplotlib.org/</dc:title>
     </cc:Agent>
    </dc:creator>
   </cc:Work>
  </rdf:RDF>
 </metadata>
 <defs>
  <style type="text/css">*{stroke-linejoin: round; stroke-linecap: butt}</style>
 </defs>
 <g id="figure_1">
  <g id="patch_1">
   <path d="M 0 345.6 
L 460.8 345.6 
L 460.8 0 
L 0 0 
z
" style="fill: #ffffff"/>
  </g>
  <g id="axes_1">
   <g id="patch_2">
    <path d="M 66.72 287.7 
L 443.52 287.7 
L 443.52 37.68 
L 66.72 37.68 
z
" style="fill: #ffffff"/>
   </g>
   <g id="matplotlib.axis_1">
    <g id="xtick_1">
     <g id="line2d_1">
      <defs>
       <path id="m0fbf4cb933" d="M 0 0 
L 0 -3.5 
" style="stroke: #000000; stroke-width: 0.8"/>
      </defs>
      <g>
       <use xlink:href="#m0fbf4cb933" x="83.847273" y="287.7" style="stroke: #000000; stroke-width: 0.8"/>
      </g>
     </g>
     <g id="text_1">
      <!-- 0 -->
      <g transform="translate(78.757273 303.3575) scale(0.16 -0.16)">
       <defs>
        <path id="DejaVuSans-30" d="M 2034 4250 
Q 1547 4250 1301 3770 
Q 1056 3291 1056 2328 
Q 1056 1369 1301 889 
Q 1547 409 2034 409 
Q 2525 409 2770 889 
Q 3016 1369 3016 2328 
Q 3016 3291 2770 3770 
Q 2525 4250 2034 4250 
z
M 2034 4750 
Q 2819 4750 3233 4129 
Q 3647 3509 3647 2328 
Q 3647 1150 3233 529 
Q 2819 -91 2034 -91 
Q 1250 -91 836 529 
Q 422 1150 422 2328 
Q 422 3509 836 4129 
Q 1250 4750 2034 4750 
z
" transform="scale(0.015625)"/>
       </defs>
       <use xlink:href="#DejaVuSans-30"/>
      </g>
     </g>
    </g>
    <g id="xtick_2">
     <g id="line2d_2">
      <g>
       <use xlink:href="#m0fbf4cb933" x="152.356364" y="287.7" style="stroke: #000000; stroke-width: 0.8"/>
      </g>
     </g>
     <g id="text_2">
      <!-- 20 -->
      <g transform="translate(142.176364 303.3575) scale(0.16 -0.16)">
       <defs>
        <path id="DejaVuSans-32" d="M 1228 531 
L 3431 531 
L 3431 0 
L 469 0 
L 469 531 
Q 828 903 1448 1529 
Q 2069 2156 2228 2338 
Q 2531 2678 2651 2914 
Q 2772 3150 2772 3378 
Q 2772 3750 2511 3984 
Q 2250 4219 1831 4219 
Q 1534 4219 1204 4116 
Q 875 4013 500 3803 
L 500 4441 
Q 881 4594 1212 4672 
Q 1544 4750 1819 4750 
Q 2544 4750 2975 4387 
Q 3406 4025 3406 3419 
Q 3406 3131 3298 2873 
Q 3191 2616 2906 2266 
Q 2828 2175 2409 1742 
Q 1991 1309 1228 531 
z
" transform="scale(0.015625)"/>
       </defs>
       <use xlink:href="#DejaVuSans-32"/>
       <use xlink:href="#DejaVuSans-30" x="63.623047"/>
      </g>
     </g>
    </g>
    <g id="xtick_3">
     <g id="line2d_3">
      <g>
       <use xlink:href="#m0fbf4cb933" x="220.865455" y="287.7" style="stroke: #000000; stroke-width: 0.8"/>
      </g>
     </g>
     <g id="text_3">
      <!-- 40 -->
      <g transform="translate(210.685455 303.3575) scale(0.16 -0.16)">
       <defs>
        <path id="DejaVuSans-34" d="M 2419 4116 
L 825 1625 
L 2419 1625 
L 2419 4116 
z
M 2253 4666 
L 3047 4666 
L 3047 1625 
L 3713 1625 
L 3713 1100 
L 3047 1100 
L 3047 0 
L 2419 0 
L 2419 1100 
L 313 1100 
L 313 1709 
L 2253 4666 
z
" transform="scale(0.015625)"/>
       </defs>
       <use xlink:href="#DejaVuSans-34"/>
       <use xlink:href="#DejaVuSans-30" x="63.623047"/>
      </g>
     </g>
    </g>
    <g id="xtick_4">
     <g id="line2d_4">
      <g>
       <use xlink:href="#m0fbf4cb933" x="289.374545" y="287.7" style="stroke: #000000; stroke-width: 0.8"/>
      </g>
     </g>
     <g id="text_4">
      <!-- 60 -->
      <g transform="translate(279.194545 303.3575) scale(0.16 -0.16)">
       <defs>
        <path id="DejaVuSans-36" d="M 2113 2584 
Q 1688 2584 1439 2293 
Q 1191 2003 1191 1497 
Q 1191 994 1439 701 
Q 1688 409 2113 409 
Q 2538 409 2786 701 
Q 3034 994 3034 1497 
Q 3034 2003 2786 2293 
Q 2538 2584 2113 2584 
z
M 3366 4563 
L 3366 3988 
Q 3128 4100 2886 4159 
Q 2644 4219 2406 4219 
Q 1781 4219 1451 3797 
Q 1122 3375 1075 2522 
Q 1259 2794 1537 2939 
Q 1816 3084 2150 3084 
Q 2853 3084 3261 2657 
Q 3669 2231 3669 1497 
Q 3669 778 3244 343 
Q 2819 -91 2113 -91 
Q 1303 -91 875 529 
Q 447 1150 447 2328 
Q 447 3434 972 4092 
Q 1497 4750 2381 4750 
Q 2619 4750 2861 4703 
Q 3103 4656 3366 4563 
z
" transform="scale(0.015625)"/>
       </defs>
       <use xlink:href="#DejaVuSans-36"/>
       <use xlink:href="#DejaVuSans-30" x="63.623047"/>
      </g>
     </g>
    </g>
    <g id="xtick_5">
     <g id="line2d_5">
      <g>
       <use xlink:href="#m0fbf4cb933" x="357.883636" y="287.7" style="stroke: #000000; stroke-width: 0.8"/>
      </g>
     </g>
     <g id="text_5">
      <!-- 80 -->
      <g transform="translate(347.703636 303.3575) scale(0.16 -0.16)">
       <defs>
        <path id="DejaVuSans-38" d="M 2034 2216 
Q 1584 2216 1326 1975 
Q 1069 1734 1069 1313 
Q 1069 891 1326 650 
Q 1584 409 2034 409 
Q 2484 409 2743 651 
Q 3003 894 3003 1313 
Q 3003 1734 2745 1975 
Q 2488 2216 2034 2216 
z
M 1403 2484 
Q 997 2584 770 2862 
Q 544 3141 544 3541 
Q 544 4100 942 4425 
Q 1341 4750 2034 4750 
Q 2731 4750 3128 4425 
Q 3525 4100 3525 3541 
Q 3525 3141 3298 2862 
Q 3072 2584 2669 2484 
Q 3125 2378 3379 2068 
Q 3634 1759 3634 1313 
Q 3634 634 3220 271 
Q 2806 -91 2034 -91 
Q 1263 -91 848 271 
Q 434 634 434 1313 
Q 434 1759 690 2068 
Q 947 2378 1403 2484 
z
M 1172 3481 
Q 1172 3119 1398 2916 
Q 1625 2713 2034 2713 
Q 2441 2713 2670 2916 
Q 2900 3119 2900 3481 
Q 2900 3844 2670 4047 
Q 2441 4250 2034 4250 
Q 1625 4250 1398 4047 
Q 1172 3844 1172 3481 
z
" transform="scale(0.015625)"/>
       </defs>
       <use xlink:href="#DejaVuSans-38"/>
       <use xlink:href="#DejaVuSans-30" x="63.623047"/>
      </g>
     </g>
    </g>
    <g id="xtick_6">
     <g id="line2d_6">
      <g>
       <use xlink:href="#m0fbf4cb933" x="426.392727" y="287.7" style="stroke: #000000; stroke-width: 0.8"/>
      </g>
     </g>
     <g id="text_6">
      <!-- 100 -->
      <g transform="translate(411.122727 303.3575) scale(0.16 -0.16)">
       <defs>
        <path id="DejaVuSans-31" d="M 794 531 
L 1825 531 
L 1825 4091 
L 703 3866 
L 703 4441 
L 1819 4666 
L 2450 4666 
L 2450 531 
L 3481 531 
L 3481 0 
L 794 0 
L 794 531 
z
" transform="scale(0.015625)"/>
       </defs>
       <use xlink:href="#DejaVuSans-31"/>
       <use xlink:href="#DejaVuSans-30" x="63.623047"/>
       <use xlink:href="#DejaVuSans-30" x="127.246094"/>
      </g>
     </g>
    </g>
    <g id="text_7">
     <!-- Time(ns) -->
     <g transform="translate(220.06625 322.8425) scale(0.16 -0.16)">
      <defs>
       <path id="DejaVuSans-54" d="M -19 4666 
L 3928 4666 
L 3928 4134 
L 2272 4134 
L 2272 0 
L 1638 0 
L 1638 4134 
L -19 4134 
L -19 4666 
z
" transform="scale(0.015625)"/>
       <path id="DejaVuSans-69" d="M 603 3500 
L 1178 3500 
L 1178 0 
L 603 0 
L 603 3500 
z
M 603 4863 
L 1178 4863 
L 1178 4134 
L 603 4134 
L 603 4863 
z
" transform="scale(0.015625)"/>
       <path id="DejaVuSans-6d" d="M 3328 2828 
Q 3544 3216 3844 3400 
Q 4144 3584 4550 3584 
Q 5097 3584 5394 3201 
Q 5691 2819 5691 2113 
L 5691 0 
L 5113 0 
L 5113 2094 
Q 5113 2597 4934 2840 
Q 4756 3084 4391 3084 
Q 3944 3084 3684 2787 
Q 3425 2491 3425 1978 
L 3425 0 
L 2847 0 
L 2847 2094 
Q 2847 2600 2669 2842 
Q 2491 3084 2119 3084 
Q 1678 3084 1418 2786 
Q 1159 2488 1159 1978 
L 1159 0 
L 581 0 
L 581 3500 
L 1159 3500 
L 1159 2956 
Q 1356 3278 1631 3431 
Q 1906 3584 2284 3584 
Q 2666 3584 2933 3390 
Q 3200 3197 3328 2828 
z
" transform="scale(0.015625)"/>
       <path id="DejaVuSans-65" d="M 3597 1894 
L 3597 1613 
L 953 1613 
Q 991 1019 1311 708 
Q 1631 397 2203 397 
Q 2534 397 2845 478 
Q 3156 559 3463 722 
L 3463 178 
Q 3153 47 2828 -22 
Q 2503 -91 2169 -91 
Q 1331 -91 842 396 
Q 353 884 353 1716 
Q 353 2575 817 3079 
Q 1281 3584 2069 3584 
Q 2775 3584 3186 3129 
Q 3597 2675 3597 1894 
z
M 3022 2063 
Q 3016 2534 2758 2815 
Q 2500 3097 2075 3097 
Q 1594 3097 1305 2825 
Q 1016 2553 972 2059 
L 3022 2063 
z
" transform="scale(0.015625)"/>
       <path id="DejaVuSans-28" d="M 1984 4856 
Q 1566 4138 1362 3434 
Q 1159 2731 1159 2009 
Q 1159 1288 1364 580 
Q 1569 -128 1984 -844 
L 1484 -844 
Q 1016 -109 783 600 
Q 550 1309 550 2009 
Q 550 2706 781 3412 
Q 1013 4119 1484 4856 
L 1984 4856 
z
" transform="scale(0.015625)"/>
       <path id="DejaVuSans-6e" d="M 3513 2113 
L 3513 0 
L 2938 0 
L 2938 2094 
Q 2938 2591 2744 2837 
Q 2550 3084 2163 3084 
Q 1697 3084 1428 2787 
Q 1159 2491 1159 1978 
L 1159 0 
L 581 0 
L 581 3500 
L 1159 3500 
L 1159 2956 
Q 1366 3272 1645 3428 
Q 1925 3584 2291 3584 
Q 2894 3584 3203 3211 
Q 3513 2838 3513 2113 
z
" transform="scale(0.015625)"/>
       <path id="DejaVuSans-73" d="M 2834 3397 
L 2834 2853 
Q 2591 2978 2328 3040 
Q 2066 3103 1784 3103 
Q 1356 3103 1142 2972 
Q 928 2841 928 2578 
Q 928 2378 1081 2264 
Q 1234 2150 1697 2047 
L 1894 2003 
Q 2506 1872 2764 1633 
Q 3022 1394 3022 966 
Q 3022 478 2636 193 
Q 2250 -91 1575 -91 
Q 1294 -91 989 -36 
Q 684 19 347 128 
L 347 722 
Q 666 556 975 473 
Q 1284 391 1588 391 
Q 1994 391 2212 530 
Q 2431 669 2431 922 
Q 2431 1156 2273 1281 
Q 2116 1406 1581 1522 
L 1381 1569 
Q 847 1681 609 1914 
Q 372 2147 372 2553 
Q 372 3047 722 3315 
Q 1072 3584 1716 3584 
Q 2034 3584 2315 3537 
Q 2597 3491 2834 3397 
z
" transform="scale(0.015625)"/>
       <path id="DejaVuSans-29" d="M 513 4856 
L 1013 4856 
Q 1481 4119 1714 3412 
Q 1947 2706 1947 2009 
Q 1947 1309 1714 600 
Q 1481 -109 1013 -844 
L 513 -844 
Q 928 -128 1133 580 
Q 1338 1288 1338 2009 
Q 1338 2731 1133 3434 
Q 928 4138 513 4856 
z
" transform="scale(0.015625)"/>
      </defs>
      <use xlink:href="#DejaVuSans-54"/>
      <use xlink:href="#DejaVuSans-69" x="57.958984"/>
      <use xlink:href="#DejaVuSans-6d" x="85.742188"/>
      <use xlink:href="#DejaVuSans-65" x="183.154297"/>
      <use xlink:href="#DejaVuSans-28" x="244.677734"/>
      <use xlink:href="#DejaVuSans-6e" x="283.691406"/>
      <use xlink:href="#DejaVuSans-73" x="347.070312"/>
      <use xlink:href="#DejaVuSans-29" x="399.169922"/>
     </g>
    </g>
   </g>
   <g id="matplotlib.axis_2">
    <g id="ytick_1">
     <g id="line2d_7">
      <defs>
       <path id="m1d8dd4898b" d="M 0 0 
L 3.5 0 
" style="stroke: #000000; stroke-width: 0.8"/>
      </defs>
      <g>
       <use xlink:href="#m1d8dd4898b" x="66.72" y="276.586448" style="stroke: #000000; stroke-width: 0.8"/>
      </g>
     </g>
     <g id="text_8">
      <!-- 0.0 -->
      <g transform="translate(37.775 282.665198) scale(0.16 -0.16)">
       <defs>
        <path id="DejaVuSans-2e" d="M 684 794 
L 1344 794 
L 1344 0 
L 684 0 
L 684 794 
z
" transform="scale(0.015625)"/>
       </defs>
       <use xlink:href="#DejaVuSans-30"/>
       <use xlink:href="#DejaVuSans-2e" x="63.623047"/>
       <use xlink:href="#DejaVuSans-30" x="95.410156"/>
      </g>
     </g>
    </g>
    <g id="ytick_2">
     <g id="line2d_8">
      <g>
       <use xlink:href="#m1d8dd4898b" x="66.72" y="226.236753" style="stroke: #000000; stroke-width: 0.8"/>
      </g>
     </g>
     <g id="text_9">
      <!-- 0.1 -->
      <g transform="translate(37.775 232.315503) scale(0.16 -0.16)">
       <use xlink:href="#DejaVuSans-30"/>
       <use xlink:href="#DejaVuSans-2e" x="63.623047"/>
       <use xlink:href="#DejaVuSans-31" x="95.410156"/>
      </g>
     </g>
    </g>
    <g id="ytick_3">
     <g id="line2d_9">
      <g>
       <use xlink:href="#m1d8dd4898b" x="66.72" y="175.887058" style="stroke: #000000; stroke-width: 0.8"/>
      </g>
     </g>
     <g id="text_10">
      <!-- 0.2 -->
      <g transform="translate(37.775 181.965808) scale(0.16 -0.16)">
       <use xlink:href="#DejaVuSans-30"/>
       <use xlink:href="#DejaVuSans-2e" x="63.623047"/>
       <use xlink:href="#DejaVuSans-32" x="95.410156"/>
      </g>
     </g>
    </g>
    <g id="ytick_4">
     <g id="line2d_10">
      <g>
       <use xlink:href="#m1d8dd4898b" x="66.72" y="125.537363" style="stroke: #000000; stroke-width: 0.8"/>
      </g>
     </g>
     <g id="text_11">
      <!-- 0.3 -->
      <g transform="translate(37.775 131.616113) scale(0.16 -0.16)">
       <defs>
        <path id="DejaVuSans-33" d="M 2597 2516 
Q 3050 2419 3304 2112 
Q 3559 1806 3559 1356 
Q 3559 666 3084 287 
Q 2609 -91 1734 -91 
Q 1441 -91 1130 -33 
Q 819 25 488 141 
L 488 750 
Q 750 597 1062 519 
Q 1375 441 1716 441 
Q 2309 441 2620 675 
Q 2931 909 2931 1356 
Q 2931 1769 2642 2001 
Q 2353 2234 1838 2234 
L 1294 2234 
L 1294 2753 
L 1863 2753 
Q 2328 2753 2575 2939 
Q 2822 3125 2822 3475 
Q 2822 3834 2567 4026 
Q 2313 4219 1838 4219 
Q 1578 4219 1281 4162 
Q 984 4106 628 3988 
L 628 4550 
Q 988 4650 1302 4700 
Q 1616 4750 1894 4750 
Q 2613 4750 3031 4423 
Q 3450 4097 3450 3541 
Q 3450 3153 3228 2886 
Q 3006 2619 2597 2516 
z
" transform="scale(0.015625)"/>
       </defs>
       <use xlink:href="#DejaVuSans-30"/>
       <use xlink:href="#DejaVuSans-2e" x="63.623047"/>
       <use xlink:href="#DejaVuSans-33" x="95.410156"/>
      </g>
     </g>
    </g>
    <g id="ytick_5">
     <g id="line2d_11">
      <g>
       <use xlink:href="#m1d8dd4898b" x="66.72" y="75.187668" style="stroke: #000000; stroke-width: 0.8"/>
      </g>
     </g>
     <g id="text_12">
      <!-- 0.4 -->
      <g transform="translate(37.775 81.266418) scale(0.16 -0.16)">
       <use xlink:href="#DejaVuSans-30"/>
       <use xlink:href="#DejaVuSans-2e" x="63.623047"/>
       <use xlink:href="#DejaVuSans-34" x="95.410156"/>
      </g>
     </g>
    </g>
    <g id="text_13">
     <!-- RMSD (nm) -->
     <g transform="translate(30.4475 208.0375) rotate(-90) scale(0.16 -0.16)">
      <defs>
       <path id="DejaVuSans-52" d="M 2841 2188 
Q 3044 2119 3236 1894 
Q 3428 1669 3622 1275 
L 4263 0 
L 3584 0 
L 2988 1197 
Q 2756 1666 2539 1819 
Q 2322 1972 1947 1972 
L 1259 1972 
L 1259 0 
L 628 0 
L 628 4666 
L 2053 4666 
Q 2853 4666 3247 4331 
Q 3641 3997 3641 3322 
Q 3641 2881 3436 2590 
Q 3231 2300 2841 2188 
z
M 1259 4147 
L 1259 2491 
L 2053 2491 
Q 2509 2491 2742 2702 
Q 2975 2913 2975 3322 
Q 2975 3731 2742 3939 
Q 2509 4147 2053 4147 
L 1259 4147 
z
" transform="scale(0.015625)"/>
       <path id="DejaVuSans-4d" d="M 628 4666 
L 1569 4666 
L 2759 1491 
L 3956 4666 
L 4897 4666 
L 4897 0 
L 4281 0 
L 4281 4097 
L 3078 897 
L 2444 897 
L 1241 4097 
L 1241 0 
L 628 0 
L 628 4666 
z
" transform="scale(0.015625)"/>
       <path id="DejaVuSans-53" d="M 3425 4513 
L 3425 3897 
Q 3066 4069 2747 4153 
Q 2428 4238 2131 4238 
Q 1616 4238 1336 4038 
Q 1056 3838 1056 3469 
Q 1056 3159 1242 3001 
Q 1428 2844 1947 2747 
L 2328 2669 
Q 3034 2534 3370 2195 
Q 3706 1856 3706 1288 
Q 3706 609 3251 259 
Q 2797 -91 1919 -91 
Q 1588 -91 1214 -16 
Q 841 59 441 206 
L 441 856 
Q 825 641 1194 531 
Q 1563 422 1919 422 
Q 2459 422 2753 634 
Q 3047 847 3047 1241 
Q 3047 1584 2836 1778 
Q 2625 1972 2144 2069 
L 1759 2144 
Q 1053 2284 737 2584 
Q 422 2884 422 3419 
Q 422 4038 858 4394 
Q 1294 4750 2059 4750 
Q 2388 4750 2728 4690 
Q 3069 4631 3425 4513 
z
" transform="scale(0.015625)"/>
       <path id="DejaVuSans-44" d="M 1259 4147 
L 1259 519 
L 2022 519 
Q 2988 519 3436 956 
Q 3884 1394 3884 2338 
Q 3884 3275 3436 3711 
Q 2988 4147 2022 4147 
L 1259 4147 
z
M 628 4666 
L 1925 4666 
Q 3281 4666 3915 4102 
Q 4550 3538 4550 2338 
Q 4550 1131 3912 565 
Q 3275 0 1925 0 
L 628 0 
L 628 4666 
z
" transform="scale(0.015625)"/>
       <path id="DejaVuSans-20" transform="scale(0.015625)"/>
      </defs>
      <use xlink:href="#DejaVuSans-52"/>
      <use xlink:href="#DejaVuSans-4d" x="69.482422"/>
      <use xlink:href="#DejaVuSans-53" x="155.761719"/>
      <use xlink:href="#DejaVuSans-44" x="219.238281"/>
      <use xlink:href="#DejaVuSans-20" x="296.240234"/>
      <use xlink:href="#DejaVuSans-28" x="328.027344"/>
      <use xlink:href="#DejaVuSans-6e" x="367.041016"/>
      <use xlink:href="#DejaVuSans-6d" x="430.419922"/>
      <use xlink:href="#DejaVuSans-29" x="527.832031"/>
     </g>
    </g>
   </g>
   <g id="line2d_12">
    <path d="M 83.847273 276.335455 
L 84.189818 194.025334 
L 84.532364 186.603588 
L 84.874909 191.749931 
L 85.217455 189.276804 
L 85.56 188.345888 
L 85.902545 182.357699 
L 86.245091 171.886724 
L 86.587636 169.580205 
L 86.930182 160.490423 
L 87.272727 156.53183 
L 87.615273 167.71213 
L 87.957818 172.085706 
L 88.300364 166.356717 
L 88.642909 149.375577 
L 88.985455 159.681656 
L 89.328 136.123286 
L 89.670545 147.548588 
L 90.355636 159.318635 
L 90.698182 141.298982 
L 91.040727 156.746974 
L 91.383273 125.162308 
L 92.068364 140.282372 
L 92.410909 141.029259 
L 92.753455 153.078193 
L 93.096 137.748523 
L 93.438545 151.398527 
L 93.781091 146.006931 
L 94.123636 150.682605 
L 94.466182 145.182605 
L 94.808727 150.249144 
L 95.151273 145.558516 
L 95.493818 160.756622 
L 96.178909 167.19524 
L 96.521455 145.134924 
L 96.864 156.163119 
L 97.206545 172.203827 
L 98.234182 143.204165 
L 98.919273 133.159249 
L 99.261818 139.73069 
L 99.604364 149.514895 
L 99.946909 153.955234 
L 100.289455 146.292967 
L 100.632 155.050995 
L 100.974545 160.374468 
L 101.317091 168.846761 
L 101.659636 168.67965 
L 102.002182 169.421704 
L 102.344727 167.782972 
L 102.687273 177.089358 
L 103.029818 170.868855 
L 103.372364 167.377909 
L 103.714909 167.847571 
L 104.057455 176.470812 
L 104.4 169.090504 
L 104.742545 157.199769 
L 105.085091 169.026257 
L 105.427636 174.303107 
L 105.770182 170.994628 
L 106.112727 164.706153 
L 106.455273 123.47076 
L 106.797818 168.512791 
L 107.140364 145.805935 
L 107.482909 156.391757 
L 107.825455 155.719639 
L 108.168 151.521431 
L 108.510545 145.928637 
L 108.853091 169.952541 
L 109.195636 147.355346 
L 109.538182 143.192937 
L 110.223273 158.881499 
L 110.565818 155.330234 
L 110.908364 161.602598 
L 111.250909 156.796971 
L 111.593455 160.512728 
L 111.936 157.696166 
L 112.278545 160.510916 
L 112.621091 161.250301 
L 112.963636 160.188476 
L 113.306182 162.373703 
L 113.648727 148.926206 
L 113.991273 151.312832 
L 114.333818 150.907215 
L 114.676364 140.10071 
L 115.018909 140.292744 
L 115.361455 129.776858 
L 115.704 135.602972 
L 116.046545 121.560341 
L 116.389091 137.692635 
L 116.731636 133.503843 
L 117.074182 138.679237 
L 117.416727 127.362137 
L 117.759273 127.971166 
L 118.101818 121.522629 
L 118.444364 134.215888 
L 118.786909 140.332319 
L 119.129455 137.174335 
L 119.814545 122.975772 
L 120.157091 135.148667 
L 120.499636 129.790301 
L 120.842182 130.314844 
L 121.184727 140.851323 
L 121.527273 122.069729 
L 121.869818 141.046932 
L 122.212364 118.607281 
L 122.554909 120.195361 
L 122.897455 124.506755 
L 123.24 134.192375 
L 123.582545 126.016642 
L 123.925091 128.867895 
L 124.267636 127.344262 
L 124.610182 141.200398 
L 124.952727 118.088579 
L 125.295273 131.832787 
L 125.637818 119.853487 
L 125.980364 127.747312 
L 126.322909 131.665273 
L 126.665455 127.424016 
L 127.008 127.773443 
L 127.350545 127.893376 
L 127.693091 124.641994 
L 128.035636 138.566051 
L 128.378182 146.137387 
L 128.720727 137.590627 
L 129.063273 144.606857 
L 129.405818 126.98391 
L 129.748364 125.835735 
L 130.090909 138.297134 
L 130.433455 136.302329 
L 130.776 142.281708 
L 131.118545 129.743727 
L 131.461091 138.463036 
L 131.803636 136.306558 
L 132.146182 123.942083 
L 132.488727 137.806778 
L 132.831273 140.244509 
L 133.173818 136.688914 
L 133.516364 147.170814 
L 133.858909 132.759372 
L 134.201455 123.841887 
L 134.544 134.140263 
L 134.886545 134.486618 
L 135.229091 139.99986 
L 135.571636 133.059909 
L 135.914182 131.73823 
L 136.256727 135.226709 
L 136.941818 122.967565 
L 137.284364 134.152296 
L 137.626909 136.42478 
L 137.969455 128.769209 
L 138.312 128.387357 
L 138.654545 135.454944 
L 138.997091 134.577902 
L 139.339636 128.99105 
L 139.682182 127.516156 
L 140.024727 129.623744 
L 140.367273 136.372869 
L 140.709818 129.628024 
L 141.052364 126.176955 
L 141.394909 131.123057 
L 141.737455 127.750282 
L 142.08 128.886725 
L 142.422545 118.579488 
L 142.765091 125.400915 
L 143.107636 122.102809 
L 143.450182 121.531239 
L 143.792727 120.422639 
L 144.135273 120.693672 
L 144.477818 121.935698 
L 144.820364 126.690673 
L 145.162909 127.882702 
L 145.848 124.175504 
L 146.190545 122.025673 
L 146.533091 127.341745 
L 146.875636 129.603101 
L 147.560727 111.359845 
L 148.588364 126.120865 
L 148.930909 138.987025 
L 149.273455 123.801859 
L 149.616 136.482279 
L 149.958545 137.74082 
L 150.301091 134.125964 
L 150.643636 105.47598 
L 151.671273 139.599831 
L 152.013818 132.54015 
L 152.356364 130.947639 
L 152.698909 121.77181 
L 153.041455 126.777123 
L 153.384 94.812368 
L 153.726545 114.302533 
L 154.411636 139.541778 
L 154.754182 117.513887 
L 155.096727 110.181058 
L 155.439273 118.740758 
L 155.781818 103.89067 
L 156.124364 123.085484 
L 156.466909 132.977739 
L 157.152 125.327858 
L 157.494545 116.69505 
L 157.837091 126.28561 
L 158.179636 125.54844 
L 158.522182 116.936578 
L 158.864727 119.96924 
L 159.207273 101.75554 
L 159.549818 109.185141 
L 159.892364 129.414038 
L 160.234909 128.49284 
L 160.577455 111.668539 
L 160.92 105.843432 
L 161.605091 119.472339 
L 161.947636 119.451344 
L 162.290182 115.181941 
L 162.632727 121.783441 
L 162.975273 136.244326 
L 163.317818 118.981984 
L 163.660364 115.819721 
L 164.002909 115.535748 
L 164.345455 107.675406 
L 164.688 109.106243 
L 165.030545 116.656784 
L 165.373091 110.844567 
L 165.715636 99.088769 
L 166.400727 118.891707 
L 166.743273 112.610733 
L 167.085818 122.743156 
L 167.428364 123.291263 
L 167.770909 131.674185 
L 168.113455 128.226993 
L 168.456 107.466404 
L 169.141091 110.366194 
L 169.483636 105.216981 
L 169.826182 123.961065 
L 170.168727 114.364061 
L 170.511273 126.998612 
L 170.853818 132.277324 
L 171.196364 120.880872 
L 171.538909 131.921654 
L 171.881455 118.570979 
L 172.224 127.550243 
L 172.566545 120.795026 
L 172.909091 103.94978 
L 173.251636 108.965264 
L 173.594182 125.684938 
L 173.936727 120.093856 
L 174.279273 133.151042 
L 175.306909 124.314318 
L 175.649455 122.930759 
L 175.992 127.026455 
L 176.334545 126.832055 
L 176.677091 120.826595 
L 177.019636 122.202552 
L 177.362182 129.618004 
L 177.704727 122.75373 
L 178.047273 142.019738 
L 178.389818 137.947052 
L 178.732364 142.216455 
L 179.074909 133.50636 
L 179.417455 149.903544 
L 179.76 147.126607 
L 180.102545 158.114522 
L 180.445091 146.908291 
L 180.787636 145.633286 
L 181.130182 146.021834 
L 181.472727 147.39054 
L 181.815273 155.10502 
L 182.500364 141.277181 
L 182.842909 131.671517 
L 183.185455 139.684419 
L 183.870545 118.060937 
L 184.213091 133.671306 
L 184.555636 132.723674 
L 184.898182 115.081947 
L 185.240727 111.596187 
L 185.583273 120.6905 
L 185.925818 137.388523 
L 186.268364 126.006119 
L 186.610909 119.196826 
L 186.953455 108.251859 
L 187.296 118.315203 
L 187.638545 119.77197 
L 187.981091 124.013227 
L 188.323636 116.817047 
L 188.666182 104.960198 
L 189.008727 107.7249 
L 189.351273 116.996343 
L 189.693818 98.516545 
L 190.036364 106.501201 
L 190.378909 101.349923 
L 190.721455 98.259006 
L 191.064 96.309214 
L 191.406545 84.1047 
L 191.749091 83.830898 
L 192.091636 97.978608 
L 192.434182 101.431037 
L 192.776727 112.317346 
L 193.119273 108.273057 
L 193.461818 96.063759 
L 194.146909 107.423053 
L 194.489455 100.22068 
L 194.832 97.51096 
L 195.174545 100.108954 
L 195.517091 100.438543 
L 195.859636 90.211161 
L 196.202182 101.8865 
L 196.544727 87.434979 
L 196.887273 100.808916 
L 197.229818 84.7527 
L 197.572364 102.791989 
L 197.914909 101.439898 
L 198.257455 88.890136 
L 198.6 92.585451 
L 198.942545 77.110573 
L 199.285091 79.24832 
L 199.627636 75.101973 
L 200.312727 95.131686 
L 200.655273 98.735314 
L 200.997818 93.155863 
L 201.340364 99.481496 
L 201.682909 79.65288 
L 202.025455 99.221692 
L 202.368 97.42743 
L 202.710545 85.349344 
L 203.053091 78.476057 
L 203.395636 84.945187 
L 203.738182 86.184243 
L 204.080727 86.136763 
L 204.423273 73.079828 
L 204.765818 66.590709 
L 205.108364 69.491456 
L 205.450909 67.129099 
L 205.793455 72.715347 
L 206.136 70.347552 
L 206.478545 88.555159 
L 206.821091 78.604499 
L 207.163636 74.869105 
L 207.506182 82.480318 
L 207.848727 78.075575 
L 208.533818 82.178018 
L 208.876364 77.85887 
L 209.218909 68.248674 
L 209.561455 80.147415 
L 209.904 84.674759 
L 210.246545 71.890367 
L 210.589091 74.254134 
L 210.931636 75.238924 
L 211.616727 79.675588 
L 211.959273 80.649653 
L 212.301818 77.803133 
L 212.644364 106.712418 
L 212.986909 88.507277 
L 213.329455 77.171446 
L 213.672 72.366323 
L 214.014545 74.512227 
L 214.357091 68.409693 
L 215.042182 100.945112 
L 215.384727 98.245663 
L 215.727273 86.956154 
L 216.069818 98.459247 
L 216.412364 92.059549 
L 216.754909 93.066996 
L 217.097455 82.17535 
L 217.44 87.332216 
L 217.782545 89.007703 
L 218.125091 84.149964 
L 218.467636 87.197631 
L 218.810182 78.473187 
L 219.152727 108.379496 
L 219.495273 103.261651 
L 219.837818 104.985322 
L 220.180364 70.299065 
L 220.522909 77.28715 
L 220.865455 81.463103 
L 221.208 91.305159 
L 221.550545 82.619484 
L 222.235636 95.685583 
L 222.578182 96.504722 
L 222.920727 87.991142 
L 223.605818 79.116354 
L 223.948364 71.506904 
L 224.633455 84.042568 
L 224.976 71.838708 
L 225.318545 84.221561 
L 225.661091 70.511239 
L 226.003636 83.394567 
L 226.346182 79.352947 
L 226.688727 78.149791 
L 227.031273 88.533056 
L 227.373818 83.357158 
L 227.716364 105.268237 
L 228.058909 75.95535 
L 228.401455 94.818662 
L 228.744 93.692188 
L 229.086545 98.48704 
L 229.429091 94.685033 
L 229.771636 106.906012 
L 230.114182 84.490882 
L 230.456727 95.37563 
L 230.799273 90.519351 
L 231.141818 65.046232 
L 231.484364 93.779696 
L 231.826909 100.21494 
L 232.169455 90.742954 
L 232.512 94.455237 
L 232.854545 103.008342 
L 233.197091 89.894814 
L 233.539636 99.409094 
L 233.882182 99.454157 
L 234.224727 108.106399 
L 234.567273 112.741642 
L 234.909818 109.978401 
L 235.252364 84.528795 
L 235.594909 107.436396 
L 235.937455 92.931454 
L 236.28 106.830236 
L 236.622545 104.546625 
L 236.965091 125.109088 
L 237.307636 122.330238 
L 237.650182 145.057889 
L 238.335273 134.665209 
L 238.677818 143.349574 
L 239.020364 162.451745 
L 239.362909 158.724408 
L 239.705455 167.294228 
L 240.390545 146.329219 
L 240.733091 145.668581 
L 241.075636 141.815268 
L 241.418182 134.291966 
L 241.760727 120.74669 
L 242.103273 158.548889 
L 242.445818 147.320353 
L 242.788364 142.10634 
L 243.130909 157.650751 
L 243.473455 130.930822 
L 243.816 118.66614 
L 244.158545 136.770229 
L 244.501091 115.762725 
L 244.843636 129.050916 
L 245.186182 113.616368 
L 245.871273 101.201744 
L 246.213818 120.650774 
L 246.556364 120.510449 
L 246.898909 135.77401 
L 247.584 128.814272 
L 247.926545 122.637875 
L 248.269091 100.020742 
L 248.954182 137.930487 
L 249.296727 114.413202 
L 249.639273 118.138979 
L 249.981818 137.638862 
L 250.324364 130.03062 
L 250.666909 129.341635 
L 251.009455 138.770924 
L 251.352 132.672368 
L 251.694545 117.081081 
L 252.037091 109.752834 
L 252.379636 107.648469 
L 252.722182 121.019837 
L 253.064727 118.904395 
L 253.407273 110.144504 
L 253.749818 109.18343 
L 254.092364 110.111878 
L 254.434909 93.174492 
L 254.777455 104.789814 
L 255.12 125.821637 
L 255.462545 110.054127 
L 255.805091 105.076959 
L 256.147636 96.948756 
L 256.490182 110.945669 
L 256.832727 74.162598 
L 257.175273 113.373833 
L 257.517818 124.520047 
L 258.202909 101.158443 
L 258.545455 94.692888 
L 258.888 117.429552 
L 259.230545 117.543745 
L 259.573091 105.704568 
L 259.915636 100.817123 
L 260.258182 119.198085 
L 260.600727 106.388115 
L 260.943273 84.713075 
L 261.285818 104.698984 
L 261.628364 112.685503 
L 261.970909 109.43548 
L 262.656 111.85433 
L 262.998545 103.940919 
L 263.341091 105.033054 
L 263.683636 102.288643 
L 264.026182 92.735846 
L 264.368727 100.201749 
L 265.053818 111.245048 
L 265.738909 92.833726 
L 266.081455 97.972919 
L 266.766545 117.036774 
L 267.109091 106.133748 
L 267.451636 105.727779 
L 267.794182 120.889431 
L 268.136727 107.506583 
L 268.479273 100.343785 
L 268.821818 82.49794 
L 269.506909 102.033974 
L 269.849455 88.085397 
L 270.192 97.798205 
L 270.534545 115.016089 
L 271.219636 98.83415 
L 271.562182 85.490323 
L 271.904727 64.78955 
L 272.247273 67.376567 
L 272.589818 68.136092 
L 272.932364 79.113685 
L 273.274909 64.01205 
L 273.617455 57.840889 
L 273.96 73.084007 
L 274.302545 49.044545 
L 274.645091 78.948941 
L 274.987636 94.221615 
L 275.330182 101.68631 
L 275.672727 97.056705 
L 276.015273 96.376179 
L 276.357818 105.720579 
L 276.700364 104.838049 
L 277.042909 110.550625 
L 277.385455 101.717174 
L 277.728 114.290903 
L 278.070545 91.035436 
L 278.413091 97.609948 
L 278.755636 119.276932 
L 279.098182 114.361241 
L 279.440727 121.835704 
L 279.783273 118.086414 
L 280.468364 129.464186 
L 280.810909 132.039573 
L 281.153455 126.210387 
L 281.496 115.79943 
L 281.838545 115.070568 
L 282.181091 109.455519 
L 282.523636 120.119836 
L 282.866182 108.734612 
L 283.208727 113.585604 
L 283.551273 109.147681 
L 283.893818 111.304209 
L 284.236364 97.43025 
L 284.578909 103.655083 
L 284.921455 106.01739 
L 285.264 102.335569 
L 285.606545 111.183621 
L 285.949091 123.32832 
L 286.291636 107.042158 
L 286.634182 117.415101 
L 286.976727 103.020274 
L 287.319273 109.830071 
L 287.661818 107.945079 
L 288.004364 103.527296 
L 288.689455 120.644883 
L 289.032 108.124173 
L 289.374545 105.836434 
L 289.717091 118.672383 
L 290.059636 101.472726 
L 290.402182 114.680055 
L 290.744727 115.989601 
L 291.087273 105.97268 
L 291.772364 115.717612 
L 292.114909 114.736598 
L 292.457455 115.301471 
L 292.8 117.93612 
L 293.142545 113.920581 
L 293.485091 116.271005 
L 293.827636 111.988159 
L 294.170182 112.118414 
L 294.512727 107.002684 
L 294.855273 99.150598 
L 295.197818 112.354 
L 295.540364 107.961795 
L 296.225455 115.770982 
L 296.568 121.546999 
L 297.253091 109.123513 
L 297.595636 113.285671 
L 297.938182 109.995469 
L 298.280727 117.21199 
L 298.623273 131.111225 
L 298.965818 133.120732 
L 299.308364 128.856818 
L 299.650909 131.755097 
L 299.993455 120.668547 
L 300.678545 122.365231 
L 301.021091 114.364615 
L 301.363636 121.553796 
L 301.706182 115.471452 
L 302.391273 92.53923 
L 302.733818 107.946942 
L 303.076364 104.519739 
L 303.418909 116.907878 
L 303.761455 122.894105 
L 304.104 107.673744 
L 305.131636 94.879232 
L 305.474182 96.836828 
L 306.159273 114.466673 
L 306.501818 98.393087 
L 306.844364 107.100765 
L 307.186909 105.251118 
L 307.872 114.705331 
L 308.557091 134.587872 
L 308.899636 126.90335 
L 309.242182 134.206473 
L 309.584727 118.497569 
L 309.927273 114.701051 
L 310.269818 100.631735 
L 310.612364 94.283444 
L 310.954909 124.081904 
L 311.297455 124.09278 
L 311.64 122.576398 
L 311.982545 118.054139 
L 312.325091 115.936381 
L 313.010182 133.03262 
L 313.352727 130.591868 
L 313.695273 127.061347 
L 314.037818 119.95907 
L 314.380364 120.062035 
L 314.722909 130.106245 
L 315.408 118.939136 
L 316.093091 127.55553 
L 316.435636 118.412579 
L 316.778182 140.842109 
L 317.120727 135.540488 
L 317.463273 143.103314 
L 317.805818 124.745614 
L 318.148364 124.734336 
L 318.490909 111.776086 
L 318.833455 123.657406 
L 319.176 122.668639 
L 319.518545 114.763535 
L 319.861091 121.838271 
L 320.203636 135.472767 
L 320.546182 128.679083 
L 320.888727 111.491762 
L 321.231273 100.536574 
L 321.573818 107.570427 
L 321.916364 105.566912 
L 322.258909 102.107233 
L 322.601455 117.111694 
L 322.944 119.025939 
L 323.286545 128.83275 
L 323.971636 112.526498 
L 324.314182 123.482793 
L 324.656727 119.375567 
L 324.999273 120.832385 
L 325.341818 126.269145 
L 325.684364 125.415366 
L 326.369455 111.677149 
L 326.712 92.524578 
L 327.054545 97.198238 
L 327.397091 90.022853 
L 327.739636 90.534104 
L 328.082182 81.287332 
L 328.424727 78.502138 
L 328.767273 102.753874 
L 329.109818 105.2629 
L 329.452364 92.662939 
L 329.794909 91.506205 
L 330.137455 57.771406 
L 330.48 72.756533 
L 330.822545 78.007603 
L 331.165091 70.49704 
L 331.507636 71.128677 
L 331.850182 79.061825 
L 332.192727 90.51774 
L 332.535273 89.463518 
L 332.877818 83.135921 
L 333.220364 100.619148 
L 333.562909 104.260841 
L 333.905455 109.617343 
L 334.248 104.556997 
L 334.590545 115.03638 
L 335.275636 78.329287 
L 335.618182 96.332979 
L 335.960727 100.794465 
L 336.303273 110.359145 
L 336.645818 91.187945 
L 336.988364 104.967952 
L 337.330909 107.288821 
L 337.673455 119.354269 
L 338.016 118.295868 
L 338.358545 119.228546 
L 338.701091 109.789338 
L 339.043636 118.698213 
L 339.728727 122.694619 
L 340.071273 123.468444 
L 340.413818 127.829029 
L 340.756364 99.200394 
L 341.098909 122.381394 
L 341.441455 128.225936 
L 341.784 114.166237 
L 342.126545 121.706204 
L 342.469091 121.295653 
L 342.811636 119.218325 
L 343.154182 109.780627 
L 343.496727 104.956522 
L 343.839273 115.882859 
L 344.181818 112.790784 
L 344.524364 120.37808 
L 344.866909 108.84805 
L 345.209455 110.474094 
L 345.552 106.804507 
L 346.579636 126.69893 
L 346.922182 116.100974 
L 347.264727 122.671559 
L 347.607273 120.331507 
L 347.949818 117.166072 
L 348.292364 117.422049 
L 348.634909 128.979671 
L 348.977455 124.190156 
L 349.32 107.805358 
L 349.662545 108.693426 
L 350.005091 112.390554 
L 350.690182 130.803286 
L 351.032727 124.226911 
L 351.375273 127.644598 
L 351.717818 139.441079 
L 352.060364 129.468315 
L 352.402909 114.284156 
L 352.745455 126.588715 
L 353.088 130.252964 
L 353.430545 144.793604 
L 353.773091 138.671484 
L 354.115636 128.229007 
L 354.800727 121.977287 
L 355.143273 113.88307 
L 355.828364 123.4406 
L 356.170909 129.514183 
L 356.513455 131.445597 
L 356.856 136.535499 
L 357.198545 123.166094 
L 357.541091 123.017008 
L 357.883636 134.211105 
L 358.226182 130.533765 
L 358.568727 130.934095 
L 358.911273 128.69303 
L 359.253818 134.846065 
L 359.596364 132.621313 
L 359.938909 129.520225 
L 360.281455 121.452643 
L 360.624 124.020981 
L 360.966545 117.991706 
L 361.309091 139.70476 
L 361.651636 125.528602 
L 361.994182 124.663141 
L 362.336727 122.135838 
L 362.679273 126.648279 
L 363.021818 109.835659 
L 363.706909 121.722064 
L 364.049455 116.391139 
L 364.392 94.360177 
L 365.077091 115.805019 
L 365.419636 120.782992 
L 365.762182 112.546588 
L 366.104727 113.09263 
L 366.447273 117.393652 
L 366.789818 96.536291 
L 367.132364 96.460162 
L 367.474909 110.767783 
L 367.817455 107.302717 
L 368.502545 121.340112 
L 368.845091 118.53654 
L 369.187636 123.081708 
L 369.530182 141.898043 
L 369.872727 127.844134 
L 370.215273 138.217631 
L 370.557818 134.087849 
L 371.242909 144.753576 
L 371.585455 123.632181 
L 371.928 142.461356 
L 372.270545 143.260607 
L 372.613091 145.829851 
L 372.955636 143.913995 
L 373.298182 140.554965 
L 373.640727 141.99124 
L 374.325818 136.327957 
L 375.010909 143.824825 
L 375.353455 140.766685 
L 375.696 138.802544 
L 376.038545 125.623964 
L 376.381091 136.343666 
L 376.723636 134.042735 
L 377.066182 135.64874 
L 377.408727 138.37432 
L 377.751273 136.652461 
L 378.093818 128.586389 
L 378.436364 135.590183 
L 378.778909 134.748135 
L 379.121455 130.316455 
L 379.464 135.697881 
L 379.806545 132.6482 
L 380.149091 139.275529 
L 380.491636 126.328558 
L 380.834182 130.885306 
L 381.176727 130.868288 
L 381.519273 128.435441 
L 381.861818 131.127538 
L 382.204364 126.68589 
L 382.546909 120.189067 
L 382.889455 130.06667 
L 383.232 126.105408 
L 383.574545 129.556024 
L 383.917091 129.739347 
L 384.259636 135.829797 
L 384.602182 137.055913 
L 384.944727 143.387588 
L 385.287273 135.351324 
L 385.629818 138.561067 
L 385.972364 134.915749 
L 386.314909 135.562541 
L 386.657455 136.67975 
L 387 131.084288 
L 387.342545 133.561392 
L 387.685091 137.339835 
L 388.027636 136.544511 
L 388.370182 121.736313 
L 388.712727 140.461617 
L 389.397818 127.154998 
L 389.740364 127.074338 
L 390.082909 128.57783 
L 390.425455 131.867276 
L 390.768 131.351192 
L 391.110545 134.975363 
L 391.453091 135.034927 
L 391.795636 129.168583 
L 392.138182 127.329006 
L 392.480727 133.230393 
L 392.823273 134.782272 
L 393.165818 141.914356 
L 393.508364 121.601527 
L 393.850909 132.402292 
L 394.536 139.949057 
L 394.878545 135.812779 
L 395.221091 136.848523 
L 395.563636 124.84158 
L 395.906182 124.903913 
L 396.591273 141.559139 
L 396.933818 131.819343 
L 397.276364 136.47815 
L 397.618909 120.419467 
L 397.961455 128.364398 
L 398.304 127.488917 
L 398.989091 138.44924 
L 399.331636 137.400255 
L 400.359273 147.146898 
L 400.701818 140.214299 
L 401.044364 141.094261 
L 401.386909 138.136417 
L 401.729455 140.88536 
L 402.072 146.340548 
L 402.414545 141.839537 
L 402.757091 140.072665 
L 403.099636 141.577567 
L 403.442182 135.628147 
L 403.784727 126.424927 
L 404.127273 126.758242 
L 404.469818 105.718364 
L 405.154909 132.892698 
L 405.497455 130.839035 
L 405.84 136.122128 
L 406.182545 137.713178 
L 406.525091 136.021831 
L 406.867636 128.476879 
L 407.210182 131.893559 
L 407.552727 138.924239 
L 407.895273 138.045738 
L 408.237818 138.737492 
L 408.580364 131.442224 
L 408.922909 140.429443 
L 409.265455 140.759989 
L 409.950545 128.669718 
L 410.293091 134.502076 
L 410.635636 124.171124 
L 410.978182 109.19219 
L 411.320727 118.659897 
L 411.663273 109.620163 
L 412.005818 108.523093 
L 412.348364 117.971717 
L 412.690909 116.022479 
L 413.033455 115.675922 
L 413.376 116.287671 
L 413.718545 118.859483 
L 414.061091 115.264917 
L 414.403636 117.529949 
L 414.746182 126.686494 
L 415.088727 117.077053 
L 415.431273 117.812511 
L 415.773818 119.197279 
L 416.116364 109.221695 
L 416.458909 124.287583 
L 416.801455 104.765344 
L 417.144 118.742823 
L 417.486545 117.484584 
L 417.829091 105.885827 
L 418.171636 116.495162 
L 418.514182 118.080372 
L 418.856727 118.967936 
L 419.199273 117.193714 
L 419.541818 121.231759 
L 419.884364 112.92844 
L 420.226909 111.851661 
L 420.569455 109.528577 
L 420.912 119.758628 
L 421.254545 114.938198 
L 421.597091 107.580346 
L 421.939636 110.963039 
L 422.282182 121.826792 
L 422.624727 118.409659 
L 422.967273 110.019939 
L 423.309818 119.243148 
L 423.652364 124.941424 
L 424.337455 112.20275 
L 424.68 100.232613 
L 425.022545 118.12191 
L 425.707636 107.895887 
L 426.050182 111.954425 
L 426.392727 120.702433 
L 426.392727 120.702433 
" clip-path="url(#p629c0e3974)" style="fill: none; stroke: #38a7d0; stroke-opacity: 0.4; stroke-width: 2; stroke-linecap: square"/>
   </g>
   <g id="line2d_13">
    <path d="M 100.974545 158.720368 
L 101.317091 156.401148 
L 102.002182 155.539098 
L 102.687273 154.662656 
L 103.714909 154.117573 
L 104.057455 154.08292 
L 104.742545 154.653701 
L 105.085091 154.443454 
L 105.427636 154.382265 
L 105.770182 154.541193 
L 106.112727 154.973574 
L 106.455273 155.074064 
L 106.797818 154.821013 
L 107.140364 155.240297 
L 107.825455 155.029919 
L 108.168 155.318332 
L 108.510545 155.213822 
L 108.853091 155.629148 
L 109.195636 156.347891 
L 109.880727 156.532624 
L 110.223273 156.517273 
L 110.565818 156.939933 
L 110.908364 157.018567 
L 111.250909 157.33048 
L 111.593455 157.452768 
L 111.936 157.75937 
L 112.278545 157.908311 
L 112.621091 158.207359 
L 113.306182 158.14018 
L 113.648727 158.043749 
L 113.991273 158.119575 
L 114.333818 158.022569 
L 115.361455 156.905843 
L 115.704 156.637297 
L 116.046545 156.600201 
L 116.389091 156.368223 
L 116.731636 156.327462 
L 117.759273 155.323105 
L 118.101818 154.781508 
L 118.786909 153.311854 
L 119.472 152.09996 
L 119.814545 151.32932 
L 120.499636 149.532645 
L 121.869818 146.377433 
L 122.212364 146.054376 
L 123.24 143.034084 
L 123.582545 142.423809 
L 123.925091 142.474726 
L 124.267636 141.681828 
L 124.952727 141.008768 
L 125.295273 140.256147 
L 125.980364 139.340871 
L 126.322909 138.496766 
L 127.008 137.867586 
L 127.693091 136.757079 
L 128.378182 135.682584 
L 128.720727 135.469392 
L 129.063273 135.01095 
L 129.405818 134.749164 
L 130.433455 132.932506 
L 130.776 132.411078 
L 131.118545 132.278188 
L 131.461091 131.846806 
L 131.803636 131.597922 
L 132.146182 131.522039 
L 132.488727 131.195026 
L 134.201455 131.925701 
L 134.544 131.628954 
L 135.229091 131.894826 
L 135.571636 132.26437 
L 135.914182 132.241251 
L 136.256727 132.069369 
L 137.626909 131.992971 
L 137.969455 132.125661 
L 138.312 132.094748 
L 138.654545 131.845469 
L 138.997091 132.113173 
L 139.339636 131.983792 
L 140.024727 132.337884 
L 141.052364 132.556061 
L 141.394909 132.502242 
L 141.737455 132.577818 
L 142.08 132.308816 
L 142.422545 132.524779 
L 142.765091 132.259713 
L 143.107636 132.370661 
L 144.135273 131.915063 
L 144.820364 131.654314 
L 145.162909 131.695288 
L 145.505455 131.481621 
L 146.533091 130.363407 
L 147.218182 130.445911 
L 147.903273 129.566354 
L 148.245818 129.052091 
L 148.930909 128.62943 
L 149.616 128.680235 
L 150.643636 128.552412 
L 150.986182 127.718516 
L 151.328727 127.420534 
L 152.013818 127.640535 
L 152.356364 127.601606 
L 153.384 127.095577 
L 153.726545 126.28729 
L 154.069091 126.005674 
L 154.754182 126.184561 
L 155.439273 125.43458 
L 155.781818 125.241648 
L 156.124364 124.610363 
L 156.466909 124.380514 
L 157.152 124.491207 
L 157.494545 124.405289 
L 157.837091 124.011733 
L 158.522182 123.932314 
L 159.892364 122.762453 
L 160.577455 122.970516 
L 161.947636 122.297892 
L 162.975273 121.810298 
L 163.317818 122.051675 
L 163.660364 121.990801 
L 165.030545 121.202215 
L 165.373091 121.203979 
L 165.715636 121.001813 
L 166.400727 119.838919 
L 166.743273 119.740716 
L 167.428364 118.963332 
L 167.770909 118.746638 
L 168.113455 119.270602 
L 168.456 119.477936 
L 169.483636 117.985379 
L 169.826182 117.470766 
L 170.168727 117.514551 
L 170.511273 117.26629 
L 170.853818 117.910014 
L 171.196364 118.26951 
L 172.224 118.025419 
L 172.566545 118.372803 
L 173.251636 118.41507 
L 173.936727 117.98681 
L 174.279273 117.807405 
L 175.306909 118.268981 
L 175.649455 118.244298 
L 176.334545 118.505326 
L 176.677091 119.006856 
L 177.019636 119.239685 
L 177.362182 119.095456 
L 177.704727 119.117959 
L 178.047273 119.339663 
L 178.732364 120.542776 
L 180.445091 122.917458 
L 181.472727 124.681977 
L 182.842909 127.654259 
L 183.528 128.942114 
L 184.898182 129.66625 
L 185.583273 129.001789 
L 185.925818 129.266271 
L 186.268364 129.832804 
L 186.953455 130.425199 
L 187.296 130.111015 
L 187.638545 130.190038 
L 188.666182 129.798947 
L 189.008727 129.259718 
L 189.693818 128.831718 
L 190.036364 128.386149 
L 190.378909 128.437177 
L 190.721455 128.28487 
L 191.406545 127.260659 
L 192.091636 125.350203 
L 192.776727 124.293531 
L 193.119273 124.081263 
L 193.461818 123.706195 
L 193.804364 123.090829 
L 194.832 121.821418 
L 195.174545 121.316563 
L 196.544727 118.055674 
L 197.572364 114.412713 
L 198.6 111.503885 
L 198.942545 110.407783 
L 199.970182 106.126869 
L 200.655273 104.317768 
L 201.682909 102.524821 
L 202.025455 101.463405 
L 202.710545 100.862825 
L 203.053091 100.156002 
L 203.738182 98.156534 
L 204.765818 96.149273 
L 205.793455 93.001453 
L 207.506182 90.009303 
L 208.533818 88.899082 
L 209.218909 88.741108 
L 210.589091 86.440331 
L 211.274182 85.478259 
L 211.959273 84.474631 
L 212.644364 83.691288 
L 212.986909 83.816766 
L 213.329455 83.782688 
L 214.357091 82.46108 
L 215.042182 81.776465 
L 215.384727 81.76657 
L 215.727273 81.95368 
L 216.069818 81.841094 
L 216.754909 82.524292 
L 217.097455 82.883593 
L 217.782545 82.655726 
L 218.810182 82.035378 
L 219.152727 82.011785 
L 219.837818 82.311625 
L 220.180364 82.704345 
L 221.208 82.293221 
L 221.893091 82.587382 
L 222.578182 83.562592 
L 222.920727 84.150105 
L 223.605818 84.725585 
L 224.290909 84.394857 
L 224.976 84.504614 
L 225.318545 84.379877 
L 225.661091 84.467284 
L 226.003636 84.233948 
L 227.716364 84.833297 
L 228.058909 85.453579 
L 228.401455 85.467908 
L 229.771636 86.783264 
L 230.456727 86.706808 
L 231.141818 87.433952 
L 231.484364 87.244632 
L 231.826909 87.752033 
L 232.169455 88.058246 
L 232.854545 87.778395 
L 233.197091 88.099438 
L 233.539636 87.92815 
L 234.224727 88.202884 
L 235.252364 89.649107 
L 235.594909 89.656684 
L 236.28 90.350625 
L 236.965091 90.345339 
L 237.307636 90.747814 
L 237.992727 93.143852 
L 240.048 100.537108 
L 241.760727 106.981519 
L 242.103273 107.715601 
L 242.788364 110.71178 
L 243.816 114.660364 
L 244.843636 117.083545 
L 245.186182 117.559199 
L 245.528727 118.312419 
L 246.556364 119.143932 
L 247.241455 120.237801 
L 247.926545 121.865914 
L 249.639273 124.959733 
L 249.981818 125.433408 
L 251.694545 128.80504 
L 252.379636 128.887317 
L 252.722182 129.349711 
L 253.064727 129.62138 
L 253.407273 130.140839 
L 254.092364 130.29986 
L 254.434909 129.999916 
L 254.777455 129.416801 
L 255.12 128.611439 
L 255.462545 128.329617 
L 255.805091 127.837395 
L 256.147636 127.071943 
L 257.517818 122.103745 
L 257.860364 121.667562 
L 258.545455 120.20347 
L 258.888 119.411489 
L 259.230545 119.345146 
L 260.600727 116.09789 
L 261.285818 114.927974 
L 261.628364 114.286549 
L 261.970909 114.225005 
L 262.313455 113.832696 
L 262.656 113.776094 
L 263.341091 113.933544 
L 264.026182 113.256753 
L 264.711273 111.750866 
L 265.053818 111.274796 
L 265.396364 111.046939 
L 265.738909 111.104143 
L 266.081455 110.560982 
L 266.424 109.761831 
L 266.766545 109.601737 
L 267.109091 109.579693 
L 267.794182 108.463534 
L 268.136727 108.29449 
L 269.506909 105.992559 
L 269.849455 105.880269 
L 270.534545 104.799456 
L 270.877091 104.896888 
L 271.219636 104.847558 
L 271.904727 104.468321 
L 272.247273 103.668315 
L 272.932364 101.661053 
L 273.617455 100.483054 
L 273.96 99.420958 
L 274.302545 99.399386 
L 274.987636 97.201378 
L 275.330182 96.823394 
L 276.015273 96.881228 
L 276.357818 96.46016 
L 276.700364 96.223697 
L 277.042909 96.206367 
L 277.385455 96.401037 
L 277.728 96.051418 
L 278.413091 96.335921 
L 278.755636 96.194141 
L 280.125818 96.770115 
L 280.810909 97.664045 
L 281.838545 99.240508 
L 282.181091 99.441704 
L 282.523636 99.405913 
L 283.551273 100.380963 
L 283.893818 100.435746 
L 284.921455 100.105571 
L 285.264 99.80813 
L 285.606545 99.70471 
L 285.949091 99.921506 
L 286.291636 100.738114 
L 287.661818 101.869267 
L 288.346909 101.664054 
L 288.689455 101.942737 
L 289.717091 104.281718 
L 290.059636 105.292443 
L 290.402182 105.739624 
L 292.114909 110.549651 
L 293.142545 111.649843 
L 293.827636 112.211739 
L 294.512727 112.386097 
L 294.855273 112.491807 
L 295.197818 112.189001 
L 295.540364 112.615372 
L 295.882909 112.822409 
L 296.225455 112.676644 
L 296.910545 112.699065 
L 297.253091 112.643523 
L 297.938182 112.018298 
L 298.280727 111.577416 
L 298.623273 111.397448 
L 300.678545 113.086133 
L 301.021091 113.350484 
L 301.363636 113.411692 
L 301.706182 113.894163 
L 302.048727 114.13049 
L 302.391273 114.110993 
L 302.733818 113.915066 
L 303.076364 113.850333 
L 303.418909 113.474161 
L 304.104 113.781056 
L 304.446545 113.874125 
L 305.474182 113.392196 
L 306.159273 112.773458 
L 306.501818 112.900308 
L 307.186909 112.520009 
L 307.529455 112.595577 
L 308.214545 112.491324 
L 309.584727 113.9341 
L 309.927273 113.998022 
L 310.269818 113.933321 
L 310.612364 113.667544 
L 310.954909 113.227793 
L 311.982545 114.020629 
L 312.325091 114.3987 
L 312.667636 114.470348 
L 314.037818 115.611506 
L 314.380364 115.7045 
L 315.065455 116.259682 
L 315.408 116.562699 
L 315.750545 116.597242 
L 316.778182 116.125705 
L 317.463273 116.604884 
L 317.805818 117.033202 
L 318.148364 117.080809 
L 318.490909 117.288204 
L 318.833455 117.09265 
L 319.176 117.256369 
L 320.203636 118.331204 
L 320.546182 118.950264 
L 320.888727 119.185688 
L 321.573818 118.814898 
L 322.258909 119.03111 
L 322.601455 119.17567 
L 323.286545 119.848897 
L 323.629091 120.136218 
L 323.971636 120.593291 
L 324.314182 120.701805 
L 324.656727 121.066439 
L 325.341818 121.361458 
L 325.684364 121.408043 
L 326.369455 121.066888 
L 327.397091 119.746785 
L 327.739636 119.534608 
L 328.082182 119.459621 
L 328.767273 117.691917 
L 329.794909 116.574173 
L 330.137455 115.931487 
L 330.822545 113.269556 
L 332.535273 108.607114 
L 335.960727 102.824605 
L 336.303273 102.367347 
L 336.645818 102.121157 
L 337.673455 100.74856 
L 338.016 100.562063 
L 338.358545 100.698145 
L 338.701091 101.071985 
L 339.043636 101.116363 
L 340.071273 101.866052 
L 340.756364 101.934828 
L 341.098909 101.493901 
L 341.784 101.785862 
L 342.126545 101.681675 
L 342.469091 101.699152 
L 343.496727 101.290992 
L 343.839273 101.156579 
L 346.237091 104.260129 
L 346.579636 104.529212 
L 347.264727 105.701828 
L 347.949818 107.95133 
L 348.634909 109.673 
L 349.32 111.732586 
L 350.005091 112.462937 
L 351.032727 114.011431 
L 351.375273 114.303622 
L 352.402909 115.868531 
L 353.430545 117.781913 
L 353.773091 118.470602 
L 354.115636 119.420273 
L 354.800727 120.248775 
L 355.143273 120.301235 
L 355.828364 120.191343 
L 357.198545 121.168868 
L 357.883636 121.066581 
L 358.226182 121.766795 
L 359.596364 122.537339 
L 360.624 123.20333 
L 360.966545 123.584619 
L 361.309091 123.626796 
L 361.651636 124.165076 
L 361.994182 124.268086 
L 363.021818 125.214498 
L 364.392 125.010079 
L 364.734545 124.443851 
L 365.077091 124.156478 
L 365.762182 124.196476 
L 366.447273 123.645864 
L 366.789818 123.83763 
L 367.817455 123.0463 
L 368.16 122.576288 
L 369.530182 121.691853 
L 369.872727 122.24413 
L 370.215273 122.269239 
L 370.557818 122.428532 
L 370.900364 122.214417 
L 371.242909 122.214638 
L 371.585455 122.54513 
L 371.928 122.508716 
L 372.270545 122.918397 
L 373.298182 124.469078 
L 373.983273 124.900807 
L 374.325818 124.949548 
L 375.696 125.963012 
L 376.038545 126.120381 
L 376.723636 126.088952 
L 377.408727 126.239951 
L 378.093818 126.831014 
L 378.436364 127.042907 
L 378.778909 126.960616 
L 380.149091 127.649312 
L 380.491636 128.238109 
L 381.519273 128.914101 
L 382.204364 130.0989 
L 382.546909 130.316518 
L 382.889455 130.304639 
L 383.574545 130.915296 
L 383.917091 131.158544 
L 385.629818 134.292469 
L 386.657455 135.214089 
L 387 135.109723 
L 387.342545 135.174526 
L 387.685091 135.081401 
L 388.370182 135.10368 
L 388.712727 134.643335 
L 389.055273 134.979924 
L 389.397818 134.799551 
L 390.768 133.621851 
L 391.110545 133.40905 
L 392.138182 133.072983 
L 392.480727 132.743067 
L 393.165818 132.511936 
L 393.508364 132.837743 
L 393.850909 132.542901 
L 394.536 132.53143 
L 395.563636 132.711374 
L 396.248727 132.299517 
L 397.276364 132.471483 
L 398.989091 132.270411 
L 399.674182 132.631132 
L 400.701818 133.744851 
L 401.386909 134.185114 
L 402.414545 134.366895 
L 403.442182 134.660127 
L 403.784727 134.66144 
L 404.469818 134.369822 
L 405.154909 133.466267 
L 405.497455 133.39323 
L 405.84 133.575285 
L 406.182545 133.488495 
L 407.895273 133.986746 
L 408.580364 134.195879 
L 408.922909 134.124025 
L 409.608 134.617862 
L 409.950545 134.640723 
L 410.635636 134.370226 
L 410.978182 134.421618 
L 412.690909 132.066393 
L 413.376 131.705451 
L 414.746182 130.189513 
L 415.088727 130.314853 
L 416.116364 129.619751 
L 416.458909 129.035201 
L 416.801455 128.772947 
L 417.486545 127.545107 
L 418.856727 125.372189 
L 419.884364 123.938748 
L 420.912 122.279354 
L 422.624727 121.544708 
L 422.967273 121.29612 
L 423.652364 120.404676 
L 424.337455 119.971836 
L 424.68 119.57802 
L 425.022545 118.804188 
L 425.707636 117.872944 
L 426.392727 116.832517 
L 426.392727 116.832517 
" clip-path="url(#p629c0e3974)" style="fill: none; stroke: #38a7d0; stroke-width: 2; stroke-linecap: square"/>
   </g>
   <g id="patch_3">
    <path d="M 66.72 287.7 
L 66.72 37.68 
" style="fill: none; stroke: #000000; stroke-linejoin: miter; stroke-linecap: square"/>
   </g>
   <g id="patch_4">
    <path d="M 443.52 287.7 
L 443.52 37.68 
" style="fill: none; stroke: #000000; stroke-linejoin: miter; stroke-linecap: square"/>
   </g>
   <g id="patch_5">
    <path d="M 66.72 287.7 
L 443.52 287.7 
" style="fill: none; stroke: #000000; stroke-linejoin: miter; stroke-linecap: square"/>
   </g>
   <g id="patch_6">
    <path d="M 66.72 37.68 
L 443.52 37.68 
" style="fill: none; stroke: #000000; stroke-linejoin: miter; stroke-linecap: square"/>
   </g>
   <g id="text_14">
    <!--   -->
    <g transform="translate(252.069 31.68) scale(0.192 -0.192)">
     <use xlink:href="#DejaVuSans-20"/>
    </g>
   </g>
   <g id="legend_1">
    <g id="line2d_14">
     <path d="M 274.712813 267.288437 
L 288.712813 267.288437 
L 302.712813 267.288437 
" style="fill: none; stroke: #38a7d0; stroke-width: 2; stroke-linecap: square"/>
    </g>
    <g id="text_15">
     <!-- RNA-hnRNPA2B1 -->
     <g transform="translate(313.912813 272.188437) scale(0.14 -0.14)">
      <defs>
       <path id="DejaVuSans-4e" d="M 628 4666 
L 1478 4666 
L 3547 763 
L 3547 4666 
L 4159 4666 
L 4159 0 
L 3309 0 
L 1241 3903 
L 1241 0 
L 628 0 
L 628 4666 
z
" transform="scale(0.015625)"/>
       <path id="DejaVuSans-41" d="M 2188 4044 
L 1331 1722 
L 3047 1722 
L 2188 4044 
z
M 1831 4666 
L 2547 4666 
L 4325 0 
L 3669 0 
L 3244 1197 
L 1141 1197 
L 716 0 
L 50 0 
L 1831 4666 
z
" transform="scale(0.015625)"/>
       <path id="DejaVuSans-2d" d="M 313 2009 
L 1997 2009 
L 1997 1497 
L 313 1497 
L 313 2009 
z
" transform="scale(0.015625)"/>
       <path id="DejaVuSans-68" d="M 3513 2113 
L 3513 0 
L 2938 0 
L 2938 2094 
Q 2938 2591 2744 2837 
Q 2550 3084 2163 3084 
Q 1697 3084 1428 2787 
Q 1159 2491 1159 1978 
L 1159 0 
L 581 0 
L 581 4863 
L 1159 4863 
L 1159 2956 
Q 1366 3272 1645 3428 
Q 1925 3584 2291 3584 
Q 2894 3584 3203 3211 
Q 3513 2838 3513 2113 
z
" transform="scale(0.015625)"/>
       <path id="DejaVuSans-50" d="M 1259 4147 
L 1259 2394 
L 2053 2394 
Q 2494 2394 2734 2622 
Q 2975 2850 2975 3272 
Q 2975 3691 2734 3919 
Q 2494 4147 2053 4147 
L 1259 4147 
z
M 628 4666 
L 2053 4666 
Q 2838 4666 3239 4311 
Q 3641 3956 3641 3272 
Q 3641 2581 3239 2228 
Q 2838 1875 2053 1875 
L 1259 1875 
L 1259 0 
L 628 0 
L 628 4666 
z
" transform="scale(0.015625)"/>
       <path id="DejaVuSans-42" d="M 1259 2228 
L 1259 519 
L 2272 519 
Q 2781 519 3026 730 
Q 3272 941 3272 1375 
Q 3272 1813 3026 2020 
Q 2781 2228 2272 2228 
L 1259 2228 
z
M 1259 4147 
L 1259 2741 
L 2194 2741 
Q 2656 2741 2882 2914 
Q 3109 3088 3109 3444 
Q 3109 3797 2882 3972 
Q 2656 4147 2194 4147 
L 1259 4147 
z
M 628 4666 
L 2241 4666 
Q 2963 4666 3353 4366 
Q 3744 4066 3744 3513 
Q 3744 3084 3544 2831 
Q 3344 2578 2956 2516 
Q 3422 2416 3680 2098 
Q 3938 1781 3938 1306 
Q 3938 681 3513 340 
Q 3088 0 2303 0 
L 628 0 
L 628 4666 
z
" transform="scale(0.015625)"/>
      </defs>
      <use xlink:href="#DejaVuSans-52"/>
      <use xlink:href="#DejaVuSans-4e" x="69.482422"/>
      <use xlink:href="#DejaVuSans-41" x="144.287109"/>
      <use xlink:href="#DejaVuSans-2d" x="210.445312"/>
      <use xlink:href="#DejaVuSans-68" x="246.529297"/>
      <use xlink:href="#DejaVuSans-6e" x="309.908203"/>
      <use xlink:href="#DejaVuSans-52" x="373.287109"/>
      <use xlink:href="#DejaVuSans-4e" x="442.769531"/>
      <use xlink:href="#DejaVuSans-50" x="517.574219"/>
      <use xlink:href="#DejaVuSans-41" x="571.501953"/>
      <use xlink:href="#DejaVuSans-32" x="639.910156"/>
      <use xlink:href="#DejaVuSans-42" x="703.533203"/>
      <use xlink:href="#DejaVuSans-31" x="772.136719"/>
     </g>
    </g>
   </g>
  </g>
 </g>
 <defs>
  <clipPath id="p629c0e3974">
   <rect x="66.72" y="37.68" width="376.8" height="250.02"/>
  </clipPath>
 </defs>
</svg>
