<?xml version="1.0" encoding="utf-8" standalone="no"?>
<!DOCTYPE svg PUBLIC "-//W3C//DTD SVG 1.1//EN"
  "http://www.w3.org/Graphics/SVG/1.1/DTD/svg11.dtd">
<svg xmlns:xlink="http://www.w3.org/1999/xlink" width="460.8pt" height="345.6pt" viewBox="0 0 460.8 345.6" xmlns="http://www.w3.org/2000/svg" version="1.1">
 <metadata>
  <rdf:RDF xmlns:dc="http://purl.org/dc/elements/1.1/" xmlns:cc="http://creativecommons.org/ns#" xmlns:rdf="http://www.w3.org/1999/02/22-rdf-syntax-ns#">
   <cc:Work>
    <dc:type rdf:resource="http://purl.org/dc/dcmitype/StillImage"/>
    <dc:date>2025-01-15T10:48:16.661841</dc:date>
    <dc:format>image/svg+xml</dc:format>
    <dc:creator>
     <cc:Agent>
      <dc:title>Matplotlib v3.9.2, https://matplotlib.org/</dc:title>
     </cc:Agent>
    </dc:creator>
   </cc:Work>
  </rdf:RDF>
 </metadata>
 <defs>
  <style type="text/css">*{stroke-linejoin: round; stroke-linecap: butt}</style>
 </defs>
 <g id="figure_1">
  <g id="patch_1">
   <path d="M 0 345.6 
L 460.8 345.6 
L 460.8 0 
L 0 0 
z
" style="fill: #ffffff"/>
  </g>
  <g id="axes_1">
   <g id="patch_2">
    <path d="M 66.72 287.7 
L 443.52 287.7 
L 443.52 37.68 
L 66.72 37.68 
z
" style="fill: #ffffff"/>
   </g>
   <g id="matplotlib.axis_1">
    <g id="xtick_1">
     <g id="line2d_1">
      <defs>
       <path id="me3d440819e" d="M 0 0 
L 0 -3.5 
" style="stroke: #000000; stroke-width: 0.8"/>
      </defs>
      <g>
       <use xlink:href="#me3d440819e" x="83.847273" y="287.7" style="stroke: #000000; stroke-width: 0.8"/>
      </g>
     </g>
     <g id="text_1">
      <!-- 0 -->
      <g transform="translate(78.757273 303.3575) scale(0.16 -0.16)">
       <defs>
        <path id="DejaVuSans-30" d="M 2034 4250 
Q 1547 4250 1301 3770 
Q 1056 3291 1056 2328 
Q 1056 1369 1301 889 
Q 1547 409 2034 409 
Q 2525 409 2770 889 
Q 3016 1369 3016 2328 
Q 3016 3291 2770 3770 
Q 2525 4250 2034 4250 
z
M 2034 4750 
Q 2819 4750 3233 4129 
Q 3647 3509 3647 2328 
Q 3647 1150 3233 529 
Q 2819 -91 2034 -91 
Q 1250 -91 836 529 
Q 422 1150 422 2328 
Q 422 3509 836 4129 
Q 1250 4750 2034 4750 
z
" transform="scale(0.015625)"/>
       </defs>
       <use xlink:href="#DejaVuSans-30"/>
      </g>
     </g>
    </g>
    <g id="xtick_2">
     <g id="line2d_2">
      <g>
       <use xlink:href="#me3d440819e" x="152.356364" y="287.7" style="stroke: #000000; stroke-width: 0.8"/>
      </g>
     </g>
     <g id="text_2">
      <!-- 20 -->
      <g transform="translate(142.176364 303.3575) scale(0.16 -0.16)">
       <defs>
        <path id="DejaVuSans-32" d="M 1228 531 
L 3431 531 
L 3431 0 
L 469 0 
L 469 531 
Q 828 903 1448 1529 
Q 2069 2156 2228 2338 
Q 2531 2678 2651 2914 
Q 2772 3150 2772 3378 
Q 2772 3750 2511 3984 
Q 2250 4219 1831 4219 
Q 1534 4219 1204 4116 
Q 875 4013 500 3803 
L 500 4441 
Q 881 4594 1212 4672 
Q 1544 4750 1819 4750 
Q 2544 4750 2975 4387 
Q 3406 4025 3406 3419 
Q 3406 3131 3298 2873 
Q 3191 2616 2906 2266 
Q 2828 2175 2409 1742 
Q 1991 1309 1228 531 
z
" transform="scale(0.015625)"/>
       </defs>
       <use xlink:href="#DejaVuSans-32"/>
       <use xlink:href="#DejaVuSans-30" x="63.623047"/>
      </g>
     </g>
    </g>
    <g id="xtick_3">
     <g id="line2d_3">
      <g>
       <use xlink:href="#me3d440819e" x="220.865455" y="287.7" style="stroke: #000000; stroke-width: 0.8"/>
      </g>
     </g>
     <g id="text_3">
      <!-- 40 -->
      <g transform="translate(210.685455 303.3575) scale(0.16 -0.16)">
       <defs>
        <path id="DejaVuSans-34" d="M 2419 4116 
L 825 1625 
L 2419 1625 
L 2419 4116 
z
M 2253 4666 
L 3047 4666 
L 3047 1625 
L 3713 1625 
L 3713 1100 
L 3047 1100 
L 3047 0 
L 2419 0 
L 2419 1100 
L 313 1100 
L 313 1709 
L 2253 4666 
z
" transform="scale(0.015625)"/>
       </defs>
       <use xlink:href="#DejaVuSans-34"/>
       <use xlink:href="#DejaVuSans-30" x="63.623047"/>
      </g>
     </g>
    </g>
    <g id="xtick_4">
     <g id="line2d_4">
      <g>
       <use xlink:href="#me3d440819e" x="289.374545" y="287.7" style="stroke: #000000; stroke-width: 0.8"/>
      </g>
     </g>
     <g id="text_4">
      <!-- 60 -->
      <g transform="translate(279.194545 303.3575) scale(0.16 -0.16)">
       <defs>
        <path id="DejaVuSans-36" d="M 2113 2584 
Q 1688 2584 1439 2293 
Q 1191 2003 1191 1497 
Q 1191 994 1439 701 
Q 1688 409 2113 409 
Q 2538 409 2786 701 
Q 3034 994 3034 1497 
Q 3034 2003 2786 2293 
Q 2538 2584 2113 2584 
z
M 3366 4563 
L 3366 3988 
Q 3128 4100 2886 4159 
Q 2644 4219 2406 4219 
Q 1781 4219 1451 3797 
Q 1122 3375 1075 2522 
Q 1259 2794 1537 2939 
Q 1816 3084 2150 3084 
Q 2853 3084 3261 2657 
Q 3669 2231 3669 1497 
Q 3669 778 3244 343 
Q 2819 -91 2113 -91 
Q 1303 -91 875 529 
Q 447 1150 447 2328 
Q 447 3434 972 4092 
Q 1497 4750 2381 4750 
Q 2619 4750 2861 4703 
Q 3103 4656 3366 4563 
z
" transform="scale(0.015625)"/>
       </defs>
       <use xlink:href="#DejaVuSans-36"/>
       <use xlink:href="#DejaVuSans-30" x="63.623047"/>
      </g>
     </g>
    </g>
    <g id="xtick_5">
     <g id="line2d_5">
      <g>
       <use xlink:href="#me3d440819e" x="357.883636" y="287.7" style="stroke: #000000; stroke-width: 0.8"/>
      </g>
     </g>
     <g id="text_5">
      <!-- 80 -->
      <g transform="translate(347.703636 303.3575) scale(0.16 -0.16)">
       <defs>
        <path id="DejaVuSans-38" d="M 2034 2216 
Q 1584 2216 1326 1975 
Q 1069 1734 1069 1313 
Q 1069 891 1326 650 
Q 1584 409 2034 409 
Q 2484 409 2743 651 
Q 3003 894 3003 1313 
Q 3003 1734 2745 1975 
Q 2488 2216 2034 2216 
z
M 1403 2484 
Q 997 2584 770 2862 
Q 544 3141 544 3541 
Q 544 4100 942 4425 
Q 1341 4750 2034 4750 
Q 2731 4750 3128 4425 
Q 3525 4100 3525 3541 
Q 3525 3141 3298 2862 
Q 3072 2584 2669 2484 
Q 3125 2378 3379 2068 
Q 3634 1759 3634 1313 
Q 3634 634 3220 271 
Q 2806 -91 2034 -91 
Q 1263 -91 848 271 
Q 434 634 434 1313 
Q 434 1759 690 2068 
Q 947 2378 1403 2484 
z
M 1172 3481 
Q 1172 3119 1398 2916 
Q 1625 2713 2034 2713 
Q 2441 2713 2670 2916 
Q 2900 3119 2900 3481 
Q 2900 3844 2670 4047 
Q 2441 4250 2034 4250 
Q 1625 4250 1398 4047 
Q 1172 3844 1172 3481 
z
" transform="scale(0.015625)"/>
       </defs>
       <use xlink:href="#DejaVuSans-38"/>
       <use xlink:href="#DejaVuSans-30" x="63.623047"/>
      </g>
     </g>
    </g>
    <g id="xtick_6">
     <g id="line2d_6">
      <g>
       <use xlink:href="#me3d440819e" x="426.392727" y="287.7" style="stroke: #000000; stroke-width: 0.8"/>
      </g>
     </g>
     <g id="text_6">
      <!-- 100 -->
      <g transform="translate(411.122727 303.3575) scale(0.16 -0.16)">
       <defs>
        <path id="DejaVuSans-31" d="M 794 531 
L 1825 531 
L 1825 4091 
L 703 3866 
L 703 4441 
L 1819 4666 
L 2450 4666 
L 2450 531 
L 3481 531 
L 3481 0 
L 794 0 
L 794 531 
z
" transform="scale(0.015625)"/>
       </defs>
       <use xlink:href="#DejaVuSans-31"/>
       <use xlink:href="#DejaVuSans-30" x="63.623047"/>
       <use xlink:href="#DejaVuSans-30" x="127.246094"/>
      </g>
     </g>
    </g>
    <g id="text_7">
     <!-- Time(ns) -->
     <g transform="translate(220.06625 322.8425) scale(0.16 -0.16)">
      <defs>
       <path id="DejaVuSans-54" d="M -19 4666 
L 3928 4666 
L 3928 4134 
L 2272 4134 
L 2272 0 
L 1638 0 
L 1638 4134 
L -19 4134 
L -19 4666 
z
" transform="scale(0.015625)"/>
       <path id="DejaVuSans-69" d="M 603 3500 
L 1178 3500 
L 1178 0 
L 603 0 
L 603 3500 
z
M 603 4863 
L 1178 4863 
L 1178 4134 
L 603 4134 
L 603 4863 
z
" transform="scale(0.015625)"/>
       <path id="DejaVuSans-6d" d="M 3328 2828 
Q 3544 3216 3844 3400 
Q 4144 3584 4550 3584 
Q 5097 3584 5394 3201 
Q 5691 2819 5691 2113 
L 5691 0 
L 5113 0 
L 5113 2094 
Q 5113 2597 4934 2840 
Q 4756 3084 4391 3084 
Q 3944 3084 3684 2787 
Q 3425 2491 3425 1978 
L 3425 0 
L 2847 0 
L 2847 2094 
Q 2847 2600 2669 2842 
Q 2491 3084 2119 3084 
Q 1678 3084 1418 2786 
Q 1159 2488 1159 1978 
L 1159 0 
L 581 0 
L 581 3500 
L 1159 3500 
L 1159 2956 
Q 1356 3278 1631 3431 
Q 1906 3584 2284 3584 
Q 2666 3584 2933 3390 
Q 3200 3197 3328 2828 
z
" transform="scale(0.015625)"/>
       <path id="DejaVuSans-65" d="M 3597 1894 
L 3597 1613 
L 953 1613 
Q 991 1019 1311 708 
Q 1631 397 2203 397 
Q 2534 397 2845 478 
Q 3156 559 3463 722 
L 3463 178 
Q 3153 47 2828 -22 
Q 2503 -91 2169 -91 
Q 1331 -91 842 396 
Q 353 884 353 1716 
Q 353 2575 817 3079 
Q 1281 3584 2069 3584 
Q 2775 3584 3186 3129 
Q 3597 2675 3597 1894 
z
M 3022 2063 
Q 3016 2534 2758 2815 
Q 2500 3097 2075 3097 
Q 1594 3097 1305 2825 
Q 1016 2553 972 2059 
L 3022 2063 
z
" transform="scale(0.015625)"/>
       <path id="DejaVuSans-28" d="M 1984 4856 
Q 1566 4138 1362 3434 
Q 1159 2731 1159 2009 
Q 1159 1288 1364 580 
Q 1569 -128 1984 -844 
L 1484 -844 
Q 1016 -109 783 600 
Q 550 1309 550 2009 
Q 550 2706 781 3412 
Q 1013 4119 1484 4856 
L 1984 4856 
z
" transform="scale(0.015625)"/>
       <path id="DejaVuSans-6e" d="M 3513 2113 
L 3513 0 
L 2938 0 
L 2938 2094 
Q 2938 2591 2744 2837 
Q 2550 3084 2163 3084 
Q 1697 3084 1428 2787 
Q 1159 2491 1159 1978 
L 1159 0 
L 581 0 
L 581 3500 
L 1159 3500 
L 1159 2956 
Q 1366 3272 1645 3428 
Q 1925 3584 2291 3584 
Q 2894 3584 3203 3211 
Q 3513 2838 3513 2113 
z
" transform="scale(0.015625)"/>
       <path id="DejaVuSans-73" d="M 2834 3397 
L 2834 2853 
Q 2591 2978 2328 3040 
Q 2066 3103 1784 3103 
Q 1356 3103 1142 2972 
Q 928 2841 928 2578 
Q 928 2378 1081 2264 
Q 1234 2150 1697 2047 
L 1894 2003 
Q 2506 1872 2764 1633 
Q 3022 1394 3022 966 
Q 3022 478 2636 193 
Q 2250 -91 1575 -91 
Q 1294 -91 989 -36 
Q 684 19 347 128 
L 347 722 
Q 666 556 975 473 
Q 1284 391 1588 391 
Q 1994 391 2212 530 
Q 2431 669 2431 922 
Q 2431 1156 2273 1281 
Q 2116 1406 1581 1522 
L 1381 1569 
Q 847 1681 609 1914 
Q 372 2147 372 2553 
Q 372 3047 722 3315 
Q 1072 3584 1716 3584 
Q 2034 3584 2315 3537 
Q 2597 3491 2834 3397 
z
" transform="scale(0.015625)"/>
       <path id="DejaVuSans-29" d="M 513 4856 
L 1013 4856 
Q 1481 4119 1714 3412 
Q 1947 2706 1947 2009 
Q 1947 1309 1714 600 
Q 1481 -109 1013 -844 
L 513 -844 
Q 928 -128 1133 580 
Q 1338 1288 1338 2009 
Q 1338 2731 1133 3434 
Q 928 4138 513 4856 
z
" transform="scale(0.015625)"/>
      </defs>
      <use xlink:href="#DejaVuSans-54"/>
      <use xlink:href="#DejaVuSans-69" x="57.958984"/>
      <use xlink:href="#DejaVuSans-6d" x="85.742188"/>
      <use xlink:href="#DejaVuSans-65" x="183.154297"/>
      <use xlink:href="#DejaVuSans-28" x="244.677734"/>
      <use xlink:href="#DejaVuSans-6e" x="283.691406"/>
      <use xlink:href="#DejaVuSans-73" x="347.070312"/>
      <use xlink:href="#DejaVuSans-29" x="399.169922"/>
     </g>
    </g>
   </g>
   <g id="matplotlib.axis_2">
    <g id="ytick_1">
     <g id="line2d_7">
      <defs>
       <path id="m52811cf105" d="M 0 0 
L 3.5 0 
" style="stroke: #000000; stroke-width: 0.8"/>
      </defs>
      <g>
       <use xlink:href="#m52811cf105" x="66.72" y="276.506831" style="stroke: #000000; stroke-width: 0.8"/>
      </g>
     </g>
     <g id="text_8">
      <!-- 0.0 -->
      <g transform="translate(37.775 282.585581) scale(0.16 -0.16)">
       <defs>
        <path id="DejaVuSans-2e" d="M 684 794 
L 1344 794 
L 1344 0 
L 684 0 
L 684 794 
z
" transform="scale(0.015625)"/>
       </defs>
       <use xlink:href="#DejaVuSans-30"/>
       <use xlink:href="#DejaVuSans-2e" x="63.623047"/>
       <use xlink:href="#DejaVuSans-30" x="95.410156"/>
      </g>
     </g>
    </g>
    <g id="ytick_2">
     <g id="line2d_8">
      <g>
       <use xlink:href="#m52811cf105" x="66.72" y="208.174763" style="stroke: #000000; stroke-width: 0.8"/>
      </g>
     </g>
     <g id="text_9">
      <!-- 0.2 -->
      <g transform="translate(37.775 214.253513) scale(0.16 -0.16)">
       <use xlink:href="#DejaVuSans-30"/>
       <use xlink:href="#DejaVuSans-2e" x="63.623047"/>
       <use xlink:href="#DejaVuSans-32" x="95.410156"/>
      </g>
     </g>
    </g>
    <g id="ytick_3">
     <g id="line2d_9">
      <g>
       <use xlink:href="#m52811cf105" x="66.72" y="139.842695" style="stroke: #000000; stroke-width: 0.8"/>
      </g>
     </g>
     <g id="text_10">
      <!-- 0.4 -->
      <g transform="translate(37.775 145.921445) scale(0.16 -0.16)">
       <use xlink:href="#DejaVuSans-30"/>
       <use xlink:href="#DejaVuSans-2e" x="63.623047"/>
       <use xlink:href="#DejaVuSans-34" x="95.410156"/>
      </g>
     </g>
    </g>
    <g id="ytick_4">
     <g id="line2d_10">
      <g>
       <use xlink:href="#m52811cf105" x="66.72" y="71.510626" style="stroke: #000000; stroke-width: 0.8"/>
      </g>
     </g>
     <g id="text_11">
      <!-- 0.6 -->
      <g transform="translate(37.775 77.589376) scale(0.16 -0.16)">
       <use xlink:href="#DejaVuSans-30"/>
       <use xlink:href="#DejaVuSans-2e" x="63.623047"/>
       <use xlink:href="#DejaVuSans-36" x="95.410156"/>
      </g>
     </g>
    </g>
    <g id="text_12">
     <!-- RMSD (nm) -->
     <g transform="translate(30.4475 208.0375) rotate(-90) scale(0.16 -0.16)">
      <defs>
       <path id="DejaVuSans-52" d="M 2841 2188 
Q 3044 2119 3236 1894 
Q 3428 1669 3622 1275 
L 4263 0 
L 3584 0 
L 2988 1197 
Q 2756 1666 2539 1819 
Q 2322 1972 1947 1972 
L 1259 1972 
L 1259 0 
L 628 0 
L 628 4666 
L 2053 4666 
Q 2853 4666 3247 4331 
Q 3641 3997 3641 3322 
Q 3641 2881 3436 2590 
Q 3231 2300 2841 2188 
z
M 1259 4147 
L 1259 2491 
L 2053 2491 
Q 2509 2491 2742 2702 
Q 2975 2913 2975 3322 
Q 2975 3731 2742 3939 
Q 2509 4147 2053 4147 
L 1259 4147 
z
" transform="scale(0.015625)"/>
       <path id="DejaVuSans-4d" d="M 628 4666 
L 1569 4666 
L 2759 1491 
L 3956 4666 
L 4897 4666 
L 4897 0 
L 4281 0 
L 4281 4097 
L 3078 897 
L 2444 897 
L 1241 4097 
L 1241 0 
L 628 0 
L 628 4666 
z
" transform="scale(0.015625)"/>
       <path id="DejaVuSans-53" d="M 3425 4513 
L 3425 3897 
Q 3066 4069 2747 4153 
Q 2428 4238 2131 4238 
Q 1616 4238 1336 4038 
Q 1056 3838 1056 3469 
Q 1056 3159 1242 3001 
Q 1428 2844 1947 2747 
L 2328 2669 
Q 3034 2534 3370 2195 
Q 3706 1856 3706 1288 
Q 3706 609 3251 259 
Q 2797 -91 1919 -91 
Q 1588 -91 1214 -16 
Q 841 59 441 206 
L 441 856 
Q 825 641 1194 531 
Q 1563 422 1919 422 
Q 2459 422 2753 634 
Q 3047 847 3047 1241 
Q 3047 1584 2836 1778 
Q 2625 1972 2144 2069 
L 1759 2144 
Q 1053 2284 737 2584 
Q 422 2884 422 3419 
Q 422 4038 858 4394 
Q 1294 4750 2059 4750 
Q 2388 4750 2728 4690 
Q 3069 4631 3425 4513 
z
" transform="scale(0.015625)"/>
       <path id="DejaVuSans-44" d="M 1259 4147 
L 1259 519 
L 2022 519 
Q 2988 519 3436 956 
Q 3884 1394 3884 2338 
Q 3884 3275 3436 3711 
Q 2988 4147 2022 4147 
L 1259 4147 
z
M 628 4666 
L 1925 4666 
Q 3281 4666 3915 4102 
Q 4550 3538 4550 2338 
Q 4550 1131 3912 565 
Q 3275 0 1925 0 
L 628 0 
L 628 4666 
z
" transform="scale(0.015625)"/>
       <path id="DejaVuSans-20" transform="scale(0.015625)"/>
      </defs>
      <use xlink:href="#DejaVuSans-52"/>
      <use xlink:href="#DejaVuSans-4d" x="69.482422"/>
      <use xlink:href="#DejaVuSans-53" x="155.761719"/>
      <use xlink:href="#DejaVuSans-44" x="219.238281"/>
      <use xlink:href="#DejaVuSans-20" x="296.240234"/>
      <use xlink:href="#DejaVuSans-28" x="328.027344"/>
      <use xlink:href="#DejaVuSans-6e" x="367.041016"/>
      <use xlink:href="#DejaVuSans-6d" x="430.419922"/>
      <use xlink:href="#DejaVuSans-29" x="527.832031"/>
     </g>
    </g>
   </g>
   <g id="line2d_11">
    <path d="M 83.847273 276.335455 
L 84.189818 210.330947 
L 84.532364 209.029973 
L 84.874909 213.495098 
L 85.217455 213.743519 
L 85.56 197.41745 
L 85.902545 211.583782 
L 86.245091 213.766171 
L 86.587636 206.327406 
L 86.930182 209.568669 
L 87.272727 207.919269 
L 87.615273 204.793316 
L 87.957818 209.382669 
L 88.300364 173.780056 
L 88.642909 182.590656 
L 88.985455 160.968374 
L 89.328 163.90245 
L 89.670545 157.683378 
L 90.355636 171.258226 
L 90.698182 172.024366 
L 91.040727 184.217232 
L 91.383273 177.405789 
L 91.725818 178.44553 
L 92.068364 161.807594 
L 92.410909 160.104212 
L 92.753455 151.730903 
L 93.096 155.193425 
L 93.438545 145.366488 
L 93.781091 139.66568 
L 94.123636 141.596232 
L 94.466182 159.095631 
L 94.808727 138.296955 
L 95.151273 171.771503 
L 95.836364 176.93628 
L 96.178909 169.520781 
L 96.521455 166.951905 
L 96.864 156.849385 
L 97.206545 143.031889 
L 97.549091 180.177611 
L 97.891636 145.98421 
L 98.234182 169.225792 
L 98.576727 171.6743 
L 98.919273 145.367821 
L 99.261818 155.301834 
L 99.604364 156.05236 
L 99.946909 147.638393 
L 100.289455 186.286772 
L 100.632 175.78239 
L 100.974545 173.216555 
L 101.317091 178.603377 
L 101.659636 168.65433 
L 102.002182 162.095887 
L 102.687273 171.016228 
L 103.029818 171.972775 
L 103.372364 158.478285 
L 103.714909 177.993206 
L 104.057455 191.0584 
L 104.4 184.205206 
L 104.742545 162.107332 
L 105.085091 180.858233 
L 105.427636 178.458855 
L 105.770182 171.084765 
L 106.112727 196.720668 
L 106.455273 175.045839 
L 106.797818 183.986338 
L 107.140364 183.586357 
L 107.482909 184.1913 
L 107.825455 186.785117 
L 108.168 183.543307 
L 108.510545 169.715459 
L 108.853091 169.666807 
L 109.538182 179.268214 
L 110.223273 172.62948 
L 110.565818 176.923672 
L 110.908364 176.183534 
L 111.250909 182.957667 
L 111.593455 192.141702 
L 112.278545 172.178181 
L 112.621091 178.871205 
L 113.306182 164.583687 
L 113.648727 175.376976 
L 113.991273 175.204779 
L 114.333818 171.363697 
L 115.018909 195.678433 
L 115.361455 172.173227 
L 115.704 183.298029 
L 116.046545 185.729045 
L 116.389091 179.185122 
L 116.731636 178.865431 
L 117.074182 173.173882 
L 117.416727 155.002437 
L 117.759273 166.072437 
L 118.101818 167.567475 
L 118.444364 171.562475 
L 118.786909 170.548803 
L 119.129455 171.267998 
L 119.472 164.511938 
L 119.814545 172.541947 
L 120.157091 170.5815 
L 120.842182 156.999032 
L 121.184727 170.56469 
L 121.527273 176.316542 
L 121.869818 173.041557 
L 122.212364 176.735896 
L 122.554909 181.893225 
L 122.897455 165.936525 
L 123.24 176.162658 
L 123.582545 164.613924 
L 123.925091 163.030157 
L 124.267636 180.72338 
L 124.610182 171.527352 
L 124.952727 169.857556 
L 125.295273 178.880259 
L 125.637818 168.232687 
L 125.980364 172.403301 
L 126.322909 185.099912 
L 126.665455 188.028863 
L 127.008 187.342878 
L 127.350545 185.71063 
L 127.693091 196.442113 
L 128.035636 200.085203 
L 128.378182 197.001137 
L 128.720727 192.872001 
L 129.063273 197.835164 
L 129.405818 189.881824 
L 129.748364 192.58446 
L 130.090909 183.594488 
L 130.433455 184.15464 
L 130.776 185.111357 
L 131.118545 184.930243 
L 131.461091 173.149419 
L 131.803636 181.161866 
L 132.146182 184.105373 
L 132.488727 185.787196 
L 132.831273 184.895565 
L 133.173818 190.777077 
L 133.516364 185.461115 
L 133.858909 191.286492 
L 134.201455 182.770506 
L 134.544 192.112559 
L 134.886545 184.933318 
L 135.229091 184.100692 
L 135.571636 190.623432 
L 135.914182 191.675165 
L 136.256727 186.607864 
L 136.599273 187.163062 
L 136.941818 188.72773 
L 137.284364 187.238398 
L 137.626909 194.360205 
L 137.969455 194.111852 
L 138.312 194.74676 
L 138.654545 181.319406 
L 138.997091 182.516925 
L 139.339636 186.29668 
L 139.682182 186.739471 
L 140.367273 183.827022 
L 140.709818 193.035417 
L 141.052364 186.977199 
L 141.737455 195.168403 
L 142.08 193.785259 
L 142.422545 193.806716 
L 142.765091 197.137494 
L 143.107636 192.278708 
L 143.792727 180.421591 
L 144.135273 191.607961 
L 144.477818 190.216241 
L 144.820364 178.193385 
L 145.162909 176.897125 
L 145.505455 165.795419 
L 145.848 173.16903 
L 146.190545 173.272348 
L 146.533091 174.225991 
L 146.875636 165.669039 
L 147.218182 162.957657 
L 147.560727 152.117355 
L 147.903273 155.655419 
L 148.245818 171.648881 
L 148.588364 167.053242 
L 148.930909 174.651153 
L 149.273455 172.821186 
L 149.616 170.373394 
L 149.958545 179.707623 
L 150.301091 172.410305 
L 150.643636 172.358749 
L 150.986182 160.850159 
L 151.328727 170.693086 
L 151.671273 170.607944 
L 152.013818 165.535313 
L 152.356364 171.134785 
L 152.698909 171.841646 
L 153.041455 168.342668 
L 153.384 167.609875 
L 154.069091 180.53123 
L 154.754182 164.088245 
L 155.096727 171.418089 
L 155.439273 164.445212 
L 155.781818 166.539931 
L 156.124364 155.170295 
L 156.466909 168.822017 
L 156.809455 161.279763 
L 157.152 169.516954 
L 157.494545 172.005267 
L 157.837091 168.363987 
L 158.179636 173.40932 
L 158.522182 164.212302 
L 158.864727 165.519802 
L 159.207273 167.526475 
L 159.549818 176.780551 
L 159.892364 174.580771 
L 160.234909 170.428573 
L 160.577455 163.925341 
L 160.92 177.701257 
L 161.605091 191.648276 
L 161.947636 187.596458 
L 162.290182 196.313307 
L 162.975273 168.597341 
L 163.660364 173.105174 
L 164.002909 179.446561 
L 164.688 167.95707 
L 165.030545 179.133566 
L 165.373091 163.128555 
L 165.715636 168.520229 
L 166.058182 161.440241 
L 166.400727 170.949058 
L 166.743273 145.684642 
L 167.085818 160.515469 
L 167.428364 155.944395 
L 167.770909 158.49055 
L 168.113455 159.452871 
L 168.456 166.779059 
L 168.798545 157.961182 
L 169.141091 164.130952 
L 169.483636 162.042964 
L 169.826182 158.939731 
L 170.168727 167.510964 
L 170.511273 169.418693 
L 170.853818 156.347383 
L 171.196364 157.186774 
L 171.538909 165.423078 
L 171.881455 164.509102 
L 172.224 161.841657 
L 172.566545 168.710465 
L 172.909091 163.089743 
L 173.251636 166.320688 
L 173.936727 182.092207 
L 174.279273 169.364232 
L 174.621818 168.889632 
L 174.964364 165.305137 
L 175.306909 175.677569 
L 175.649455 168.366789 
L 175.992 167.13975 
L 176.677091 173.067796 
L 177.019636 174.004595 
L 177.362182 184.007863 
L 177.704727 178.135371 
L 178.047273 176.14988 
L 178.389818 175.635442 
L 178.732364 186.332998 
L 179.074909 173.253967 
L 179.417455 187.673673 
L 180.102545 186.268356 
L 180.445091 186.926906 
L 180.787636 190.471598 
L 181.130182 185.878146 
L 181.472727 185.316285 
L 181.815273 194.956403 
L 182.157818 190.755313 
L 182.500364 183.765626 
L 182.842909 190.209886 
L 183.185455 199.641078 
L 183.528 180.411683 
L 183.870545 184.843769 
L 184.213091 169.292039 
L 184.555636 187.292995 
L 184.898182 181.83258 
L 185.240727 180.169685 
L 185.583273 186.584255 
L 185.925818 174.676026 
L 186.268364 177.34757 
L 186.953455 187.747984 
L 187.296 183.425264 
L 187.638545 193.514254 
L 187.981091 170.443947 
L 188.323636 173.877121 
L 188.666182 158.392733 
L 189.008727 165.150945 
L 189.351273 168.116352 
L 189.693818 163.427098 
L 190.036364 177.413716 
L 190.378909 159.554105 
L 190.721455 173.643596 
L 191.064 161.794235 
L 191.749091 172.960344 
L 192.091636 179.393057 
L 192.434182 173.599078 
L 192.776727 171.417611 
L 193.119273 181.541041 
L 193.461818 182.351801 
L 193.804364 164.392869 
L 194.489455 178.016336 
L 194.832 176.783523 
L 195.174545 172.045412 
L 195.517091 169.96002 
L 195.859636 177.468996 
L 196.202182 172.220205 
L 196.887273 181.473836 
L 197.229818 176.945094 
L 197.572364 177.075233 
L 197.914909 174.331188 
L 198.257455 168.026051 
L 198.6 170.409269 
L 198.942545 164.620347 
L 199.285091 168.15168 
L 199.627636 165.690085 
L 199.970182 168.214477 
L 200.312727 164.244486 
L 200.655273 169.976043 
L 200.997818 165.282211 
L 201.340364 162.696526 
L 201.682909 163.365121 
L 202.025455 172.387721 
L 202.368 159.848343 
L 202.710545 160.198647 
L 203.053091 163.495874 
L 203.395636 177.922551 
L 203.738182 165.015409 
L 204.080727 186.491734 
L 204.423273 177.440434 
L 204.765818 197.266402 
L 205.108364 181.020863 
L 205.450909 183.243364 
L 206.136 177.42072 
L 206.478545 180.69263 
L 206.821091 194.98927 
L 207.163636 192.082903 
L 207.506182 182.456622 
L 207.848727 186.629354 
L 208.191273 173.648209 
L 208.876364 179.257691 
L 209.218909 175.471787 
L 209.561455 187.671828 
L 210.246545 176.990809 
L 210.589091 191.137597 
L 210.931636 188.910005 
L 211.274182 191.103807 
L 211.616727 194.68386 
L 211.959273 192.497986 
L 212.301818 185.542191 
L 212.644364 187.199141 
L 212.986909 187.420879 
L 213.329455 182.739756 
L 213.672 182.798932 
L 214.014545 194.794934 
L 214.699636 184.009844 
L 215.042182 189.574603 
L 215.384727 175.068252 
L 215.727273 188.829169 
L 216.069818 190.144219 
L 216.412364 179.765159 
L 216.754909 183.434933 
L 217.097455 169.561883 
L 217.44 172.161269 
L 217.782545 163.819666 
L 218.125091 165.674881 
L 218.467636 165.644439 
L 218.810182 169.040748 
L 219.152727 159.38348 
L 219.495273 167.968481 
L 219.837818 170.543849 
L 220.180364 163.181308 
L 220.522909 177.892074 
L 220.865455 176.405374 
L 221.208 164.241992 
L 221.550545 162.706571 
L 221.893091 163.758884 
L 222.235636 176.930847 
L 222.578182 162.66704 
L 222.920727 156.437616 
L 223.263273 155.41998 
L 223.605818 155.336239 
L 223.948364 161.04781 
L 224.290909 147.969496 
L 224.633455 146.313092 
L 224.976 156.18489 
L 225.318545 148.311532 
L 225.661091 161.045384 
L 226.003636 144.952601 
L 226.346182 147.709697 
L 226.688727 162.506528 
L 227.031273 161.463713 
L 227.373818 166.364694 
L 227.716364 169.231224 
L 228.058909 166.704919 
L 228.401455 166.471292 
L 228.744 162.248575 
L 229.086545 179.65183 
L 229.429091 179.258682 
L 229.771636 160.482738 
L 230.114182 179.635635 
L 230.456727 163.429421 
L 230.799273 160.930108 
L 231.141818 169.881814 
L 231.484364 169.615592 
L 231.826909 162.428391 
L 232.169455 175.590719 
L 232.512 174.303684 
L 232.854545 187.494541 
L 233.197091 178.259769 
L 233.539636 182.835114 
L 233.882182 189.276539 
L 234.224727 190.953749 
L 234.567273 182.567013 
L 234.909818 178.88798 
L 235.252364 181.329861 
L 235.594909 171.297586 
L 235.937455 170.831458 
L 236.28 179.254787 
L 236.622545 159.903521 
L 237.307636 170.042736 
L 237.992727 150.176417 
L 238.335273 155.726894 
L 238.677818 142.901614 
L 239.362909 170.602512 
L 239.705455 165.490214 
L 240.048 157.658129 
L 240.390545 160.465415 
L 240.733091 150.747809 
L 241.075636 161.852556 
L 241.418182 162.161246 
L 241.760727 164.749426 
L 242.103273 163.050315 
L 242.445818 157.566667 
L 242.788364 158.90495 
L 243.130909 156.156327 
L 243.473455 140.56124 
L 243.816 167.864309 
L 244.158545 165.467323 
L 244.501091 156.672336 
L 244.843636 170.428675 
L 245.186182 159.240187 
L 245.528727 162.100807 
L 245.871273 165.903794 
L 246.213818 165.842842 
L 246.556364 154.5947 
L 246.898909 159.847693 
L 247.241455 158.299357 
L 247.584 160.579598 
L 247.926545 161.044427 
L 248.269091 164.835422 
L 248.611636 142.631907 
L 248.954182 153.106872 
L 249.296727 152.409816 
L 249.639273 165.204005 
L 249.981818 162.312704 
L 250.324364 148.74855 
L 250.666909 163.581631 
L 251.009455 161.660167 
L 251.352 157.914682 
L 251.694545 160.099805 
L 252.037091 152.310051 
L 252.379636 169.759123 
L 252.722182 177.26195 
L 253.064727 180.673531 
L 253.407273 174.771759 
L 253.749818 173.218947 
L 254.092364 175.916799 
L 254.434909 173.18092 
L 254.777455 165.861052 
L 255.12 170.973247 
L 255.462545 171.781684 
L 255.805091 179.482572 
L 256.147636 181.310181 
L 256.490182 179.925432 
L 256.832727 176.176871 
L 257.175273 177.966727 
L 257.517818 170.941029 
L 257.860364 161.115151 
L 258.202909 160.133082 
L 258.545455 170.419484 
L 258.888 167.342116 
L 259.230545 152.073281 
L 259.573091 161.9788 
L 259.915636 160.869497 
L 260.258182 163.585458 
L 260.600727 159.425025 
L 260.943273 161.791775 
L 261.628364 148.158366 
L 261.970909 144.515549 
L 262.313455 152.359285 
L 262.656 154.686436 
L 262.998545 163.030601 
L 263.341091 167.018973 
L 263.683636 165.425674 
L 264.026182 166.507166 
L 264.368727 168.30611 
L 264.711273 168.697892 
L 265.396364 153.1942 
L 265.738909 159.307084 
L 266.081455 169.081953 
L 266.424 163.563216 
L 266.766545 168.967018 
L 267.109091 150.438607 
L 267.451636 150.511654 
L 267.794182 148.852517 
L 268.479273 156.133436 
L 268.821818 164.748777 
L 269.164364 163.232591 
L 269.506909 164.863746 
L 269.849455 157.172766 
L 270.192 159.064813 
L 270.534545 154.185732 
L 270.877091 157.027868 
L 271.219636 150.368464 
L 271.562182 155.766322 
L 271.904727 156.74183 
L 272.247273 149.476901 
L 272.589818 158.713381 
L 272.932364 161.954508 
L 273.274909 157.447222 
L 273.617455 170.919743 
L 273.96 175.391565 
L 274.302545 164.917967 
L 274.645091 166.268516 
L 274.987636 171.771093 
L 275.330182 165.203151 
L 275.672727 165.729274 
L 276.015273 163.020317 
L 276.700364 169.526726 
L 277.042909 176.12487 
L 277.385455 164.008296 
L 277.728 172.611816 
L 278.413091 162.179628 
L 278.755636 162.847847 
L 279.098182 166.174867 
L 279.440727 163.59089 
L 280.125818 173.904078 
L 280.468364 161.68077 
L 280.810909 165.696816 
L 281.153455 161.012789 
L 281.496 169.182298 
L 281.838545 169.716382 
L 282.181091 159.330181 
L 282.523636 172.935369 
L 282.866182 177.755069 
L 283.208727 171.795761 
L 283.551273 168.332896 
L 283.893818 167.184542 
L 284.236364 158.671904 
L 284.578909 156.198932 
L 284.921455 152.469675 
L 285.264 151.516374 
L 285.606545 153.747963 
L 285.949091 158.441864 
L 286.634182 147.117634 
L 286.976727 135.103353 
L 287.319273 153.49838 
L 287.661818 148.431318 
L 288.004364 126.726559 
L 288.346909 137.769329 
L 288.689455 138.101833 
L 289.032 135.168029 
L 289.717091 157.375883 
L 290.059636 155.744455 
L 290.402182 132.846516 
L 290.744727 137.698195 
L 291.087273 129.53446 
L 291.429818 143.713399 
L 291.772364 141.826101 
L 292.114909 161.407339 
L 292.457455 139.411622 
L 292.8 157.798996 
L 293.142545 151.466902 
L 293.485091 148.448196 
L 293.827636 150.667519 
L 294.170182 142.768264 
L 294.512727 128.374524 
L 294.855273 131.494702 
L 295.197818 117.726542 
L 295.540364 142.94743 
L 295.882909 156.600759 
L 296.225455 149.591938 
L 296.568 149.467232 
L 296.910545 142.415158 
L 297.253091 139.013485 
L 297.595636 158.926953 
L 297.938182 153.39472 
L 298.280727 160.48981 
L 298.623273 160.924675 
L 298.965818 161.081873 
L 299.308364 168.427707 
L 299.650909 159.1614 
L 299.993455 157.198357 
L 300.336 163.024383 
L 300.678545 155.696657 
L 301.021091 144.299346 
L 301.363636 160.141692 
L 302.048727 162.31103 
L 302.391273 163.609032 
L 302.733818 158.726808 
L 303.076364 161.661671 
L 303.418909 154.760918 
L 303.761455 164.828589 
L 304.446545 154.662109 
L 304.789091 167.453497 
L 305.131636 161.554219 
L 305.474182 153.486525 
L 305.816727 152.522393 
L 306.159273 144.902479 
L 306.501818 149.847466 
L 306.844364 156.945733 
L 307.186909 143.945864 
L 307.529455 151.116666 
L 307.872 149.701987 
L 308.214545 136.670242 
L 308.557091 148.082346 
L 308.899636 149.713638 
L 309.242182 149.100631 
L 309.584727 158.880248 
L 309.927273 161.403375 
L 310.269818 162.029673 
L 310.612364 158.551502 
L 310.954909 158.056847 
L 311.297455 152.35662 
L 311.64 162.846344 
L 311.982545 158.411798 
L 312.325091 141.867169 
L 312.667636 132.603664 
L 313.010182 148.50088 
L 313.352727 152.787487 
L 313.695273 154.333945 
L 314.037818 146.400421 
L 314.380364 147.374494 
L 314.722909 146.68991 
L 315.065455 156.257629 
L 315.408 137.747394 
L 315.750545 146.491507 
L 316.093091 167.520223 
L 316.435636 162.388792 
L 316.778182 171.48854 
L 317.120727 171.009156 
L 317.463273 170.041403 
L 317.805818 168.739233 
L 318.148364 166.506004 
L 318.833455 159.224027 
L 319.176 157.742622 
L 319.518545 150.70394 
L 319.861091 151.68307 
L 320.203636 149.480557 
L 320.546182 149.593339 
L 320.888727 145.109252 
L 321.231273 149.014942 
L 321.573818 148.909574 
L 321.916364 138.035482 
L 322.944 163.489656 
L 323.286545 165.111859 
L 323.629091 169.990803 
L 323.971636 165.124091 
L 324.314182 173.525074 
L 324.656727 166.592923 
L 324.999273 173.492548 
L 325.341818 174.561945 
L 325.684364 171.586289 
L 326.026909 181.70596 
L 326.369455 183.509585 
L 326.712 163.168051 
L 327.054545 175.574695 
L 327.397091 168.849999 
L 327.739636 153.63337 
L 328.082182 167.210166 
L 328.424727 172.699828 
L 328.767273 166.673862 
L 329.109818 167.16599 
L 330.137455 150.548929 
L 330.48 166.659717 
L 330.822545 173.097452 
L 331.165091 175.658538 
L 331.507636 164.535342 
L 331.850182 164.583072 
L 332.192727 162.490026 
L 332.535273 149.901483 
L 332.877818 152.086298 
L 333.220364 163.952469 
L 333.562909 164.626121 
L 333.905455 147.776355 
L 334.248 147.420209 
L 334.590545 154.821836 
L 334.933091 148.014014 
L 335.275636 150.075149 
L 335.618182 153.946604 
L 335.960727 167.944394 
L 336.303273 172.492269 
L 336.645818 163.064221 
L 336.988364 167.461492 
L 337.330909 163.026194 
L 337.673455 179.160557 
L 338.016 174.264086 
L 338.358545 164.848542 
L 338.701091 176.844407 
L 339.043636 181.899101 
L 339.386182 174.635607 
L 339.728727 187.406324 
L 340.071273 189.824699 
L 340.413818 190.264825 
L 340.756364 186.953112 
L 341.098909 176.658476 
L 341.441455 175.23464 
L 341.784 181.044335 
L 342.126545 180.664204 
L 342.469091 170.880897 
L 342.811636 171.58277 
L 343.154182 179.274569 
L 343.496727 176.83016 
L 343.839273 169.203481 
L 344.181818 168.817029 
L 344.524364 169.580811 
L 344.866909 167.449602 
L 345.209455 170.410977 
L 345.552 169.531031 
L 345.894545 166.794468 
L 346.579636 175.830735 
L 346.922182 159.911037 
L 347.264727 168.273037 
L 347.607273 168.572332 
L 347.949818 173.108351 
L 348.292364 168.500481 
L 348.634909 186.212085 
L 348.977455 180.362518 
L 349.662545 185.814836 
L 350.005091 176.885885 
L 350.690182 183.63764 
L 351.032727 171.795795 
L 351.375273 166.956176 
L 351.717818 174.782282 
L 352.060364 173.566176 
L 352.402909 173.87572 
L 352.745455 172.232881 
L 353.088 161.338084 
L 353.430545 178.279688 
L 353.773091 176.670331 
L 354.115636 180.329513 
L 354.458182 161.741995 
L 354.800727 165.170283 
L 355.143273 156.032509 
L 355.485818 169.622049 
L 356.170909 156.501438 
L 356.513455 165.419661 
L 356.856 158.882435 
L 357.198545 165.627356 
L 357.541091 161.148668 
L 357.883636 164.904642 
L 358.226182 160.467055 
L 358.568727 158.235022 
L 359.253818 140.700296 
L 359.596364 144.598402 
L 359.938909 150.447661 
L 360.281455 135.520281 
L 360.624 150.694066 
L 360.966545 151.268876 
L 361.309091 156.094999 
L 361.651636 149.342595 
L 361.994182 163.022709 
L 362.336727 143.291892 
L 362.679273 167.772163 
L 363.021818 143.485853 
L 363.364364 154.290212 
L 363.706909 144.904803 
L 364.049455 153.58482 
L 364.392 143.068037 
L 364.734545 142.369375 
L 365.077091 154.602421 
L 365.419636 154.212929 
L 365.762182 152.696537 
L 366.104727 146.102971 
L 366.447273 146.958113 
L 366.789818 161.459579 
L 367.817455 139.876075 
L 368.16 149.49354 
L 368.845091 133.768213 
L 369.187636 132.038933 
L 369.530182 116.272709 
L 369.872727 132.234329 
L 370.215273 139.978436 
L 370.557818 141.669074 
L 370.900364 150.674831 
L 371.242909 119.408229 
L 371.585455 125.359815 
L 371.928 102.968114 
L 372.270545 121.860393 
L 372.613091 121.767462 
L 372.955636 92.49496 
L 373.298182 49.044545 
L 373.983273 94.107426 
L 374.325818 67.077139 
L 374.668364 113.874971 
L 375.010909 110.576548 
L 375.353455 106.084261 
L 375.696 119.810739 
L 376.038545 126.206723 
L 376.381091 110.588028 
L 376.723636 124.095125 
L 377.066182 144.940506 
L 377.408727 126.416263 
L 377.751273 128.898938 
L 378.093818 113.255746 
L 378.436364 105.543584 
L 378.778909 121.403662 
L 379.121455 121.70914 
L 379.464 122.807681 
L 379.806545 135.883261 
L 380.149091 117.287885 
L 380.834182 131.288442 
L 381.176727 135.573409 
L 381.519273 123.194474 
L 381.861818 123.140697 
L 382.204364 117.508597 
L 382.546909 143.578477 
L 382.889455 153.726609 
L 383.232 113.147576 
L 383.574545 129.796241 
L 383.917091 124.596751 
L 384.259636 112.863896 
L 384.602182 122.607775 
L 384.944727 113.743534 
L 385.287273 134.60675 
L 385.629818 139.537319 
L 385.972364 141.000616 
L 386.314909 140.495881 
L 386.657455 145.866611 
L 387 153.71161 
L 387.342545 144.00996 
L 387.685091 122.481259 
L 388.027636 116.440533 
L 388.370182 96.883348 
L 388.712727 111.658826 
L 389.055273 139.737976 
L 390.082909 124.689614 
L 390.425455 114.931556 
L 390.768 109.27612 
L 391.110545 116.288836 
L 391.453091 97.651981 
L 391.795636 122.358329 
L 392.138182 111.815135 
L 392.480727 122.038638 
L 392.823273 118.374399 
L 393.165818 127.50657 
L 393.508364 132.461977 
L 393.850909 131.31311 
L 394.536 100.538601 
L 394.878545 99.670579 
L 395.906182 136.438801 
L 396.248727 129.115858 
L 396.933818 145.556315 
L 397.276364 158.25952 
L 397.618909 158.429461 
L 397.961455 160.46767 
L 398.304 146.746898 
L 398.646545 145.567863 
L 399.331636 158.48112 
L 399.674182 160.267628 
L 400.016727 155.423192 
L 400.359273 136.631771 
L 400.701818 161.629555 
L 401.044364 147.777244 
L 401.386909 155.093387 
L 401.729455 149.58654 
L 402.072 153.4486 
L 402.414545 133.75154 
L 402.757091 154.683053 
L 403.099636 134.405478 
L 403.442182 134.776043 
L 403.784727 143.838002 
L 404.127273 129.735118 
L 404.469818 131.233571 
L 404.812364 133.657173 
L 405.154909 151.292245 
L 405.497455 128.934471 
L 405.84 145.986875 
L 406.182545 135.855963 
L 406.525091 142.003115 
L 406.867636 127.898898 
L 407.210182 133.868661 
L 407.552727 145.039793 
L 407.895273 124.780496 
L 408.237818 121.231157 
L 408.580364 138.786349 
L 408.922909 115.833847 
L 409.265455 112.91617 
L 409.608 137.81969 
L 410.635636 124.264452 
L 410.978182 130.901273 
L 411.320727 158.348693 
L 411.663273 144.798785 
L 412.005818 144.275908 
L 412.348364 134.787283 
L 412.690909 156.893664 
L 413.033455 142.907149 
L 413.376 143.389573 
L 413.718545 144.640528 
L 414.061091 130.138858 
L 414.403636 146.450337 
L 414.746182 138.843577 
L 415.088727 144.625085 
L 415.431273 143.062638 
L 415.773818 148.542358 
L 416.116364 145.38545 
L 416.458909 146.716115 
L 416.801455 136.253997 
L 417.144 142.852415 
L 417.486545 131.072547 
L 417.829091 144.777432 
L 418.171636 131.646741 
L 418.514182 131.916653 
L 418.856727 134.042839 
L 419.199273 149.754671 
L 419.541818 149.492242 
L 419.884364 146.242095 
L 420.226909 128.708189 
L 420.569455 136.239374 
L 420.912 139.861349 
L 421.254545 158.781816 
L 421.597091 160.739256 
L 421.939636 159.56432 
L 422.282182 157.647128 
L 422.624727 152.716046 
L 422.967273 161.642128 
L 423.309818 161.851292 
L 423.652364 158.232836 
L 424.337455 146.846082 
L 424.68 151.516853 
L 425.022545 161.161309 
L 425.365091 163.644701 
L 425.707636 150.173 
L 426.050182 154.362815 
L 426.392727 162.018706 
L 426.392727 162.018706 
" clip-path="url(#p03b0605929)" style="fill: none; stroke: #38a7d0; stroke-opacity: 0.4; stroke-width: 2; stroke-linecap: square"/>
   </g>
   <g id="line2d_12">
    <path d="M 100.974545 176.346179 
L 101.317091 174.283801 
L 102.002182 172.841737 
L 102.687273 170.87941 
L 103.029818 170.351385 
L 103.372364 169.559165 
L 103.714909 168.453407 
L 104.4 167.516518 
L 104.742545 167.042237 
L 105.427636 165.618028 
L 105.770182 165.711604 
L 106.112727 165.481487 
L 106.455273 166.196533 
L 106.797818 166.4194 
L 107.482909 167.315225 
L 108.168 167.869101 
L 108.510545 167.855623 
L 109.195636 167.526242 
L 109.880727 168.180346 
L 110.908364 169.635528 
L 112.278545 172.7346 
L 113.306182 172.737128 
L 113.648727 172.638387 
L 113.991273 172.806888 
L 114.333818 173.173996 
L 114.676364 173.740632 
L 115.018909 173.815963 
L 115.361455 174.809847 
L 115.704 174.868796 
L 116.046545 175.10127 
L 116.389091 175.908495 
L 117.416727 177.353132 
L 117.759273 176.727445 
L 118.444364 176.420265 
L 118.786909 176.279446 
L 119.129455 176.317336 
L 119.472 176.500778 
L 120.499636 176.453178 
L 120.842182 176.53995 
L 121.527273 175.710192 
L 121.869818 175.552419 
L 122.212364 175.771103 
L 122.554909 175.688656 
L 122.897455 175.757344 
L 123.24 175.654379 
L 123.582545 175.243219 
L 123.925091 175.03458 
L 124.267636 174.615457 
L 124.610182 174.558197 
L 125.637818 173.873106 
L 126.322909 173.89818 
L 127.693091 174.766961 
L 128.720727 175.916232 
L 129.063273 175.930838 
L 131.118545 177.675061 
L 131.461091 177.869571 
L 132.146182 177.84964 
L 132.488727 177.618178 
L 132.831273 177.890458 
L 133.516364 178.023369 
L 133.858909 178.148889 
L 134.544 178.589243 
L 134.886545 179.331445 
L 137.969455 182.890614 
L 138.654545 184.116512 
L 139.339636 184.406076 
L 140.709818 185.235529 
L 141.394909 186.2829 
L 141.737455 186.484216 
L 143.450182 188.709725 
L 143.792727 188.720867 
L 144.135273 188.568722 
L 144.820364 188.744136 
L 145.505455 187.915399 
L 146.190545 186.897226 
L 147.218182 185.554544 
L 147.560727 185.141808 
L 148.245818 183.911943 
L 148.588364 183.646316 
L 149.616 183.168494 
L 149.958545 182.860218 
L 150.301091 182.756459 
L 154.069091 178.721365 
L 154.754182 178.271719 
L 155.781818 176.606373 
L 156.124364 176.310784 
L 156.809455 175.414358 
L 157.494545 174.588747 
L 157.837091 174.352312 
L 158.179636 173.858883 
L 158.522182 173.587526 
L 159.892364 171.597317 
L 160.92 170.274546 
L 161.947636 170.128879 
L 162.290182 170.316941 
L 162.975273 171.043831 
L 164.002909 170.88107 
L 165.030545 171.671355 
L 165.373091 172.140918 
L 165.715636 171.970512 
L 166.058182 171.999851 
L 166.400727 171.735633 
L 166.743273 171.698191 
L 167.428364 170.820572 
L 168.113455 170.21389 
L 168.798545 170.107664 
L 169.141091 169.854729 
L 169.483636 169.826642 
L 170.511273 169.370133 
L 170.853818 169.406309 
L 171.881455 168.428337 
L 172.224 168.436754 
L 172.566545 168.245226 
L 172.909091 168.330531 
L 173.251636 168.261527 
L 174.279273 169.01789 
L 174.964364 168.952523 
L 175.649455 168.936711 
L 176.677091 169.111677 
L 177.362182 169.025898 
L 178.047273 169.581685 
L 178.389818 169.550657 
L 179.76 168.78516 
L 180.102545 168.868392 
L 181.130182 169.891144 
L 181.472727 170.019775 
L 181.815273 170.269007 
L 182.157818 170.808994 
L 182.500364 171.041429 
L 183.185455 171.887963 
L 183.528 172.65198 
L 183.870545 172.841232 
L 184.213091 173.624415 
L 184.555636 173.799946 
L 185.240727 174.893759 
L 186.268364 176.038496 
L 186.610909 176.302828 
L 188.666182 178.704795 
L 189.008727 178.564188 
L 189.351273 178.577025 
L 189.693818 178.702519 
L 190.036364 178.596851 
L 190.378909 178.883331 
L 191.064 178.727325 
L 191.406545 178.321365 
L 191.749091 178.274618 
L 192.091636 178.356032 
L 192.434182 178.63779 
L 193.119273 178.657237 
L 193.804364 179.182292 
L 194.146909 179.008793 
L 195.174545 178.830992 
L 195.859636 178.635394 
L 196.202182 178.458114 
L 196.544727 178.437439 
L 197.229818 178.109023 
L 197.914909 177.725525 
L 198.942545 176.747534 
L 199.627636 175.68874 
L 200.312727 174.887321 
L 200.655273 174.17939 
L 200.997818 173.970677 
L 201.340364 173.579446 
L 201.682909 173.447535 
L 202.025455 172.968978 
L 202.368 172.780081 
L 203.395636 171.622339 
L 203.738182 171.633838 
L 204.080727 171.283421 
L 205.108364 171.213642 
L 205.793455 171.612506 
L 206.136 172.04299 
L 206.821091 172.539911 
L 207.163636 173.171155 
L 207.506182 173.464538 
L 207.848727 173.922589 
L 208.876364 174.606058 
L 209.218909 174.732005 
L 209.561455 174.65358 
L 210.246545 175.16781 
L 210.589091 175.076805 
L 210.931636 175.252521 
L 211.616727 176.115782 
L 212.986909 177.37814 
L 215.727273 179.020293 
L 217.097455 180.486335 
L 217.44 180.513283 
L 217.782545 180.671619 
L 218.125091 180.548491 
L 218.810182 180.615303 
L 219.152727 180.728815 
L 219.495273 180.46873 
L 220.180364 180.838037 
L 220.865455 180.831136 
L 221.208 181.058936 
L 222.235636 179.649113 
L 222.578182 179.567313 
L 223.605818 178.246185 
L 224.290909 177.060228 
L 224.976 175.455089 
L 225.661091 174.339466 
L 226.003636 174.033162 
L 226.688727 172.791818 
L 227.373818 171.856659 
L 227.716364 171.644137 
L 228.744 170.269257 
L 229.086545 169.620551 
L 229.771636 169.237958 
L 230.114182 168.70363 
L 230.456727 168.547925 
L 231.484364 167.226079 
L 232.512 166.108975 
L 233.197091 166.066991 
L 233.539636 165.829302 
L 234.224727 166.007533 
L 234.567273 166.43537 
L 235.252364 166.944851 
L 235.594909 167.257951 
L 236.28 167.406828 
L 236.622545 167.804254 
L 237.307636 167.518139 
L 237.650182 167.655368 
L 239.020364 166.174331 
L 239.705455 165.936511 
L 240.733091 166.118293 
L 241.418182 166.042619 
L 242.445818 166.83249 
L 242.788364 167.017592 
L 243.130909 166.974784 
L 243.473455 167.198858 
L 243.816 167.055889 
L 244.501091 167.243117 
L 244.843636 167.04927 
L 245.186182 167.073219 
L 245.871273 166.836514 
L 246.213818 166.909619 
L 246.556364 166.633439 
L 246.898909 166.140159 
L 247.241455 166.127458 
L 247.584 165.700733 
L 248.611636 165.545095 
L 248.954182 165.005421 
L 249.296727 164.818991 
L 249.639273 164.355373 
L 249.981818 164.173379 
L 252.722182 160.269022 
L 253.407273 160.585151 
L 253.749818 160.49549 
L 254.434909 160.994074 
L 255.12 161.206274 
L 255.805091 161.943306 
L 256.147636 162.674925 
L 256.490182 163.137205 
L 257.175273 163.537396 
L 257.517818 163.943568 
L 258.202909 164.360427 
L 258.545455 164.326038 
L 259.230545 164.543056 
L 259.573091 164.323516 
L 260.600727 164.599632 
L 260.943273 164.976908 
L 261.628364 164.62057 
L 261.970909 164.450291 
L 262.313455 163.932028 
L 263.341091 163.588659 
L 263.683636 163.612182 
L 264.711273 164.162126 
L 265.053818 164.324491 
L 265.396364 164.294617 
L 265.738909 164.061792 
L 266.766545 164.937865 
L 267.109091 165.013126 
L 267.451636 164.775644 
L 267.794182 164.810906 
L 268.479273 164.327252 
L 268.821818 164.291627 
L 269.164364 164.384607 
L 269.506909 164.603057 
L 269.849455 164.50515 
L 271.904727 162.076391 
L 272.247273 161.894007 
L 272.932364 161.202714 
L 273.96 160.194779 
L 274.302545 160.179073 
L 274.645091 159.918098 
L 274.987636 159.824648 
L 275.672727 160.139168 
L 276.357818 159.958928 
L 277.385455 160.711132 
L 277.728 160.719589 
L 278.070545 160.983325 
L 278.755636 161.262267 
L 280.468364 162.724553 
L 281.496 162.513325 
L 282.523636 162.546808 
L 283.208727 163.310591 
L 284.578909 163.589277 
L 285.264 163.775366 
L 285.949091 163.713852 
L 286.634182 163.384861 
L 287.661818 162.477221 
L 288.004364 162.362133 
L 288.346909 161.756107 
L 289.032 161.150835 
L 289.374545 160.719358 
L 290.402182 160.517426 
L 291.087273 159.360981 
L 291.429818 158.443838 
L 292.8 156.807793 
L 293.485091 156.418119 
L 294.170182 155.672295 
L 295.197818 153.470145 
L 295.540364 152.479031 
L 295.882909 152.094387 
L 296.225455 151.969445 
L 296.910545 151.355314 
L 297.595636 150.118867 
L 297.938182 150.063791 
L 298.280727 149.817749 
L 298.623273 149.80729 
L 299.308364 149.469447 
L 299.650909 149.651397 
L 301.021091 148.536632 
L 301.363636 148.078928 
L 302.048727 148.213227 
L 303.076364 148.751484 
L 303.761455 148.8493 
L 304.446545 149.687996 
L 304.789091 149.711271 
L 305.131636 150.091714 
L 305.474182 150.788267 
L 306.501818 151.585712 
L 307.186909 151.635502 
L 307.529455 151.39953 
L 308.214545 152.005009 
L 309.242182 152.392854 
L 309.584727 152.14672 
L 309.927273 152.536092 
L 310.269818 152.60818 
L 311.64 153.361055 
L 312.325091 154.588834 
L 312.667636 155.071646 
L 313.352727 154.702773 
L 314.380364 154.943724 
L 314.722909 155.110944 
L 315.065455 154.866203 
L 315.408 154.923461 
L 316.093091 154.179949 
L 316.435636 154.308716 
L 316.778182 154.187938 
L 318.833455 155.597821 
L 319.518545 155.462052 
L 320.546182 154.819453 
L 320.888727 154.716101 
L 321.231273 154.321715 
L 321.916364 154.000419 
L 322.258909 153.412058 
L 322.601455 153.10578 
L 322.944 153.177558 
L 323.286545 153.396903 
L 323.971636 154.203957 
L 324.314182 154.367524 
L 324.656727 154.959109 
L 324.999273 155.268634 
L 325.341818 155.744445 
L 325.684364 156.502279 
L 326.369455 157.612204 
L 326.712 158.300383 
L 327.054545 158.38614 
L 327.397091 158.669566 
L 327.739636 158.805972 
L 328.082182 158.70761 
L 328.424727 158.890676 
L 328.767273 159.29754 
L 329.452364 159.549175 
L 330.137455 160.404371 
L 330.48 160.445332 
L 331.165091 161.098047 
L 331.507636 161.683209 
L 332.192727 162.384289 
L 332.535273 162.508937 
L 333.220364 162.863915 
L 333.562909 162.79256 
L 333.905455 162.837306 
L 334.933091 161.586892 
L 335.618182 160.843771 
L 335.960727 160.67807 
L 336.645818 161.14747 
L 337.673455 161.981157 
L 338.358545 163.155598 
L 338.701091 163.47227 
L 339.043636 164.030966 
L 339.386182 164.908239 
L 340.756364 167.112523 
L 341.441455 167.682457 
L 341.784 167.716648 
L 342.126545 168.005677 
L 342.469091 168.14911 
L 343.839273 167.893202 
L 344.181818 168.013911 
L 344.524364 167.878757 
L 344.866909 167.893374 
L 345.209455 168.169698 
L 345.552 168.233714 
L 346.237091 168.172751 
L 346.579636 168.243927 
L 346.922182 168.5294 
L 347.264727 168.614149 
L 347.607273 168.968631 
L 348.292364 169.007102 
L 348.634909 168.86394 
L 350.005091 170.741361 
L 350.690182 171.575593 
L 352.060364 173.22614 
L 353.088 174.57892 
L 353.430545 174.446794 
L 353.773091 174.562542 
L 354.458182 175.092025 
L 354.800727 175.066341 
L 355.485818 174.421904 
L 355.828364 174.517374 
L 356.170909 174.23821 
L 356.513455 173.730256 
L 356.856 173.545938 
L 358.226182 171.46822 
L 358.911273 170.8044 
L 360.966545 166.995853 
L 361.994182 165.977956 
L 362.336727 165.889418 
L 362.679273 165.347036 
L 363.021818 165.311859 
L 364.049455 163.898477 
L 364.392 163.771952 
L 365.419636 162.373674 
L 365.762182 162.087923 
L 367.132364 159.524649 
L 367.474909 159.06515 
L 368.502545 157.044094 
L 368.845091 156.550431 
L 369.530182 154.899604 
L 370.215273 152.947573 
L 370.557818 152.52038 
L 371.242909 151.268258 
L 371.585455 150.049832 
L 371.928 149.322189 
L 372.270545 148.078145 
L 372.613091 147.394703 
L 372.955636 146.437611 
L 373.298182 145.029787 
L 373.983273 141.004252 
L 374.325818 139.708752 
L 374.668364 137.737748 
L 376.038545 133.84957 
L 377.408727 132.293473 
L 377.751273 132.111393 
L 378.093818 131.67549 
L 379.806545 128.109465 
L 380.834182 126.371676 
L 381.519273 125.739121 
L 382.204364 124.957076 
L 382.546909 124.2152 
L 382.889455 124.002511 
L 383.232 124.023112 
L 383.574545 123.364004 
L 383.917091 123.020767 
L 384.944727 120.997214 
L 385.287273 120.474564 
L 385.629818 120.176828 
L 385.972364 120.122114 
L 386.657455 120.435901 
L 387.342545 121.457325 
L 387.685091 121.537955 
L 388.027636 121.154199 
L 388.712727 120.019016 
L 389.055273 119.744996 
L 389.397818 120.480393 
L 390.082909 120.896994 
L 390.425455 121.540887 
L 390.768 122.858627 
L 391.110545 123.612153 
L 392.138182 124.836945 
L 392.480727 124.861717 
L 392.823273 125.180804 
L 393.508364 125.178074 
L 393.850909 125.615553 
L 394.193455 125.759913 
L 395.221091 124.033669 
L 395.563636 124.014571 
L 396.248727 124.662513 
L 396.591273 124.810647 
L 397.276364 125.292791 
L 397.961455 126.77106 
L 398.304 127.354644 
L 398.646545 127.578114 
L 399.331636 128.623004 
L 399.674182 129.442455 
L 400.016727 129.776238 
L 400.359273 129.810169 
L 401.386909 131.380129 
L 401.729455 132.224719 
L 402.072 132.764295 
L 402.414545 133.558396 
L 402.757091 133.541292 
L 403.099636 133.844206 
L 404.127273 133.557335 
L 404.469818 133.077805 
L 404.812364 132.822277 
L 405.154909 133.045795 
L 406.182545 135.070413 
L 406.525091 134.992773 
L 406.867636 135.134243 
L 407.210182 135.101655 
L 407.552727 135.285236 
L 407.895273 135.887401 
L 408.237818 136.197488 
L 408.580364 136.296335 
L 408.922909 137.119022 
L 409.265455 136.988532 
L 409.608 137.010553 
L 410.293091 137.622319 
L 410.635636 137.625118 
L 410.978182 137.461168 
L 411.320727 137.452931 
L 412.348364 140.122528 
L 412.690909 140.572258 
L 413.033455 141.25202 
L 413.376 141.381387 
L 414.061091 141.814835 
L 415.431273 140.561733 
L 415.773818 140.488048 
L 416.116364 140.547538 
L 416.801455 140.15971 
L 417.144 139.679438 
L 417.486545 139.428022 
L 417.829091 139.316838 
L 419.199273 137.882776 
L 419.541818 137.808898 
L 419.884364 138.123712 
L 420.569455 137.840947 
L 421.254545 137.790681 
L 422.282182 139.479871 
L 422.624727 139.606969 
L 423.652364 140.915612 
L 423.994909 141.240206 
L 424.337455 141.736337 
L 425.022545 142.125427 
L 425.707636 143.701314 
L 426.050182 143.929047 
L 426.392727 144.699627 
L 426.392727 144.699627 
" clip-path="url(#p03b0605929)" style="fill: none; stroke: #38a7d0; stroke-width: 2; stroke-linecap: square"/>
   </g>
   <g id="patch_3">
    <path d="M 66.72 287.7 
L 66.72 37.68 
" style="fill: none; stroke: #000000; stroke-linejoin: miter; stroke-linecap: square"/>
   </g>
   <g id="patch_4">
    <path d="M 443.52 287.7 
L 443.52 37.68 
" style="fill: none; stroke: #000000; stroke-linejoin: miter; stroke-linecap: square"/>
   </g>
   <g id="patch_5">
    <path d="M 66.72 287.7 
L 443.52 287.7 
" style="fill: none; stroke: #000000; stroke-linejoin: miter; stroke-linecap: square"/>
   </g>
   <g id="patch_6">
    <path d="M 66.72 37.68 
L 443.52 37.68 
" style="fill: none; stroke: #000000; stroke-linejoin: miter; stroke-linecap: square"/>
   </g>
   <g id="text_13">
    <!--   -->
    <g transform="translate(252.069 31.68) scale(0.192 -0.192)">
     <use xlink:href="#DejaVuSans-20"/>
    </g>
   </g>
   <g id="legend_1">
    <g id="line2d_13">
     <path d="M 79.32 56.017812 
L 93.32 56.017812 
L 107.32 56.017812 
" style="fill: none; stroke: #38a7d0; stroke-width: 2; stroke-linecap: square"/>
    </g>
    <g id="text_14">
     <!-- PAC5-hnRNPA2B1 -->
     <g transform="translate(118.52 60.917812) scale(0.14 -0.14)">
      <defs>
       <path id="DejaVuSans-50" d="M 1259 4147 
L 1259 2394 
L 2053 2394 
Q 2494 2394 2734 2622 
Q 2975 2850 2975 3272 
Q 2975 3691 2734 3919 
Q 2494 4147 2053 4147 
L 1259 4147 
z
M 628 4666 
L 2053 4666 
Q 2838 4666 3239 4311 
Q 3641 3956 3641 3272 
Q 3641 2581 3239 2228 
Q 2838 1875 2053 1875 
L 1259 1875 
L 1259 0 
L 628 0 
L 628 4666 
z
" transform="scale(0.015625)"/>
       <path id="DejaVuSans-41" d="M 2188 4044 
L 1331 1722 
L 3047 1722 
L 2188 4044 
z
M 1831 4666 
L 2547 4666 
L 4325 0 
L 3669 0 
L 3244 1197 
L 1141 1197 
L 716 0 
L 50 0 
L 1831 4666 
z
" transform="scale(0.015625)"/>
       <path id="DejaVuSans-43" d="M 4122 4306 
L 4122 3641 
Q 3803 3938 3442 4084 
Q 3081 4231 2675 4231 
Q 1875 4231 1450 3742 
Q 1025 3253 1025 2328 
Q 1025 1406 1450 917 
Q 1875 428 2675 428 
Q 3081 428 3442 575 
Q 3803 722 4122 1019 
L 4122 359 
Q 3791 134 3420 21 
Q 3050 -91 2638 -91 
Q 1578 -91 968 557 
Q 359 1206 359 2328 
Q 359 3453 968 4101 
Q 1578 4750 2638 4750 
Q 3056 4750 3426 4639 
Q 3797 4528 4122 4306 
z
" transform="scale(0.015625)"/>
       <path id="DejaVuSans-35" d="M 691 4666 
L 3169 4666 
L 3169 4134 
L 1269 4134 
L 1269 2991 
Q 1406 3038 1543 3061 
Q 1681 3084 1819 3084 
Q 2600 3084 3056 2656 
Q 3513 2228 3513 1497 
Q 3513 744 3044 326 
Q 2575 -91 1722 -91 
Q 1428 -91 1123 -41 
Q 819 9 494 109 
L 494 744 
Q 775 591 1075 516 
Q 1375 441 1709 441 
Q 2250 441 2565 725 
Q 2881 1009 2881 1497 
Q 2881 1984 2565 2268 
Q 2250 2553 1709 2553 
Q 1456 2553 1204 2497 
Q 953 2441 691 2322 
L 691 4666 
z
" transform="scale(0.015625)"/>
       <path id="DejaVuSans-2d" d="M 313 2009 
L 1997 2009 
L 1997 1497 
L 313 1497 
L 313 2009 
z
" transform="scale(0.015625)"/>
       <path id="DejaVuSans-68" d="M 3513 2113 
L 3513 0 
L 2938 0 
L 2938 2094 
Q 2938 2591 2744 2837 
Q 2550 3084 2163 3084 
Q 1697 3084 1428 2787 
Q 1159 2491 1159 1978 
L 1159 0 
L 581 0 
L 581 4863 
L 1159 4863 
L 1159 2956 
Q 1366 3272 1645 3428 
Q 1925 3584 2291 3584 
Q 2894 3584 3203 3211 
Q 3513 2838 3513 2113 
z
" transform="scale(0.015625)"/>
       <path id="DejaVuSans-4e" d="M 628 4666 
L 1478 4666 
L 3547 763 
L 3547 4666 
L 4159 4666 
L 4159 0 
L 3309 0 
L 1241 3903 
L 1241 0 
L 628 0 
L 628 4666 
z
" transform="scale(0.015625)"/>
       <path id="DejaVuSans-42" d="M 1259 2228 
L 1259 519 
L 2272 519 
Q 2781 519 3026 730 
Q 3272 941 3272 1375 
Q 3272 1813 3026 2020 
Q 2781 2228 2272 2228 
L 1259 2228 
z
M 1259 4147 
L 1259 2741 
L 2194 2741 
Q 2656 2741 2882 2914 
Q 3109 3088 3109 3444 
Q 3109 3797 2882 3972 
Q 2656 4147 2194 4147 
L 1259 4147 
z
M 628 4666 
L 2241 4666 
Q 2963 4666 3353 4366 
Q 3744 4066 3744 3513 
Q 3744 3084 3544 2831 
Q 3344 2578 2956 2516 
Q 3422 2416 3680 2098 
Q 3938 1781 3938 1306 
Q 3938 681 3513 340 
Q 3088 0 2303 0 
L 628 0 
L 628 4666 
z
" transform="scale(0.015625)"/>
      </defs>
      <use xlink:href="#DejaVuSans-50"/>
      <use xlink:href="#DejaVuSans-41" x="53.927734"/>
      <use xlink:href="#DejaVuSans-43" x="120.585938"/>
      <use xlink:href="#DejaVuSans-35" x="190.410156"/>
      <use xlink:href="#DejaVuSans-2d" x="254.033203"/>
      <use xlink:href="#DejaVuSans-68" x="290.117188"/>
      <use xlink:href="#DejaVuSans-6e" x="353.496094"/>
      <use xlink:href="#DejaVuSans-52" x="416.875"/>
      <use xlink:href="#DejaVuSans-4e" x="486.357422"/>
      <use xlink:href="#DejaVuSans-50" x="561.162109"/>
      <use xlink:href="#DejaVuSans-41" x="615.089844"/>
      <use xlink:href="#DejaVuSans-32" x="683.498047"/>
      <use xlink:href="#DejaVuSans-42" x="747.121094"/>
      <use xlink:href="#DejaVuSans-31" x="815.724609"/>
     </g>
    </g>
   </g>
  </g>
 </g>
 <defs>
  <clipPath id="p03b0605929">
   <rect x="66.72" y="37.68" width="376.8" height="250.02"/>
  </clipPath>
 </defs>
</svg>
