<?xml version="1.0" encoding="utf-8" standalone="no"?>
<!DOCTYPE svg PUBLIC "-//W3C//DTD SVG 1.1//EN"
  "http://www.w3.org/Graphics/SVG/1.1/DTD/svg11.dtd">
<svg xmlns:xlink="http://www.w3.org/1999/xlink" width="432pt" height="432pt" viewBox="0 0 432 432" xmlns="http://www.w3.org/2000/svg" version="1.1">
 <metadata>
  <rdf:RDF xmlns:dc="http://purl.org/dc/elements/1.1/" xmlns:cc="http://creativecommons.org/ns#" xmlns:rdf="http://www.w3.org/1999/02/22-rdf-syntax-ns#">
   <cc:Work>
    <dc:type rdf:resource="http://purl.org/dc/dcmitype/StillImage"/>
    <dc:date>2025-01-16T18:07:24.135472</dc:date>
    <dc:format>image/svg+xml</dc:format>
    <dc:creator>
     <cc:Agent>
      <dc:title>Matplotlib v3.9.2, https://matplotlib.org/</dc:title>
     </cc:Agent>
    </dc:creator>
   </cc:Work>
  </rdf:RDF>
 </metadata>
 <defs>
  <style type="text/css">*{stroke-linejoin: round; stroke-linecap: butt}</style>
 </defs>
 <g id="figure_1">
  <g id="patch_1">
   <path d="M 0 432 
L 432 432 
L 432 0 
L 0 0 
z
" style="fill: #ffffff"/>
  </g>
  <g id="axes_1">
   <g id="patch_2">
    <path d="M 54 384.48 
L 388.8 384.48 
L 388.8 51.84 
L 54 51.84 
z
" style="fill: #ffffff"/>
   </g>
   <g id="PolyCollection_1">
    <defs>
     <path id="md183352a7f" d="M 114.218657 -113.064453 
L 111.178746 -113.064453 
L 110.781417 -114.988611 
L 110.32069 -116.912768 
L 109.793404 -118.836926 
L 109.196528 -120.761083 
L 108.526682 -122.685241 
L 107.779471 -124.609398 
L 106.948711 -126.533556 
L 106.025732 -128.457713 
L 104.999027 -130.381871 
L 103.854569 -132.306028 
L 102.577073 -134.230186 
L 101.152244 -136.154344 
L 99.569676 -138.078501 
L 97.825652 -140.002659 
L 95.924973 -141.926816 
L 93.881162 -143.850974 
L 91.715109 -145.775131 
L 89.452962 -147.699289 
L 87.124573 -149.623446 
L 84.763547 -151.547604 
L 82.408996 -153.471761 
L 80.107908 -155.395919 
L 77.916098 -157.320077 
L 75.895778 -159.244234 
L 74.108897 -161.168392 
L 72.607168 -163.092549 
L 71.421439 -165.016707 
L 70.553883 -166.940864 
L 69.975975 -168.865022 
L 69.633509 -170.789179 
L 69.457665 -172.713337 
L 69.379125 -174.637494 
L 69.341292 -176.561652 
L 69.309022 -178.485809 
L 69.270797 -180.409967 
L 69.234409 -182.334125 
L 69.218182 -184.258282 
L 69.241012 -186.18244 
L 69.31453 -188.106597 
L 69.439656 -190.030755 
L 69.608072 -191.954912 
L 69.807388 -193.87907 
L 70.027568 -195.803227 
L 70.26606 -197.727385 
L 70.529822 -199.651542 
L 70.83386 -201.5757 
L 71.197198 -203.499857 
L 71.638081 -205.424015 
L 72.170169 -207.348173 
L 72.800815 -209.27233 
L 73.531506 -211.196488 
L 74.359724 -213.120645 
L 75.281074 -215.044803 
L 76.290731 -216.96896 
L 77.383743 -218.893118 
L 78.554343 -220.817275 
L 79.794861 -222.741433 
L 81.094922 -224.66559 
L 82.441471 -226.589748 
L 83.819753 -228.513906 
L 85.214979 -230.438063 
L 86.614082 -232.362221 
L 88.006894 -234.286378 
L 89.386283 -236.210536 
L 90.747125 -238.134693 
L 92.084466 -240.058851 
L 93.391541 -241.983008 
L 94.658464 -243.907166 
L 95.87225 -245.831323 
L 97.018458 -247.755481 
L 98.084201 -249.679638 
L 99.061783 -251.603796 
L 99.951839 -253.527954 
L 100.764851 -255.452111 
L 101.520213 -257.376269 
L 102.242719 -259.300426 
L 102.957183 -261.224584 
L 103.682607 -263.148741 
L 104.427656 -265.072899 
L 105.188874 -266.997056 
L 105.952213 -268.921214 
L 106.697313 -270.845371 
L 107.403033 -272.769529 
L 108.052437 -274.693686 
L 108.635779 -276.617844 
L 109.151009 -278.542002 
L 109.602209 -280.466159 
L 109.997007 -282.390317 
L 110.344053 -284.314474 
L 110.651251 -286.238632 
L 110.924915 -288.162789 
L 111.169642 -290.086947 
L 111.388569 -292.011104 
L 111.583782 -293.935262 
L 111.756741 -295.859419 
L 111.908697 -297.783577 
L 112.041034 -299.707735 
L 112.155459 -301.631892 
L 112.253982 -303.55605 
L 113.14342 -303.55605 
L 113.14342 -303.55605 
L 113.241944 -301.631892 
L 113.356369 -299.707735 
L 113.488706 -297.783577 
L 113.640662 -295.859419 
L 113.81362 -293.935262 
L 114.008833 -292.011104 
L 114.227761 -290.086947 
L 114.472487 -288.162789 
L 114.746151 -286.238632 
L 115.053349 -284.314474 
L 115.400395 -282.390317 
L 115.795193 -280.466159 
L 116.246393 -278.542002 
L 116.761624 -276.617844 
L 117.344966 -274.693686 
L 117.994369 -272.769529 
L 118.70009 -270.845371 
L 119.445189 -268.921214 
L 120.208529 -266.997056 
L 120.969747 -265.072899 
L 121.714795 -263.148741 
L 122.440219 -261.224584 
L 123.154683 -259.300426 
L 123.87719 -257.376269 
L 124.632551 -255.452111 
L 125.445563 -253.527954 
L 126.33562 -251.603796 
L 127.313201 -249.679638 
L 128.378944 -247.755481 
L 129.525152 -245.831323 
L 130.738939 -243.907166 
L 132.005862 -241.983008 
L 133.312937 -240.058851 
L 134.650277 -238.134693 
L 136.011119 -236.210536 
L 137.390508 -234.286378 
L 138.783321 -232.362221 
L 140.182423 -230.438063 
L 141.57765 -228.513906 
L 142.955932 -226.589748 
L 144.30248 -224.66559 
L 145.602542 -222.741433 
L 146.843059 -220.817275 
L 148.01366 -218.893118 
L 149.106671 -216.96896 
L 150.116329 -215.044803 
L 151.037679 -213.120645 
L 151.865896 -211.196488 
L 152.596588 -209.27233 
L 153.227234 -207.348173 
L 153.759322 -205.424015 
L 154.200205 -203.499857 
L 154.563543 -201.5757 
L 154.86758 -199.651542 
L 155.131343 -197.727385 
L 155.369834 -195.803227 
L 155.590014 -193.87907 
L 155.78933 -191.954912 
L 155.957747 -190.030755 
L 156.082872 -188.106597 
L 156.15639 -186.18244 
L 156.179221 -184.258282 
L 156.162994 -182.334125 
L 156.126605 -180.409967 
L 156.088381 -178.485809 
L 156.05611 -176.561652 
L 156.018277 -174.637494 
L 155.939737 -172.713337 
L 155.763893 -170.789179 
L 155.421428 -168.865022 
L 154.843519 -166.940864 
L 153.975964 -165.016707 
L 152.790235 -163.092549 
L 151.288505 -161.168392 
L 149.501625 -159.244234 
L 147.481305 -157.320077 
L 145.289494 -155.395919 
L 142.988407 -153.471761 
L 140.633856 -151.547604 
L 138.272829 -149.623446 
L 135.944441 -147.699289 
L 133.682294 -145.775131 
L 131.51624 -143.850974 
L 129.47243 -141.926816 
L 127.57175 -140.002659 
L 125.827727 -138.078501 
L 124.245158 -136.154344 
L 122.82033 -134.230186 
L 121.542833 -132.306028 
L 120.398375 -130.381871 
L 119.371671 -128.457713 
L 118.448692 -126.533556 
L 117.617931 -124.609398 
L 116.87072 -122.685241 
L 116.200874 -120.761083 
L 115.603998 -118.836926 
L 115.076712 -116.912768 
L 114.615985 -114.988611 
L 114.218657 -113.064453 
z
"/>
    </defs>
    <g clip-path="url(#p588b34fd48)">
     <use xlink:href="#md183352a7f" x="0" y="432" style="fill: #407ea8; fill-opacity: 0.7"/>
    </g>
   </g>
   <g id="PolyCollection_2">
    <defs>
     <path id="m55460f9438" d="M 222.50142 -59.712193 
L 220.29858 -59.712193 
L 220.107251 -60.950682 
L 219.9165 -62.189171 
L 219.725338 -63.427661 
L 219.527923 -64.66615 
L 219.313605 -65.904639 
L 219.067813 -67.143128 
L 218.773715 -68.381618 
L 218.41458 -69.620107 
L 217.976632 -70.858596 
L 217.451997 -72.097085 
L 216.841056 -73.335575 
L 216.153352 -74.574064 
L 215.406444 -75.812553 
L 214.622672 -77.051042 
L 213.824713 -78.289532 
L 213.031398 -79.528021 
L 212.255376 -80.76651 
L 211.503393 -82.004999 
L 210.778771 -83.243489 
L 210.084492 -84.481978 
L 209.424953 -85.720467 
L 208.805127 -86.958956 
L 208.227209 -88.197445 
L 207.686255 -89.435935 
L 207.166948 -90.674424 
L 206.643204 -91.912913 
L 206.081074 -93.151402 
L 205.443949 -94.389892 
L 204.69821 -95.628381 
L 203.817539 -96.86687 
L 202.784974 -98.105359 
L 201.593007 -99.343849 
L 200.242806 -100.582338 
L 198.743713 -101.820827 
L 197.113484 -103.059316 
L 195.378805 -104.297806 
L 193.575076 -105.536295 
L 191.744567 -106.774784 
L 189.932809 -108.013273 
L 188.183953 -109.251763 
L 186.536369 -110.490252 
L 185.019609 -111.728741 
L 183.653237 -112.96723 
L 182.447276 -114.20572 
L 181.403506 -115.444209 
L 180.516962 -116.682698 
L 179.777447 -117.921187 
L 179.171543 -119.159677 
L 178.685853 -120.398166 
L 178.311778 -121.636655 
L 178.050986 -122.875144 
L 177.919481 -124.113634 
L 177.947558 -125.352123 
L 178.173749 -126.590612 
L 178.633066 -127.829101 
L 179.34271 -129.067591 
L 180.290416 -130.30608 
L 181.430574 -131.544569 
L 182.690873 -132.783058 
L 183.988227 -134.021548 
L 185.249071 -135.260037 
L 186.427297 -136.498526 
L 187.514057 -137.737015 
L 188.536721 -138.975505 
L 189.548152 -140.213994 
L 190.61045 -141.452483 
L 191.778413 -142.690972 
L 193.087228 -143.929462 
L 194.54681 -145.167951 
L 196.14288 -146.40644 
L 197.843009 -147.644929 
L 199.604955 -148.883419 
L 201.384666 -150.121908 
L 203.142182 -151.360397 
L 204.844793 -152.598886 
L 206.467835 -153.837375 
L 207.994071 -155.075865 
L 209.412637 -156.314354 
L 210.718133 -157.552843 
L 211.910001 -158.791332 
L 212.991953 -160.029822 
L 213.971174 -161.268311 
L 214.857172 -162.5068 
L 215.660321 -163.745289 
L 216.390367 -164.983779 
L 217.055182 -166.222268 
L 217.660035 -167.460757 
L 218.207503 -168.699246 
L 218.698012 -169.937736 
L 219.130844 -171.176225 
L 219.505358 -172.414714 
L 219.822139 -173.653203 
L 220.083851 -174.891693 
L 220.295608 -176.130182 
L 220.464785 -177.368671 
L 220.600304 -178.60716 
L 220.711517 -179.84565 
L 220.806929 -181.084139 
L 220.893093 -182.322628 
L 221.906907 -182.322628 
L 221.906907 -182.322628 
L 221.993071 -181.084139 
L 222.088483 -179.84565 
L 222.199696 -178.60716 
L 222.335215 -177.368671 
L 222.504392 -176.130182 
L 222.716149 -174.891693 
L 222.977861 -173.653203 
L 223.294642 -172.414714 
L 223.669156 -171.176225 
L 224.101988 -169.937736 
L 224.592497 -168.699246 
L 225.139965 -167.460757 
L 225.744818 -166.222268 
L 226.409633 -164.983779 
L 227.139679 -163.745289 
L 227.942828 -162.5068 
L 228.828826 -161.268311 
L 229.808047 -160.029822 
L 230.889999 -158.791332 
L 232.081867 -157.552843 
L 233.387363 -156.314354 
L 234.805929 -155.075865 
L 236.332165 -153.837375 
L 237.955207 -152.598886 
L 239.657818 -151.360397 
L 241.415334 -150.121908 
L 243.195045 -148.883419 
L 244.956991 -147.644929 
L 246.65712 -146.40644 
L 248.25319 -145.167951 
L 249.712772 -143.929462 
L 251.021587 -142.690972 
L 252.18955 -141.452483 
L 253.251848 -140.213994 
L 254.263279 -138.975505 
L 255.285943 -137.737015 
L 256.372703 -136.498526 
L 257.550929 -135.260037 
L 258.811773 -134.021548 
L 260.109127 -132.783058 
L 261.369426 -131.544569 
L 262.509584 -130.30608 
L 263.45729 -129.067591 
L 264.166934 -127.829101 
L 264.626251 -126.590612 
L 264.852442 -125.352123 
L 264.880519 -124.113634 
L 264.749014 -122.875144 
L 264.488222 -121.636655 
L 264.114147 -120.398166 
L 263.628457 -119.159677 
L 263.022553 -117.921187 
L 262.283038 -116.682698 
L 261.396494 -115.444209 
L 260.352724 -114.20572 
L 259.146763 -112.96723 
L 257.780391 -111.728741 
L 256.263631 -110.490252 
L 254.616047 -109.251763 
L 252.867191 -108.013273 
L 251.055433 -106.774784 
L 249.224924 -105.536295 
L 247.421195 -104.297806 
L 245.686516 -103.059316 
L 244.056287 -101.820827 
L 242.557194 -100.582338 
L 241.206993 -99.343849 
L 240.015026 -98.105359 
L 238.982461 -96.86687 
L 238.10179 -95.628381 
L 237.356051 -94.389892 
L 236.718926 -93.151402 
L 236.156796 -91.912913 
L 235.633052 -90.674424 
L 235.113745 -89.435935 
L 234.572791 -88.197445 
L 233.994873 -86.958956 
L 233.375047 -85.720467 
L 232.715508 -84.481978 
L 232.021229 -83.243489 
L 231.296607 -82.004999 
L 230.544624 -80.76651 
L 229.768602 -79.528021 
L 228.975287 -78.289532 
L 228.177328 -77.051042 
L 227.393556 -75.812553 
L 226.646648 -74.574064 
L 225.958944 -73.335575 
L 225.348003 -72.097085 
L 224.823368 -70.858596 
L 224.38542 -69.620107 
L 224.026285 -68.381618 
L 223.732187 -67.143128 
L 223.486395 -65.904639 
L 223.272077 -64.66615 
L 223.074662 -63.427661 
L 222.8835 -62.189171 
L 222.692749 -60.950682 
L 222.50142 -59.712193 
z
"/>
    </defs>
    <g clip-path="url(#p588b34fd48)">
     <use xlink:href="#m55460f9438" x="0" y="432" style="fill: #e6944c; fill-opacity: 0.7"/>
    </g>
   </g>
   <g id="PolyCollection_3">
    <defs>
     <path id="md154f14a97" d="M 330.616267 -82.404819 
L 329.58633 -82.404819 
L 329.399744 -84.08599 
L 329.167778 -85.767162 
L 328.890828 -87.448334 
L 328.575035 -89.129506 
L 328.231665 -90.810678 
L 327.874566 -92.491849 
L 327.516796 -94.173021 
L 327.168121 -95.854193 
L 326.834742 -97.535365 
L 326.521295 -99.216537 
L 326.233782 -100.897708 
L 325.981406 -102.57888 
L 325.775902 -104.260052 
L 325.628508 -105.941224 
L 325.546265 -107.622396 
L 325.529795 -109.303567 
L 325.573592 -110.984739 
L 325.667969 -112.665911 
L 325.800462 -114.347083 
L 325.955014 -116.028255 
L 326.109342 -117.709426 
L 326.232934 -119.390598 
L 326.288406 -121.07177 
L 326.237011 -122.752942 
L 326.046431 -124.434114 
L 325.697495 -126.115285 
L 325.187087 -127.796457 
L 324.526527 -129.477629 
L 323.736546 -131.158801 
L 322.840794 -132.839973 
L 321.85951 -134.521144 
L 320.804405 -136.202316 
L 319.675375 -137.883488 
L 318.459628 -139.56466 
L 317.133838 -141.245832 
L 315.669812 -142.927003 
L 314.043308 -144.608175 
L 312.244257 -146.289347 
L 310.28504 -147.970519 
L 308.202936 -149.651691 
L 306.054216 -151.332862 
L 303.90071 -153.014034 
L 301.793573 -154.695206 
L 299.761188 -156.376378 
L 297.807081 -158.05755 
L 295.919446 -159.738721 
L 294.088412 -161.419893 
L 292.323531 -163.101065 
L 290.664031 -164.782237 
L 289.178023 -166.463409 
L 287.951816 -168.14458 
L 287.074141 -169.825752 
L 286.620779 -171.506924 
L 286.643313 -173.188096 
L 287.163118 -174.869268 
L 288.169892 -176.550439 
L 289.623714 -178.231611 
L 291.460234 -179.912783 
L 293.598976 -181.593955 
L 295.953959 -183.275127 
L 298.444328 -184.956298 
L 301.001764 -186.63747 
L 303.572304 -188.318642 
L 306.112778 -189.999814 
L 308.584684 -191.680986 
L 310.949428 -193.362157 
L 313.167762 -195.043329 
L 315.203819 -196.724501 
L 317.031817 -198.405673 
L 318.642225 -200.086845 
L 320.044434 -201.768016 
L 321.26427 -203.449188 
L 322.336736 -205.13036 
L 323.296273 -206.811532 
L 324.168028 -208.492704 
L 324.963378 -210.173875 
L 325.681257 -211.855047 
L 326.314321 -213.536219 
L 326.856871 -215.217391 
L 327.310885 -216.898563 
L 327.687673 -218.579734 
L 328.005005 -220.260906 
L 328.28161 -221.942078 
L 328.531917 -223.62325 
L 328.763256 -225.304422 
L 328.976203 -226.985593 
L 329.167107 -228.666765 
L 329.331169 -230.347937 
L 329.464764 -232.029109 
L 329.566577 -233.710281 
L 329.637883 -235.391452 
L 329.682406 -237.072624 
L 329.705984 -238.753796 
L 329.715996 -240.434968 
L 329.720461 -242.11614 
L 329.726901 -243.797311 
L 329.741173 -245.478483 
L 329.766553 -247.159655 
L 329.803309 -248.840827 
L 330.399288 -248.840827 
L 330.399288 -248.840827 
L 330.436045 -247.159655 
L 330.461424 -245.478483 
L 330.475697 -243.797311 
L 330.482137 -242.11614 
L 330.486602 -240.434968 
L 330.496613 -238.753796 
L 330.520192 -237.072624 
L 330.564714 -235.391452 
L 330.63602 -233.710281 
L 330.737834 -232.029109 
L 330.871428 -230.347937 
L 331.035491 -228.666765 
L 331.226394 -226.985593 
L 331.439341 -225.304422 
L 331.670681 -223.62325 
L 331.920987 -221.942078 
L 332.197593 -220.260906 
L 332.514925 -218.579734 
L 332.891713 -216.898563 
L 333.345726 -215.217391 
L 333.888277 -213.536219 
L 334.52134 -211.855047 
L 335.239219 -210.173875 
L 336.034569 -208.492704 
L 336.906324 -206.811532 
L 337.865861 -205.13036 
L 338.938327 -203.449188 
L 340.158163 -201.768016 
L 341.560372 -200.086845 
L 343.170781 -198.405673 
L 344.998778 -196.724501 
L 347.034836 -195.043329 
L 349.253169 -193.362157 
L 351.617913 -191.680986 
L 354.089819 -189.999814 
L 356.630294 -188.318642 
L 359.200834 -186.63747 
L 361.758269 -184.956298 
L 364.248639 -183.275127 
L 366.603622 -181.593955 
L 368.742364 -179.912783 
L 370.578884 -178.231611 
L 372.032705 -176.550439 
L 373.03948 -174.869268 
L 373.559284 -173.188096 
L 373.581818 -171.506924 
L 373.128457 -169.825752 
L 372.250782 -168.14458 
L 371.024574 -166.463409 
L 369.538566 -164.782237 
L 367.879067 -163.101065 
L 366.114185 -161.419893 
L 364.283151 -159.738721 
L 362.395516 -158.05755 
L 360.44141 -156.376378 
L 358.409024 -154.695206 
L 356.301887 -153.014034 
L 354.148382 -151.332862 
L 351.999662 -149.651691 
L 349.917558 -147.970519 
L 347.95834 -146.289347 
L 346.159289 -144.608175 
L 344.532786 -142.927003 
L 343.06876 -141.245832 
L 341.74297 -139.56466 
L 340.527222 -137.883488 
L 339.398193 -136.202316 
L 338.343087 -134.521144 
L 337.361803 -132.839973 
L 336.466051 -131.158801 
L 335.676071 -129.477629 
L 335.01551 -127.796457 
L 334.505103 -126.115285 
L 334.156166 -124.434114 
L 333.965586 -122.752942 
L 333.914191 -121.07177 
L 333.969663 -119.390598 
L 334.093255 -117.709426 
L 334.247583 -116.028255 
L 334.402136 -114.347083 
L 334.534628 -112.665911 
L 334.629005 -110.984739 
L 334.672803 -109.303567 
L 334.656333 -107.622396 
L 334.57409 -105.941224 
L 334.426695 -104.260052 
L 334.221191 -102.57888 
L 333.968816 -100.897708 
L 333.681302 -99.216537 
L 333.367855 -97.535365 
L 333.034476 -95.854193 
L 332.685801 -94.173021 
L 332.328031 -92.491849 
L 331.970933 -90.810678 
L 331.627562 -89.129506 
L 331.311769 -87.448334 
L 331.034819 -85.767162 
L 330.802854 -84.08599 
L 330.616267 -82.404819 
z
"/>
    </defs>
    <g clip-path="url(#p588b34fd48)">
     <use xlink:href="#md154f14a97" x="0" y="432" style="fill: #489848; fill-opacity: 0.7"/>
    </g>
   </g>
   <g id="matplotlib.axis_1">
    <g id="xtick_1">
     <g id="line2d_1">
      <defs>
       <path id="mc528249fe7" d="M 0 0 
L 0 3.5 
" style="stroke: #000000; stroke-width: 0.8"/>
      </defs>
      <g>
       <use xlink:href="#mc528249fe7" x="112.698701" y="384.48" style="stroke: #000000; stroke-width: 0.8"/>
      </g>
     </g>
     <g id="text_1">
      <!-- PAC5 -->
      <g transform="translate(99.997139 399.078438) scale(0.1 -0.1)">
       <defs>
        <path id="DejaVuSans-50" d="M 1259 4147 
L 1259 2394 
L 2053 2394 
Q 2494 2394 2734 2622 
Q 2975 2850 2975 3272 
Q 2975 3691 2734 3919 
Q 2494 4147 2053 4147 
L 1259 4147 
z
M 628 4666 
L 2053 4666 
Q 2838 4666 3239 4311 
Q 3641 3956 3641 3272 
Q 3641 2581 3239 2228 
Q 2838 1875 2053 1875 
L 1259 1875 
L 1259 0 
L 628 0 
L 628 4666 
z
" transform="scale(0.015625)"/>
        <path id="DejaVuSans-41" d="M 2188 4044 
L 1331 1722 
L 3047 1722 
L 2188 4044 
z
M 1831 4666 
L 2547 4666 
L 4325 0 
L 3669 0 
L 3244 1197 
L 1141 1197 
L 716 0 
L 50 0 
L 1831 4666 
z
" transform="scale(0.015625)"/>
        <path id="DejaVuSans-43" d="M 4122 4306 
L 4122 3641 
Q 3803 3938 3442 4084 
Q 3081 4231 2675 4231 
Q 1875 4231 1450 3742 
Q 1025 3253 1025 2328 
Q 1025 1406 1450 917 
Q 1875 428 2675 428 
Q 3081 428 3442 575 
Q 3803 722 4122 1019 
L 4122 359 
Q 3791 134 3420 21 
Q 3050 -91 2638 -91 
Q 1578 -91 968 557 
Q 359 1206 359 2328 
Q 359 3453 968 4101 
Q 1578 4750 2638 4750 
Q 3056 4750 3426 4639 
Q 3797 4528 4122 4306 
z
" transform="scale(0.015625)"/>
        <path id="DejaVuSans-35" d="M 691 4666 
L 3169 4666 
L 3169 4134 
L 1269 4134 
L 1269 2991 
Q 1406 3038 1543 3061 
Q 1681 3084 1819 3084 
Q 2600 3084 3056 2656 
Q 3513 2228 3513 1497 
Q 3513 744 3044 326 
Q 2575 -91 1722 -91 
Q 1428 -91 1123 -41 
Q 819 9 494 109 
L 494 744 
Q 775 591 1075 516 
Q 1375 441 1709 441 
Q 2250 441 2565 725 
Q 2881 1009 2881 1497 
Q 2881 1984 2565 2268 
Q 2250 2553 1709 2553 
Q 1456 2553 1204 2497 
Q 953 2441 691 2322 
L 691 4666 
z
" transform="scale(0.015625)"/>
       </defs>
       <use xlink:href="#DejaVuSans-50"/>
       <use xlink:href="#DejaVuSans-41" x="53.927734"/>
       <use xlink:href="#DejaVuSans-43" x="120.585938"/>
       <use xlink:href="#DejaVuSans-35" x="190.410156"/>
      </g>
     </g>
    </g>
    <g id="xtick_2">
     <g id="line2d_2">
      <g>
       <use xlink:href="#mc528249fe7" x="221.4" y="384.48" style="stroke: #000000; stroke-width: 0.8"/>
      </g>
     </g>
     <g id="text_2">
      <!-- RNA -->
      <g transform="translate(210.764844 399.078438) scale(0.1 -0.1)">
       <defs>
        <path id="DejaVuSans-52" d="M 2841 2188 
Q 3044 2119 3236 1894 
Q 3428 1669 3622 1275 
L 4263 0 
L 3584 0 
L 2988 1197 
Q 2756 1666 2539 1819 
Q 2322 1972 1947 1972 
L 1259 1972 
L 1259 0 
L 628 0 
L 628 4666 
L 2053 4666 
Q 2853 4666 3247 4331 
Q 3641 3997 3641 3322 
Q 3641 2881 3436 2590 
Q 3231 2300 2841 2188 
z
M 1259 4147 
L 1259 2491 
L 2053 2491 
Q 2509 2491 2742 2702 
Q 2975 2913 2975 3322 
Q 2975 3731 2742 3939 
Q 2509 4147 2053 4147 
L 1259 4147 
z
" transform="scale(0.015625)"/>
        <path id="DejaVuSans-4e" d="M 628 4666 
L 1478 4666 
L 3547 763 
L 3547 4666 
L 4159 4666 
L 4159 0 
L 3309 0 
L 1241 3903 
L 1241 0 
L 628 0 
L 628 4666 
z
" transform="scale(0.015625)"/>
       </defs>
       <use xlink:href="#DejaVuSans-52"/>
       <use xlink:href="#DejaVuSans-4e" x="69.482422"/>
       <use xlink:href="#DejaVuSans-41" x="144.287109"/>
      </g>
     </g>
    </g>
    <g id="xtick_3">
     <g id="line2d_3">
      <g>
       <use xlink:href="#mc528249fe7" x="330.101299" y="384.48" style="stroke: #000000; stroke-width: 0.8"/>
      </g>
     </g>
     <g id="text_3">
      <!-- ssDNA -->
      <g transform="translate(313.880986 399.078438) scale(0.1 -0.1)">
       <defs>
        <path id="DejaVuSans-73" d="M 2834 3397 
L 2834 2853 
Q 2591 2978 2328 3040 
Q 2066 3103 1784 3103 
Q 1356 3103 1142 2972 
Q 928 2841 928 2578 
Q 928 2378 1081 2264 
Q 1234 2150 1697 2047 
L 1894 2003 
Q 2506 1872 2764 1633 
Q 3022 1394 3022 966 
Q 3022 478 2636 193 
Q 2250 -91 1575 -91 
Q 1294 -91 989 -36 
Q 684 19 347 128 
L 347 722 
Q 666 556 975 473 
Q 1284 391 1588 391 
Q 1994 391 2212 530 
Q 2431 669 2431 922 
Q 2431 1156 2273 1281 
Q 2116 1406 1581 1522 
L 1381 1569 
Q 847 1681 609 1914 
Q 372 2147 372 2553 
Q 372 3047 722 3315 
Q 1072 3584 1716 3584 
Q 2034 3584 2315 3537 
Q 2597 3491 2834 3397 
z
" transform="scale(0.015625)"/>
        <path id="DejaVuSans-44" d="M 1259 4147 
L 1259 519 
L 2022 519 
Q 2988 519 3436 956 
Q 3884 1394 3884 2338 
Q 3884 3275 3436 3711 
Q 2988 4147 2022 4147 
L 1259 4147 
z
M 628 4666 
L 1925 4666 
Q 3281 4666 3915 4102 
Q 4550 3538 4550 2338 
Q 4550 1131 3912 565 
Q 3275 0 1925 0 
L 628 0 
L 628 4666 
z
" transform="scale(0.015625)"/>
       </defs>
       <use xlink:href="#DejaVuSans-73"/>
       <use xlink:href="#DejaVuSans-73" x="52.099609"/>
       <use xlink:href="#DejaVuSans-44" x="104.199219"/>
       <use xlink:href="#DejaVuSans-4e" x="181.201172"/>
       <use xlink:href="#DejaVuSans-41" x="256.005859"/>
      </g>
     </g>
    </g>
    <g id="text_4">
     <!--   -->
     <g transform="translate(219.810937 412.756563) scale(0.1 -0.1)">
      <defs>
       <path id="DejaVuSans-20" transform="scale(0.015625)"/>
      </defs>
      <use xlink:href="#DejaVuSans-20"/>
     </g>
    </g>
   </g>
   <g id="matplotlib.axis_2">
    <g id="ytick_1">
     <g id="line2d_4">
      <path d="M 54 377.669402 
L 388.8 377.669402 
" clip-path="url(#p588b34fd48)" style="fill: none; stroke: #b0b0b0; stroke-width: 0.8; stroke-linecap: square"/>
     </g>
     <g id="line2d_5">
      <defs>
       <path id="meaeccaa45e" d="M 0 0 
L -3.5 0 
" style="stroke: #000000; stroke-width: 0.8"/>
      </defs>
      <g>
       <use xlink:href="#meaeccaa45e" x="54" y="377.669402" style="stroke: #000000; stroke-width: 0.8"/>
      </g>
     </g>
     <g id="text_5">
      <!-- 1.85 -->
      <g transform="translate(24.734375 381.468621) scale(0.1 -0.1)">
       <defs>
        <path id="DejaVuSans-31" d="M 794 531 
L 1825 531 
L 1825 4091 
L 703 3866 
L 703 4441 
L 1819 4666 
L 2450 4666 
L 2450 531 
L 3481 531 
L 3481 0 
L 794 0 
L 794 531 
z
" transform="scale(0.015625)"/>
        <path id="DejaVuSans-2e" d="M 684 794 
L 1344 794 
L 1344 0 
L 684 0 
L 684 794 
z
" transform="scale(0.015625)"/>
        <path id="DejaVuSans-38" d="M 2034 2216 
Q 1584 2216 1326 1975 
Q 1069 1734 1069 1313 
Q 1069 891 1326 650 
Q 1584 409 2034 409 
Q 2484 409 2743 651 
Q 3003 894 3003 1313 
Q 3003 1734 2745 1975 
Q 2488 2216 2034 2216 
z
M 1403 2484 
Q 997 2584 770 2862 
Q 544 3141 544 3541 
Q 544 4100 942 4425 
Q 1341 4750 2034 4750 
Q 2731 4750 3128 4425 
Q 3525 4100 3525 3541 
Q 3525 3141 3298 2862 
Q 3072 2584 2669 2484 
Q 3125 2378 3379 2068 
Q 3634 1759 3634 1313 
Q 3634 634 3220 271 
Q 2806 -91 2034 -91 
Q 1263 -91 848 271 
Q 434 634 434 1313 
Q 434 1759 690 2068 
Q 947 2378 1403 2484 
z
M 1172 3481 
Q 1172 3119 1398 2916 
Q 1625 2713 2034 2713 
Q 2441 2713 2670 2916 
Q 2900 3119 2900 3481 
Q 2900 3844 2670 4047 
Q 2441 4250 2034 4250 
Q 1625 4250 1398 4047 
Q 1172 3844 1172 3481 
z
" transform="scale(0.015625)"/>
       </defs>
       <use xlink:href="#DejaVuSans-31"/>
       <use xlink:href="#DejaVuSans-2e" x="63.623047"/>
       <use xlink:href="#DejaVuSans-38" x="95.410156"/>
       <use xlink:href="#DejaVuSans-35" x="159.033203"/>
      </g>
     </g>
    </g>
    <g id="ytick_2">
     <g id="line2d_6">
      <path d="M 54 307.413594 
L 388.8 307.413594 
" clip-path="url(#p588b34fd48)" style="fill: none; stroke: #b0b0b0; stroke-width: 0.8; stroke-linecap: square"/>
     </g>
     <g id="line2d_7">
      <g>
       <use xlink:href="#meaeccaa45e" x="54" y="307.413594" style="stroke: #000000; stroke-width: 0.8"/>
      </g>
     </g>
     <g id="text_6">
      <!-- 1.90 -->
      <g transform="translate(24.734375 311.212813) scale(0.1 -0.1)">
       <defs>
        <path id="DejaVuSans-39" d="M 703 97 
L 703 672 
Q 941 559 1184 500 
Q 1428 441 1663 441 
Q 2288 441 2617 861 
Q 2947 1281 2994 2138 
Q 2813 1869 2534 1725 
Q 2256 1581 1919 1581 
Q 1219 1581 811 2004 
Q 403 2428 403 3163 
Q 403 3881 828 4315 
Q 1253 4750 1959 4750 
Q 2769 4750 3195 4129 
Q 3622 3509 3622 2328 
Q 3622 1225 3098 567 
Q 2575 -91 1691 -91 
Q 1453 -91 1209 -44 
Q 966 3 703 97 
z
M 1959 2075 
Q 2384 2075 2632 2365 
Q 2881 2656 2881 3163 
Q 2881 3666 2632 3958 
Q 2384 4250 1959 4250 
Q 1534 4250 1286 3958 
Q 1038 3666 1038 3163 
Q 1038 2656 1286 2365 
Q 1534 2075 1959 2075 
z
" transform="scale(0.015625)"/>
        <path id="DejaVuSans-30" d="M 2034 4250 
Q 1547 4250 1301 3770 
Q 1056 3291 1056 2328 
Q 1056 1369 1301 889 
Q 1547 409 2034 409 
Q 2525 409 2770 889 
Q 3016 1369 3016 2328 
Q 3016 3291 2770 3770 
Q 2525 4250 2034 4250 
z
M 2034 4750 
Q 2819 4750 3233 4129 
Q 3647 3509 3647 2328 
Q 3647 1150 3233 529 
Q 2819 -91 2034 -91 
Q 1250 -91 836 529 
Q 422 1150 422 2328 
Q 422 3509 836 4129 
Q 1250 4750 2034 4750 
z
" transform="scale(0.015625)"/>
       </defs>
       <use xlink:href="#DejaVuSans-31"/>
       <use xlink:href="#DejaVuSans-2e" x="63.623047"/>
       <use xlink:href="#DejaVuSans-39" x="95.410156"/>
       <use xlink:href="#DejaVuSans-30" x="159.033203"/>
      </g>
     </g>
    </g>
    <g id="ytick_3">
     <g id="line2d_8">
      <path d="M 54 237.157787 
L 388.8 237.157787 
" clip-path="url(#p588b34fd48)" style="fill: none; stroke: #b0b0b0; stroke-width: 0.8; stroke-linecap: square"/>
     </g>
     <g id="line2d_9">
      <g>
       <use xlink:href="#meaeccaa45e" x="54" y="237.157787" style="stroke: #000000; stroke-width: 0.8"/>
      </g>
     </g>
     <g id="text_7">
      <!-- 1.95 -->
      <g transform="translate(24.734375 240.957006) scale(0.1 -0.1)">
       <use xlink:href="#DejaVuSans-31"/>
       <use xlink:href="#DejaVuSans-2e" x="63.623047"/>
       <use xlink:href="#DejaVuSans-39" x="95.410156"/>
       <use xlink:href="#DejaVuSans-35" x="159.033203"/>
      </g>
     </g>
    </g>
    <g id="ytick_4">
     <g id="line2d_10">
      <path d="M 54 166.901979 
L 388.8 166.901979 
" clip-path="url(#p588b34fd48)" style="fill: none; stroke: #b0b0b0; stroke-width: 0.8; stroke-linecap: square"/>
     </g>
     <g id="line2d_11">
      <g>
       <use xlink:href="#meaeccaa45e" x="54" y="166.901979" style="stroke: #000000; stroke-width: 0.8"/>
      </g>
     </g>
     <g id="text_8">
      <!-- 2.00 -->
      <g transform="translate(24.734375 170.701198) scale(0.1 -0.1)">
       <defs>
        <path id="DejaVuSans-32" d="M 1228 531 
L 3431 531 
L 3431 0 
L 469 0 
L 469 531 
Q 828 903 1448 1529 
Q 2069 2156 2228 2338 
Q 2531 2678 2651 2914 
Q 2772 3150 2772 3378 
Q 2772 3750 2511 3984 
Q 2250 4219 1831 4219 
Q 1534 4219 1204 4116 
Q 875 4013 500 3803 
L 500 4441 
Q 881 4594 1212 4672 
Q 1544 4750 1819 4750 
Q 2544 4750 2975 4387 
Q 3406 4025 3406 3419 
Q 3406 3131 3298 2873 
Q 3191 2616 2906 2266 
Q 2828 2175 2409 1742 
Q 1991 1309 1228 531 
z
" transform="scale(0.015625)"/>
       </defs>
       <use xlink:href="#DejaVuSans-32"/>
       <use xlink:href="#DejaVuSans-2e" x="63.623047"/>
       <use xlink:href="#DejaVuSans-30" x="95.410156"/>
       <use xlink:href="#DejaVuSans-30" x="159.033203"/>
      </g>
     </g>
    </g>
    <g id="ytick_5">
     <g id="line2d_12">
      <path d="M 54 96.646172 
L 388.8 96.646172 
" clip-path="url(#p588b34fd48)" style="fill: none; stroke: #b0b0b0; stroke-width: 0.8; stroke-linecap: square"/>
     </g>
     <g id="line2d_13">
      <g>
       <use xlink:href="#meaeccaa45e" x="54" y="96.646172" style="stroke: #000000; stroke-width: 0.8"/>
      </g>
     </g>
     <g id="text_9">
      <!-- 2.05 -->
      <g transform="translate(24.734375 100.445391) scale(0.1 -0.1)">
       <use xlink:href="#DejaVuSans-32"/>
       <use xlink:href="#DejaVuSans-2e" x="63.623047"/>
       <use xlink:href="#DejaVuSans-30" x="95.410156"/>
       <use xlink:href="#DejaVuSans-35" x="159.033203"/>
      </g>
     </g>
    </g>
    <g id="text_10">
     <!-- Rg (nm) -->
     <g transform="translate(18.654687 238.338125) rotate(-90) scale(0.1 -0.1)">
      <defs>
       <path id="DejaVuSans-67" d="M 2906 1791 
Q 2906 2416 2648 2759 
Q 2391 3103 1925 3103 
Q 1463 3103 1205 2759 
Q 947 2416 947 1791 
Q 947 1169 1205 825 
Q 1463 481 1925 481 
Q 2391 481 2648 825 
Q 2906 1169 2906 1791 
z
M 3481 434 
Q 3481 -459 3084 -895 
Q 2688 -1331 1869 -1331 
Q 1566 -1331 1297 -1286 
Q 1028 -1241 775 -1147 
L 775 -588 
Q 1028 -725 1275 -790 
Q 1522 -856 1778 -856 
Q 2344 -856 2625 -561 
Q 2906 -266 2906 331 
L 2906 616 
Q 2728 306 2450 153 
Q 2172 0 1784 0 
Q 1141 0 747 490 
Q 353 981 353 1791 
Q 353 2603 747 3093 
Q 1141 3584 1784 3584 
Q 2172 3584 2450 3431 
Q 2728 3278 2906 2969 
L 2906 3500 
L 3481 3500 
L 3481 434 
z
" transform="scale(0.015625)"/>
       <path id="DejaVuSans-28" d="M 1984 4856 
Q 1566 4138 1362 3434 
Q 1159 2731 1159 2009 
Q 1159 1288 1364 580 
Q 1569 -128 1984 -844 
L 1484 -844 
Q 1016 -109 783 600 
Q 550 1309 550 2009 
Q 550 2706 781 3412 
Q 1013 4119 1484 4856 
L 1984 4856 
z
" transform="scale(0.015625)"/>
       <path id="DejaVuSans-6e" d="M 3513 2113 
L 3513 0 
L 2938 0 
L 2938 2094 
Q 2938 2591 2744 2837 
Q 2550 3084 2163 3084 
Q 1697 3084 1428 2787 
Q 1159 2491 1159 1978 
L 1159 0 
L 581 0 
L 581 3500 
L 1159 3500 
L 1159 2956 
Q 1366 3272 1645 3428 
Q 1925 3584 2291 3584 
Q 2894 3584 3203 3211 
Q 3513 2838 3513 2113 
z
" transform="scale(0.015625)"/>
       <path id="DejaVuSans-6d" d="M 3328 2828 
Q 3544 3216 3844 3400 
Q 4144 3584 4550 3584 
Q 5097 3584 5394 3201 
Q 5691 2819 5691 2113 
L 5691 0 
L 5113 0 
L 5113 2094 
Q 5113 2597 4934 2840 
Q 4756 3084 4391 3084 
Q 3944 3084 3684 2787 
Q 3425 2491 3425 1978 
L 3425 0 
L 2847 0 
L 2847 2094 
Q 2847 2600 2669 2842 
Q 2491 3084 2119 3084 
Q 1678 3084 1418 2786 
Q 1159 2488 1159 1978 
L 1159 0 
L 581 0 
L 581 3500 
L 1159 3500 
L 1159 2956 
Q 1356 3278 1631 3431 
Q 1906 3584 2284 3584 
Q 2666 3584 2933 3390 
Q 3200 3197 3328 2828 
z
" transform="scale(0.015625)"/>
       <path id="DejaVuSans-29" d="M 513 4856 
L 1013 4856 
Q 1481 4119 1714 3412 
Q 1947 2706 1947 2009 
Q 1947 1309 1714 600 
Q 1481 -109 1013 -844 
L 513 -844 
Q 928 -128 1133 580 
Q 1338 1288 1338 2009 
Q 1338 2731 1133 3434 
Q 928 4138 513 4856 
z
" transform="scale(0.015625)"/>
      </defs>
      <use xlink:href="#DejaVuSans-52"/>
      <use xlink:href="#DejaVuSans-67" x="69.482422"/>
      <use xlink:href="#DejaVuSans-20" x="132.958984"/>
      <use xlink:href="#DejaVuSans-28" x="164.746094"/>
      <use xlink:href="#DejaVuSans-6e" x="203.759766"/>
      <use xlink:href="#DejaVuSans-6d" x="267.138672"/>
      <use xlink:href="#DejaVuSans-29" x="364.550781"/>
     </g>
    </g>
   </g>
   <g id="line2d_14">
    <path d="M 112.698701 123.464725 
L 112.698701 118.10016 
L 221.4 118.10016 
L 221.4 123.464725 
" style="fill: none; stroke: #333333; stroke-width: 1.5; stroke-linecap: square"/>
   </g>
   <g id="line2d_15">
    <path d="M 221.4 101.005286 
L 221.4 95.640721 
L 330.101299 95.640721 
L 330.101299 101.005286 
" style="fill: none; stroke: #333333; stroke-width: 1.5; stroke-linecap: square"/>
   </g>
   <g id="line2d_16">
    <path d="M 112.698701 78.545848 
L 112.698701 73.181283 
L 330.101299 73.181283 
L 330.101299 78.545848 
" style="fill: none; stroke: #333333; stroke-width: 1.5; stroke-linecap: square"/>
   </g>
   <g id="patch_3">
    <path d="M 54 384.48 
L 54 51.84 
" style="fill: none; stroke: #000000; stroke-width: 0.8; stroke-linejoin: miter; stroke-linecap: square"/>
   </g>
   <g id="patch_4">
    <path d="M 54 384.48 
L 388.8 384.48 
" style="fill: none; stroke: #000000; stroke-width: 0.8; stroke-linejoin: miter; stroke-linecap: square"/>
   </g>
   <g id="text_11">
    <!-- **** -->
    <g transform="translate(157.049351 115.020472) scale(0.1 -0.1)">
     <defs>
      <path id="DejaVuSans-2a" d="M 3009 3897 
L 1888 3291 
L 3009 2681 
L 2828 2375 
L 1778 3009 
L 1778 1831 
L 1422 1831 
L 1422 3009 
L 372 2375 
L 191 2681 
L 1313 3291 
L 191 3897 
L 372 4206 
L 1422 3572 
L 1422 4750 
L 1778 4750 
L 1778 3572 
L 2828 4206 
L 3009 3897 
z
" transform="scale(0.015625)"/>
     </defs>
     <use xlink:href="#DejaVuSans-2a"/>
     <use xlink:href="#DejaVuSans-2a" x="50"/>
     <use xlink:href="#DejaVuSans-2a" x="100"/>
     <use xlink:href="#DejaVuSans-2a" x="150"/>
    </g>
   </g>
   <g id="text_12">
    <!-- **** -->
    <g transform="translate(265.750649 92.561034) scale(0.1 -0.1)">
     <use xlink:href="#DejaVuSans-2a"/>
     <use xlink:href="#DejaVuSans-2a" x="50"/>
     <use xlink:href="#DejaVuSans-2a" x="100"/>
     <use xlink:href="#DejaVuSans-2a" x="150"/>
    </g>
   </g>
   <g id="text_13">
    <!-- **** -->
    <g transform="translate(211.4 70.101595) scale(0.1 -0.1)">
     <use xlink:href="#DejaVuSans-2a"/>
     <use xlink:href="#DejaVuSans-2a" x="50"/>
     <use xlink:href="#DejaVuSans-2a" x="100"/>
     <use xlink:href="#DejaVuSans-2a" x="150"/>
    </g>
   </g>
   <g id="text_14">
    <!-- Radius of gyration (total and around axes) -->
    <g transform="translate(94.422188 45.84) scale(0.12 -0.12)">
     <defs>
      <path id="DejaVuSans-61" d="M 2194 1759 
Q 1497 1759 1228 1600 
Q 959 1441 959 1056 
Q 959 750 1161 570 
Q 1363 391 1709 391 
Q 2188 391 2477 730 
Q 2766 1069 2766 1631 
L 2766 1759 
L 2194 1759 
z
M 3341 1997 
L 3341 0 
L 2766 0 
L 2766 531 
Q 2569 213 2275 61 
Q 1981 -91 1556 -91 
Q 1019 -91 701 211 
Q 384 513 384 1019 
Q 384 1609 779 1909 
Q 1175 2209 1959 2209 
L 2766 2209 
L 2766 2266 
Q 2766 2663 2505 2880 
Q 2244 3097 1772 3097 
Q 1472 3097 1187 3025 
Q 903 2953 641 2809 
L 641 3341 
Q 956 3463 1253 3523 
Q 1550 3584 1831 3584 
Q 2591 3584 2966 3190 
Q 3341 2797 3341 1997 
z
" transform="scale(0.015625)"/>
      <path id="DejaVuSans-64" d="M 2906 2969 
L 2906 4863 
L 3481 4863 
L 3481 0 
L 2906 0 
L 2906 525 
Q 2725 213 2448 61 
Q 2172 -91 1784 -91 
Q 1150 -91 751 415 
Q 353 922 353 1747 
Q 353 2572 751 3078 
Q 1150 3584 1784 3584 
Q 2172 3584 2448 3432 
Q 2725 3281 2906 2969 
z
M 947 1747 
Q 947 1113 1208 752 
Q 1469 391 1925 391 
Q 2381 391 2643 752 
Q 2906 1113 2906 1747 
Q 2906 2381 2643 2742 
Q 2381 3103 1925 3103 
Q 1469 3103 1208 2742 
Q 947 2381 947 1747 
z
" transform="scale(0.015625)"/>
      <path id="DejaVuSans-69" d="M 603 3500 
L 1178 3500 
L 1178 0 
L 603 0 
L 603 3500 
z
M 603 4863 
L 1178 4863 
L 1178 4134 
L 603 4134 
L 603 4863 
z
" transform="scale(0.015625)"/>
      <path id="DejaVuSans-75" d="M 544 1381 
L 544 3500 
L 1119 3500 
L 1119 1403 
Q 1119 906 1312 657 
Q 1506 409 1894 409 
Q 2359 409 2629 706 
Q 2900 1003 2900 1516 
L 2900 3500 
L 3475 3500 
L 3475 0 
L 2900 0 
L 2900 538 
Q 2691 219 2414 64 
Q 2138 -91 1772 -91 
Q 1169 -91 856 284 
Q 544 659 544 1381 
z
M 1991 3584 
L 1991 3584 
z
" transform="scale(0.015625)"/>
      <path id="DejaVuSans-6f" d="M 1959 3097 
Q 1497 3097 1228 2736 
Q 959 2375 959 1747 
Q 959 1119 1226 758 
Q 1494 397 1959 397 
Q 2419 397 2687 759 
Q 2956 1122 2956 1747 
Q 2956 2369 2687 2733 
Q 2419 3097 1959 3097 
z
M 1959 3584 
Q 2709 3584 3137 3096 
Q 3566 2609 3566 1747 
Q 3566 888 3137 398 
Q 2709 -91 1959 -91 
Q 1206 -91 779 398 
Q 353 888 353 1747 
Q 353 2609 779 3096 
Q 1206 3584 1959 3584 
z
" transform="scale(0.015625)"/>
      <path id="DejaVuSans-66" d="M 2375 4863 
L 2375 4384 
L 1825 4384 
Q 1516 4384 1395 4259 
Q 1275 4134 1275 3809 
L 1275 3500 
L 2222 3500 
L 2222 3053 
L 1275 3053 
L 1275 0 
L 697 0 
L 697 3053 
L 147 3053 
L 147 3500 
L 697 3500 
L 697 3744 
Q 697 4328 969 4595 
Q 1241 4863 1831 4863 
L 2375 4863 
z
" transform="scale(0.015625)"/>
      <path id="DejaVuSans-79" d="M 2059 -325 
Q 1816 -950 1584 -1140 
Q 1353 -1331 966 -1331 
L 506 -1331 
L 506 -850 
L 844 -850 
Q 1081 -850 1212 -737 
Q 1344 -625 1503 -206 
L 1606 56 
L 191 3500 
L 800 3500 
L 1894 763 
L 2988 3500 
L 3597 3500 
L 2059 -325 
z
" transform="scale(0.015625)"/>
      <path id="DejaVuSans-72" d="M 2631 2963 
Q 2534 3019 2420 3045 
Q 2306 3072 2169 3072 
Q 1681 3072 1420 2755 
Q 1159 2438 1159 1844 
L 1159 0 
L 581 0 
L 581 3500 
L 1159 3500 
L 1159 2956 
Q 1341 3275 1631 3429 
Q 1922 3584 2338 3584 
Q 2397 3584 2469 3576 
Q 2541 3569 2628 3553 
L 2631 2963 
z
" transform="scale(0.015625)"/>
      <path id="DejaVuSans-74" d="M 1172 4494 
L 1172 3500 
L 2356 3500 
L 2356 3053 
L 1172 3053 
L 1172 1153 
Q 1172 725 1289 603 
Q 1406 481 1766 481 
L 2356 481 
L 2356 0 
L 1766 0 
Q 1100 0 847 248 
Q 594 497 594 1153 
L 594 3053 
L 172 3053 
L 172 3500 
L 594 3500 
L 594 4494 
L 1172 4494 
z
" transform="scale(0.015625)"/>
      <path id="DejaVuSans-6c" d="M 603 4863 
L 1178 4863 
L 1178 0 
L 603 0 
L 603 4863 
z
" transform="scale(0.015625)"/>
      <path id="DejaVuSans-78" d="M 3513 3500 
L 2247 1797 
L 3578 0 
L 2900 0 
L 1881 1375 
L 863 0 
L 184 0 
L 1544 1831 
L 300 3500 
L 978 3500 
L 1906 2253 
L 2834 3500 
L 3513 3500 
z
" transform="scale(0.015625)"/>
      <path id="DejaVuSans-65" d="M 3597 1894 
L 3597 1613 
L 953 1613 
Q 991 1019 1311 708 
Q 1631 397 2203 397 
Q 2534 397 2845 478 
Q 3156 559 3463 722 
L 3463 178 
Q 3153 47 2828 -22 
Q 2503 -91 2169 -91 
Q 1331 -91 842 396 
Q 353 884 353 1716 
Q 353 2575 817 3079 
Q 1281 3584 2069 3584 
Q 2775 3584 3186 3129 
Q 3597 2675 3597 1894 
z
M 3022 2063 
Q 3016 2534 2758 2815 
Q 2500 3097 2075 3097 
Q 1594 3097 1305 2825 
Q 1016 2553 972 2059 
L 3022 2063 
z
" transform="scale(0.015625)"/>
     </defs>
     <use xlink:href="#DejaVuSans-52"/>
     <use xlink:href="#DejaVuSans-61" x="67.232422"/>
     <use xlink:href="#DejaVuSans-64" x="128.511719"/>
     <use xlink:href="#DejaVuSans-69" x="191.988281"/>
     <use xlink:href="#DejaVuSans-75" x="219.771484"/>
     <use xlink:href="#DejaVuSans-73" x="283.150391"/>
     <use xlink:href="#DejaVuSans-20" x="335.25"/>
     <use xlink:href="#DejaVuSans-6f" x="367.037109"/>
     <use xlink:href="#DejaVuSans-66" x="428.21875"/>
     <use xlink:href="#DejaVuSans-20" x="463.423828"/>
     <use xlink:href="#DejaVuSans-67" x="495.210938"/>
     <use xlink:href="#DejaVuSans-79" x="558.6875"/>
     <use xlink:href="#DejaVuSans-72" x="617.867188"/>
     <use xlink:href="#DejaVuSans-61" x="658.980469"/>
     <use xlink:href="#DejaVuSans-74" x="720.259766"/>
     <use xlink:href="#DejaVuSans-69" x="759.46875"/>
     <use xlink:href="#DejaVuSans-6f" x="787.251953"/>
     <use xlink:href="#DejaVuSans-6e" x="848.433594"/>
     <use xlink:href="#DejaVuSans-20" x="911.8125"/>
     <use xlink:href="#DejaVuSans-28" x="943.599609"/>
     <use xlink:href="#DejaVuSans-74" x="982.613281"/>
     <use xlink:href="#DejaVuSans-6f" x="1021.822266"/>
     <use xlink:href="#DejaVuSans-74" x="1083.003906"/>
     <use xlink:href="#DejaVuSans-61" x="1122.212891"/>
     <use xlink:href="#DejaVuSans-6c" x="1183.492188"/>
     <use xlink:href="#DejaVuSans-20" x="1211.275391"/>
     <use xlink:href="#DejaVuSans-61" x="1243.0625"/>
     <use xlink:href="#DejaVuSans-6e" x="1304.341797"/>
     <use xlink:href="#DejaVuSans-64" x="1367.720703"/>
     <use xlink:href="#DejaVuSans-20" x="1431.197266"/>
     <use xlink:href="#DejaVuSans-61" x="1462.984375"/>
     <use xlink:href="#DejaVuSans-72" x="1524.263672"/>
     <use xlink:href="#DejaVuSans-6f" x="1563.126953"/>
     <use xlink:href="#DejaVuSans-75" x="1624.308594"/>
     <use xlink:href="#DejaVuSans-6e" x="1687.6875"/>
     <use xlink:href="#DejaVuSans-64" x="1751.066406"/>
     <use xlink:href="#DejaVuSans-20" x="1814.542969"/>
     <use xlink:href="#DejaVuSans-61" x="1846.330078"/>
     <use xlink:href="#DejaVuSans-78" x="1907.609375"/>
     <use xlink:href="#DejaVuSans-65" x="1963.664062"/>
     <use xlink:href="#DejaVuSans-73" x="2025.1875"/>
     <use xlink:href="#DejaVuSans-29" x="2077.287109"/>
    </g>
   </g>
   <g id="patch_5">
    <path d="M 96.393506 263.429946 
L 129.003896 263.429946 
L 129.003896 213.787193 
L 96.393506 213.787193 
L 96.393506 263.429946 
z
" clip-path="url(#p588b34fd48)" style="fill: #407ea8; stroke: #434343; stroke-linejoin: miter"/>
   </g>
   <g id="line2d_17">
    <path d="M 112.698701 263.429946 
L 112.698701 318.935547 
" clip-path="url(#p588b34fd48)" style="fill: none; stroke: #434343"/>
   </g>
   <g id="line2d_18">
    <path d="M 112.698701 213.787193 
L 112.698701 139.558419 
" clip-path="url(#p588b34fd48)" style="fill: none; stroke: #434343"/>
   </g>
   <g id="line2d_19">
    <path d="M 104.546104 318.935547 
L 120.851299 318.935547 
" clip-path="url(#p588b34fd48)" style="fill: none; stroke: #434343; stroke-linecap: square"/>
   </g>
   <g id="line2d_20">
    <path d="M 104.546104 139.558419 
L 120.851299 139.558419 
" clip-path="url(#p588b34fd48)" style="fill: none; stroke: #434343; stroke-linecap: square"/>
   </g>
   <g id="patch_6">
    <path d="M 205.094805 323.308971 
L 237.705195 323.308971 
L 237.705195 295.031008 
L 205.094805 295.031008 
L 205.094805 323.308971 
z
" clip-path="url(#p588b34fd48)" style="fill: #e6944c; stroke: #434343; stroke-linejoin: miter"/>
   </g>
   <g id="line2d_21">
    <path d="M 221.4 323.308971 
L 221.4 363.098348 
" clip-path="url(#p588b34fd48)" style="fill: none; stroke: #434343"/>
   </g>
   <g id="line2d_22">
    <path d="M 221.4 295.031008 
L 221.4 256.30952 
" clip-path="url(#p588b34fd48)" style="fill: none; stroke: #434343"/>
   </g>
   <g id="line2d_23">
    <path d="M 213.247403 363.098348 
L 229.552597 363.098348 
" clip-path="url(#p588b34fd48)" style="fill: none; stroke: #434343; stroke-linecap: square"/>
   </g>
   <g id="line2d_24">
    <path d="M 213.247403 256.30952 
L 229.552597 256.30952 
" clip-path="url(#p588b34fd48)" style="fill: none; stroke: #434343; stroke-linecap: square"/>
   </g>
   <g id="patch_7">
    <path d="M 313.796104 276.571295 
L 346.406494 276.571295 
L 346.406494 250.474775 
L 313.796104 250.474775 
L 313.796104 276.571295 
z
" clip-path="url(#p588b34fd48)" style="fill: #489848; stroke: #434343; stroke-linejoin: miter"/>
   </g>
   <g id="line2d_25">
    <path d="M 330.101299 276.571295 
L 330.101299 315.380603 
" clip-path="url(#p588b34fd48)" style="fill: none; stroke: #434343"/>
   </g>
   <g id="line2d_26">
    <path d="M 330.101299 250.474775 
L 330.101299 213.369171 
" clip-path="url(#p588b34fd48)" style="fill: none; stroke: #434343"/>
   </g>
   <g id="line2d_27">
    <path d="M 321.948701 315.380603 
L 338.253896 315.380603 
" clip-path="url(#p588b34fd48)" style="fill: none; stroke: #434343; stroke-linecap: square"/>
   </g>
   <g id="line2d_28">
    <path d="M 321.948701 213.369171 
L 338.253896 213.369171 
" clip-path="url(#p588b34fd48)" style="fill: none; stroke: #434343; stroke-linecap: square"/>
   </g>
   <g id="line2d_29">
    <path d="M 96.393506 239.722124 
L 129.003896 239.722124 
" clip-path="url(#p588b34fd48)" style="fill: none; stroke: #434343"/>
   </g>
   <g id="line2d_30">
    <path d="M 205.094805 309.029478 
L 237.705195 309.029478 
" clip-path="url(#p588b34fd48)" style="fill: none; stroke: #434343"/>
   </g>
   <g id="line2d_31">
    <path d="M 313.796104 262.274238 
L 346.406494 262.274238 
" clip-path="url(#p588b34fd48)" style="fill: none; stroke: #434343"/>
   </g>
  </g>
 </g>
 <defs>
  <clipPath id="p588b34fd48">
   <rect x="54" y="51.84" width="334.8" height="332.64"/>
  </clipPath>
 </defs>
</svg>
