<?xml version="1.0" encoding="utf-8" standalone="no"?>
<!DOCTYPE svg PUBLIC "-//W3C//DTD SVG 1.1//EN"
  "http://www.w3.org/Graphics/SVG/1.1/DTD/svg11.dtd">
<svg xmlns:xlink="http://www.w3.org/1999/xlink" width="432pt" height="432pt" viewBox="0 0 432 432" xmlns="http://www.w3.org/2000/svg" version="1.1">
 <metadata>
  <rdf:RDF xmlns:dc="http://purl.org/dc/elements/1.1/" xmlns:cc="http://creativecommons.org/ns#" xmlns:rdf="http://www.w3.org/1999/02/22-rdf-syntax-ns#">
   <cc:Work>
    <dc:type rdf:resource="http://purl.org/dc/dcmitype/StillImage"/>
    <dc:date>2025-02-25T20:55:35.170624</dc:date>
    <dc:format>image/svg+xml</dc:format>
    <dc:creator>
     <cc:Agent>
      <dc:title>Matplotlib v3.9.2, https://matplotlib.org/</dc:title>
     </cc:Agent>
    </dc:creator>
   </cc:Work>
  </rdf:RDF>
 </metadata>
 <defs>
  <style type="text/css">*{stroke-linejoin: round; stroke-linecap: butt}</style>
 </defs>
 <g id="figure_1">
  <g id="patch_1">
   <path d="M 0 432 
L 432 432 
L 432 0 
L 0 0 
z
" style="fill: #ffffff"/>
  </g>
  <g id="axes_1">
   <g id="patch_2">
    <path d="M 54 384.48 
L 388.8 384.48 
L 388.8 51.84 
L 54 51.84 
z
" style="fill: #ffffff"/>
   </g>
   <g id="PolyCollection_1">
    <defs>
     <path id="m15f8ca1f80" d="M 113.076559 -237.118949 
L 112.320844 -237.118949 
L 112.221535 -237.825926 
L 112.115642 -238.532904 
L 112.005308 -239.239881 
L 111.889206 -239.946859 
L 111.759766 -240.653837 
L 111.602796 -241.360814 
L 111.401706 -242.067792 
L 111.146051 -242.774769 
L 110.840621 -243.481747 
L 110.509492 -244.188725 
L 110.191257 -244.895702 
L 109.926361 -245.60268 
L 109.74197 -246.309658 
L 109.640904 -247.016635 
L 109.598394 -247.723613 
L 109.566457 -248.43059 
L 109.483314 -249.137568 
L 109.285227 -249.844546 
L 108.918765 -250.551523 
L 108.351372 -251.258501 
L 107.57774 -251.965479 
L 106.619723 -252.672456 
L 105.518827 -253.379434 
L 104.322022 -254.086411 
L 103.063634 -254.793389 
L 101.748581 -255.500367 
L 100.344326 -256.207344 
L 98.788094 -256.914322 
L 97.009948 -257.6213 
L 94.963208 -258.328277 
L 92.64781 -259.035255 
L 90.115012 -259.742232 
L 87.45253 -260.44921 
L 84.759807 -261.156188 
L 82.126205 -261.863165 
L 79.619868 -262.570143 
L 77.287777 -263.27712 
L 75.163648 -263.984098 
L 73.279915 -264.691076 
L 71.679756 -265.398053 
L 70.423353 -266.105031 
L 69.582038 -266.812009 
L 69.218182 -267.518986 
L 69.357283 -268.225964 
L 69.966225 -268.932941 
L 70.951446 -269.639919 
L 72.181176 -270.346897 
L 73.522468 -271.053874 
L 74.875679 -271.760852 
L 76.191887 -272.46783 
L 77.469934 -273.174807 
L 78.740753 -273.881785 
L 80.050013 -274.588762 
L 81.445494 -275.29574 
L 82.968813 -276.002718 
L 84.648151 -276.709695 
L 86.490664 -277.416673 
L 88.476868 -278.12365 
L 90.560742 -278.830628 
L 92.67749 -279.537606 
L 94.757241 -280.244583 
L 96.739869 -280.951561 
L 98.585203 -281.658539 
L 100.27497 -282.365516 
L 101.806862 -283.072494 
L 103.185101 -283.779471 
L 104.413418 -284.486449 
L 105.49418 -285.193427 
L 106.432774 -285.900404 
L 107.242284 -286.607382 
L 107.943199 -287.31436 
L 108.556955 -288.021337 
L 109.097451 -288.728315 
L 109.566851 -289.435292 
L 109.959057 -290.14227 
L 110.268483 -290.849248 
L 110.498028 -291.556225 
L 110.661165 -292.263203 
L 110.777718 -292.97018 
L 110.867186 -293.677158 
L 110.94432 -294.384136 
L 111.019092 -295.091113 
L 111.099642 -295.798091 
L 111.194872 -296.505069 
L 111.314112 -297.212046 
L 111.463711 -297.919024 
L 111.642866 -298.626001 
L 111.841655 -299.332979 
L 112.042965 -300.039957 
L 112.227544 -300.746934 
L 112.379624 -301.453912 
L 112.49055 -302.16089 
L 112.559389 -302.867867 
L 112.591273 -303.574845 
L 112.595061 -304.281822 
L 112.581405 -304.9888 
L 112.561306 -305.695778 
L 112.544676 -306.402755 
L 112.538693 -307.109733 
L 112.85871 -307.109733 
L 112.85871 -307.109733 
L 112.852726 -306.402755 
L 112.836097 -305.695778 
L 112.815997 -304.9888 
L 112.802341 -304.281822 
L 112.80613 -303.574845 
L 112.838013 -302.867867 
L 112.906852 -302.16089 
L 113.017779 -301.453912 
L 113.169859 -300.746934 
L 113.354438 -300.039957 
L 113.555747 -299.332979 
L 113.754536 -298.626001 
L 113.933691 -297.919024 
L 114.083291 -297.212046 
L 114.20253 -296.505069 
L 114.297761 -295.798091 
L 114.378311 -295.091113 
L 114.453083 -294.384136 
L 114.530216 -293.677158 
L 114.619684 -292.97018 
L 114.736237 -292.263203 
L 114.899375 -291.556225 
L 115.12892 -290.849248 
L 115.438346 -290.14227 
L 115.830552 -289.435292 
L 116.299952 -288.728315 
L 116.840447 -288.021337 
L 117.454203 -287.31436 
L 118.155118 -286.607382 
L 118.964629 -285.900404 
L 119.903223 -285.193427 
L 120.983984 -284.486449 
L 122.212301 -283.779471 
L 123.590541 -283.072494 
L 125.122433 -282.365516 
L 126.8122 -281.658539 
L 128.657533 -280.951561 
L 130.640161 -280.244583 
L 132.719913 -279.537606 
L 134.836661 -278.830628 
L 136.920535 -278.12365 
L 138.906738 -277.416673 
L 140.749251 -276.709695 
L 142.428589 -276.002718 
L 143.951908 -275.29574 
L 145.34739 -274.588762 
L 146.65665 -273.881785 
L 147.927469 -273.174807 
L 149.205516 -272.46783 
L 150.521723 -271.760852 
L 151.874934 -271.053874 
L 153.216227 -270.346897 
L 154.445957 -269.639919 
L 155.431178 -268.932941 
L 156.04012 -268.225964 
L 156.179221 -267.518986 
L 155.815364 -266.812009 
L 154.97405 -266.105031 
L 153.717647 -265.398053 
L 152.117488 -264.691076 
L 150.233755 -263.984098 
L 148.109625 -263.27712 
L 145.777534 -262.570143 
L 143.271197 -261.863165 
L 140.637596 -261.156188 
L 137.944872 -260.44921 
L 135.28239 -259.742232 
L 132.749592 -259.035255 
L 130.434194 -258.328277 
L 128.387455 -257.6213 
L 126.609308 -256.914322 
L 125.053077 -256.207344 
L 123.648822 -255.500367 
L 122.333769 -254.793389 
L 121.075381 -254.086411 
L 119.878575 -253.379434 
L 118.77768 -252.672456 
L 117.819663 -251.965479 
L 117.046031 -251.258501 
L 116.478637 -250.551523 
L 116.112175 -249.844546 
L 115.914089 -249.137568 
L 115.830945 -248.43059 
L 115.799009 -247.723613 
L 115.756499 -247.016635 
L 115.655432 -246.309658 
L 115.471042 -245.60268 
L 115.206146 -244.895702 
L 114.887911 -244.188725 
L 114.556781 -243.481747 
L 114.251351 -242.774769 
L 113.995697 -242.067792 
L 113.794607 -241.360814 
L 113.637637 -240.653837 
L 113.508197 -239.946859 
L 113.392094 -239.239881 
L 113.281761 -238.532904 
L 113.175868 -237.825926 
L 113.076559 -237.118949 
z
"/>
    </defs>
    <g clip-path="url(#p4874ddf6c9)">
     <use xlink:href="#m15f8ca1f80" x="0" y="432" style="fill: #407ea8; fill-opacity: 0.7"/>
    </g>
   </g>
   <g id="PolyCollection_2">
    <defs>
     <path id="mee6dba3af6" d="M 221.737828 -59.881416 
L 221.062172 -59.881416 
L 220.953352 -61.729511 
L 220.812835 -63.577606 
L 220.63502 -65.425701 
L 220.416652 -67.273796 
L 220.157903 -69.121891 
L 219.862588 -70.969987 
L 219.537326 -72.818082 
L 219.189784 -74.666177 
L 218.826558 -76.514272 
L 218.451487 -78.362367 
L 218.065194 -80.210462 
L 217.666306 -82.058557 
L 217.254191 -83.906652 
L 216.832315 -85.754748 
L 216.410869 -87.602843 
L 216.007386 -89.450938 
L 215.644754 -91.299033 
L 215.347067 -93.147128 
L 215.134649 -94.995223 
L 215.019931 -96.843318 
L 215.005466 -98.691413 
L 215.084501 -100.539508 
L 215.243631 -102.387604 
L 215.466425 -104.235699 
L 215.736838 -106.083794 
L 216.041412 -107.931889 
L 216.369746 -109.779984 
L 216.713186 -111.628079 
L 217.062278 -113.476174 
L 217.403934 -115.324269 
L 217.719482 -117.172365 
L 217.984505 -119.02046 
L 218.170657 -120.868555 
L 218.248851 -122.71665 
L 218.19261 -124.564745 
L 217.980456 -126.41284 
L 217.596755 -128.260935 
L 217.031233 -130.10903 
L 216.277881 -131.957125 
L 215.334045 -133.805221 
L 214.200151 -135.653316 
L 212.880111 -137.501411 
L 211.382152 -139.349506 
L 209.719773 -141.197601 
L 207.912507 -143.045696 
L 205.986094 -144.893791 
L 203.971385 -146.741886 
L 201.901326 -148.589982 
L 199.805925 -150.438077 
L 197.706363 -152.286172 
L 195.610743 -154.134267 
L 193.51442 -155.982362 
L 191.406553 -157.830457 
L 189.28185 -159.678552 
L 187.153557 -161.526647 
L 185.062528 -163.374742 
L 183.07841 -165.222838 
L 181.29216 -167.070933 
L 179.802496 -168.919028 
L 178.700763 -170.767123 
L 178.058423 -172.615218 
L 177.919481 -174.463313 
L 178.297957 -176.311408 
L 179.179116 -178.159503 
L 180.522898 -180.007599 
L 182.268605 -181.855694 
L 184.340603 -183.703789 
L 186.655097 -185.551884 
L 189.12769 -187.399979 
L 191.680686 -189.248074 
L 194.248682 -191.096169 
L 196.781181 -192.944264 
L 199.241915 -194.792359 
L 201.605753 -196.640455 
L 203.854778 -198.48855 
L 205.974994 -200.336645 
L 207.95436 -202.18474 
L 209.78199 -204.032835 
L 211.447978 -205.88093 
L 212.943566 -207.729025 
L 214.26181 -209.57712 
L 215.399123 -211.425216 
L 216.357634 -213.273311 
L 217.14761 -215.121406 
L 217.788632 -216.969501 
L 218.308337 -218.817596 
L 218.738502 -220.665691 
L 219.109444 -222.513786 
L 219.44462 -224.361881 
L 219.757327 -226.209976 
L 220.050543 -228.058072 
L 220.31965 -229.906167 
L 220.556769 -231.754262 
L 220.75504 -233.602357 
L 220.911534 -235.450452 
L 221.028244 -237.298547 
L 221.111318 -239.146642 
L 221.169228 -240.994737 
L 221.210653 -242.842833 
L 221.589347 -242.842833 
L 221.589347 -242.842833 
L 221.630772 -240.994737 
L 221.688682 -239.146642 
L 221.771756 -237.298547 
L 221.888466 -235.450452 
L 222.04496 -233.602357 
L 222.243231 -231.754262 
L 222.48035 -229.906167 
L 222.749457 -228.058072 
L 223.042673 -226.209976 
L 223.35538 -224.361881 
L 223.690556 -222.513786 
L 224.061498 -220.665691 
L 224.491663 -218.817596 
L 225.011368 -216.969501 
L 225.65239 -215.121406 
L 226.442366 -213.273311 
L 227.400877 -211.425216 
L 228.53819 -209.57712 
L 229.856434 -207.729025 
L 231.352022 -205.88093 
L 233.01801 -204.032835 
L 234.84564 -202.18474 
L 236.825006 -200.336645 
L 238.945222 -198.48855 
L 241.194247 -196.640455 
L 243.558085 -194.792359 
L 246.018819 -192.944264 
L 248.551318 -191.096169 
L 251.119314 -189.248074 
L 253.67231 -187.399979 
L 256.144903 -185.551884 
L 258.459397 -183.703789 
L 260.531395 -181.855694 
L 262.277102 -180.007599 
L 263.620884 -178.159503 
L 264.502043 -176.311408 
L 264.880519 -174.463313 
L 264.741577 -172.615218 
L 264.099237 -170.767123 
L 262.997504 -168.919028 
L 261.50784 -167.070933 
L 259.72159 -165.222838 
L 257.737472 -163.374742 
L 255.646443 -161.526647 
L 253.51815 -159.678552 
L 251.393447 -157.830457 
L 249.28558 -155.982362 
L 247.189257 -154.134267 
L 245.093637 -152.286172 
L 242.994075 -150.438077 
L 240.898674 -148.589982 
L 238.828615 -146.741886 
L 236.813906 -144.893791 
L 234.887493 -143.045696 
L 233.080227 -141.197601 
L 231.417848 -139.349506 
L 229.919889 -137.501411 
L 228.599849 -135.653316 
L 227.465955 -133.805221 
L 226.522119 -131.957125 
L 225.768767 -130.10903 
L 225.203245 -128.260935 
L 224.819544 -126.41284 
L 224.60739 -124.564745 
L 224.551149 -122.71665 
L 224.629343 -120.868555 
L 224.815495 -119.02046 
L 225.080518 -117.172365 
L 225.396066 -115.324269 
L 225.737722 -113.476174 
L 226.086814 -111.628079 
L 226.430254 -109.779984 
L 226.758588 -107.931889 
L 227.063162 -106.083794 
L 227.333575 -104.235699 
L 227.556369 -102.387604 
L 227.715499 -100.539508 
L 227.794534 -98.691413 
L 227.780069 -96.843318 
L 227.665351 -94.995223 
L 227.452933 -93.147128 
L 227.155246 -91.299033 
L 226.792614 -89.450938 
L 226.389131 -87.602843 
L 225.967685 -85.754748 
L 225.545809 -83.906652 
L 225.133694 -82.058557 
L 224.734806 -80.210462 
L 224.348513 -78.362367 
L 223.973442 -76.514272 
L 223.610216 -74.666177 
L 223.262674 -72.818082 
L 222.937412 -70.969987 
L 222.642097 -69.121891 
L 222.383348 -67.273796 
L 222.16498 -65.425701 
L 221.987165 -63.577606 
L 221.846648 -61.729511 
L 221.737828 -59.881416 
z
"/>
    </defs>
    <g clip-path="url(#p4874ddf6c9)">
     <use xlink:href="#mee6dba3af6" x="0" y="432" style="fill: #e6944c; fill-opacity: 0.7"/>
    </g>
   </g>
   <g id="PolyCollection_3">
    <defs>
     <path id="mac5fde5dfe" d="M 331.283288 -83.921729 
L 328.919309 -83.921729 
L 328.664317 -85.229564 
L 328.399387 -86.5374 
L 328.127402 -87.845235 
L 327.845728 -89.15307 
L 327.545208 -90.460906 
L 327.210752 -91.768741 
L 326.823514 -93.076577 
L 326.364184 -94.384412 
L 325.81649 -95.692247 
L 325.169951 -97.000083 
L 324.421046 -98.307918 
L 323.572536 -99.615754 
L 322.631249 -100.923589 
L 321.605281 -102.231424 
L 320.501832 -103.53926 
L 319.326733 -104.847095 
L 318.086001 -106.154931 
L 316.788843 -107.462766 
L 315.450663 -108.770602 
L 314.094357 -110.078437 
L 312.748601 -111.386272 
L 311.442979 -112.694108 
L 310.201031 -114.001943 
L 309.033308 -115.309779 
L 307.932751 -116.617614 
L 306.874083 -117.925449 
L 305.817821 -119.233285 
L 304.718152 -120.54112 
L 303.53295 -121.848956 
L 302.233629 -123.156791 
L 300.812538 -124.464626 
L 299.286078 -125.772462 
L 297.69261 -127.080297 
L 296.085487 -128.388133 
L 294.522865 -129.695968 
L 293.057027 -131.003803 
L 291.726228 -132.311639 
L 290.551319 -133.619474 
L 289.537686 -134.92731 
L 288.681117 -136.235145 
L 287.974795 -137.542981 
L 287.414507 -138.850816 
L 287.000348 -140.158651 
L 286.735061 -141.466487 
L 286.620779 -142.774322 
L 286.65637 -144.082158 
L 286.836859 -145.389993 
L 287.154894 -146.697828 
L 287.602993 -148.005664 
L 288.174986 -149.313499 
L 288.865837 -150.621335 
L 289.670166 -151.92917 
L 290.580683 -153.237005 
L 291.587644 -154.544841 
L 292.679627 -155.852676 
L 293.844904 -157.160512 
L 295.072192 -158.468347 
L 296.349969 -159.776182 
L 297.664578 -161.084018 
L 298.998323 -162.391853 
L 300.329139 -163.699689 
L 301.632802 -165.007524 
L 302.88742 -166.31536 
L 304.078682 -167.623195 
L 305.203799 -168.93103 
L 306.272415 -170.238866 
L 307.304015 -171.546701 
L 308.322718 -172.854537 
L 309.351343 -174.162372 
L 310.406736 -175.470207 
L 311.497613 -176.778043 
L 312.625035 -178.085878 
L 313.784562 -179.393714 
L 314.968679 -180.701549 
L 316.16832 -182.009384 
L 317.373032 -183.31722 
L 318.570197 -184.625055 
L 319.744238 -185.932891 
L 320.876754 -187.240726 
L 321.948027 -188.548561 
L 322.939634 -189.856397 
L 323.837362 -191.164232 
L 324.633379 -192.472068 
L 325.32697 -193.779903 
L 325.923656 -195.087739 
L 326.433151 -196.395574 
L 326.866967 -197.703409 
L 327.236459 -199.011245 
L 327.551799 -200.31908 
L 327.821885 -201.626916 
L 328.054821 -202.934751 
L 328.258442 -204.242586 
L 328.440478 -205.550422 
L 328.60822 -206.858257 
L 328.767821 -208.166093 
L 328.923558 -209.473928 
L 329.077349 -210.781763 
L 329.228734 -212.089599 
L 329.375314 -213.397434 
L 330.827283 -213.397434 
L 330.827283 -213.397434 
L 330.973864 -212.089599 
L 331.125248 -210.781763 
L 331.279039 -209.473928 
L 331.434776 -208.166093 
L 331.594377 -206.858257 
L 331.762119 -205.550422 
L 331.944156 -204.242586 
L 332.147777 -202.934751 
L 332.380713 -201.626916 
L 332.650799 -200.31908 
L 332.966138 -199.011245 
L 333.33563 -197.703409 
L 333.769446 -196.395574 
L 334.278941 -195.087739 
L 334.875627 -193.779903 
L 335.569218 -192.472068 
L 336.365236 -191.164232 
L 337.262963 -189.856397 
L 338.254571 -188.548561 
L 339.325843 -187.240726 
L 340.45836 -185.932891 
L 341.632401 -184.625055 
L 342.829565 -183.31722 
L 344.034277 -182.009384 
L 345.233918 -180.701549 
L 346.418036 -179.393714 
L 347.577562 -178.085878 
L 348.704984 -176.778043 
L 349.795861 -175.470207 
L 350.851254 -174.162372 
L 351.879879 -172.854537 
L 352.898582 -171.546701 
L 353.930182 -170.238866 
L 354.998798 -168.93103 
L 356.123915 -167.623195 
L 357.315178 -166.31536 
L 358.569795 -165.007524 
L 359.873459 -163.699689 
L 361.204275 -162.391853 
L 362.53802 -161.084018 
L 363.852629 -159.776182 
L 365.130406 -158.468347 
L 366.357693 -157.160512 
L 367.522971 -155.852676 
L 368.614954 -154.544841 
L 369.621914 -153.237005 
L 370.532431 -151.92917 
L 371.33676 -150.621335 
L 372.027611 -149.313499 
L 372.599605 -148.005664 
L 373.047703 -146.697828 
L 373.365739 -145.389993 
L 373.546227 -144.082158 
L 373.581818 -142.774322 
L 373.467536 -141.466487 
L 373.20225 -140.158651 
L 372.78809 -138.850816 
L 372.227802 -137.542981 
L 371.52148 -136.235145 
L 370.664911 -134.92731 
L 369.651278 -133.619474 
L 368.476369 -132.311639 
L 367.145571 -131.003803 
L 365.679732 -129.695968 
L 364.11711 -128.388133 
L 362.509987 -127.080297 
L 360.916519 -125.772462 
L 359.390059 -124.464626 
L 357.968968 -123.156791 
L 356.669647 -121.848956 
L 355.484446 -120.54112 
L 354.384777 -119.233285 
L 353.328515 -117.925449 
L 352.269847 -116.617614 
L 351.169289 -115.309779 
L 350.001567 -114.001943 
L 348.759618 -112.694108 
L 347.453996 -111.386272 
L 346.108241 -110.078437 
L 344.751934 -108.770602 
L 343.413755 -107.462766 
L 342.116596 -106.154931 
L 340.875864 -104.847095 
L 339.700765 -103.53926 
L 338.597317 -102.231424 
L 337.571348 -100.923589 
L 336.630061 -99.615754 
L 335.781551 -98.307918 
L 335.032647 -97.000083 
L 334.386107 -95.692247 
L 333.838414 -94.384412 
L 333.379083 -93.076577 
L 332.991846 -91.768741 
L 332.657389 -90.460906 
L 332.356869 -89.15307 
L 332.075195 -87.845235 
L 331.803211 -86.5374 
L 331.53828 -85.229564 
L 331.283288 -83.921729 
z
"/>
    </defs>
    <g clip-path="url(#p4874ddf6c9)">
     <use xlink:href="#mac5fde5dfe" x="0" y="432" style="fill: #489848; fill-opacity: 0.7"/>
    </g>
   </g>
   <g id="matplotlib.axis_1">
    <g id="xtick_1">
     <g id="line2d_1">
      <defs>
       <path id="md7eaf190fc" d="M 0 0 
L 0 3.5 
" style="stroke: #000000; stroke-width: 0.8"/>
      </defs>
      <g>
       <use xlink:href="#md7eaf190fc" x="112.698701" y="384.48" style="stroke: #000000; stroke-width: 0.8"/>
      </g>
     </g>
     <g id="text_1">
      <!-- PAC5 -->
      <g transform="translate(99.997139 399.078438) scale(0.1 -0.1)">
       <defs>
        <path id="DejaVuSans-50" d="M 1259 4147 
L 1259 2394 
L 2053 2394 
Q 2494 2394 2734 2622 
Q 2975 2850 2975 3272 
Q 2975 3691 2734 3919 
Q 2494 4147 2053 4147 
L 1259 4147 
z
M 628 4666 
L 2053 4666 
Q 2838 4666 3239 4311 
Q 3641 3956 3641 3272 
Q 3641 2581 3239 2228 
Q 2838 1875 2053 1875 
L 1259 1875 
L 1259 0 
L 628 0 
L 628 4666 
z
" transform="scale(0.015625)"/>
        <path id="DejaVuSans-41" d="M 2188 4044 
L 1331 1722 
L 3047 1722 
L 2188 4044 
z
M 1831 4666 
L 2547 4666 
L 4325 0 
L 3669 0 
L 3244 1197 
L 1141 1197 
L 716 0 
L 50 0 
L 1831 4666 
z
" transform="scale(0.015625)"/>
        <path id="DejaVuSans-43" d="M 4122 4306 
L 4122 3641 
Q 3803 3938 3442 4084 
Q 3081 4231 2675 4231 
Q 1875 4231 1450 3742 
Q 1025 3253 1025 2328 
Q 1025 1406 1450 917 
Q 1875 428 2675 428 
Q 3081 428 3442 575 
Q 3803 722 4122 1019 
L 4122 359 
Q 3791 134 3420 21 
Q 3050 -91 2638 -91 
Q 1578 -91 968 557 
Q 359 1206 359 2328 
Q 359 3453 968 4101 
Q 1578 4750 2638 4750 
Q 3056 4750 3426 4639 
Q 3797 4528 4122 4306 
z
" transform="scale(0.015625)"/>
        <path id="DejaVuSans-35" d="M 691 4666 
L 3169 4666 
L 3169 4134 
L 1269 4134 
L 1269 2991 
Q 1406 3038 1543 3061 
Q 1681 3084 1819 3084 
Q 2600 3084 3056 2656 
Q 3513 2228 3513 1497 
Q 3513 744 3044 326 
Q 2575 -91 1722 -91 
Q 1428 -91 1123 -41 
Q 819 9 494 109 
L 494 744 
Q 775 591 1075 516 
Q 1375 441 1709 441 
Q 2250 441 2565 725 
Q 2881 1009 2881 1497 
Q 2881 1984 2565 2268 
Q 2250 2553 1709 2553 
Q 1456 2553 1204 2497 
Q 953 2441 691 2322 
L 691 4666 
z
" transform="scale(0.015625)"/>
       </defs>
       <use xlink:href="#DejaVuSans-50"/>
       <use xlink:href="#DejaVuSans-41" x="53.927734"/>
       <use xlink:href="#DejaVuSans-43" x="120.585938"/>
       <use xlink:href="#DejaVuSans-35" x="190.410156"/>
      </g>
     </g>
    </g>
    <g id="xtick_2">
     <g id="line2d_2">
      <g>
       <use xlink:href="#md7eaf190fc" x="221.4" y="384.48" style="stroke: #000000; stroke-width: 0.8"/>
      </g>
     </g>
     <g id="text_2">
      <!-- RNA -->
      <g transform="translate(210.764844 399.078438) scale(0.1 -0.1)">
       <defs>
        <path id="DejaVuSans-52" d="M 2841 2188 
Q 3044 2119 3236 1894 
Q 3428 1669 3622 1275 
L 4263 0 
L 3584 0 
L 2988 1197 
Q 2756 1666 2539 1819 
Q 2322 1972 1947 1972 
L 1259 1972 
L 1259 0 
L 628 0 
L 628 4666 
L 2053 4666 
Q 2853 4666 3247 4331 
Q 3641 3997 3641 3322 
Q 3641 2881 3436 2590 
Q 3231 2300 2841 2188 
z
M 1259 4147 
L 1259 2491 
L 2053 2491 
Q 2509 2491 2742 2702 
Q 2975 2913 2975 3322 
Q 2975 3731 2742 3939 
Q 2509 4147 2053 4147 
L 1259 4147 
z
" transform="scale(0.015625)"/>
        <path id="DejaVuSans-4e" d="M 628 4666 
L 1478 4666 
L 3547 763 
L 3547 4666 
L 4159 4666 
L 4159 0 
L 3309 0 
L 1241 3903 
L 1241 0 
L 628 0 
L 628 4666 
z
" transform="scale(0.015625)"/>
       </defs>
       <use xlink:href="#DejaVuSans-52"/>
       <use xlink:href="#DejaVuSans-4e" x="69.482422"/>
       <use xlink:href="#DejaVuSans-41" x="144.287109"/>
      </g>
     </g>
    </g>
    <g id="xtick_3">
     <g id="line2d_3">
      <g>
       <use xlink:href="#md7eaf190fc" x="330.101299" y="384.48" style="stroke: #000000; stroke-width: 0.8"/>
      </g>
     </g>
     <g id="text_3">
      <!-- ssDNA -->
      <g transform="translate(313.880986 399.078438) scale(0.1 -0.1)">
       <defs>
        <path id="DejaVuSans-73" d="M 2834 3397 
L 2834 2853 
Q 2591 2978 2328 3040 
Q 2066 3103 1784 3103 
Q 1356 3103 1142 2972 
Q 928 2841 928 2578 
Q 928 2378 1081 2264 
Q 1234 2150 1697 2047 
L 1894 2003 
Q 2506 1872 2764 1633 
Q 3022 1394 3022 966 
Q 3022 478 2636 193 
Q 2250 -91 1575 -91 
Q 1294 -91 989 -36 
Q 684 19 347 128 
L 347 722 
Q 666 556 975 473 
Q 1284 391 1588 391 
Q 1994 391 2212 530 
Q 2431 669 2431 922 
Q 2431 1156 2273 1281 
Q 2116 1406 1581 1522 
L 1381 1569 
Q 847 1681 609 1914 
Q 372 2147 372 2553 
Q 372 3047 722 3315 
Q 1072 3584 1716 3584 
Q 2034 3584 2315 3537 
Q 2597 3491 2834 3397 
z
" transform="scale(0.015625)"/>
        <path id="DejaVuSans-44" d="M 1259 4147 
L 1259 519 
L 2022 519 
Q 2988 519 3436 956 
Q 3884 1394 3884 2338 
Q 3884 3275 3436 3711 
Q 2988 4147 2022 4147 
L 1259 4147 
z
M 628 4666 
L 1925 4666 
Q 3281 4666 3915 4102 
Q 4550 3538 4550 2338 
Q 4550 1131 3912 565 
Q 3275 0 1925 0 
L 628 0 
L 628 4666 
z
" transform="scale(0.015625)"/>
       </defs>
       <use xlink:href="#DejaVuSans-73"/>
       <use xlink:href="#DejaVuSans-73" x="52.099609"/>
       <use xlink:href="#DejaVuSans-44" x="104.199219"/>
       <use xlink:href="#DejaVuSans-4e" x="181.201172"/>
       <use xlink:href="#DejaVuSans-41" x="256.005859"/>
      </g>
     </g>
    </g>
    <g id="text_4">
     <!--   -->
     <g transform="translate(219.810937 412.756563) scale(0.1 -0.1)">
      <defs>
       <path id="DejaVuSans-20" transform="scale(0.015625)"/>
      </defs>
      <use xlink:href="#DejaVuSans-20"/>
     </g>
    </g>
   </g>
   <g id="matplotlib.axis_2">
    <g id="ytick_1">
     <g id="line2d_4">
      <path d="M 54 358.381263 
L 388.8 358.381263 
" clip-path="url(#p4874ddf6c9)" style="fill: none; stroke: #b0b0b0; stroke-width: 0.8; stroke-linecap: square"/>
     </g>
     <g id="line2d_5">
      <defs>
       <path id="m8d76e375e0" d="M 0 0 
L -3.5 0 
" style="stroke: #000000; stroke-width: 0.8"/>
      </defs>
      <g>
       <use xlink:href="#m8d76e375e0" x="54" y="358.381263" style="stroke: #000000; stroke-width: 0.8"/>
      </g>
     </g>
     <g id="text_5">
      <!-- −150 -->
      <g transform="translate(19.532812 362.180481) scale(0.1 -0.1)">
       <defs>
        <path id="DejaVuSans-2212" d="M 678 2272 
L 4684 2272 
L 4684 1741 
L 678 1741 
L 678 2272 
z
" transform="scale(0.015625)"/>
        <path id="DejaVuSans-31" d="M 794 531 
L 1825 531 
L 1825 4091 
L 703 3866 
L 703 4441 
L 1819 4666 
L 2450 4666 
L 2450 531 
L 3481 531 
L 3481 0 
L 794 0 
L 794 531 
z
" transform="scale(0.015625)"/>
        <path id="DejaVuSans-30" d="M 2034 4250 
Q 1547 4250 1301 3770 
Q 1056 3291 1056 2328 
Q 1056 1369 1301 889 
Q 1547 409 2034 409 
Q 2525 409 2770 889 
Q 3016 1369 3016 2328 
Q 3016 3291 2770 3770 
Q 2525 4250 2034 4250 
z
M 2034 4750 
Q 2819 4750 3233 4129 
Q 3647 3509 3647 2328 
Q 3647 1150 3233 529 
Q 2819 -91 2034 -91 
Q 1250 -91 836 529 
Q 422 1150 422 2328 
Q 422 3509 836 4129 
Q 1250 4750 2034 4750 
z
" transform="scale(0.015625)"/>
       </defs>
       <use xlink:href="#DejaVuSans-2212"/>
       <use xlink:href="#DejaVuSans-31" x="83.789062"/>
       <use xlink:href="#DejaVuSans-35" x="147.412109"/>
       <use xlink:href="#DejaVuSans-30" x="211.035156"/>
      </g>
     </g>
    </g>
    <g id="ytick_2">
     <g id="line2d_6">
      <path d="M 54 285.927034 
L 388.8 285.927034 
" clip-path="url(#p4874ddf6c9)" style="fill: none; stroke: #b0b0b0; stroke-width: 0.8; stroke-linecap: square"/>
     </g>
     <g id="line2d_7">
      <g>
       <use xlink:href="#m8d76e375e0" x="54" y="285.927034" style="stroke: #000000; stroke-width: 0.8"/>
      </g>
     </g>
     <g id="text_6">
      <!-- −100 -->
      <g transform="translate(19.532812 289.726253) scale(0.1 -0.1)">
       <use xlink:href="#DejaVuSans-2212"/>
       <use xlink:href="#DejaVuSans-31" x="83.789062"/>
       <use xlink:href="#DejaVuSans-30" x="147.412109"/>
       <use xlink:href="#DejaVuSans-30" x="211.035156"/>
      </g>
     </g>
    </g>
    <g id="ytick_3">
     <g id="line2d_8">
      <path d="M 54 213.472806 
L 388.8 213.472806 
" clip-path="url(#p4874ddf6c9)" style="fill: none; stroke: #b0b0b0; stroke-width: 0.8; stroke-linecap: square"/>
     </g>
     <g id="line2d_9">
      <g>
       <use xlink:href="#m8d76e375e0" x="54" y="213.472806" style="stroke: #000000; stroke-width: 0.8"/>
      </g>
     </g>
     <g id="text_7">
      <!-- −50 -->
      <g transform="translate(25.895312 217.272025) scale(0.1 -0.1)">
       <use xlink:href="#DejaVuSans-2212"/>
       <use xlink:href="#DejaVuSans-35" x="83.789062"/>
       <use xlink:href="#DejaVuSans-30" x="147.412109"/>
      </g>
     </g>
    </g>
    <g id="ytick_4">
     <g id="line2d_10">
      <path d="M 54 141.018578 
L 388.8 141.018578 
" clip-path="url(#p4874ddf6c9)" style="fill: none; stroke: #b0b0b0; stroke-width: 0.8; stroke-linecap: square"/>
     </g>
     <g id="line2d_11">
      <g>
       <use xlink:href="#m8d76e375e0" x="54" y="141.018578" style="stroke: #000000; stroke-width: 0.8"/>
      </g>
     </g>
     <g id="text_8">
      <!-- 0 -->
      <g transform="translate(40.6375 144.817797) scale(0.1 -0.1)">
       <use xlink:href="#DejaVuSans-30"/>
      </g>
     </g>
    </g>
    <g id="ytick_5">
     <g id="line2d_12">
      <path d="M 54 68.56435 
L 388.8 68.56435 
" clip-path="url(#p4874ddf6c9)" style="fill: none; stroke: #b0b0b0; stroke-width: 0.8; stroke-linecap: square"/>
     </g>
     <g id="line2d_13">
      <g>
       <use xlink:href="#m8d76e375e0" x="54" y="68.56435" style="stroke: #000000; stroke-width: 0.8"/>
      </g>
     </g>
     <g id="text_9">
      <!-- 50 -->
      <g transform="translate(34.275 72.363569) scale(0.1 -0.1)">
       <use xlink:href="#DejaVuSans-35"/>
       <use xlink:href="#DejaVuSans-30" x="63.623047"/>
      </g>
     </g>
    </g>
    <g id="text_10">
     <!-- Energy (kcal/mol) -->
     <g transform="translate(13.453125 262.257656) rotate(-90) scale(0.1 -0.1)">
      <defs>
       <path id="DejaVuSans-45" d="M 628 4666 
L 3578 4666 
L 3578 4134 
L 1259 4134 
L 1259 2753 
L 3481 2753 
L 3481 2222 
L 1259 2222 
L 1259 531 
L 3634 531 
L 3634 0 
L 628 0 
L 628 4666 
z
" transform="scale(0.015625)"/>
       <path id="DejaVuSans-6e" d="M 3513 2113 
L 3513 0 
L 2938 0 
L 2938 2094 
Q 2938 2591 2744 2837 
Q 2550 3084 2163 3084 
Q 1697 3084 1428 2787 
Q 1159 2491 1159 1978 
L 1159 0 
L 581 0 
L 581 3500 
L 1159 3500 
L 1159 2956 
Q 1366 3272 1645 3428 
Q 1925 3584 2291 3584 
Q 2894 3584 3203 3211 
Q 3513 2838 3513 2113 
z
" transform="scale(0.015625)"/>
       <path id="DejaVuSans-65" d="M 3597 1894 
L 3597 1613 
L 953 1613 
Q 991 1019 1311 708 
Q 1631 397 2203 397 
Q 2534 397 2845 478 
Q 3156 559 3463 722 
L 3463 178 
Q 3153 47 2828 -22 
Q 2503 -91 2169 -91 
Q 1331 -91 842 396 
Q 353 884 353 1716 
Q 353 2575 817 3079 
Q 1281 3584 2069 3584 
Q 2775 3584 3186 3129 
Q 3597 2675 3597 1894 
z
M 3022 2063 
Q 3016 2534 2758 2815 
Q 2500 3097 2075 3097 
Q 1594 3097 1305 2825 
Q 1016 2553 972 2059 
L 3022 2063 
z
" transform="scale(0.015625)"/>
       <path id="DejaVuSans-72" d="M 2631 2963 
Q 2534 3019 2420 3045 
Q 2306 3072 2169 3072 
Q 1681 3072 1420 2755 
Q 1159 2438 1159 1844 
L 1159 0 
L 581 0 
L 581 3500 
L 1159 3500 
L 1159 2956 
Q 1341 3275 1631 3429 
Q 1922 3584 2338 3584 
Q 2397 3584 2469 3576 
Q 2541 3569 2628 3553 
L 2631 2963 
z
" transform="scale(0.015625)"/>
       <path id="DejaVuSans-67" d="M 2906 1791 
Q 2906 2416 2648 2759 
Q 2391 3103 1925 3103 
Q 1463 3103 1205 2759 
Q 947 2416 947 1791 
Q 947 1169 1205 825 
Q 1463 481 1925 481 
Q 2391 481 2648 825 
Q 2906 1169 2906 1791 
z
M 3481 434 
Q 3481 -459 3084 -895 
Q 2688 -1331 1869 -1331 
Q 1566 -1331 1297 -1286 
Q 1028 -1241 775 -1147 
L 775 -588 
Q 1028 -725 1275 -790 
Q 1522 -856 1778 -856 
Q 2344 -856 2625 -561 
Q 2906 -266 2906 331 
L 2906 616 
Q 2728 306 2450 153 
Q 2172 0 1784 0 
Q 1141 0 747 490 
Q 353 981 353 1791 
Q 353 2603 747 3093 
Q 1141 3584 1784 3584 
Q 2172 3584 2450 3431 
Q 2728 3278 2906 2969 
L 2906 3500 
L 3481 3500 
L 3481 434 
z
" transform="scale(0.015625)"/>
       <path id="DejaVuSans-79" d="M 2059 -325 
Q 1816 -950 1584 -1140 
Q 1353 -1331 966 -1331 
L 506 -1331 
L 506 -850 
L 844 -850 
Q 1081 -850 1212 -737 
Q 1344 -625 1503 -206 
L 1606 56 
L 191 3500 
L 800 3500 
L 1894 763 
L 2988 3500 
L 3597 3500 
L 2059 -325 
z
" transform="scale(0.015625)"/>
       <path id="DejaVuSans-28" d="M 1984 4856 
Q 1566 4138 1362 3434 
Q 1159 2731 1159 2009 
Q 1159 1288 1364 580 
Q 1569 -128 1984 -844 
L 1484 -844 
Q 1016 -109 783 600 
Q 550 1309 550 2009 
Q 550 2706 781 3412 
Q 1013 4119 1484 4856 
L 1984 4856 
z
" transform="scale(0.015625)"/>
       <path id="DejaVuSans-6b" d="M 581 4863 
L 1159 4863 
L 1159 1991 
L 2875 3500 
L 3609 3500 
L 1753 1863 
L 3688 0 
L 2938 0 
L 1159 1709 
L 1159 0 
L 581 0 
L 581 4863 
z
" transform="scale(0.015625)"/>
       <path id="DejaVuSans-63" d="M 3122 3366 
L 3122 2828 
Q 2878 2963 2633 3030 
Q 2388 3097 2138 3097 
Q 1578 3097 1268 2742 
Q 959 2388 959 1747 
Q 959 1106 1268 751 
Q 1578 397 2138 397 
Q 2388 397 2633 464 
Q 2878 531 3122 666 
L 3122 134 
Q 2881 22 2623 -34 
Q 2366 -91 2075 -91 
Q 1284 -91 818 406 
Q 353 903 353 1747 
Q 353 2603 823 3093 
Q 1294 3584 2113 3584 
Q 2378 3584 2631 3529 
Q 2884 3475 3122 3366 
z
" transform="scale(0.015625)"/>
       <path id="DejaVuSans-61" d="M 2194 1759 
Q 1497 1759 1228 1600 
Q 959 1441 959 1056 
Q 959 750 1161 570 
Q 1363 391 1709 391 
Q 2188 391 2477 730 
Q 2766 1069 2766 1631 
L 2766 1759 
L 2194 1759 
z
M 3341 1997 
L 3341 0 
L 2766 0 
L 2766 531 
Q 2569 213 2275 61 
Q 1981 -91 1556 -91 
Q 1019 -91 701 211 
Q 384 513 384 1019 
Q 384 1609 779 1909 
Q 1175 2209 1959 2209 
L 2766 2209 
L 2766 2266 
Q 2766 2663 2505 2880 
Q 2244 3097 1772 3097 
Q 1472 3097 1187 3025 
Q 903 2953 641 2809 
L 641 3341 
Q 956 3463 1253 3523 
Q 1550 3584 1831 3584 
Q 2591 3584 2966 3190 
Q 3341 2797 3341 1997 
z
" transform="scale(0.015625)"/>
       <path id="DejaVuSans-6c" d="M 603 4863 
L 1178 4863 
L 1178 0 
L 603 0 
L 603 4863 
z
" transform="scale(0.015625)"/>
       <path id="DejaVuSans-2f" d="M 1625 4666 
L 2156 4666 
L 531 -594 
L 0 -594 
L 1625 4666 
z
" transform="scale(0.015625)"/>
       <path id="DejaVuSans-6d" d="M 3328 2828 
Q 3544 3216 3844 3400 
Q 4144 3584 4550 3584 
Q 5097 3584 5394 3201 
Q 5691 2819 5691 2113 
L 5691 0 
L 5113 0 
L 5113 2094 
Q 5113 2597 4934 2840 
Q 4756 3084 4391 3084 
Q 3944 3084 3684 2787 
Q 3425 2491 3425 1978 
L 3425 0 
L 2847 0 
L 2847 2094 
Q 2847 2600 2669 2842 
Q 2491 3084 2119 3084 
Q 1678 3084 1418 2786 
Q 1159 2488 1159 1978 
L 1159 0 
L 581 0 
L 581 3500 
L 1159 3500 
L 1159 2956 
Q 1356 3278 1631 3431 
Q 1906 3584 2284 3584 
Q 2666 3584 2933 3390 
Q 3200 3197 3328 2828 
z
" transform="scale(0.015625)"/>
       <path id="DejaVuSans-6f" d="M 1959 3097 
Q 1497 3097 1228 2736 
Q 959 2375 959 1747 
Q 959 1119 1226 758 
Q 1494 397 1959 397 
Q 2419 397 2687 759 
Q 2956 1122 2956 1747 
Q 2956 2369 2687 2733 
Q 2419 3097 1959 3097 
z
M 1959 3584 
Q 2709 3584 3137 3096 
Q 3566 2609 3566 1747 
Q 3566 888 3137 398 
Q 2709 -91 1959 -91 
Q 1206 -91 779 398 
Q 353 888 353 1747 
Q 353 2609 779 3096 
Q 1206 3584 1959 3584 
z
" transform="scale(0.015625)"/>
       <path id="DejaVuSans-29" d="M 513 4856 
L 1013 4856 
Q 1481 4119 1714 3412 
Q 1947 2706 1947 2009 
Q 1947 1309 1714 600 
Q 1481 -109 1013 -844 
L 513 -844 
Q 928 -128 1133 580 
Q 1338 1288 1338 2009 
Q 1338 2731 1133 3434 
Q 928 4138 513 4856 
z
" transform="scale(0.015625)"/>
      </defs>
      <use xlink:href="#DejaVuSans-45"/>
      <use xlink:href="#DejaVuSans-6e" x="63.183594"/>
      <use xlink:href="#DejaVuSans-65" x="126.5625"/>
      <use xlink:href="#DejaVuSans-72" x="188.085938"/>
      <use xlink:href="#DejaVuSans-67" x="227.449219"/>
      <use xlink:href="#DejaVuSans-79" x="290.925781"/>
      <use xlink:href="#DejaVuSans-20" x="350.105469"/>
      <use xlink:href="#DejaVuSans-28" x="381.892578"/>
      <use xlink:href="#DejaVuSans-6b" x="420.90625"/>
      <use xlink:href="#DejaVuSans-63" x="478.816406"/>
      <use xlink:href="#DejaVuSans-61" x="533.796875"/>
      <use xlink:href="#DejaVuSans-6c" x="595.076172"/>
      <use xlink:href="#DejaVuSans-2f" x="622.859375"/>
      <use xlink:href="#DejaVuSans-6d" x="656.550781"/>
      <use xlink:href="#DejaVuSans-6f" x="753.962891"/>
      <use xlink:href="#DejaVuSans-6c" x="815.144531"/>
      <use xlink:href="#DejaVuSans-29" x="842.927734"/>
     </g>
    </g>
   </g>
   <g id="line2d_14">
    <path d="M 112.698701 124.281275 
L 112.698701 118.842252 
L 221.4 118.842252 
L 221.4 124.281275 
" style="fill: none; stroke: #333333; stroke-width: 1.5; stroke-linecap: square"/>
   </g>
   <g id="line2d_15">
    <path d="M 221.4 101.510108 
L 221.4 96.071085 
L 330.101299 96.071085 
L 330.101299 101.510108 
" style="fill: none; stroke: #333333; stroke-width: 1.5; stroke-linecap: square"/>
   </g>
   <g id="line2d_16">
    <path d="M 112.698701 78.738941 
L 112.698701 73.299918 
L 330.101299 73.299918 
L 330.101299 78.738941 
" style="fill: none; stroke: #333333; stroke-width: 1.5; stroke-linecap: square"/>
   </g>
   <g id="patch_3">
    <path d="M 54 384.48 
L 54 51.84 
" style="fill: none; stroke: #000000; stroke-width: 0.8; stroke-linejoin: miter; stroke-linecap: square"/>
   </g>
   <g id="patch_4">
    <path d="M 54 384.48 
L 388.8 384.48 
" style="fill: none; stroke: #000000; stroke-width: 0.8; stroke-linejoin: miter; stroke-linecap: square"/>
   </g>
   <g id="text_11">
    <!-- **** -->
    <g transform="translate(157.049351 115.762564) scale(0.1 -0.1)">
     <defs>
      <path id="DejaVuSans-2a" d="M 3009 3897 
L 1888 3291 
L 3009 2681 
L 2828 2375 
L 1778 3009 
L 1778 1831 
L 1422 1831 
L 1422 3009 
L 372 2375 
L 191 2681 
L 1313 3291 
L 191 3897 
L 372 4206 
L 1422 3572 
L 1422 4750 
L 1778 4750 
L 1778 3572 
L 2828 4206 
L 3009 3897 
z
" transform="scale(0.015625)"/>
     </defs>
     <use xlink:href="#DejaVuSans-2a"/>
     <use xlink:href="#DejaVuSans-2a" x="50"/>
     <use xlink:href="#DejaVuSans-2a" x="100"/>
     <use xlink:href="#DejaVuSans-2a" x="150"/>
    </g>
   </g>
   <g id="text_12">
    <!-- **** -->
    <g transform="translate(265.750649 92.991398) scale(0.1 -0.1)">
     <use xlink:href="#DejaVuSans-2a"/>
     <use xlink:href="#DejaVuSans-2a" x="50"/>
     <use xlink:href="#DejaVuSans-2a" x="100"/>
     <use xlink:href="#DejaVuSans-2a" x="150"/>
    </g>
   </g>
   <g id="text_13">
    <!-- **** -->
    <g transform="translate(211.4 70.220231) scale(0.1 -0.1)">
     <use xlink:href="#DejaVuSans-2a"/>
     <use xlink:href="#DejaVuSans-2a" x="50"/>
     <use xlink:href="#DejaVuSans-2a" x="100"/>
     <use xlink:href="#DejaVuSans-2a" x="150"/>
    </g>
   </g>
   <g id="text_14">
    <!-- Binding Free Energy Distribution -->
    <g transform="translate(124.264688 45.84) scale(0.12 -0.12)">
     <defs>
      <path id="DejaVuSans-42" d="M 1259 2228 
L 1259 519 
L 2272 519 
Q 2781 519 3026 730 
Q 3272 941 3272 1375 
Q 3272 1813 3026 2020 
Q 2781 2228 2272 2228 
L 1259 2228 
z
M 1259 4147 
L 1259 2741 
L 2194 2741 
Q 2656 2741 2882 2914 
Q 3109 3088 3109 3444 
Q 3109 3797 2882 3972 
Q 2656 4147 2194 4147 
L 1259 4147 
z
M 628 4666 
L 2241 4666 
Q 2963 4666 3353 4366 
Q 3744 4066 3744 3513 
Q 3744 3084 3544 2831 
Q 3344 2578 2956 2516 
Q 3422 2416 3680 2098 
Q 3938 1781 3938 1306 
Q 3938 681 3513 340 
Q 3088 0 2303 0 
L 628 0 
L 628 4666 
z
" transform="scale(0.015625)"/>
      <path id="DejaVuSans-69" d="M 603 3500 
L 1178 3500 
L 1178 0 
L 603 0 
L 603 3500 
z
M 603 4863 
L 1178 4863 
L 1178 4134 
L 603 4134 
L 603 4863 
z
" transform="scale(0.015625)"/>
      <path id="DejaVuSans-64" d="M 2906 2969 
L 2906 4863 
L 3481 4863 
L 3481 0 
L 2906 0 
L 2906 525 
Q 2725 213 2448 61 
Q 2172 -91 1784 -91 
Q 1150 -91 751 415 
Q 353 922 353 1747 
Q 353 2572 751 3078 
Q 1150 3584 1784 3584 
Q 2172 3584 2448 3432 
Q 2725 3281 2906 2969 
z
M 947 1747 
Q 947 1113 1208 752 
Q 1469 391 1925 391 
Q 2381 391 2643 752 
Q 2906 1113 2906 1747 
Q 2906 2381 2643 2742 
Q 2381 3103 1925 3103 
Q 1469 3103 1208 2742 
Q 947 2381 947 1747 
z
" transform="scale(0.015625)"/>
      <path id="DejaVuSans-46" d="M 628 4666 
L 3309 4666 
L 3309 4134 
L 1259 4134 
L 1259 2759 
L 3109 2759 
L 3109 2228 
L 1259 2228 
L 1259 0 
L 628 0 
L 628 4666 
z
" transform="scale(0.015625)"/>
      <path id="DejaVuSans-74" d="M 1172 4494 
L 1172 3500 
L 2356 3500 
L 2356 3053 
L 1172 3053 
L 1172 1153 
Q 1172 725 1289 603 
Q 1406 481 1766 481 
L 2356 481 
L 2356 0 
L 1766 0 
Q 1100 0 847 248 
Q 594 497 594 1153 
L 594 3053 
L 172 3053 
L 172 3500 
L 594 3500 
L 594 4494 
L 1172 4494 
z
" transform="scale(0.015625)"/>
      <path id="DejaVuSans-62" d="M 3116 1747 
Q 3116 2381 2855 2742 
Q 2594 3103 2138 3103 
Q 1681 3103 1420 2742 
Q 1159 2381 1159 1747 
Q 1159 1113 1420 752 
Q 1681 391 2138 391 
Q 2594 391 2855 752 
Q 3116 1113 3116 1747 
z
M 1159 2969 
Q 1341 3281 1617 3432 
Q 1894 3584 2278 3584 
Q 2916 3584 3314 3078 
Q 3713 2572 3713 1747 
Q 3713 922 3314 415 
Q 2916 -91 2278 -91 
Q 1894 -91 1617 61 
Q 1341 213 1159 525 
L 1159 0 
L 581 0 
L 581 4863 
L 1159 4863 
L 1159 2969 
z
" transform="scale(0.015625)"/>
      <path id="DejaVuSans-75" d="M 544 1381 
L 544 3500 
L 1119 3500 
L 1119 1403 
Q 1119 906 1312 657 
Q 1506 409 1894 409 
Q 2359 409 2629 706 
Q 2900 1003 2900 1516 
L 2900 3500 
L 3475 3500 
L 3475 0 
L 2900 0 
L 2900 538 
Q 2691 219 2414 64 
Q 2138 -91 1772 -91 
Q 1169 -91 856 284 
Q 544 659 544 1381 
z
M 1991 3584 
L 1991 3584 
z
" transform="scale(0.015625)"/>
     </defs>
     <use xlink:href="#DejaVuSans-42"/>
     <use xlink:href="#DejaVuSans-69" x="68.603516"/>
     <use xlink:href="#DejaVuSans-6e" x="96.386719"/>
     <use xlink:href="#DejaVuSans-64" x="159.765625"/>
     <use xlink:href="#DejaVuSans-69" x="223.242188"/>
     <use xlink:href="#DejaVuSans-6e" x="251.025391"/>
     <use xlink:href="#DejaVuSans-67" x="314.404297"/>
     <use xlink:href="#DejaVuSans-20" x="377.880859"/>
     <use xlink:href="#DejaVuSans-46" x="409.667969"/>
     <use xlink:href="#DejaVuSans-72" x="459.9375"/>
     <use xlink:href="#DejaVuSans-65" x="498.800781"/>
     <use xlink:href="#DejaVuSans-65" x="560.324219"/>
     <use xlink:href="#DejaVuSans-20" x="621.847656"/>
     <use xlink:href="#DejaVuSans-45" x="653.634766"/>
     <use xlink:href="#DejaVuSans-6e" x="716.818359"/>
     <use xlink:href="#DejaVuSans-65" x="780.197266"/>
     <use xlink:href="#DejaVuSans-72" x="841.720703"/>
     <use xlink:href="#DejaVuSans-67" x="881.083984"/>
     <use xlink:href="#DejaVuSans-79" x="944.560547"/>
     <use xlink:href="#DejaVuSans-20" x="1003.740234"/>
     <use xlink:href="#DejaVuSans-44" x="1035.527344"/>
     <use xlink:href="#DejaVuSans-69" x="1112.529297"/>
     <use xlink:href="#DejaVuSans-73" x="1140.3125"/>
     <use xlink:href="#DejaVuSans-74" x="1192.412109"/>
     <use xlink:href="#DejaVuSans-72" x="1231.621094"/>
     <use xlink:href="#DejaVuSans-69" x="1272.734375"/>
     <use xlink:href="#DejaVuSans-62" x="1300.517578"/>
     <use xlink:href="#DejaVuSans-75" x="1363.994141"/>
     <use xlink:href="#DejaVuSans-74" x="1427.373047"/>
     <use xlink:href="#DejaVuSans-69" x="1466.582031"/>
     <use xlink:href="#DejaVuSans-6f" x="1494.365234"/>
     <use xlink:href="#DejaVuSans-6e" x="1555.546875"/>
    </g>
   </g>
   <g id="patch_5">
    <path d="M 96.393506 168.609148 
L 129.003896 168.609148 
L 129.003896 157.088926 
L 96.393506 157.088926 
L 96.393506 168.609148 
z
" clip-path="url(#p4874ddf6c9)" style="fill: #407ea8; stroke: #434343; stroke-linejoin: miter"/>
   </g>
   <g id="line2d_17">
    <path d="M 112.698701 168.609148 
L 112.698701 185.751819 
" clip-path="url(#p4874ddf6c9)" style="fill: none; stroke: #434343"/>
   </g>
   <g id="line2d_18">
    <path d="M 112.698701 157.088926 
L 112.698701 140.598344 
" clip-path="url(#p4874ddf6c9)" style="fill: none; stroke: #434343"/>
   </g>
   <g id="line2d_19">
    <path d="M 104.546104 185.751819 
L 120.851299 185.751819 
" clip-path="url(#p4874ddf6c9)" style="fill: none; stroke: #434343; stroke-linecap: square"/>
   </g>
   <g id="line2d_20">
    <path d="M 104.546104 140.598344 
L 120.851299 140.598344 
" clip-path="url(#p4874ddf6c9)" style="fill: none; stroke: #434343; stroke-linecap: square"/>
   </g>
   <g id="patch_6">
    <path d="M 205.094805 277.362945 
L 237.705195 277.362945 
L 237.705195 248.65658 
L 205.094805 248.65658 
L 205.094805 277.362945 
z
" clip-path="url(#p4874ddf6c9)" style="fill: #e6944c; stroke: #434343; stroke-linejoin: miter"/>
   </g>
   <g id="line2d_21">
    <path d="M 221.4 277.362945 
L 221.4 319.458851 
" clip-path="url(#p4874ddf6c9)" style="fill: none; stroke: #434343"/>
   </g>
   <g id="line2d_22">
    <path d="M 221.4 248.65658 
L 221.4 208.574901 
" clip-path="url(#p4874ddf6c9)" style="fill: none; stroke: #434343"/>
   </g>
   <g id="line2d_23">
    <path d="M 213.247403 319.458851 
L 229.552597 319.458851 
" clip-path="url(#p4874ddf6c9)" style="fill: none; stroke: #434343; stroke-linecap: square"/>
   </g>
   <g id="line2d_24">
    <path d="M 213.247403 208.574901 
L 229.552597 208.574901 
" clip-path="url(#p4874ddf6c9)" style="fill: none; stroke: #434343; stroke-linecap: square"/>
   </g>
   <g id="patch_7">
    <path d="M 313.796104 302.243727 
L 346.406494 302.243727 
L 346.406494 271.479661 
L 313.796104 271.479661 
L 313.796104 302.243727 
z
" clip-path="url(#p4874ddf6c9)" style="fill: #489848; stroke: #434343; stroke-linejoin: miter"/>
   </g>
   <g id="line2d_25">
    <path d="M 330.101299 302.243727 
L 330.101299 348.078271 
" clip-path="url(#p4874ddf6c9)" style="fill: none; stroke: #434343"/>
   </g>
   <g id="line2d_26">
    <path d="M 330.101299 271.479661 
L 330.101299 227.036238 
" clip-path="url(#p4874ddf6c9)" style="fill: none; stroke: #434343"/>
   </g>
   <g id="line2d_27">
    <path d="M 321.948701 348.078271 
L 338.253896 348.078271 
" clip-path="url(#p4874ddf6c9)" style="fill: none; stroke: #434343; stroke-linecap: square"/>
   </g>
   <g id="line2d_28">
    <path d="M 321.948701 227.036238 
L 338.253896 227.036238 
" clip-path="url(#p4874ddf6c9)" style="fill: none; stroke: #434343; stroke-linecap: square"/>
   </g>
   <g id="line2d_29">
    <path d="M 96.393506 163.291008 
L 129.003896 163.291008 
" clip-path="url(#p4874ddf6c9)" style="fill: none; stroke: #434343"/>
   </g>
   <g id="line2d_30">
    <path d="M 205.094805 261.046253 
L 237.705195 261.046253 
" clip-path="url(#p4874ddf6c9)" style="fill: none; stroke: #434343"/>
   </g>
   <g id="line2d_31">
    <path d="M 313.796104 287.694918 
L 346.406494 287.694918 
" clip-path="url(#p4874ddf6c9)" style="fill: none; stroke: #434343"/>
   </g>
  </g>
 </g>
 <defs>
  <clipPath id="p4874ddf6c9">
   <rect x="54" y="51.84" width="334.8" height="332.64"/>
  </clipPath>
 </defs>
</svg>
