<?xml version="1.0" encoding="utf-8" standalone="no"?>
<!DOCTYPE svg PUBLIC "-//W3C//DTD SVG 1.1//EN"
  "http://www.w3.org/Graphics/SVG/1.1/DTD/svg11.dtd">
<svg xmlns:xlink="http://www.w3.org/1999/xlink" width="576pt" height="360pt" viewBox="0 0 576 360" xmlns="http://www.w3.org/2000/svg" version="1.1">
 <metadata>
  <rdf:RDF xmlns:dc="http://purl.org/dc/elements/1.1/" xmlns:cc="http://creativecommons.org/ns#" xmlns:rdf="http://www.w3.org/1999/02/22-rdf-syntax-ns#">
   <cc:Work>
    <dc:type rdf:resource="http://purl.org/dc/dcmitype/StillImage"/>
    <dc:date>2025-01-16T18:07:16.685527</dc:date>
    <dc:format>image/svg+xml</dc:format>
    <dc:creator>
     <cc:Agent>
      <dc:title>Matplotlib v3.9.2, https://matplotlib.org/</dc:title>
     </cc:Agent>
    </dc:creator>
   </cc:Work>
  </rdf:RDF>
 </metadata>
 <defs>
  <style type="text/css">*{stroke-linejoin: round; stroke-linecap: butt}</style>
 </defs>
 <g id="figure_1">
  <g id="patch_1">
   <path d="M 0 360 
L 576 360 
L 576 0 
L 0 0 
z
" style="fill: #ffffff"/>
  </g>
  <g id="axes_1">
   <g id="patch_2">
    <path d="M 72 320.4 
L 518.4 320.4 
L 518.4 43.2 
L 72 43.2 
z
" style="fill: #ffffff"/>
   </g>
   <g id="matplotlib.axis_1">
    <g id="xtick_1">
     <g id="line2d_1">
      <path d="M 92.290909 320.4 
L 92.290909 43.2 
" clip-path="url(#pb3314b3d8c)" style="fill: none; stroke: #b0b0b0; stroke-width: 0.8; stroke-linecap: square"/>
     </g>
     <g id="line2d_2">
      <defs>
       <path id="me56bfc30d0" d="M 0 0 
L 0 3.5 
" style="stroke: #000000; stroke-width: 0.8"/>
      </defs>
      <g>
       <use xlink:href="#me56bfc30d0" x="92.290909" y="320.4" style="stroke: #000000; stroke-width: 0.8"/>
      </g>
     </g>
     <g id="text_1">
      <!-- 0 -->
      <g transform="translate(87.837159 338.037813) scale(0.14 -0.14)">
       <defs>
        <path id="DejaVuSans-30" d="M 2034 4250 
Q 1547 4250 1301 3770 
Q 1056 3291 1056 2328 
Q 1056 1369 1301 889 
Q 1547 409 2034 409 
Q 2525 409 2770 889 
Q 3016 1369 3016 2328 
Q 3016 3291 2770 3770 
Q 2525 4250 2034 4250 
z
M 2034 4750 
Q 2819 4750 3233 4129 
Q 3647 3509 3647 2328 
Q 3647 1150 3233 529 
Q 2819 -91 2034 -91 
Q 1250 -91 836 529 
Q 422 1150 422 2328 
Q 422 3509 836 4129 
Q 1250 4750 2034 4750 
z
" transform="scale(0.015625)"/>
       </defs>
       <use xlink:href="#DejaVuSans-30"/>
      </g>
     </g>
    </g>
    <g id="xtick_2">
     <g id="line2d_3">
      <path d="M 132.872727 320.4 
L 132.872727 43.2 
" clip-path="url(#pb3314b3d8c)" style="fill: none; stroke: #b0b0b0; stroke-width: 0.8; stroke-linecap: square"/>
     </g>
     <g id="line2d_4">
      <g>
       <use xlink:href="#me56bfc30d0" x="132.872727" y="320.4" style="stroke: #000000; stroke-width: 0.8"/>
      </g>
     </g>
     <g id="text_2">
      <!-- 10 -->
      <g transform="translate(123.965227 338.037813) scale(0.14 -0.14)">
       <defs>
        <path id="DejaVuSans-31" d="M 794 531 
L 1825 531 
L 1825 4091 
L 703 3866 
L 703 4441 
L 1819 4666 
L 2450 4666 
L 2450 531 
L 3481 531 
L 3481 0 
L 794 0 
L 794 531 
z
" transform="scale(0.015625)"/>
       </defs>
       <use xlink:href="#DejaVuSans-31"/>
       <use xlink:href="#DejaVuSans-30" x="63.623047"/>
      </g>
     </g>
    </g>
    <g id="xtick_3">
     <g id="line2d_5">
      <path d="M 173.454545 320.4 
L 173.454545 43.2 
" clip-path="url(#pb3314b3d8c)" style="fill: none; stroke: #b0b0b0; stroke-width: 0.8; stroke-linecap: square"/>
     </g>
     <g id="line2d_6">
      <g>
       <use xlink:href="#me56bfc30d0" x="173.454545" y="320.4" style="stroke: #000000; stroke-width: 0.8"/>
      </g>
     </g>
     <g id="text_3">
      <!-- 20 -->
      <g transform="translate(164.547045 338.037813) scale(0.14 -0.14)">
       <defs>
        <path id="DejaVuSans-32" d="M 1228 531 
L 3431 531 
L 3431 0 
L 469 0 
L 469 531 
Q 828 903 1448 1529 
Q 2069 2156 2228 2338 
Q 2531 2678 2651 2914 
Q 2772 3150 2772 3378 
Q 2772 3750 2511 3984 
Q 2250 4219 1831 4219 
Q 1534 4219 1204 4116 
Q 875 4013 500 3803 
L 500 4441 
Q 881 4594 1212 4672 
Q 1544 4750 1819 4750 
Q 2544 4750 2975 4387 
Q 3406 4025 3406 3419 
Q 3406 3131 3298 2873 
Q 3191 2616 2906 2266 
Q 2828 2175 2409 1742 
Q 1991 1309 1228 531 
z
" transform="scale(0.015625)"/>
       </defs>
       <use xlink:href="#DejaVuSans-32"/>
       <use xlink:href="#DejaVuSans-30" x="63.623047"/>
      </g>
     </g>
    </g>
    <g id="xtick_4">
     <g id="line2d_7">
      <path d="M 214.036364 320.4 
L 214.036364 43.2 
" clip-path="url(#pb3314b3d8c)" style="fill: none; stroke: #b0b0b0; stroke-width: 0.8; stroke-linecap: square"/>
     </g>
     <g id="line2d_8">
      <g>
       <use xlink:href="#me56bfc30d0" x="214.036364" y="320.4" style="stroke: #000000; stroke-width: 0.8"/>
      </g>
     </g>
     <g id="text_4">
      <!-- 30 -->
      <g transform="translate(205.128864 338.037813) scale(0.14 -0.14)">
       <defs>
        <path id="DejaVuSans-33" d="M 2597 2516 
Q 3050 2419 3304 2112 
Q 3559 1806 3559 1356 
Q 3559 666 3084 287 
Q 2609 -91 1734 -91 
Q 1441 -91 1130 -33 
Q 819 25 488 141 
L 488 750 
Q 750 597 1062 519 
Q 1375 441 1716 441 
Q 2309 441 2620 675 
Q 2931 909 2931 1356 
Q 2931 1769 2642 2001 
Q 2353 2234 1838 2234 
L 1294 2234 
L 1294 2753 
L 1863 2753 
Q 2328 2753 2575 2939 
Q 2822 3125 2822 3475 
Q 2822 3834 2567 4026 
Q 2313 4219 1838 4219 
Q 1578 4219 1281 4162 
Q 984 4106 628 3988 
L 628 4550 
Q 988 4650 1302 4700 
Q 1616 4750 1894 4750 
Q 2613 4750 3031 4423 
Q 3450 4097 3450 3541 
Q 3450 3153 3228 2886 
Q 3006 2619 2597 2516 
z
" transform="scale(0.015625)"/>
       </defs>
       <use xlink:href="#DejaVuSans-33"/>
       <use xlink:href="#DejaVuSans-30" x="63.623047"/>
      </g>
     </g>
    </g>
    <g id="xtick_5">
     <g id="line2d_9">
      <path d="M 254.618182 320.4 
L 254.618182 43.2 
" clip-path="url(#pb3314b3d8c)" style="fill: none; stroke: #b0b0b0; stroke-width: 0.8; stroke-linecap: square"/>
     </g>
     <g id="line2d_10">
      <g>
       <use xlink:href="#me56bfc30d0" x="254.618182" y="320.4" style="stroke: #000000; stroke-width: 0.8"/>
      </g>
     </g>
     <g id="text_5">
      <!-- 40 -->
      <g transform="translate(245.710682 338.037813) scale(0.14 -0.14)">
       <defs>
        <path id="DejaVuSans-34" d="M 2419 4116 
L 825 1625 
L 2419 1625 
L 2419 4116 
z
M 2253 4666 
L 3047 4666 
L 3047 1625 
L 3713 1625 
L 3713 1100 
L 3047 1100 
L 3047 0 
L 2419 0 
L 2419 1100 
L 313 1100 
L 313 1709 
L 2253 4666 
z
" transform="scale(0.015625)"/>
       </defs>
       <use xlink:href="#DejaVuSans-34"/>
       <use xlink:href="#DejaVuSans-30" x="63.623047"/>
      </g>
     </g>
    </g>
    <g id="xtick_6">
     <g id="line2d_11">
      <path d="M 295.2 320.4 
L 295.2 43.2 
" clip-path="url(#pb3314b3d8c)" style="fill: none; stroke: #b0b0b0; stroke-width: 0.8; stroke-linecap: square"/>
     </g>
     <g id="line2d_12">
      <g>
       <use xlink:href="#me56bfc30d0" x="295.2" y="320.4" style="stroke: #000000; stroke-width: 0.8"/>
      </g>
     </g>
     <g id="text_6">
      <!-- 50 -->
      <g transform="translate(286.2925 338.037813) scale(0.14 -0.14)">
       <defs>
        <path id="DejaVuSans-35" d="M 691 4666 
L 3169 4666 
L 3169 4134 
L 1269 4134 
L 1269 2991 
Q 1406 3038 1543 3061 
Q 1681 3084 1819 3084 
Q 2600 3084 3056 2656 
Q 3513 2228 3513 1497 
Q 3513 744 3044 326 
Q 2575 -91 1722 -91 
Q 1428 -91 1123 -41 
Q 819 9 494 109 
L 494 744 
Q 775 591 1075 516 
Q 1375 441 1709 441 
Q 2250 441 2565 725 
Q 2881 1009 2881 1497 
Q 2881 1984 2565 2268 
Q 2250 2553 1709 2553 
Q 1456 2553 1204 2497 
Q 953 2441 691 2322 
L 691 4666 
z
" transform="scale(0.015625)"/>
       </defs>
       <use xlink:href="#DejaVuSans-35"/>
       <use xlink:href="#DejaVuSans-30" x="63.623047"/>
      </g>
     </g>
    </g>
    <g id="xtick_7">
     <g id="line2d_13">
      <path d="M 335.781818 320.4 
L 335.781818 43.2 
" clip-path="url(#pb3314b3d8c)" style="fill: none; stroke: #b0b0b0; stroke-width: 0.8; stroke-linecap: square"/>
     </g>
     <g id="line2d_14">
      <g>
       <use xlink:href="#me56bfc30d0" x="335.781818" y="320.4" style="stroke: #000000; stroke-width: 0.8"/>
      </g>
     </g>
     <g id="text_7">
      <!-- 60 -->
      <g transform="translate(326.874318 338.037813) scale(0.14 -0.14)">
       <defs>
        <path id="DejaVuSans-36" d="M 2113 2584 
Q 1688 2584 1439 2293 
Q 1191 2003 1191 1497 
Q 1191 994 1439 701 
Q 1688 409 2113 409 
Q 2538 409 2786 701 
Q 3034 994 3034 1497 
Q 3034 2003 2786 2293 
Q 2538 2584 2113 2584 
z
M 3366 4563 
L 3366 3988 
Q 3128 4100 2886 4159 
Q 2644 4219 2406 4219 
Q 1781 4219 1451 3797 
Q 1122 3375 1075 2522 
Q 1259 2794 1537 2939 
Q 1816 3084 2150 3084 
Q 2853 3084 3261 2657 
Q 3669 2231 3669 1497 
Q 3669 778 3244 343 
Q 2819 -91 2113 -91 
Q 1303 -91 875 529 
Q 447 1150 447 2328 
Q 447 3434 972 4092 
Q 1497 4750 2381 4750 
Q 2619 4750 2861 4703 
Q 3103 4656 3366 4563 
z
" transform="scale(0.015625)"/>
       </defs>
       <use xlink:href="#DejaVuSans-36"/>
       <use xlink:href="#DejaVuSans-30" x="63.623047"/>
      </g>
     </g>
    </g>
    <g id="xtick_8">
     <g id="line2d_15">
      <path d="M 376.363636 320.4 
L 376.363636 43.2 
" clip-path="url(#pb3314b3d8c)" style="fill: none; stroke: #b0b0b0; stroke-width: 0.8; stroke-linecap: square"/>
     </g>
     <g id="line2d_16">
      <g>
       <use xlink:href="#me56bfc30d0" x="376.363636" y="320.4" style="stroke: #000000; stroke-width: 0.8"/>
      </g>
     </g>
     <g id="text_8">
      <!-- 70 -->
      <g transform="translate(367.456136 338.037813) scale(0.14 -0.14)">
       <defs>
        <path id="DejaVuSans-37" d="M 525 4666 
L 3525 4666 
L 3525 4397 
L 1831 0 
L 1172 0 
L 2766 4134 
L 525 4134 
L 525 4666 
z
" transform="scale(0.015625)"/>
       </defs>
       <use xlink:href="#DejaVuSans-37"/>
       <use xlink:href="#DejaVuSans-30" x="63.623047"/>
      </g>
     </g>
    </g>
    <g id="xtick_9">
     <g id="line2d_17">
      <path d="M 416.945455 320.4 
L 416.945455 43.2 
" clip-path="url(#pb3314b3d8c)" style="fill: none; stroke: #b0b0b0; stroke-width: 0.8; stroke-linecap: square"/>
     </g>
     <g id="line2d_18">
      <g>
       <use xlink:href="#me56bfc30d0" x="416.945455" y="320.4" style="stroke: #000000; stroke-width: 0.8"/>
      </g>
     </g>
     <g id="text_9">
      <!-- 80 -->
      <g transform="translate(408.037955 338.037813) scale(0.14 -0.14)">
       <defs>
        <path id="DejaVuSans-38" d="M 2034 2216 
Q 1584 2216 1326 1975 
Q 1069 1734 1069 1313 
Q 1069 891 1326 650 
Q 1584 409 2034 409 
Q 2484 409 2743 651 
Q 3003 894 3003 1313 
Q 3003 1734 2745 1975 
Q 2488 2216 2034 2216 
z
M 1403 2484 
Q 997 2584 770 2862 
Q 544 3141 544 3541 
Q 544 4100 942 4425 
Q 1341 4750 2034 4750 
Q 2731 4750 3128 4425 
Q 3525 4100 3525 3541 
Q 3525 3141 3298 2862 
Q 3072 2584 2669 2484 
Q 3125 2378 3379 2068 
Q 3634 1759 3634 1313 
Q 3634 634 3220 271 
Q 2806 -91 2034 -91 
Q 1263 -91 848 271 
Q 434 634 434 1313 
Q 434 1759 690 2068 
Q 947 2378 1403 2484 
z
M 1172 3481 
Q 1172 3119 1398 2916 
Q 1625 2713 2034 2713 
Q 2441 2713 2670 2916 
Q 2900 3119 2900 3481 
Q 2900 3844 2670 4047 
Q 2441 4250 2034 4250 
Q 1625 4250 1398 4047 
Q 1172 3844 1172 3481 
z
" transform="scale(0.015625)"/>
       </defs>
       <use xlink:href="#DejaVuSans-38"/>
       <use xlink:href="#DejaVuSans-30" x="63.623047"/>
      </g>
     </g>
    </g>
    <g id="xtick_10">
     <g id="line2d_19">
      <path d="M 457.527273 320.4 
L 457.527273 43.2 
" clip-path="url(#pb3314b3d8c)" style="fill: none; stroke: #b0b0b0; stroke-width: 0.8; stroke-linecap: square"/>
     </g>
     <g id="line2d_20">
      <g>
       <use xlink:href="#me56bfc30d0" x="457.527273" y="320.4" style="stroke: #000000; stroke-width: 0.8"/>
      </g>
     </g>
     <g id="text_10">
      <!-- 90 -->
      <g transform="translate(448.619773 338.037813) scale(0.14 -0.14)">
       <defs>
        <path id="DejaVuSans-39" d="M 703 97 
L 703 672 
Q 941 559 1184 500 
Q 1428 441 1663 441 
Q 2288 441 2617 861 
Q 2947 1281 2994 2138 
Q 2813 1869 2534 1725 
Q 2256 1581 1919 1581 
Q 1219 1581 811 2004 
Q 403 2428 403 3163 
Q 403 3881 828 4315 
Q 1253 4750 1959 4750 
Q 2769 4750 3195 4129 
Q 3622 3509 3622 2328 
Q 3622 1225 3098 567 
Q 2575 -91 1691 -91 
Q 1453 -91 1209 -44 
Q 966 3 703 97 
z
M 1959 2075 
Q 2384 2075 2632 2365 
Q 2881 2656 2881 3163 
Q 2881 3666 2632 3958 
Q 2384 4250 1959 4250 
Q 1534 4250 1286 3958 
Q 1038 3666 1038 3163 
Q 1038 2656 1286 2365 
Q 1534 2075 1959 2075 
z
" transform="scale(0.015625)"/>
       </defs>
       <use xlink:href="#DejaVuSans-39"/>
       <use xlink:href="#DejaVuSans-30" x="63.623047"/>
      </g>
     </g>
    </g>
    <g id="xtick_11">
     <g id="line2d_21">
      <path d="M 498.109091 320.4 
L 498.109091 43.2 
" clip-path="url(#pb3314b3d8c)" style="fill: none; stroke: #b0b0b0; stroke-width: 0.8; stroke-linecap: square"/>
     </g>
     <g id="line2d_22">
      <g>
       <use xlink:href="#me56bfc30d0" x="498.109091" y="320.4" style="stroke: #000000; stroke-width: 0.8"/>
      </g>
     </g>
     <g id="text_11">
      <!-- 100 -->
      <g transform="translate(484.747841 338.037813) scale(0.14 -0.14)">
       <use xlink:href="#DejaVuSans-31"/>
       <use xlink:href="#DejaVuSans-30" x="63.623047"/>
       <use xlink:href="#DejaVuSans-30" x="127.246094"/>
      </g>
     </g>
    </g>
    <g id="text_12">
     <!-- Time (ns) -->
     <g transform="translate(252.904219 358.626562) scale(0.18 -0.18)">
      <defs>
       <path id="DejaVuSans-54" d="M -19 4666 
L 3928 4666 
L 3928 4134 
L 2272 4134 
L 2272 0 
L 1638 0 
L 1638 4134 
L -19 4134 
L -19 4666 
z
" transform="scale(0.015625)"/>
       <path id="DejaVuSans-69" d="M 603 3500 
L 1178 3500 
L 1178 0 
L 603 0 
L 603 3500 
z
M 603 4863 
L 1178 4863 
L 1178 4134 
L 603 4134 
L 603 4863 
z
" transform="scale(0.015625)"/>
       <path id="DejaVuSans-6d" d="M 3328 2828 
Q 3544 3216 3844 3400 
Q 4144 3584 4550 3584 
Q 5097 3584 5394 3201 
Q 5691 2819 5691 2113 
L 5691 0 
L 5113 0 
L 5113 2094 
Q 5113 2597 4934 2840 
Q 4756 3084 4391 3084 
Q 3944 3084 3684 2787 
Q 3425 2491 3425 1978 
L 3425 0 
L 2847 0 
L 2847 2094 
Q 2847 2600 2669 2842 
Q 2491 3084 2119 3084 
Q 1678 3084 1418 2786 
Q 1159 2488 1159 1978 
L 1159 0 
L 581 0 
L 581 3500 
L 1159 3500 
L 1159 2956 
Q 1356 3278 1631 3431 
Q 1906 3584 2284 3584 
Q 2666 3584 2933 3390 
Q 3200 3197 3328 2828 
z
" transform="scale(0.015625)"/>
       <path id="DejaVuSans-65" d="M 3597 1894 
L 3597 1613 
L 953 1613 
Q 991 1019 1311 708 
Q 1631 397 2203 397 
Q 2534 397 2845 478 
Q 3156 559 3463 722 
L 3463 178 
Q 3153 47 2828 -22 
Q 2503 -91 2169 -91 
Q 1331 -91 842 396 
Q 353 884 353 1716 
Q 353 2575 817 3079 
Q 1281 3584 2069 3584 
Q 2775 3584 3186 3129 
Q 3597 2675 3597 1894 
z
M 3022 2063 
Q 3016 2534 2758 2815 
Q 2500 3097 2075 3097 
Q 1594 3097 1305 2825 
Q 1016 2553 972 2059 
L 3022 2063 
z
" transform="scale(0.015625)"/>
       <path id="DejaVuSans-20" transform="scale(0.015625)"/>
       <path id="DejaVuSans-28" d="M 1984 4856 
Q 1566 4138 1362 3434 
Q 1159 2731 1159 2009 
Q 1159 1288 1364 580 
Q 1569 -128 1984 -844 
L 1484 -844 
Q 1016 -109 783 600 
Q 550 1309 550 2009 
Q 550 2706 781 3412 
Q 1013 4119 1484 4856 
L 1984 4856 
z
" transform="scale(0.015625)"/>
       <path id="DejaVuSans-6e" d="M 3513 2113 
L 3513 0 
L 2938 0 
L 2938 2094 
Q 2938 2591 2744 2837 
Q 2550 3084 2163 3084 
Q 1697 3084 1428 2787 
Q 1159 2491 1159 1978 
L 1159 0 
L 581 0 
L 581 3500 
L 1159 3500 
L 1159 2956 
Q 1366 3272 1645 3428 
Q 1925 3584 2291 3584 
Q 2894 3584 3203 3211 
Q 3513 2838 3513 2113 
z
" transform="scale(0.015625)"/>
       <path id="DejaVuSans-73" d="M 2834 3397 
L 2834 2853 
Q 2591 2978 2328 3040 
Q 2066 3103 1784 3103 
Q 1356 3103 1142 2972 
Q 928 2841 928 2578 
Q 928 2378 1081 2264 
Q 1234 2150 1697 2047 
L 1894 2003 
Q 2506 1872 2764 1633 
Q 3022 1394 3022 966 
Q 3022 478 2636 193 
Q 2250 -91 1575 -91 
Q 1294 -91 989 -36 
Q 684 19 347 128 
L 347 722 
Q 666 556 975 473 
Q 1284 391 1588 391 
Q 1994 391 2212 530 
Q 2431 669 2431 922 
Q 2431 1156 2273 1281 
Q 2116 1406 1581 1522 
L 1381 1569 
Q 847 1681 609 1914 
Q 372 2147 372 2553 
Q 372 3047 722 3315 
Q 1072 3584 1716 3584 
Q 2034 3584 2315 3537 
Q 2597 3491 2834 3397 
z
" transform="scale(0.015625)"/>
       <path id="DejaVuSans-29" d="M 513 4856 
L 1013 4856 
Q 1481 4119 1714 3412 
Q 1947 2706 1947 2009 
Q 1947 1309 1714 600 
Q 1481 -109 1013 -844 
L 513 -844 
Q 928 -128 1133 580 
Q 1338 1288 1338 2009 
Q 1338 2731 1133 3434 
Q 928 4138 513 4856 
z
" transform="scale(0.015625)"/>
      </defs>
      <use xlink:href="#DejaVuSans-54"/>
      <use xlink:href="#DejaVuSans-69" x="57.958984"/>
      <use xlink:href="#DejaVuSans-6d" x="85.742188"/>
      <use xlink:href="#DejaVuSans-65" x="183.154297"/>
      <use xlink:href="#DejaVuSans-20" x="244.677734"/>
      <use xlink:href="#DejaVuSans-28" x="276.464844"/>
      <use xlink:href="#DejaVuSans-6e" x="315.478516"/>
      <use xlink:href="#DejaVuSans-73" x="378.857422"/>
      <use xlink:href="#DejaVuSans-29" x="430.957031"/>
     </g>
    </g>
   </g>
   <g id="matplotlib.axis_2">
    <g id="ytick_1">
     <g id="line2d_23">
      <defs>
       <path id="ma64e5d5e33" d="M 0 0 
L -3.5 0 
" style="stroke: #000000; stroke-width: 0.8"/>
      </defs>
      <g>
       <use xlink:href="#ma64e5d5e33" x="72" y="307.990007" style="stroke: #000000; stroke-width: 0.8"/>
      </g>
     </g>
     <g id="text_13">
      <!-- 0.0 -->
      <g transform="translate(42.735625 313.308914) scale(0.14 -0.14)">
       <defs>
        <path id="DejaVuSans-2e" d="M 684 794 
L 1344 794 
L 1344 0 
L 684 0 
L 684 794 
z
" transform="scale(0.015625)"/>
       </defs>
       <use xlink:href="#DejaVuSans-30"/>
       <use xlink:href="#DejaVuSans-2e" x="63.623047"/>
       <use xlink:href="#DejaVuSans-30" x="95.410156"/>
      </g>
     </g>
    </g>
    <g id="ytick_2">
     <g id="line2d_24">
      <g>
       <use xlink:href="#ma64e5d5e33" x="72" y="270.109739" style="stroke: #000000; stroke-width: 0.8"/>
      </g>
     </g>
     <g id="text_14">
      <!-- 0.1 -->
      <g transform="translate(42.735625 275.428645) scale(0.14 -0.14)">
       <use xlink:href="#DejaVuSans-30"/>
       <use xlink:href="#DejaVuSans-2e" x="63.623047"/>
       <use xlink:href="#DejaVuSans-31" x="95.410156"/>
      </g>
     </g>
    </g>
    <g id="ytick_3">
     <g id="line2d_25">
      <g>
       <use xlink:href="#ma64e5d5e33" x="72" y="232.229471" style="stroke: #000000; stroke-width: 0.8"/>
      </g>
     </g>
     <g id="text_15">
      <!-- 0.2 -->
      <g transform="translate(42.735625 237.548377) scale(0.14 -0.14)">
       <use xlink:href="#DejaVuSans-30"/>
       <use xlink:href="#DejaVuSans-2e" x="63.623047"/>
       <use xlink:href="#DejaVuSans-32" x="95.410156"/>
      </g>
     </g>
    </g>
    <g id="ytick_4">
     <g id="line2d_26">
      <g>
       <use xlink:href="#ma64e5d5e33" x="72" y="194.349203" style="stroke: #000000; stroke-width: 0.8"/>
      </g>
     </g>
     <g id="text_16">
      <!-- 0.3 -->
      <g transform="translate(42.735625 199.668109) scale(0.14 -0.14)">
       <use xlink:href="#DejaVuSans-30"/>
       <use xlink:href="#DejaVuSans-2e" x="63.623047"/>
       <use xlink:href="#DejaVuSans-33" x="95.410156"/>
      </g>
     </g>
    </g>
    <g id="ytick_5">
     <g id="line2d_27">
      <g>
       <use xlink:href="#ma64e5d5e33" x="72" y="156.468934" style="stroke: #000000; stroke-width: 0.8"/>
      </g>
     </g>
     <g id="text_17">
      <!-- 0.4 -->
      <g transform="translate(42.735625 161.787841) scale(0.14 -0.14)">
       <use xlink:href="#DejaVuSans-30"/>
       <use xlink:href="#DejaVuSans-2e" x="63.623047"/>
       <use xlink:href="#DejaVuSans-34" x="95.410156"/>
      </g>
     </g>
    </g>
    <g id="ytick_6">
     <g id="line2d_28">
      <g>
       <use xlink:href="#ma64e5d5e33" x="72" y="118.588666" style="stroke: #000000; stroke-width: 0.8"/>
      </g>
     </g>
     <g id="text_18">
      <!-- 0.5 -->
      <g transform="translate(42.735625 123.907572) scale(0.14 -0.14)">
       <use xlink:href="#DejaVuSans-30"/>
       <use xlink:href="#DejaVuSans-2e" x="63.623047"/>
       <use xlink:href="#DejaVuSans-35" x="95.410156"/>
      </g>
     </g>
    </g>
    <g id="ytick_7">
     <g id="line2d_29">
      <g>
       <use xlink:href="#ma64e5d5e33" x="72" y="80.708398" style="stroke: #000000; stroke-width: 0.8"/>
      </g>
     </g>
     <g id="text_19">
      <!-- 0.6 -->
      <g transform="translate(42.735625 86.027304) scale(0.14 -0.14)">
       <use xlink:href="#DejaVuSans-30"/>
       <use xlink:href="#DejaVuSans-2e" x="63.623047"/>
       <use xlink:href="#DejaVuSans-36" x="95.410156"/>
      </g>
     </g>
    </g>
    <g id="text_20">
     <!-- RMSD (nm) -->
     <g transform="translate(34.992188 232.815937) rotate(-90) scale(0.18 -0.18)">
      <defs>
       <path id="DejaVuSans-52" d="M 2841 2188 
Q 3044 2119 3236 1894 
Q 3428 1669 3622 1275 
L 4263 0 
L 3584 0 
L 2988 1197 
Q 2756 1666 2539 1819 
Q 2322 1972 1947 1972 
L 1259 1972 
L 1259 0 
L 628 0 
L 628 4666 
L 2053 4666 
Q 2853 4666 3247 4331 
Q 3641 3997 3641 3322 
Q 3641 2881 3436 2590 
Q 3231 2300 2841 2188 
z
M 1259 4147 
L 1259 2491 
L 2053 2491 
Q 2509 2491 2742 2702 
Q 2975 2913 2975 3322 
Q 2975 3731 2742 3939 
Q 2509 4147 2053 4147 
L 1259 4147 
z
" transform="scale(0.015625)"/>
       <path id="DejaVuSans-4d" d="M 628 4666 
L 1569 4666 
L 2759 1491 
L 3956 4666 
L 4897 4666 
L 4897 0 
L 4281 0 
L 4281 4097 
L 3078 897 
L 2444 897 
L 1241 4097 
L 1241 0 
L 628 0 
L 628 4666 
z
" transform="scale(0.015625)"/>
       <path id="DejaVuSans-53" d="M 3425 4513 
L 3425 3897 
Q 3066 4069 2747 4153 
Q 2428 4238 2131 4238 
Q 1616 4238 1336 4038 
Q 1056 3838 1056 3469 
Q 1056 3159 1242 3001 
Q 1428 2844 1947 2747 
L 2328 2669 
Q 3034 2534 3370 2195 
Q 3706 1856 3706 1288 
Q 3706 609 3251 259 
Q 2797 -91 1919 -91 
Q 1588 -91 1214 -16 
Q 841 59 441 206 
L 441 856 
Q 825 641 1194 531 
Q 1563 422 1919 422 
Q 2459 422 2753 634 
Q 3047 847 3047 1241 
Q 3047 1584 2836 1778 
Q 2625 1972 2144 2069 
L 1759 2144 
Q 1053 2284 737 2584 
Q 422 2884 422 3419 
Q 422 4038 858 4394 
Q 1294 4750 2059 4750 
Q 2388 4750 2728 4690 
Q 3069 4631 3425 4513 
z
" transform="scale(0.015625)"/>
       <path id="DejaVuSans-44" d="M 1259 4147 
L 1259 519 
L 2022 519 
Q 2988 519 3436 956 
Q 3884 1394 3884 2338 
Q 3884 3275 3436 3711 
Q 2988 4147 2022 4147 
L 1259 4147 
z
M 628 4666 
L 1925 4666 
Q 3281 4666 3915 4102 
Q 4550 3538 4550 2338 
Q 4550 1131 3912 565 
Q 3275 0 1925 0 
L 628 0 
L 628 4666 
z
" transform="scale(0.015625)"/>
      </defs>
      <use xlink:href="#DejaVuSans-52"/>
      <use xlink:href="#DejaVuSans-4d" x="69.482422"/>
      <use xlink:href="#DejaVuSans-53" x="155.761719"/>
      <use xlink:href="#DejaVuSans-44" x="219.238281"/>
      <use xlink:href="#DejaVuSans-20" x="296.240234"/>
      <use xlink:href="#DejaVuSans-28" x="328.027344"/>
      <use xlink:href="#DejaVuSans-6e" x="367.041016"/>
      <use xlink:href="#DejaVuSans-6d" x="430.419922"/>
      <use xlink:href="#DejaVuSans-29" x="527.832031"/>
     </g>
    </g>
   </g>
   <g id="line2d_30">
    <path d="M 96.349091 200.543249 
L 96.754909 197.877966 
L 97.160727 196.094418 
L 97.972364 193.831954 
L 98.378182 191.936731 
L 98.784 190.76938 
L 99.595636 187.397257 
L 100.001455 186.841775 
L 101.624727 183.088585 
L 102.436364 182.333319 
L 103.248 182.835515 
L 103.653818 182.857548 
L 104.059636 183.214972 
L 104.465455 183.763789 
L 104.871273 184.101415 
L 105.277091 183.488577 
L 106.494545 183.841783 
L 106.900364 184.85671 
L 107.712 186.301024 
L 108.523636 188.594546 
L 108.929455 189.847082 
L 109.741091 191.395568 
L 110.552727 191.35159 
L 111.364364 191.581868 
L 111.770182 191.739238 
L 112.176 192.295653 
L 112.581818 193.214543 
L 112.987636 193.2916 
L 113.393455 194.570983 
L 113.799273 194.934069 
L 114.205091 194.948036 
L 114.610909 195.876675 
L 115.016727 196.356573 
L 115.422545 196.593042 
L 115.828364 197.361894 
L 116.234182 197.054726 
L 116.64 196.93225 
L 117.045818 197.229594 
L 117.451636 197.702877 
L 117.857455 197.800413 
L 118.669091 198.906486 
L 119.480727 199.323959 
L 119.886545 199.731288 
L 121.104 197.940318 
L 121.509818 198.202394 
L 122.321455 197.717325 
L 122.727273 197.535141 
L 123.133091 196.86496 
L 123.538909 196.741218 
L 124.756364 195.039806 
L 125.568 194.458555 
L 125.973818 194.653146 
L 126.379636 194.992035 
L 126.785455 194.731148 
L 127.191273 194.645069 
L 128.002909 194.077348 
L 128.408727 194.182668 
L 128.814545 194.053609 
L 130.032 192.932312 
L 130.437818 192.938552 
L 130.843636 193.111198 
L 131.249455 193.538421 
L 131.655273 194.169255 
L 132.061091 194.455681 
L 132.466909 195.044333 
L 132.872727 195.840429 
L 133.278545 196.20234 
L 133.684364 196.124552 
L 134.090182 196.835844 
L 136.119273 197.808053 
L 136.525091 198.637585 
L 136.930909 198.833743 
L 138.554182 200.358311 
L 138.96 201.086323 
L 139.365818 201.444414 
L 140.177455 202.571381 
L 140.583273 203.54465 
L 140.989091 203.942917 
L 141.394909 204.158676 
L 142.206545 205.06009 
L 142.612364 205.190769 
L 143.018182 205.779122 
L 143.424 206.127398 
L 143.829818 206.754498 
L 144.235636 207.622897 
L 144.641455 207.993996 
L 145.047273 208.637587 
L 145.453091 208.955284 
L 145.858909 209.056084 
L 146.670545 209.954145 
L 147.076364 209.960738 
L 147.482182 209.844272 
L 147.888 210.002057 
L 148.293818 210.037163 
L 149.511273 209.655057 
L 150.728727 209.728064 
L 151.540364 209.448105 
L 152.352 209.796191 
L 152.757818 209.60946 
L 153.163636 209.713338 
L 153.975273 208.984283 
L 154.786909 208.341662 
L 155.598545 207.021977 
L 156.004364 205.936296 
L 156.816 204.617518 
L 157.221818 204.121922 
L 157.627636 203.860001 
L 158.439273 202.776125 
L 158.845091 202.584865 
L 159.656727 201.72224 
L 161.28 198.873663 
L 162.091636 198.295473 
L 163.309091 196.963652 
L 163.714909 196.8723 
L 164.932364 195.144292 
L 166.961455 190.822553 
L 167.367273 190.375186 
L 167.773091 190.141905 
L 168.584727 189.031783 
L 169.396364 188.328904 
L 170.613818 188.513255 
L 171.425455 188.359667 
L 171.831273 188.768327 
L 172.642909 190.694392 
L 173.048727 191.136424 
L 173.454545 191.947448 
L 173.860364 192.171203 
L 174.266182 192.054127 
L 174.672 192.066694 
L 175.077818 191.883689 
L 175.483636 192.078718 
L 175.889455 192.092465 
L 176.701091 192.523404 
L 177.106909 192.316092 
L 177.512727 192.398827 
L 177.918545 192.130116 
L 178.324364 192.105375 
L 178.730182 191.477345 
L 179.136 191.280704 
L 180.353455 189.78483 
L 180.759273 189.859413 
L 181.165091 189.486418 
L 181.570909 189.477707 
L 181.976727 189.353061 
L 182.382545 189.457542 
L 182.788364 189.421202 
L 183.194182 189.646795 
L 184.005818 188.871028 
L 184.411636 188.789513 
L 184.817455 188.542818 
L 185.223273 188.477109 
L 185.629091 188.565548 
L 186.034909 188.442571 
L 186.440727 188.152647 
L 186.846545 188.155323 
L 187.252364 188.478613 
L 187.658182 188.629367 
L 188.064 188.385129 
L 190.093091 185.699133 
L 190.904727 185.911127 
L 191.310545 186.213325 
L 191.716364 186.176982 
L 192.122182 186.268317 
L 193.339636 186.96135 
L 194.557091 188.622142 
L 195.368727 190.595603 
L 197.397818 194.53274 
L 197.803636 195.25559 
L 198.209455 196.297727 
L 199.021091 197.373308 
L 199.426909 197.369798 
L 200.238545 198.910669 
L 200.644364 199.319412 
L 201.050182 199.931286 
L 202.267636 201.065442 
L 202.673455 201.659359 
L 203.485091 202.218427 
L 204.296727 202.386596 
L 205.514182 201.896283 
L 205.92 201.793377 
L 206.325818 201.985 
L 206.731636 201.61043 
L 207.137455 201.600424 
L 207.543273 200.984712 
L 207.949091 200.676809 
L 208.354909 200.588402 
L 208.760727 200.692555 
L 209.166545 200.339599 
L 209.572364 200.288699 
L 210.384 199.993055 
L 210.789818 199.386715 
L 211.601455 198.640434 
L 212.413091 198.020512 
L 212.818909 197.327667 
L 214.442182 195.760382 
L 214.848 195.664296 
L 215.253818 195.448969 
L 215.659636 195.588643 
L 216.065455 195.054606 
L 216.877091 194.306984 
L 217.282909 193.796074 
L 218.094545 193.293854 
L 219.312 191.791363 
L 219.717818 190.937164 
L 220.123636 190.740955 
L 221.746909 190.474682 
L 222.152727 190.876464 
L 222.558545 190.53281 
L 222.964364 191.279461 
L 223.370182 191.384701 
L 223.776 192.367911 
L 224.587636 193.040816 
L 225.399273 193.161265 
L 226.616727 194.060828 
L 227.428364 194.954316 
L 228.24 194.821519 
L 229.457455 195.457002 
L 229.863273 195.757356 
L 230.269091 195.766402 
L 231.080727 196.365901 
L 231.486545 196.754742 
L 233.921455 200.049144 
L 234.327273 200.453393 
L 234.733091 201.300183 
L 237.979636 205.83152 
L 238.385455 205.599781 
L 238.791273 205.797848 
L 239.197091 205.169428 
L 239.602909 204.843313 
L 240.008727 203.966823 
L 240.414545 203.634761 
L 240.820364 202.973417 
L 242.037818 201.966246 
L 243.255273 200.552934 
L 243.661091 199.889847 
L 244.066909 199.615737 
L 244.472727 199.631543 
L 245.284364 198.644101 
L 246.096 196.981811 
L 246.501818 196.539907 
L 248.125091 191.909477 
L 248.936727 189.912628 
L 249.342545 188.818068 
L 250.154182 187.537773 
L 250.56 187.082252 
L 251.371636 185.730614 
L 251.777455 185.244484 
L 252.183273 184.487067 
L 252.589091 184.614114 
L 252.994909 184.348841 
L 253.400727 183.526691 
L 253.806545 183.5231 
L 254.212364 182.968592 
L 254.618182 182.729338 
L 255.024 182.666157 
L 255.429818 182.826807 
L 255.835636 182.736822 
L 256.647273 183.158387 
L 257.053091 183.937564 
L 257.864727 184.563502 
L 258.270545 185.286804 
L 258.676364 185.648845 
L 259.082182 185.819632 
L 260.299636 186.950738 
L 260.705455 186.781677 
L 261.111273 187.241452 
L 261.517091 187.337519 
L 261.922909 187.583738 
L 262.328727 187.99137 
L 262.734545 187.91768 
L 263.140364 187.978851 
L 263.546182 188.239781 
L 263.952 187.871598 
L 264.763636 188.410482 
L 265.169455 188.979739 
L 265.575273 189.255487 
L 265.981091 189.198912 
L 266.386909 188.901891 
L 268.416 188.302065 
L 269.633455 186.534481 
L 270.039273 186.208206 
L 270.445091 186.264692 
L 270.850909 186.146677 
L 271.256727 186.161834 
L 271.662545 185.874251 
L 272.068364 185.865171 
L 272.88 185.362155 
L 273.285818 184.450245 
L 274.097455 183.259826 
L 274.909091 181.63539 
L 275.314909 181.14391 
L 276.126545 179.356693 
L 276.532364 178.833166 
L 276.938182 178.677186 
L 277.749818 177.898398 
L 278.155636 177.878402 
L 278.561455 177.646055 
L 278.967273 177.632902 
L 279.373091 177.907956 
L 279.778909 177.813249 
L 280.590545 179.086139 
L 281.808 180.053861 
L 282.213818 180.482139 
L 282.619636 181.103935 
L 283.025455 181.215042 
L 283.837091 181.654209 
L 284.242909 182.109675 
L 285.866182 184.942156 
L 286.272 185.027436 
L 286.677818 184.906803 
L 287.895273 185.22704 
L 288.301091 184.949099 
L 289.112727 184.702457 
L 289.518545 184.951661 
L 290.736 184.846698 
L 291.141818 184.489525 
L 291.547636 183.926303 
L 291.953455 184.195924 
L 292.359273 184.239706 
L 292.765091 184.534091 
L 293.576727 184.670682 
L 293.982545 185.162912 
L 295.2 185.53428 
L 295.605818 185.342872 
L 296.011636 185.536815 
L 296.417455 185.518045 
L 297.229091 184.813868 
L 298.852364 182.178487 
L 300.475636 181.094167 
L 301.693091 179.237376 
L 302.504727 178.086772 
L 303.316364 177.844516 
L 303.722182 177.264034 
L 304.128 177.024865 
L 304.533818 177.29875 
L 304.939636 177.173145 
L 306.157091 177.931207 
L 306.562909 178.055292 
L 308.186182 179.911487 
L 308.592 180.249471 
L 309.403636 180.681924 
L 309.809455 180.642638 
L 310.215273 180.811845 
L 310.621091 180.783466 
L 311.026909 180.602794 
L 311.432727 180.694184 
L 311.838545 181.053979 
L 313.056 181.466686 
L 313.461818 181.264727 
L 315.085091 183.027548 
L 315.490909 183.116155 
L 315.896727 183.343069 
L 316.302545 183.7456 
L 317.114182 184.247074 
L 317.925818 184.596481 
L 319.549091 184.430964 
L 319.954909 184.679452 
L 320.360727 184.523583 
L 320.766545 184.112338 
L 321.984 182.262855 
L 322.795636 180.41434 
L 323.607273 178.648596 
L 324.013091 178.127461 
L 324.418909 177.971009 
L 324.824727 177.662352 
L 326.448 173.824017 
L 326.853818 173.118429 
L 327.259636 173.097023 
L 327.665455 172.447422 
L 328.477091 171.879212 
L 329.694545 170.131668 
L 331.317818 166.110786 
L 331.723636 166.035132 
L 332.535273 164.604028 
L 333.346909 162.976994 
L 334.158545 162.60184 
L 334.970182 162.955127 
L 335.376 163.220262 
L 335.781818 163.627152 
L 336.593455 163.760972 
L 337.405091 164.772673 
L 337.810909 164.517696 
L 338.216727 164.842281 
L 339.028364 166.484816 
L 339.84 167.844816 
L 340.245818 168.253206 
L 340.651636 168.180725 
L 341.057455 168.432517 
L 341.463273 169.166503 
L 341.869091 169.636706 
L 342.274909 170.687737 
L 343.086545 171.505446 
L 343.492364 171.259175 
L 343.898182 171.41137 
L 344.304 171.190971 
L 344.709818 171.342832 
L 345.115636 171.218037 
L 345.521455 171.230487 
L 346.333091 171.652613 
L 346.738909 172.112386 
L 347.144727 172.998997 
L 348.362182 173.560119 
L 349.173818 174.355586 
L 349.579636 174.883426 
L 349.985455 174.701311 
L 350.391273 174.963289 
L 350.797091 174.905691 
L 351.202909 174.377459 
L 352.014545 173.035779 
L 352.826182 172.779713 
L 353.232 172.318933 
L 353.637818 172.088262 
L 354.043636 172.154523 
L 354.449455 172.046865 
L 354.855273 171.390045 
L 355.261091 170.951563 
L 356.072727 171.161474 
L 356.478545 171.433853 
L 356.884364 171.884219 
L 357.696 172.289587 
L 358.101818 172.617873 
L 358.913455 172.408548 
L 359.319273 172.526517 
L 359.725091 172.476114 
L 360.130909 172.664057 
L 360.536727 172.653887 
L 360.942545 172.450095 
L 361.754182 172.424086 
L 362.971636 172.388906 
L 363.377455 172.592958 
L 363.783273 172.99179 
L 365.000727 173.488312 
L 365.406545 173.903346 
L 365.812364 174.139947 
L 366.218182 174.725788 
L 367.029818 175.415686 
L 367.841455 177.930928 
L 368.247273 178.33747 
L 368.653091 178.969081 
L 369.058909 179.371433 
L 369.464727 179.571915 
L 371.493818 182.36437 
L 372.305455 181.707833 
L 372.711273 181.573988 
L 373.928727 181.671043 
L 374.740364 181.624905 
L 375.552 181.209724 
L 376.363636 181.935697 
L 377.175273 181.828226 
L 377.581091 182.097437 
L 378.392727 182.102 
L 379.610182 183.571932 
L 380.827636 183.432223 
L 381.233455 183.821283 
L 382.450909 183.886322 
L 383.262545 184.174212 
L 384.074182 184.507254 
L 384.48 185.258317 
L 385.291636 185.790135 
L 385.697455 186.388874 
L 386.103273 186.772327 
L 386.914909 187.109691 
L 387.320727 187.232115 
L 388.538182 188.826681 
L 388.944 188.886477 
L 389.349818 188.789003 
L 389.755636 188.56147 
L 390.973091 188.980785 
L 391.784727 190.216104 
L 392.190545 190.104085 
L 392.596364 190.205169 
L 393.813818 191.872748 
L 394.625455 193.771012 
L 395.031273 194.576072 
L 395.437091 195.071401 
L 395.842909 195.193183 
L 396.654545 196.134933 
L 397.060364 196.378007 
L 397.466182 196.039729 
L 397.872 196.054092 
L 398.277818 196.295726 
L 398.683636 196.21344 
L 399.901091 195.323966 
L 400.712727 194.683971 
L 401.118545 193.985175 
L 401.524364 193.666748 
L 401.930182 193.134507 
L 402.336 192.817907 
L 403.147636 191.926573 
L 403.553455 191.755745 
L 403.959273 191.19052 
L 404.770909 190.656742 
L 405.176727 190.548299 
L 405.988364 190.040278 
L 407.611636 187.439629 
L 408.017455 186.322313 
L 408.423273 186.066839 
L 409.640727 184.590943 
L 410.046545 184.439112 
L 410.452364 183.249459 
L 410.858182 182.900482 
L 411.669818 180.931681 
L 413.293091 177.34897 
L 413.698909 177.006551 
L 414.510545 175.857954 
L 415.322182 174.387595 
L 415.728 174.390962 
L 416.539636 172.861951 
L 416.945455 171.740671 
L 417.351273 171.401171 
L 418.162909 170.149392 
L 419.380364 167.143019 
L 419.786182 166.437845 
L 420.597818 165.546278 
L 421.409455 163.29323 
L 421.815273 161.699487 
L 423.032727 158.63109 
L 423.844364 153.797062 
L 424.250182 152.649189 
L 424.656 150.331514 
L 425.467636 148.033367 
L 426.279273 145.636602 
L 426.685091 145.163039 
L 427.090909 143.578021 
L 427.496727 143.040553 
L 427.902545 142.7814 
L 428.714182 141.584701 
L 429.525818 139.737641 
L 430.743273 137.088059 
L 431.149091 136.804792 
L 432.366545 134.358292 
L 432.772364 134.07274 
L 433.178182 133.610363 
L 433.989818 132.193506 
L 434.395636 132.465425 
L 434.801455 133.066559 
L 435.613091 132.912359 
L 436.018909 132.486013 
L 436.830545 130.909641 
L 437.236364 130.752628 
L 437.642182 131.008933 
L 438.048 132.02255 
L 438.859636 133.072185 
L 439.265455 134.551528 
L 439.671273 137.452667 
L 440.077091 139.459716 
L 440.482909 140.246175 
L 440.888727 141.614419 
L 441.294545 141.143449 
L 441.700364 141.173447 
L 442.106182 142.106254 
L 442.512 142.525315 
L 442.917818 142.617382 
L 443.323636 143.008246 
L 443.729455 142.754252 
L 444.135273 141.765715 
L 444.541091 141.485005 
L 444.946909 140.618909 
L 445.758545 141.045046 
L 447.381818 141.005626 
L 447.787636 141.394374 
L 448.193455 141.068599 
L 449.005091 139.221134 
L 449.410909 138.919186 
L 449.816727 138.912669 
L 450.222545 139.437372 
L 451.034182 138.579578 
L 452.251636 141.204583 
L 452.657455 142.524054 
L 454.280727 145.110465 
L 455.092364 146.058256 
L 455.498182 145.802286 
L 456.309818 146.126175 
L 457.121455 147.948845 
L 457.527273 149.516708 
L 458.338909 150.543313 
L 458.744727 150.528786 
L 459.150545 150.674242 
L 460.773818 152.705338 
L 461.179636 154.192127 
L 461.585455 154.374404 
L 461.991273 155.321568 
L 462.397091 155.704554 
L 462.802909 156.35949 
L 463.614545 156.409354 
L 464.832 157.669554 
L 465.237818 158.753757 
L 465.643636 158.851685 
L 466.049455 158.574801 
L 466.861091 158.725771 
L 467.266909 158.45981 
L 468.078545 157.111337 
L 468.484364 157.109098 
L 468.890182 156.674792 
L 469.296 156.606301 
L 469.701818 156.307488 
L 470.107636 156.415084 
L 471.325091 155.216714 
L 471.730909 155.036745 
L 472.136727 154.616011 
L 473.354182 153.897403 
L 473.76 153.761413 
L 474.165818 154.083879 
L 474.571636 153.863053 
L 474.977455 153.91429 
L 475.383273 154.138149 
L 475.789091 153.784319 
L 476.194909 154.201259 
L 477.006545 154.164467 
L 477.412364 153.686352 
L 477.818182 154.263442 
L 478.224 154.360603 
L 478.629818 154.648483 
L 479.035636 154.279978 
L 480.253091 155.058159 
L 481.064727 157.117367 
L 481.470545 157.640146 
L 481.876364 158.662439 
L 482.282182 160.013014 
L 484.311273 163.265389 
L 484.717091 163.343349 
L 485.122909 163.865716 
L 485.528727 164.02917 
L 485.934545 164.57176 
L 486.340364 164.713815 
L 486.340364 164.713815 
" clip-path="url(#pb3314b3d8c)" style="fill: none; stroke: #2f81b9; stroke-width: 0.8; stroke-linecap: square"/>
   </g>
   <g id="line2d_31">
    <path d="M 92.290909 307.8 
L 92.696727 234.620057 
L 93.102545 233.177652 
L 93.508364 238.128186 
L 93.914182 238.403614 
L 94.32 220.302717 
L 94.725818 236.009088 
L 95.131636 238.428728 
L 95.537455 230.181285 
L 95.943273 233.77491 
L 96.349091 231.946202 
L 96.754909 228.480423 
L 97.160727 233.56869 
L 97.566545 194.09567 
L 97.972364 203.864082 
L 98.378182 179.891213 
L 98.784 183.144257 
L 99.189818 176.249101 
L 100.001455 191.299689 
L 100.407273 192.149117 
L 100.813091 205.667486 
L 101.218909 198.115562 
L 101.624727 199.268334 
L 102.030545 180.821666 
L 102.436364 178.933108 
L 102.842182 169.649525 
L 103.248 173.488463 
L 103.653818 162.593227 
L 104.059636 156.272677 
L 104.465455 158.413101 
L 104.871273 177.814882 
L 105.277091 154.755155 
L 105.682909 191.868765 
L 106.088727 195.260564 
L 106.494545 197.595011 
L 106.900364 189.373364 
L 107.306182 186.525223 
L 107.712 175.324444 
L 108.117818 160.00483 
L 108.523636 201.188712 
L 108.929455 163.278102 
L 109.335273 189.046306 
L 109.741091 191.760995 
L 110.146909 162.594704 
L 110.552727 173.608657 
L 110.958545 174.440773 
L 111.364364 165.112113 
L 111.770182 207.962007 
L 112.176 196.315681 
L 112.581818 193.470911 
L 112.987636 199.443341 
L 113.393455 188.412721 
L 113.799273 181.1413 
L 114.610909 191.031384 
L 115.016727 192.091917 
L 115.422545 177.130424 
L 115.828364 198.766837 
L 116.234182 213.252366 
L 116.64 205.654152 
L 117.045818 181.15399 
L 117.451636 201.943325 
L 117.857455 199.283108 
L 118.263273 191.107371 
L 118.669091 219.530187 
L 119.074909 195.499058 
L 119.480727 205.411491 
L 119.886545 204.968027 
L 120.292364 205.638735 
L 120.698182 208.514529 
L 121.104 204.920298 
L 121.509818 189.589206 
L 121.915636 189.535264 
L 122.321455 195.834942 
L 122.727273 200.180453 
L 123.538909 192.820014 
L 123.944727 197.581033 
L 124.350545 196.760433 
L 124.756364 204.270992 
L 125.162182 214.453435 
L 125.973818 192.319654 
L 126.379636 199.740284 
L 126.785455 192.804559 
L 127.191273 183.899552 
L 127.597091 195.866194 
L 128.002909 195.675277 
L 128.408727 191.416626 
L 129.220364 218.374649 
L 129.626182 192.314161 
L 130.032 204.648355 
L 130.437818 207.34365 
L 130.843636 200.088328 
L 131.249455 199.733883 
L 131.655273 193.423598 
L 132.061091 173.276712 
L 132.466909 185.550147 
L 132.872727 187.207711 
L 133.278545 191.637013 
L 133.684364 190.513144 
L 134.090182 191.310523 
L 134.496 183.820003 
L 134.901818 192.722965 
L 135.307636 190.549395 
L 136.119273 175.490359 
L 136.525091 190.530758 
L 136.930909 196.907901 
L 137.336727 193.276888 
L 137.742545 197.372843 
L 138.148364 203.090832 
L 138.554182 185.399459 
L 138.96 196.737288 
L 139.365818 183.933076 
L 139.771636 182.177136 
L 140.177455 201.793812 
L 140.583273 191.598072 
L 140.989091 189.74675 
L 141.394909 199.750323 
L 141.800727 187.94524 
L 142.206545 192.569247 
L 142.612364 206.646123 
L 143.018182 209.893484 
L 143.424 209.132924 
L 143.829818 207.323232 
L 144.235636 219.221349 
L 144.641455 223.260484 
L 145.047273 219.841146 
L 145.453091 215.263126 
L 145.858909 220.765841 
L 146.264727 211.947883 
L 146.670545 214.944326 
L 147.076364 204.977042 
L 147.482182 205.598089 
L 147.888 206.658812 
L 148.293818 206.458009 
L 148.699636 193.396476 
L 149.105455 202.279967 
L 149.511273 205.543466 
L 149.917091 207.408122 
L 150.322909 206.419561 
L 150.728727 212.940459 
L 151.134545 207.046593 
L 151.540364 213.505254 
L 151.946182 204.063484 
L 152.352 214.421123 
L 152.757818 206.461418 
L 153.163636 205.538276 
L 153.569455 212.770112 
L 153.975273 213.93618 
L 154.381091 208.318006 
L 154.786909 208.93356 
L 155.192727 210.668325 
L 155.598545 209.017086 
L 156.004364 216.913115 
L 156.410182 216.637763 
L 156.816 217.341692 
L 157.221818 202.454633 
L 157.627636 203.782336 
L 158.033455 207.972993 
L 158.439273 208.463921 
L 159.250909 205.234855 
L 159.656727 215.444307 
L 160.062545 208.727492 
L 160.874182 217.809172 
L 161.28 216.275666 
L 161.685818 216.299454 
L 162.091636 219.992326 
L 162.497455 214.605335 
L 163.309091 201.459215 
L 163.714909 213.86167 
L 164.120727 212.318655 
L 164.526545 198.988778 
L 164.932364 197.5516 
L 165.338182 185.243013 
L 165.744 193.418219 
L 166.149818 193.532769 
L 166.555636 194.590083 
L 166.961455 185.102894 
L 167.367273 182.096754 
L 167.773091 170.077989 
L 168.178909 174.00068 
L 168.584727 191.732812 
L 168.990545 186.637575 
L 169.396364 195.061465 
L 169.802182 193.03256 
L 170.208 190.318666 
L 170.613818 200.667631 
L 171.019636 192.577012 
L 171.425455 192.519851 
L 171.831273 179.760148 
L 172.237091 190.673112 
L 172.642909 190.578714 
L 173.048727 184.954631 
L 173.454545 191.162828 
L 173.860364 191.946533 
L 174.266182 188.067177 
L 174.672 187.254721 
L 175.483636 201.580773 
L 176.295273 183.35025 
L 176.701091 191.476931 
L 177.106909 183.746023 
L 177.512727 186.068462 
L 177.918545 173.462818 
L 178.324364 188.598637 
L 178.730182 180.236454 
L 179.136 189.369122 
L 179.541818 192.127942 
L 179.947636 188.090814 
L 180.353455 193.684631 
L 180.759273 183.487793 
L 181.165091 184.937433 
L 181.570909 187.162255 
L 181.976727 197.422353 
L 182.382545 194.983432 
L 182.788364 190.379843 
L 183.194182 183.169637 
L 183.6 198.44315 
L 184.411636 213.906368 
L 184.817455 209.414072 
L 185.223273 219.07854 
L 186.034909 188.349536 
L 186.846545 193.347421 
L 187.252364 200.378188 
L 188.064 187.63966 
L 188.469818 200.031167 
L 188.875636 182.286231 
L 189.281455 188.264041 
L 189.687273 180.414378 
L 190.093091 190.956911 
L 190.498909 162.945968 
L 190.904727 179.389072 
L 191.310545 174.321071 
L 191.716364 177.144023 
L 192.122182 178.210958 
L 192.528 186.333586 
L 192.933818 176.557106 
L 193.339636 183.3976 
L 193.745455 181.082623 
L 194.151273 177.642034 
L 194.557091 187.145057 
L 194.962909 189.260178 
L 195.368727 174.767869 
L 195.774545 175.698512 
L 196.180364 184.830194 
L 196.586182 183.816859 
L 196.992 180.859433 
L 197.397818 188.474958 
L 197.803636 182.243199 
L 198.209455 185.825385 
L 199.021091 203.311447 
L 199.426909 189.199797 
L 199.832727 188.673602 
L 200.238545 184.699431 
L 200.644364 196.199464 
L 201.050182 188.09392 
L 201.456 186.733488 
L 202.267636 193.30598 
L 202.673455 194.344619 
L 203.079273 205.435356 
L 203.485091 198.924457 
L 203.890909 196.723121 
L 204.296727 196.152758 
L 204.702545 208.013259 
L 205.108364 193.51239 
L 205.514182 209.499681 
L 206.325818 207.94159 
L 206.731636 208.671732 
L 207.137455 212.601772 
L 207.543273 207.508959 
L 207.949091 206.886018 
L 208.354909 217.574125 
L 208.760727 212.91633 
L 209.166545 205.166784 
L 209.572364 212.311609 
L 209.978182 222.768078 
L 210.384 201.44823 
L 210.789818 206.362134 
L 211.195636 189.119756 
L 211.601455 209.077619 
L 212.007273 203.023595 
L 212.413091 201.179924 
L 212.818909 208.291831 
L 213.224727 195.089042 
L 213.630545 198.051014 
L 214.442182 209.582071 
L 214.848 204.789421 
L 215.253818 215.975199 
L 215.659636 190.396889 
L 216.065455 194.203288 
L 216.471273 177.035571 
L 216.877091 184.528478 
L 217.282909 187.816258 
L 217.688727 182.617229 
L 218.094545 198.12435 
L 218.500364 178.323197 
L 218.906182 193.944376 
L 219.312 180.806855 
L 220.123636 193.186847 
L 220.529455 200.318868 
L 220.935273 193.895018 
L 221.341091 191.476401 
L 221.746909 202.700362 
L 222.152727 203.599261 
L 222.558545 183.68799 
L 222.964364 192.629779 
L 223.370182 198.792482 
L 223.776 197.425649 
L 224.181818 192.172451 
L 224.587636 189.860353 
L 224.993455 198.18564 
L 225.399273 192.366246 
L 226.210909 202.625852 
L 226.616727 197.604784 
L 227.022545 197.74907 
L 227.428364 194.706717 
L 227.834182 187.71614 
L 228.24 190.358441 
L 228.645818 183.940197 
L 229.051636 187.855426 
L 229.457455 185.126228 
L 229.863273 187.92505 
L 230.269091 183.523476 
L 230.674909 189.878119 
L 231.080727 184.674014 
L 231.486545 181.807235 
L 231.892364 182.548514 
L 232.298182 192.551973 
L 232.704 178.649422 
L 233.109818 179.037809 
L 233.515636 182.693482 
L 233.921455 198.688501 
L 234.327273 184.378207 
L 234.733091 208.189251 
L 235.138909 198.153972 
L 235.544727 220.135248 
L 235.950545 202.123635 
L 236.356364 204.587747 
L 237.168 198.132116 
L 237.573818 201.759719 
L 237.979636 217.610566 
L 238.385455 214.388243 
L 238.791273 203.715478 
L 239.197091 208.341833 
L 239.602909 193.94949 
L 240.414545 200.168786 
L 240.820364 195.971311 
L 241.226182 209.497635 
L 241.632 204.380428 
L 242.037818 197.655468 
L 242.443636 213.340172 
L 242.849455 210.870416 
L 243.255273 213.302708 
L 243.661091 217.271954 
L 244.066909 214.848451 
L 244.472727 207.136483 
L 244.878545 208.973562 
L 245.284364 209.219405 
L 245.690182 204.029391 
L 246.096 204.095 
L 246.501818 217.395103 
L 247.313455 205.437553 
L 247.719273 211.607263 
L 248.125091 195.523908 
L 248.530909 210.780792 
L 248.936727 212.238803 
L 249.342545 200.731422 
L 249.748364 204.800141 
L 250.154182 189.418934 
L 250.56 192.300903 
L 250.965818 183.052473 
L 251.371636 185.109372 
L 251.777455 185.07562 
L 252.183273 188.841146 
L 252.589091 178.134023 
L 252.994909 187.652312 
L 253.400727 190.507651 
L 253.806545 182.344718 
L 254.212364 198.654712 
L 254.618182 197.00639 
L 255.024 183.520711 
L 255.429818 181.818372 
L 255.835636 182.985084 
L 256.241455 197.588988 
L 256.647273 181.774544 
L 257.053091 174.867911 
L 257.458909 173.739647 
L 257.864727 173.646803 
L 258.270545 179.979285 
L 258.676364 165.479211 
L 259.082182 163.642737 
L 259.488 174.587711 
L 259.893818 165.85843 
L 260.299636 179.976595 
L 260.705455 162.134345 
L 261.111273 165.191169 
L 261.517091 181.596583 
L 261.922909 180.440401 
L 262.328727 185.874174 
L 262.734545 189.052329 
L 263.140364 186.251386 
L 263.546182 185.992361 
L 263.952 181.310587 
L 264.357818 200.605773 
L 264.763636 200.169885 
L 265.169455 179.352783 
L 265.575273 200.587818 
L 265.981091 182.619805 
L 266.386909 179.848787 
L 266.792727 189.773645 
L 267.198545 189.478482 
L 267.604364 181.509951 
L 268.010182 196.103173 
L 268.416 194.676223 
L 268.821818 209.301075 
L 269.227636 199.062379 
L 269.633455 204.135115 
L 270.039273 211.276796 
L 270.445091 213.136338 
L 270.850909 203.837869 
L 271.256727 199.758884 
L 271.662545 202.466224 
L 272.068364 191.343328 
L 272.474182 190.826527 
L 272.88 200.165566 
L 273.285818 178.710599 
L 273.691636 183.588403 
L 274.097455 189.952061 
L 274.503273 177.031708 
L 274.909091 167.926049 
L 275.314909 174.079926 
L 275.720727 159.860393 
L 276.532364 190.572691 
L 276.938182 184.904629 
L 277.344 176.221108 
L 277.749818 179.333578 
L 278.155636 168.559558 
L 278.561455 180.871517 
L 278.967273 181.213765 
L 279.373091 184.083309 
L 279.778909 182.199485 
L 280.184727 176.119702 
L 280.590545 177.603472 
L 280.996364 174.556043 
L 281.402182 157.265594 
L 281.808 187.536815 
L 282.213818 184.879249 
L 282.619636 175.128148 
L 283.025455 190.379957 
L 283.431273 177.975154 
L 283.837091 181.146755 
L 284.242909 185.36317 
L 284.648727 185.295591 
L 285.054545 172.824649 
L 285.460364 178.648703 
L 285.866182 176.932045 
L 286.272 179.460174 
L 286.677818 179.975535 
L 287.083636 184.178654 
L 287.489455 159.561366 
L 287.895273 171.175077 
L 288.301091 170.402244 
L 288.706909 184.587306 
L 289.112727 181.381688 
L 289.518545 166.342957 
L 289.924364 182.788561 
L 290.330182 180.658213 
L 290.736 176.505551 
L 291.141818 178.928221 
L 291.547636 170.291634 
L 291.953455 189.637617 
L 292.359273 197.956086 
L 292.765091 201.738544 
L 293.170909 195.195183 
L 293.576727 193.473562 
L 293.982545 196.464702 
L 294.388364 193.431402 
L 294.794182 185.315781 
L 295.2 190.98373 
L 295.605818 191.880053 
L 296.011636 200.418114 
L 296.417455 202.444405 
L 296.823273 200.909118 
L 297.229091 196.753047 
L 297.634909 198.73748 
L 298.040727 190.948009 
L 298.446545 180.053947 
L 298.852364 178.965116 
L 299.258182 190.369767 
L 299.664 186.957853 
L 300.069818 170.029123 
L 300.475636 181.011484 
L 300.881455 179.781588 
L 301.287273 182.792804 
L 301.693091 178.180086 
L 302.098909 180.804128 
L 302.504727 171.858172 
L 302.910545 165.688613 
L 303.316364 161.649781 
L 303.722182 170.346219 
L 304.128 172.926358 
L 304.533818 182.177628 
L 304.939636 186.599582 
L 305.345455 184.833073 
L 305.751273 186.032135 
L 306.157091 188.026645 
L 306.562909 188.461018 
L 306.968727 178.319409 
L 307.374545 171.271899 
L 307.780364 178.049323 
L 308.186182 188.88683 
L 308.592 182.768144 
L 308.997818 188.759401 
L 309.403636 168.216742 
L 309.809455 168.29773 
L 310.215273 166.458226 
L 311.026909 174.530663 
L 311.432727 184.082589 
L 311.838545 182.401577 
L 312.244364 184.210056 
L 312.650182 175.682981 
L 313.056 177.780714 
L 313.461818 172.371222 
L 313.867636 175.52233 
L 314.273455 168.138974 
L 314.679273 174.123639 
L 315.085091 175.205197 
L 315.490909 167.150488 
L 315.896727 177.391078 
L 316.302545 180.984551 
L 316.708364 175.987273 
L 317.114182 190.92441 
L 317.52 195.882369 
L 317.925818 184.270172 
L 318.331636 185.767541 
L 318.737455 191.86831 
L 319.143273 184.586359 
L 319.549091 185.169677 
L 319.954909 182.166226 
L 320.360727 186.445712 
L 320.766545 189.379955 
L 321.172364 196.695393 
L 321.578182 183.26161 
L 321.984 192.80043 
L 322.795636 181.234145 
L 323.201455 181.975007 
L 323.607273 185.663712 
L 324.013091 182.798827 
L 324.824727 194.233175 
L 325.230545 180.681055 
L 325.636364 185.133691 
L 326.042182 179.940458 
L 326.448 188.998084 
L 326.853818 189.590229 
L 327.259636 178.07493 
L 327.665455 193.159156 
L 328.071273 198.502812 
L 328.477091 191.89566 
L 328.882909 188.056343 
L 329.288727 186.783149 
L 329.694545 177.345091 
L 330.100364 174.603279 
L 330.506182 170.46861 
L 330.912 169.411675 
L 331.317818 171.885863 
L 331.723636 177.090043 
L 332.535273 164.534742 
L 332.941091 151.214373 
L 333.346909 171.609147 
L 333.752727 165.991238 
L 334.158545 141.926927 
L 334.564364 154.17017 
L 334.970182 154.538821 
L 335.376 151.28608 
L 336.187636 175.908179 
L 336.593455 174.099396 
L 336.999273 148.712192 
L 337.405091 154.091303 
L 337.810909 145.040079 
L 338.216727 160.760428 
L 338.622545 158.66796 
L 339.028364 180.377899 
L 339.434182 155.990999 
L 339.84 176.377288 
L 340.245818 169.356824 
L 340.651636 166.009951 
L 341.057455 168.47054 
L 341.463273 159.712546 
L 341.869091 143.754043 
L 342.274909 147.213421 
L 342.680727 131.948506 
L 343.086545 159.91119 
L 343.492364 175.048789 
L 343.898182 167.278031 
L 344.304 167.139768 
L 344.709818 159.321053 
L 345.115636 155.54958 
L 345.521455 177.627867 
L 345.927273 171.494218 
L 346.333091 179.360624 
L 346.738909 179.842764 
L 347.144727 180.017052 
L 347.550545 188.161461 
L 347.956364 177.887802 
L 348.362182 175.711353 
L 348.768 182.170734 
L 349.173818 174.046402 
L 349.579636 161.410074 
L 349.985455 178.974662 
L 350.391273 180.418658 
L 350.797091 181.379832 
L 351.202909 182.818941 
L 351.608727 177.405965 
L 352.014545 180.65988 
L 352.420364 173.008937 
L 352.826182 184.171078 
L 353.637818 172.899387 
L 354.043636 187.081343 
L 354.449455 180.540746 
L 354.855273 171.596003 
L 355.261091 170.527059 
L 355.666909 162.078775 
L 356.072727 167.561337 
L 356.478545 175.431266 
L 356.884364 161.018165 
L 357.290182 168.968514 
L 357.696 167.400043 
L 358.101818 152.9516 
L 358.507636 165.604329 
L 358.913455 167.41296 
L 359.319273 166.733313 
L 359.725091 177.576085 
L 360.130909 180.373505 
L 360.536727 181.067888 
L 360.942545 177.211601 
L 361.348364 176.66317 
L 361.754182 170.343264 
L 362.16 181.97334 
L 362.565818 177.056709 
L 362.971636 158.713492 
L 363.377455 148.442939 
L 363.783273 166.068362 
L 364.189091 170.820972 
L 364.594909 172.535547 
L 365.000727 163.739559 
L 365.406545 164.819526 
L 365.812364 164.060519 
L 366.218182 174.668358 
L 366.624 154.145851 
L 367.029818 163.840548 
L 367.435636 187.155323 
L 367.841455 181.466048 
L 368.247273 191.55504 
L 368.653091 191.023542 
L 369.058909 189.950584 
L 369.464727 188.506853 
L 369.870545 186.030847 
L 370.276364 181.291836 
L 370.682182 177.957236 
L 371.088 176.314786 
L 371.493818 168.51092 
L 371.899636 169.596493 
L 372.305455 167.154541 
L 372.711273 167.279584 
L 373.117091 162.308026 
L 373.522909 166.638309 
L 373.928727 166.521486 
L 374.334545 154.465257 
L 374.740364 163.562015 
L 375.146182 175.57506 
L 375.552 182.686588 
L 375.957818 184.485143 
L 376.363636 189.894483 
L 376.769455 184.498704 
L 377.175273 193.812969 
L 377.581091 186.127215 
L 377.986909 193.776907 
L 378.392727 194.96256 
L 378.798545 191.663416 
L 379.204364 202.88321 
L 379.610182 204.88291 
L 380.016 182.330021 
L 380.421818 196.085407 
L 380.827636 188.629661 
L 381.233455 171.758812 
L 381.639273 186.811559 
L 382.045091 192.898009 
L 382.450909 186.216953 
L 382.856727 186.76258 
L 384.074182 168.339057 
L 384.48 186.20127 
L 384.885818 193.33886 
L 385.291636 196.178365 
L 385.697455 183.845951 
L 386.103273 183.89887 
L 386.509091 181.578287 
L 386.914909 167.621226 
L 387.320727 170.043556 
L 387.726545 183.199714 
L 388.132364 183.946599 
L 388.538182 165.265073 
L 388.944 164.87021 
L 389.349818 173.076477 
L 389.755636 165.528569 
L 390.161455 167.813772 
L 390.567273 172.106098 
L 390.973091 187.625606 
L 391.378909 192.667887 
L 391.784727 182.214903 
L 392.190545 187.090207 
L 392.596364 182.172742 
L 393.002182 200.061092 
L 393.408 194.63232 
L 393.813818 184.1932 
L 394.219636 197.493151 
L 394.625455 203.097347 
L 395.031273 195.04423 
L 395.437091 209.203268 
L 395.842909 211.884547 
L 396.248727 212.372521 
L 396.654545 208.700786 
L 397.060364 197.287007 
L 397.466182 195.708384 
L 397.872 202.149659 
L 398.277818 201.728203 
L 398.683636 190.88134 
L 399.089455 191.659514 
L 399.495273 200.187499 
L 399.901091 197.477355 
L 400.306909 189.02157 
L 400.712727 188.593106 
L 401.118545 189.43992 
L 401.524364 187.077024 
L 401.930182 190.360335 
L 402.336 189.384728 
L 402.741818 186.35067 
L 403.147636 190.708265 
L 403.553455 196.369282 
L 403.959273 178.718933 
L 404.365091 187.989977 
L 404.770909 188.321808 
L 405.176727 193.350944 
L 405.582545 188.242146 
L 405.988364 207.879201 
L 406.394182 201.39372 
L 407.205818 207.438767 
L 407.611636 197.539138 
L 408.017455 201.950257 
L 408.423273 205.024885 
L 408.829091 191.895698 
L 409.234909 186.529958 
L 409.640727 195.20685 
L 410.046545 193.858539 
L 410.452364 194.201735 
L 410.858182 192.3803 
L 411.264 180.301116 
L 411.669818 199.084463 
L 412.075636 197.300151 
L 412.481455 201.357128 
L 412.887273 180.748936 
L 413.293091 184.549918 
L 413.698909 174.418765 
L 414.104727 189.485641 
L 414.916364 174.938671 
L 415.322182 184.826406 
L 415.728 177.578509 
L 416.133818 185.05668 
L 416.539636 180.091107 
L 416.945455 184.255399 
L 417.351273 179.335396 
L 417.757091 176.860716 
L 418.162909 165.389851 
L 418.568727 157.419767 
L 418.974545 161.74164 
L 419.380364 168.22678 
L 419.786182 151.676626 
L 420.192 168.499973 
L 420.597818 169.13727 
L 421.003636 174.488048 
L 421.409455 167.001581 
L 421.815273 182.168878 
L 422.221091 160.293099 
L 422.626909 187.434652 
L 423.032727 160.508145 
L 423.438545 172.48706 
L 423.844364 162.081351 
L 424.250182 171.704984 
L 424.656 160.044907 
L 425.061818 159.270294 
L 425.467636 172.83321 
L 425.873455 172.401375 
L 426.279273 170.720135 
L 426.685091 163.409774 
L 427.090909 164.357879 
L 427.496727 180.435818 
L 428.714182 156.505943 
L 429.12 167.168936 
L 429.931636 149.734088 
L 430.337455 147.816816 
L 430.743273 130.336625 
L 431.149091 148.033453 
L 431.554909 156.619433 
L 431.960727 158.493862 
L 432.366545 168.478646 
L 432.772364 133.813011 
L 433.178182 140.411602 
L 433.584 115.58567 
L 433.989818 136.531754 
L 434.395636 136.428719 
L 434.801455 103.973966 
L 435.207273 55.8 
L 436.018909 105.761725 
L 436.424727 75.79294 
L 436.830545 127.678226 
L 437.236364 124.021227 
L 437.642182 119.040578 
L 438.048 134.259278 
L 438.453818 141.350578 
L 438.859636 124.033955 
L 439.265455 139.009426 
L 439.671273 162.120935 
L 440.077091 141.582898 
L 440.482909 144.335468 
L 440.888727 126.991684 
L 441.294545 118.441122 
L 441.700364 136.02537 
L 442.106182 136.364058 
L 442.512 137.582022 
L 442.917818 152.079066 
L 443.323636 131.462162 
L 443.729455 140.55335 
L 444.541091 151.73553 
L 444.946909 138.010864 
L 445.352727 137.951241 
L 445.758545 131.706868 
L 446.164364 160.610839 
L 446.570182 171.862187 
L 446.976 126.871755 
L 447.381818 145.330317 
L 447.787636 139.565584 
L 448.193455 126.557235 
L 448.599273 137.360384 
L 449.005091 127.5325 
L 449.410909 150.663783 
L 449.816727 156.13036 
L 450.222545 157.752734 
L 450.628364 157.193129 
L 451.034182 163.147718 
L 451.44 171.845558 
L 451.845818 161.089228 
L 452.251636 137.220114 
L 452.657455 130.522693 
L 453.063273 108.839421 
L 453.469091 125.22116 
L 453.874909 156.352831 
L 455.092364 139.668543 
L 455.498182 128.849673 
L 455.904 122.579428 
L 456.309818 130.354505 
L 456.715636 109.691614 
L 457.121455 137.083821 
L 457.527273 125.394462 
L 457.933091 136.729375 
L 458.338909 132.666792 
L 458.744727 142.791733 
L 459.150545 148.285849 
L 459.556364 147.012087 
L 460.368 112.892042 
L 460.773818 111.929656 
L 461.991273 152.694999 
L 462.397091 144.575969 
L 463.208727 162.803689 
L 463.614545 176.887876 
L 464.020364 177.076293 
L 464.426182 179.336078 
L 464.832 164.123703 
L 465.237818 162.816493 
L 466.049455 177.133568 
L 466.455273 179.114289 
L 466.861091 173.743208 
L 467.266909 152.908947 
L 467.672727 180.624272 
L 468.078545 165.266058 
L 468.484364 173.37755 
L 468.890182 167.272046 
L 469.296 171.553956 
L 469.701818 149.715602 
L 470.107636 172.922608 
L 470.513455 150.44063 
L 470.919273 150.85148 
L 471.325091 160.898577 
L 471.730909 145.262549 
L 472.136727 146.923902 
L 472.542545 149.610977 
L 472.948364 169.16318 
L 473.354182 144.374863 
L 473.76 163.281057 
L 474.165818 152.048799 
L 474.571636 158.864217 
L 474.977455 143.226712 
L 475.383273 149.845456 
L 475.789091 162.231016 
L 476.194909 139.769304 
L 476.600727 135.834113 
L 477.006545 155.297752 
L 477.412364 129.850053 
L 477.818182 126.615192 
L 478.224 154.226006 
L 479.441455 139.197161 
L 479.847273 146.555479 
L 480.253091 176.986744 
L 480.658909 161.963808 
L 481.064727 161.384088 
L 481.470545 150.863942 
L 481.876364 175.373537 
L 482.282182 159.866529 
L 482.688 160.401399 
L 483.093818 161.788347 
L 483.499636 145.71018 
L 483.905455 163.794902 
L 484.311273 155.361202 
L 484.717091 161.771225 
L 485.122909 160.038922 
L 485.528727 166.114349 
L 485.934545 162.61425 
L 486.340364 164.089573 
L 486.746182 152.490105 
L 487.152 159.805845 
L 487.557818 146.745372 
L 487.963636 161.940133 
L 488.369455 147.381988 
L 488.775273 147.681242 
L 489.181091 150.038569 
L 489.586909 167.458455 
L 489.992727 167.167496 
L 490.398545 163.564022 
L 490.804364 144.123982 
L 491.210182 152.473892 
L 491.616 156.489617 
L 492.021818 177.466952 
L 492.427636 179.637188 
L 492.833455 178.334524 
L 493.239273 176.20891 
L 493.645091 170.741765 
L 494.050909 180.638212 
L 494.456727 180.870115 
L 494.862545 176.858292 
L 495.674182 164.23367 
L 496.08 169.412205 
L 496.485818 180.105123 
L 496.891636 182.858488 
L 497.297455 167.922261 
L 497.703273 172.567556 
L 498.109091 181.055728 
L 498.109091 181.055728 
" clip-path="url(#pb3314b3d8c)" style="fill: none; stroke: #2f81b9; stroke-opacity: 0.5; stroke-width: 1.5; stroke-linecap: square"/>
   </g>
   <g id="patch_3">
    <path d="M 72 320.4 
L 72 43.2 
" style="fill: none; stroke: #000000; stroke-width: 0.8; stroke-linejoin: miter; stroke-linecap: square"/>
   </g>
   <g id="patch_4">
    <path d="M 72 320.4 
L 518.4 320.4 
" style="fill: none; stroke: #000000; stroke-width: 0.8; stroke-linejoin: miter; stroke-linecap: square"/>
   </g>
   <g id="text_21">
    <!-- RMSD -->
    <g transform="translate(268.5375 37.2) scale(0.18 -0.18)">
     <use xlink:href="#DejaVuSans-52"/>
     <use xlink:href="#DejaVuSans-4d" x="69.482422"/>
     <use xlink:href="#DejaVuSans-53" x="155.761719"/>
     <use xlink:href="#DejaVuSans-44" x="219.238281"/>
    </g>
   </g>
   <g id="legend_1">
    <g id="patch_5">
     <path d="M 391.465625 315.4 
L 511.4 315.4 
Q 513.4 315.4 513.4 313.4 
L 513.4 299.721875 
Q 513.4 297.721875 511.4 297.721875 
L 391.465625 297.721875 
Q 389.465625 297.721875 389.465625 299.721875 
L 389.465625 313.4 
Q 389.465625 315.4 391.465625 315.4 
z
" style="fill: #ffffff; opacity: 0.8; stroke: #cccccc; stroke-linejoin: miter"/>
    </g>
    <g id="line2d_32">
     <path d="M 393.465625 305.820312 
L 403.465625 305.820312 
L 413.465625 305.820312 
" style="fill: none; stroke: #2f81b9; stroke-width: 0.8; stroke-linecap: square"/>
    </g>
    <g id="text_22">
     <!-- PAC5-hnRNPA2B1 -->
     <g transform="translate(421.465625 309.320312) scale(0.1 -0.1)">
      <defs>
       <path id="DejaVuSans-50" d="M 1259 4147 
L 1259 2394 
L 2053 2394 
Q 2494 2394 2734 2622 
Q 2975 2850 2975 3272 
Q 2975 3691 2734 3919 
Q 2494 4147 2053 4147 
L 1259 4147 
z
M 628 4666 
L 2053 4666 
Q 2838 4666 3239 4311 
Q 3641 3956 3641 3272 
Q 3641 2581 3239 2228 
Q 2838 1875 2053 1875 
L 1259 1875 
L 1259 0 
L 628 0 
L 628 4666 
z
" transform="scale(0.015625)"/>
       <path id="DejaVuSans-41" d="M 2188 4044 
L 1331 1722 
L 3047 1722 
L 2188 4044 
z
M 1831 4666 
L 2547 4666 
L 4325 0 
L 3669 0 
L 3244 1197 
L 1141 1197 
L 716 0 
L 50 0 
L 1831 4666 
z
" transform="scale(0.015625)"/>
       <path id="DejaVuSans-43" d="M 4122 4306 
L 4122 3641 
Q 3803 3938 3442 4084 
Q 3081 4231 2675 4231 
Q 1875 4231 1450 3742 
Q 1025 3253 1025 2328 
Q 1025 1406 1450 917 
Q 1875 428 2675 428 
Q 3081 428 3442 575 
Q 3803 722 4122 1019 
L 4122 359 
Q 3791 134 3420 21 
Q 3050 -91 2638 -91 
Q 1578 -91 968 557 
Q 359 1206 359 2328 
Q 359 3453 968 4101 
Q 1578 4750 2638 4750 
Q 3056 4750 3426 4639 
Q 3797 4528 4122 4306 
z
" transform="scale(0.015625)"/>
       <path id="DejaVuSans-2d" d="M 313 2009 
L 1997 2009 
L 1997 1497 
L 313 1497 
L 313 2009 
z
" transform="scale(0.015625)"/>
       <path id="DejaVuSans-68" d="M 3513 2113 
L 3513 0 
L 2938 0 
L 2938 2094 
Q 2938 2591 2744 2837 
Q 2550 3084 2163 3084 
Q 1697 3084 1428 2787 
Q 1159 2491 1159 1978 
L 1159 0 
L 581 0 
L 581 4863 
L 1159 4863 
L 1159 2956 
Q 1366 3272 1645 3428 
Q 1925 3584 2291 3584 
Q 2894 3584 3203 3211 
Q 3513 2838 3513 2113 
z
" transform="scale(0.015625)"/>
       <path id="DejaVuSans-4e" d="M 628 4666 
L 1478 4666 
L 3547 763 
L 3547 4666 
L 4159 4666 
L 4159 0 
L 3309 0 
L 1241 3903 
L 1241 0 
L 628 0 
L 628 4666 
z
" transform="scale(0.015625)"/>
       <path id="DejaVuSans-42" d="M 1259 2228 
L 1259 519 
L 2272 519 
Q 2781 519 3026 730 
Q 3272 941 3272 1375 
Q 3272 1813 3026 2020 
Q 2781 2228 2272 2228 
L 1259 2228 
z
M 1259 4147 
L 1259 2741 
L 2194 2741 
Q 2656 2741 2882 2914 
Q 3109 3088 3109 3444 
Q 3109 3797 2882 3972 
Q 2656 4147 2194 4147 
L 1259 4147 
z
M 628 4666 
L 2241 4666 
Q 2963 4666 3353 4366 
Q 3744 4066 3744 3513 
Q 3744 3084 3544 2831 
Q 3344 2578 2956 2516 
Q 3422 2416 3680 2098 
Q 3938 1781 3938 1306 
Q 3938 681 3513 340 
Q 3088 0 2303 0 
L 628 0 
L 628 4666 
z
" transform="scale(0.015625)"/>
      </defs>
      <use xlink:href="#DejaVuSans-50"/>
      <use xlink:href="#DejaVuSans-41" x="53.927734"/>
      <use xlink:href="#DejaVuSans-43" x="120.585938"/>
      <use xlink:href="#DejaVuSans-35" x="190.410156"/>
      <use xlink:href="#DejaVuSans-2d" x="254.033203"/>
      <use xlink:href="#DejaVuSans-68" x="290.117188"/>
      <use xlink:href="#DejaVuSans-6e" x="353.496094"/>
      <use xlink:href="#DejaVuSans-52" x="416.875"/>
      <use xlink:href="#DejaVuSans-4e" x="486.357422"/>
      <use xlink:href="#DejaVuSans-50" x="561.162109"/>
      <use xlink:href="#DejaVuSans-41" x="615.089844"/>
      <use xlink:href="#DejaVuSans-32" x="683.498047"/>
      <use xlink:href="#DejaVuSans-42" x="747.121094"/>
      <use xlink:href="#DejaVuSans-31" x="815.724609"/>
     </g>
    </g>
   </g>
  </g>
 </g>
 <defs>
  <clipPath id="pb3314b3d8c">
   <rect x="72" y="43.2" width="446.4" height="277.2"/>
  </clipPath>
 </defs>
</svg>
