<?xml version="1.0" encoding="utf-8" standalone="no"?>
<!DOCTYPE svg PUBLIC "-//W3C//DTD SVG 1.1//EN"
  "http://www.w3.org/Graphics/SVG/1.1/DTD/svg11.dtd">
<svg xmlns:xlink="http://www.w3.org/1999/xlink" width="432pt" height="432pt" viewBox="0 0 432 432" xmlns="http://www.w3.org/2000/svg" version="1.1">
 <metadata>
  <rdf:RDF xmlns:dc="http://purl.org/dc/elements/1.1/" xmlns:cc="http://creativecommons.org/ns#" xmlns:rdf="http://www.w3.org/1999/02/22-rdf-syntax-ns#">
   <cc:Work>
    <dc:type rdf:resource="http://purl.org/dc/dcmitype/StillImage"/>
    <dc:date>2025-01-16T18:07:19.571552</dc:date>
    <dc:format>image/svg+xml</dc:format>
    <dc:creator>
     <cc:Agent>
      <dc:title>Matplotlib v3.9.2, https://matplotlib.org/</dc:title>
     </cc:Agent>
    </dc:creator>
   </cc:Work>
  </rdf:RDF>
 </metadata>
 <defs>
  <style type="text/css">*{stroke-linejoin: round; stroke-linecap: butt}</style>
 </defs>
 <g id="figure_1">
  <g id="patch_1">
   <path d="M 0 432 
L 432 432 
L 432 0 
L 0 0 
z
" style="fill: #ffffff"/>
  </g>
  <g id="axes_1">
   <g id="patch_2">
    <path d="M 54 384.48 
L 388.8 384.48 
L 388.8 51.84 
L 54 51.84 
z
" style="fill: #ffffff"/>
   </g>
   <g id="PolyCollection_1">
    <defs>
     <path id="meab3e2c0b0" d="M 112.841695 -62.641409 
L 112.555708 -62.641409 
L 112.569238 -65.69594 
L 112.602621 -68.750472 
L 112.640252 -71.805003 
L 112.669555 -74.859534 
L 112.686788 -77.914065 
L 112.69471 -80.968596 
L 112.697605 -84.023128 
L 112.698454 -87.077659 
L 112.698656 -90.13219 
L 112.698694 -93.186721 
L 112.6987 -96.241253 
L 112.698701 -99.295784 
L 112.698701 -102.350315 
L 112.698701 -105.404846 
L 112.698701 -108.459377 
L 112.6987 -111.513909 
L 112.698689 -114.56844 
L 112.698613 -117.622971 
L 112.698182 -120.677502 
L 112.696174 -123.732034 
L 112.688511 -126.786565 
L 112.664562 -129.841096 
L 112.603294 -132.895627 
L 112.475174 -135.950158 
L 112.257069 -139.00469 
L 111.957636 -142.059221 
L 111.632792 -145.113752 
L 111.365141 -148.168283 
L 111.204037 -151.222815 
L 111.100039 -154.277346 
L 110.884714 -157.331877 
L 110.32393 -160.386408 
L 109.220904 -163.440939 
L 107.50199 -166.495471 
L 105.226328 -169.550002 
L 102.525778 -172.604533 
L 99.543876 -175.659064 
L 96.424869 -178.713596 
L 93.317277 -181.768127 
L 90.321667 -184.822658 
L 87.40377 -187.877189 
L 84.394311 -190.93172 
L 81.139464 -193.986252 
L 77.694449 -197.040783 
L 74.377915 -200.095314 
L 71.631677 -203.149845 
L 69.830617 -206.204377 
L 69.218182 -209.258908 
L 69.944004 -212.313439 
L 72.030836 -215.36797 
L 75.242076 -218.422501 
L 79.043124 -221.477033 
L 82.795243 -224.531564 
L 86.060672 -227.586095 
L 88.776789 -230.640626 
L 91.179054 -233.695158 
L 93.548428 -236.749689 
L 95.974411 -239.80422 
L 98.305563 -242.858751 
L 100.307032 -245.913282 
L 101.864851 -248.967814 
L 103.049762 -252.022345 
L 104.015786 -255.076876 
L 104.871215 -258.131407 
L 105.646069 -261.185938 
L 106.341404 -264.24047 
L 106.967017 -267.295001 
L 107.534005 -270.349532 
L 108.051951 -273.404063 
L 108.554369 -276.458595 
L 109.099566 -279.513126 
L 109.715549 -282.567657 
L 110.350892 -285.622188 
L 110.901856 -288.676719 
L 111.291889 -291.731251 
L 111.522187 -294.785782 
L 111.656617 -297.840313 
L 111.771506 -300.894844 
L 111.914739 -303.949376 
L 112.092812 -307.003907 
L 112.281317 -310.058438 
L 112.446498 -313.112969 
L 112.564763 -316.1675 
L 112.630086 -319.222032 
L 112.648521 -322.276563 
L 112.629196 -325.331094 
L 112.581716 -328.385625 
L 112.520211 -331.440157 
L 112.465587 -334.494688 
L 112.439488 -337.549219 
L 112.453044 -340.60375 
L 112.499912 -343.658281 
L 112.559702 -346.712813 
L 112.609026 -349.767344 
L 112.631992 -352.821875 
L 112.625116 -355.876406 
L 112.597557 -358.930938 
L 112.567836 -361.985469 
L 112.555387 -365.04 
L 112.842015 -365.04 
L 112.842015 -365.04 
L 112.829566 -361.985469 
L 112.799846 -358.930938 
L 112.772286 -355.876406 
L 112.76541 -352.821875 
L 112.788377 -349.767344 
L 112.8377 -346.712813 
L 112.897491 -343.658281 
L 112.944359 -340.60375 
L 112.957915 -337.549219 
L 112.931815 -334.494688 
L 112.877192 -331.440157 
L 112.815687 -328.385625 
L 112.768207 -325.331094 
L 112.748881 -322.276563 
L 112.767316 -319.222032 
L 112.832639 -316.1675 
L 112.950904 -313.112969 
L 113.116085 -310.058438 
L 113.30459 -307.003907 
L 113.482664 -303.949376 
L 113.625897 -300.894844 
L 113.740786 -297.840313 
L 113.875216 -294.785782 
L 114.105514 -291.731251 
L 114.495547 -288.676719 
L 115.04651 -285.622188 
L 115.681854 -282.567657 
L 116.297837 -279.513126 
L 116.843034 -276.458595 
L 117.345451 -273.404063 
L 117.863398 -270.349532 
L 118.430386 -267.295001 
L 119.055998 -264.24047 
L 119.751334 -261.185938 
L 120.526188 -258.131407 
L 121.381616 -255.076876 
L 122.34764 -252.022345 
L 123.532552 -248.967814 
L 125.09037 -245.913282 
L 127.09184 -242.858751 
L 129.422992 -239.80422 
L 131.848975 -236.749689 
L 134.218349 -233.695158 
L 136.620613 -230.640626 
L 139.33673 -227.586095 
L 142.60216 -224.531564 
L 146.354279 -221.477033 
L 150.155327 -218.422501 
L 153.366566 -215.36797 
L 155.453399 -212.313439 
L 156.179221 -209.258908 
L 155.566785 -206.204377 
L 153.765725 -203.149845 
L 151.019488 -200.095314 
L 147.702953 -197.040783 
L 144.257938 -193.986252 
L 141.003091 -190.93172 
L 137.993632 -187.877189 
L 135.075735 -184.822658 
L 132.080126 -181.768127 
L 128.972534 -178.713596 
L 125.853527 -175.659064 
L 122.871625 -172.604533 
L 120.171075 -169.550002 
L 117.895413 -166.495471 
L 116.176499 -163.440939 
L 115.073473 -160.386408 
L 114.512688 -157.331877 
L 114.297364 -154.277346 
L 114.193366 -151.222815 
L 114.032261 -148.168283 
L 113.764611 -145.113752 
L 113.439767 -142.059221 
L 113.140333 -139.00469 
L 112.922229 -135.950158 
L 112.794109 -132.895627 
L 112.73284 -129.841096 
L 112.708892 -126.786565 
L 112.701229 -123.732034 
L 112.699221 -120.677502 
L 112.698789 -117.622971 
L 112.698714 -114.56844 
L 112.698703 -111.513909 
L 112.698701 -108.459377 
L 112.698701 -105.404846 
L 112.698701 -102.350315 
L 112.698701 -99.295784 
L 112.698702 -96.241253 
L 112.698708 -93.186721 
L 112.698747 -90.13219 
L 112.698948 -87.077659 
L 112.699798 -84.023128 
L 112.702693 -80.968596 
L 112.710615 -77.914065 
L 112.727847 -74.859534 
L 112.75715 -71.805003 
L 112.794781 -68.750472 
L 112.828164 -65.69594 
L 112.841695 -62.641409 
z
"/>
    </defs>
    <g clip-path="url(#p5097824589)">
     <use xlink:href="#meab3e2c0b0" x="0" y="432" style="fill: #407ea8; fill-opacity: 0.7"/>
    </g>
   </g>
   <g id="PolyCollection_2">
    <defs>
     <path id="m53a9cd2b6a" d="M 221.552163 -62.64 
L 221.247837 -62.64 
L 221.259674 -64.712728 
L 221.289941 -66.785456 
L 221.326587 -68.858184 
L 221.358353 -70.930912 
L 221.379907 -73.00364 
L 221.391755 -75.076367 
L 221.397123 -77.149095 
L 221.399146 -79.221823 
L 221.399784 -81.294551 
L 221.399954 -83.367279 
L 221.399992 -85.440007 
L 221.399999 -87.512735 
L 221.4 -89.585463 
L 221.4 -91.658191 
L 221.4 -93.730919 
L 221.4 -95.803647 
L 221.4 -97.876375 
L 221.4 -99.949102 
L 221.4 -102.02183 
L 221.4 -104.094558 
L 221.4 -106.167286 
L 221.4 -108.240014 
L 221.4 -110.312742 
L 221.399998 -112.38547 
L 221.399987 -114.458198 
L 221.399928 -116.530926 
L 221.399658 -118.603654 
L 221.398609 -120.676382 
L 221.395139 -122.749109 
L 221.385357 -124.821837 
L 221.361849 -126.894565 
L 221.313717 -128.967293 
L 221.229881 -131.040021 
L 221.106175 -133.112749 
L 220.952977 -135.185477 
L 220.796807 -137.258205 
L 220.670773 -139.330933 
L 220.595777 -141.403661 
L 220.562112 -143.476389 
L 220.522734 -145.549116 
L 220.403628 -147.621844 
L 220.128891 -149.694572 
L 219.653744 -151.7673 
L 218.994224 -153.840028 
L 218.234098 -155.912756 
L 217.490597 -157.985484 
L 216.849741 -160.058212 
L 216.321291 -162.13094 
L 215.857049 -164.203668 
L 215.409395 -166.276396 
L 214.954773 -168.349124 
L 214.445132 -170.421851 
L 213.739631 -172.494579 
L 212.599647 -174.567307 
L 210.769757 -176.640035 
L 208.093813 -178.712763 
L 204.60135 -180.785491 
L 200.528882 -182.858219 
L 196.26293 -184.930947 
L 192.211005 -187.003675 
L 188.653372 -189.076403 
L 185.667971 -191.149131 
L 183.18173 -193.221858 
L 181.101775 -195.294586 
L 179.429046 -197.367314 
L 178.29586 -199.440042 
L 177.919481 -201.51277 
L 178.480066 -203.585498 
L 179.971582 -205.658226 
L 182.142017 -207.730954 
L 184.61197 -209.803682 
L 187.097372 -211.87641 
L 189.539576 -213.949138 
L 192.035646 -216.021866 
L 194.666837 -218.094593 
L 197.398941 -220.167321 
L 200.10988 -222.240049 
L 202.663383 -224.312777 
L 204.945268 -226.385505 
L 206.863211 -228.458233 
L 208.353904 -230.530961 
L 209.412933 -232.603689 
L 210.121875 -234.676417 
L 210.640715 -236.749145 
L 211.15808 -238.821873 
L 211.822655 -240.8946 
L 212.695295 -242.967328 
L 213.749771 -245.040056 
L 214.913604 -247.112784 
L 216.109867 -249.185512 
L 217.270223 -251.25824 
L 218.328283 -253.330968 
L 219.221813 -255.403696 
L 219.911784 -257.476424 
L 220.398648 -259.549152 
L 220.717715 -261.62188 
L 220.918718 -263.694607 
L 221.047298 -265.767335 
L 221.137036 -267.840063 
L 221.662964 -267.840063 
L 221.662964 -267.840063 
L 221.752702 -265.767335 
L 221.881282 -263.694607 
L 222.082285 -261.62188 
L 222.401352 -259.549152 
L 222.888216 -257.476424 
L 223.578187 -255.403696 
L 224.471717 -253.330968 
L 225.529777 -251.25824 
L 226.690133 -249.185512 
L 227.886396 -247.112784 
L 229.050229 -245.040056 
L 230.104705 -242.967328 
L 230.977345 -240.8946 
L 231.64192 -238.821873 
L 232.159285 -236.749145 
L 232.678125 -234.676417 
L 233.387067 -232.603689 
L 234.446096 -230.530961 
L 235.936789 -228.458233 
L 237.854732 -226.385505 
L 240.136617 -224.312777 
L 242.69012 -222.240049 
L 245.401059 -220.167321 
L 248.133163 -218.094593 
L 250.764354 -216.021866 
L 253.260424 -213.949138 
L 255.702628 -211.87641 
L 258.18803 -209.803682 
L 260.657983 -207.730954 
L 262.828418 -205.658226 
L 264.319934 -203.585498 
L 264.880519 -201.51277 
L 264.50414 -199.440042 
L 263.370954 -197.367314 
L 261.698225 -195.294586 
L 259.61827 -193.221858 
L 257.132029 -191.149131 
L 254.146628 -189.076403 
L 250.588995 -187.003675 
L 246.53707 -184.930947 
L 242.271118 -182.858219 
L 238.19865 -180.785491 
L 234.706187 -178.712763 
L 232.030243 -176.640035 
L 230.200353 -174.567307 
L 229.060369 -172.494579 
L 228.354868 -170.421851 
L 227.845227 -168.349124 
L 227.390605 -166.276396 
L 226.942951 -164.203668 
L 226.478709 -162.13094 
L 225.950259 -160.058212 
L 225.309403 -157.985484 
L 224.565902 -155.912756 
L 223.805776 -153.840028 
L 223.146256 -151.7673 
L 222.671109 -149.694572 
L 222.396372 -147.621844 
L 222.277266 -145.549116 
L 222.237888 -143.476389 
L 222.204223 -141.403661 
L 222.129227 -139.330933 
L 222.003193 -137.258205 
L 221.847023 -135.185477 
L 221.693825 -133.112749 
L 221.570119 -131.040021 
L 221.486283 -128.967293 
L 221.438151 -126.894565 
L 221.414643 -124.821837 
L 221.404861 -122.749109 
L 221.401391 -120.676382 
L 221.400342 -118.603654 
L 221.400072 -116.530926 
L 221.400013 -114.458198 
L 221.400002 -112.38547 
L 221.4 -110.312742 
L 221.4 -108.240014 
L 221.4 -106.167286 
L 221.4 -104.094558 
L 221.4 -102.02183 
L 221.4 -99.949102 
L 221.4 -97.876375 
L 221.4 -95.803647 
L 221.4 -93.730919 
L 221.4 -91.658191 
L 221.4 -89.585463 
L 221.400001 -87.512735 
L 221.400008 -85.440007 
L 221.400046 -83.367279 
L 221.400216 -81.294551 
L 221.400854 -79.221823 
L 221.402877 -77.149095 
L 221.408245 -75.076367 
L 221.420093 -73.00364 
L 221.441647 -70.930912 
L 221.473413 -68.858184 
L 221.510059 -66.785456 
L 221.540326 -64.712728 
L 221.552163 -62.64 
z
"/>
    </defs>
    <g clip-path="url(#p5097824589)">
     <use xlink:href="#m53a9cd2b6a" x="0" y="432" style="fill: #e6944c; fill-opacity: 0.7"/>
    </g>
   </g>
   <g id="PolyCollection_3">
    <defs>
     <path id="m569ed7b540" d="M 330.237916 -62.640727 
L 329.964682 -62.640727 
L 329.971942 -64.805695 
L 329.99149 -66.970662 
L 330.017729 -69.13563 
L 330.044278 -71.300597 
L 330.066418 -73.465565 
L 330.082165 -75.630533 
L 330.091874 -77.7955 
L 330.09708 -79.960468 
L 330.09941 -82.125435 
L 330.099953 -84.290403 
L 330.099014 -86.45537 
L 330.096075 -88.620338 
L 330.089865 -90.785305 
L 330.078659 -92.950273 
L 330.060983 -95.11524 
L 330.036622 -97.280208 
L 330.007367 -99.445176 
L 329.976561 -101.610143 
L 329.946946 -103.775111 
L 329.917589 -105.940078 
L 329.882002 -108.105046 
L 329.829605 -110.270013 
L 329.75089 -112.434981 
L 329.643783 -114.599948 
L 329.517081 -116.764916 
L 329.387935 -118.929883 
L 329.273726 -121.094851 
L 329.182128 -123.259818 
L 329.104084 -125.424786 
L 329.012406 -127.589754 
L 328.865742 -129.754721 
L 328.615973 -131.919689 
L 328.217697 -134.084656 
L 327.639689 -136.249624 
L 326.878038 -138.414591 
L 325.968193 -140.579559 
L 324.989837 -142.744526 
L 324.057829 -144.909494 
L 323.296939 -147.074461 
L 322.807082 -149.239429 
L 322.633537 -151.404397 
L 322.756676 -153.569364 
L 323.105916 -155.734332 
L 323.589007 -157.899299 
L 324.119947 -160.064267 
L 324.632258 -162.229234 
L 325.075566 -164.394202 
L 325.403814 -166.559169 
L 325.566192 -168.724137 
L 325.506544 -170.889104 
L 325.1691 -173.054072 
L 324.504329 -175.21904 
L 323.471768 -177.384007 
L 322.042793 -179.548975 
L 320.207885 -181.713942 
L 317.986361 -183.87891 
L 315.428517 -186.043877 
L 312.602126 -188.208845 
L 309.569744 -190.373812 
L 306.376738 -192.53878 
L 303.065888 -194.703747 
L 299.711908 -196.868715 
L 296.447648 -199.033682 
L 293.454369 -201.19865 
L 290.914034 -203.363618 
L 288.951873 -205.528585 
L 287.606934 -207.693553 
L 286.848163 -209.85852 
L 286.620779 -212.023488 
L 286.88951 -214.188455 
L 287.653701 -216.353423 
L 288.932745 -218.51839 
L 290.737648 -220.683358 
L 293.046239 -222.848325 
L 295.790864 -225.013293 
L 298.858626 -227.178261 
L 302.101006 -229.343228 
L 305.351001 -231.508196 
L 308.447208 -233.673163 
L 311.262104 -235.838131 
L 313.726762 -238.003098 
L 315.841089 -240.168066 
L 317.661959 -242.333033 
L 319.271666 -244.498001 
L 320.740617 -246.662968 
L 322.102538 -248.827936 
L 323.353202 -250.992904 
L 324.468933 -253.157871 
L 325.429978 -255.322839 
L 326.234308 -257.487806 
L 326.897471 -259.652774 
L 327.444214 -261.817741 
L 327.900091 -263.982709 
L 328.287056 -266.147676 
L 328.622042 -268.312644 
L 328.916402 -270.477611 
L 329.175775 -272.642579 
L 329.401196 -274.807546 
L 329.591519 -276.972514 
L 330.611079 -276.972514 
L 330.611079 -276.972514 
L 330.801401 -274.807546 
L 331.026823 -272.642579 
L 331.286195 -270.477611 
L 331.580555 -268.312644 
L 331.915542 -266.147676 
L 332.302506 -263.982709 
L 332.758383 -261.817741 
L 333.305126 -259.652774 
L 333.96829 -257.487806 
L 334.772619 -255.322839 
L 335.733664 -253.157871 
L 336.849395 -250.992904 
L 338.100059 -248.827936 
L 339.46198 -246.662968 
L 340.930931 -244.498001 
L 342.540639 -242.333033 
L 344.361508 -240.168066 
L 346.475836 -238.003098 
L 348.940493 -235.838131 
L 351.75539 -233.673163 
L 354.851597 -231.508196 
L 358.101591 -229.343228 
L 361.343971 -227.178261 
L 364.411733 -225.013293 
L 367.156359 -222.848325 
L 369.464949 -220.683358 
L 371.269852 -218.51839 
L 372.548896 -216.353423 
L 373.313087 -214.188455 
L 373.581818 -212.023488 
L 373.354435 -209.85852 
L 372.595663 -207.693553 
L 371.250724 -205.528585 
L 369.288563 -203.363618 
L 366.748228 -201.19865 
L 363.75495 -199.033682 
L 360.49069 -196.868715 
L 357.136709 -194.703747 
L 353.825859 -192.53878 
L 350.632853 -190.373812 
L 347.600471 -188.208845 
L 344.774081 -186.043877 
L 342.216236 -183.87891 
L 339.994712 -181.713942 
L 338.159804 -179.548975 
L 336.73083 -177.384007 
L 335.698269 -175.21904 
L 335.033497 -173.054072 
L 334.696053 -170.889104 
L 334.636406 -168.724137 
L 334.798783 -166.559169 
L 335.127032 -164.394202 
L 335.570339 -162.229234 
L 336.08265 -160.064267 
L 336.61359 -157.899299 
L 337.096681 -155.734332 
L 337.445922 -153.569364 
L 337.56906 -151.404397 
L 337.395515 -149.239429 
L 336.905658 -147.074461 
L 336.144768 -144.909494 
L 335.21276 -142.744526 
L 334.234405 -140.579559 
L 333.324559 -138.414591 
L 332.562908 -136.249624 
L 331.9849 -134.084656 
L 331.586625 -131.919689 
L 331.336855 -129.754721 
L 331.190191 -127.589754 
L 331.098514 -125.424786 
L 331.020469 -123.259818 
L 330.928872 -121.094851 
L 330.814662 -118.929883 
L 330.685516 -116.764916 
L 330.558815 -114.599948 
L 330.451707 -112.434981 
L 330.372993 -110.270013 
L 330.320596 -108.105046 
L 330.285008 -105.940078 
L 330.255652 -103.775111 
L 330.226036 -101.610143 
L 330.19523 -99.445176 
L 330.165976 -97.280208 
L 330.141615 -95.11524 
L 330.123938 -92.950273 
L 330.112733 -90.785305 
L 330.106523 -88.620338 
L 330.103584 -86.45537 
L 330.102644 -84.290403 
L 330.103187 -82.125435 
L 330.105518 -79.960468 
L 330.110723 -77.7955 
L 330.120432 -75.630533 
L 330.13618 -73.465565 
L 330.158319 -71.300597 
L 330.184869 -69.13563 
L 330.211107 -66.970662 
L 330.230655 -64.805695 
L 330.237916 -62.640727 
z
"/>
    </defs>
    <g clip-path="url(#p5097824589)">
     <use xlink:href="#m569ed7b540" x="0" y="432" style="fill: #489848; fill-opacity: 0.7"/>
    </g>
   </g>
   <g id="matplotlib.axis_1">
    <g id="xtick_1">
     <g id="line2d_1">
      <defs>
       <path id="m49e240a777" d="M 0 0 
L 0 3.5 
" style="stroke: #000000; stroke-width: 0.8"/>
      </defs>
      <g>
       <use xlink:href="#m49e240a777" x="112.698701" y="384.48" style="stroke: #000000; stroke-width: 0.8"/>
      </g>
     </g>
     <g id="text_1">
      <!-- PAC5 -->
      <g transform="translate(99.997139 399.078438) scale(0.1 -0.1)">
       <defs>
        <path id="DejaVuSans-50" d="M 1259 4147 
L 1259 2394 
L 2053 2394 
Q 2494 2394 2734 2622 
Q 2975 2850 2975 3272 
Q 2975 3691 2734 3919 
Q 2494 4147 2053 4147 
L 1259 4147 
z
M 628 4666 
L 2053 4666 
Q 2838 4666 3239 4311 
Q 3641 3956 3641 3272 
Q 3641 2581 3239 2228 
Q 2838 1875 2053 1875 
L 1259 1875 
L 1259 0 
L 628 0 
L 628 4666 
z
" transform="scale(0.015625)"/>
        <path id="DejaVuSans-41" d="M 2188 4044 
L 1331 1722 
L 3047 1722 
L 2188 4044 
z
M 1831 4666 
L 2547 4666 
L 4325 0 
L 3669 0 
L 3244 1197 
L 1141 1197 
L 716 0 
L 50 0 
L 1831 4666 
z
" transform="scale(0.015625)"/>
        <path id="DejaVuSans-43" d="M 4122 4306 
L 4122 3641 
Q 3803 3938 3442 4084 
Q 3081 4231 2675 4231 
Q 1875 4231 1450 3742 
Q 1025 3253 1025 2328 
Q 1025 1406 1450 917 
Q 1875 428 2675 428 
Q 3081 428 3442 575 
Q 3803 722 4122 1019 
L 4122 359 
Q 3791 134 3420 21 
Q 3050 -91 2638 -91 
Q 1578 -91 968 557 
Q 359 1206 359 2328 
Q 359 3453 968 4101 
Q 1578 4750 2638 4750 
Q 3056 4750 3426 4639 
Q 3797 4528 4122 4306 
z
" transform="scale(0.015625)"/>
        <path id="DejaVuSans-35" d="M 691 4666 
L 3169 4666 
L 3169 4134 
L 1269 4134 
L 1269 2991 
Q 1406 3038 1543 3061 
Q 1681 3084 1819 3084 
Q 2600 3084 3056 2656 
Q 3513 2228 3513 1497 
Q 3513 744 3044 326 
Q 2575 -91 1722 -91 
Q 1428 -91 1123 -41 
Q 819 9 494 109 
L 494 744 
Q 775 591 1075 516 
Q 1375 441 1709 441 
Q 2250 441 2565 725 
Q 2881 1009 2881 1497 
Q 2881 1984 2565 2268 
Q 2250 2553 1709 2553 
Q 1456 2553 1204 2497 
Q 953 2441 691 2322 
L 691 4666 
z
" transform="scale(0.015625)"/>
       </defs>
       <use xlink:href="#DejaVuSans-50"/>
       <use xlink:href="#DejaVuSans-41" x="53.927734"/>
       <use xlink:href="#DejaVuSans-43" x="120.585938"/>
       <use xlink:href="#DejaVuSans-35" x="190.410156"/>
      </g>
     </g>
    </g>
    <g id="xtick_2">
     <g id="line2d_2">
      <g>
       <use xlink:href="#m49e240a777" x="221.4" y="384.48" style="stroke: #000000; stroke-width: 0.8"/>
      </g>
     </g>
     <g id="text_2">
      <!-- RNA -->
      <g transform="translate(210.764844 399.078438) scale(0.1 -0.1)">
       <defs>
        <path id="DejaVuSans-52" d="M 2841 2188 
Q 3044 2119 3236 1894 
Q 3428 1669 3622 1275 
L 4263 0 
L 3584 0 
L 2988 1197 
Q 2756 1666 2539 1819 
Q 2322 1972 1947 1972 
L 1259 1972 
L 1259 0 
L 628 0 
L 628 4666 
L 2053 4666 
Q 2853 4666 3247 4331 
Q 3641 3997 3641 3322 
Q 3641 2881 3436 2590 
Q 3231 2300 2841 2188 
z
M 1259 4147 
L 1259 2491 
L 2053 2491 
Q 2509 2491 2742 2702 
Q 2975 2913 2975 3322 
Q 2975 3731 2742 3939 
Q 2509 4147 2053 4147 
L 1259 4147 
z
" transform="scale(0.015625)"/>
        <path id="DejaVuSans-4e" d="M 628 4666 
L 1478 4666 
L 3547 763 
L 3547 4666 
L 4159 4666 
L 4159 0 
L 3309 0 
L 1241 3903 
L 1241 0 
L 628 0 
L 628 4666 
z
" transform="scale(0.015625)"/>
       </defs>
       <use xlink:href="#DejaVuSans-52"/>
       <use xlink:href="#DejaVuSans-4e" x="69.482422"/>
       <use xlink:href="#DejaVuSans-41" x="144.287109"/>
      </g>
     </g>
    </g>
    <g id="xtick_3">
     <g id="line2d_3">
      <g>
       <use xlink:href="#m49e240a777" x="330.101299" y="384.48" style="stroke: #000000; stroke-width: 0.8"/>
      </g>
     </g>
     <g id="text_3">
      <!-- ssDNA -->
      <g transform="translate(313.880986 399.078438) scale(0.1 -0.1)">
       <defs>
        <path id="DejaVuSans-73" d="M 2834 3397 
L 2834 2853 
Q 2591 2978 2328 3040 
Q 2066 3103 1784 3103 
Q 1356 3103 1142 2972 
Q 928 2841 928 2578 
Q 928 2378 1081 2264 
Q 1234 2150 1697 2047 
L 1894 2003 
Q 2506 1872 2764 1633 
Q 3022 1394 3022 966 
Q 3022 478 2636 193 
Q 2250 -91 1575 -91 
Q 1294 -91 989 -36 
Q 684 19 347 128 
L 347 722 
Q 666 556 975 473 
Q 1284 391 1588 391 
Q 1994 391 2212 530 
Q 2431 669 2431 922 
Q 2431 1156 2273 1281 
Q 2116 1406 1581 1522 
L 1381 1569 
Q 847 1681 609 1914 
Q 372 2147 372 2553 
Q 372 3047 722 3315 
Q 1072 3584 1716 3584 
Q 2034 3584 2315 3537 
Q 2597 3491 2834 3397 
z
" transform="scale(0.015625)"/>
        <path id="DejaVuSans-44" d="M 1259 4147 
L 1259 519 
L 2022 519 
Q 2988 519 3436 956 
Q 3884 1394 3884 2338 
Q 3884 3275 3436 3711 
Q 2988 4147 2022 4147 
L 1259 4147 
z
M 628 4666 
L 1925 4666 
Q 3281 4666 3915 4102 
Q 4550 3538 4550 2338 
Q 4550 1131 3912 565 
Q 3275 0 1925 0 
L 628 0 
L 628 4666 
z
" transform="scale(0.015625)"/>
       </defs>
       <use xlink:href="#DejaVuSans-73"/>
       <use xlink:href="#DejaVuSans-73" x="52.099609"/>
       <use xlink:href="#DejaVuSans-44" x="104.199219"/>
       <use xlink:href="#DejaVuSans-4e" x="181.201172"/>
       <use xlink:href="#DejaVuSans-41" x="256.005859"/>
      </g>
     </g>
    </g>
    <g id="text_4">
     <!--   -->
     <g transform="translate(219.810937 412.756563) scale(0.1 -0.1)">
      <defs>
       <path id="DejaVuSans-20" transform="scale(0.015625)"/>
      </defs>
      <use xlink:href="#DejaVuSans-20"/>
     </g>
    </g>
   </g>
   <g id="matplotlib.axis_2">
    <g id="ytick_1">
     <g id="line2d_4">
      <path d="M 54 369.586599 
L 388.8 369.586599 
" clip-path="url(#p5097824589)" style="fill: none; stroke: #b0b0b0; stroke-width: 0.8; stroke-linecap: square"/>
     </g>
     <g id="line2d_5">
      <defs>
       <path id="m714c3bb888" d="M 0 0 
L -3.5 0 
" style="stroke: #000000; stroke-width: 0.8"/>
      </defs>
      <g>
       <use xlink:href="#m714c3bb888" x="54" y="369.586599" style="stroke: #000000; stroke-width: 0.8"/>
      </g>
     </g>
     <g id="text_5">
      <!-- 0.0 -->
      <g transform="translate(31.096875 373.385817) scale(0.1 -0.1)">
       <defs>
        <path id="DejaVuSans-30" d="M 2034 4250 
Q 1547 4250 1301 3770 
Q 1056 3291 1056 2328 
Q 1056 1369 1301 889 
Q 1547 409 2034 409 
Q 2525 409 2770 889 
Q 3016 1369 3016 2328 
Q 3016 3291 2770 3770 
Q 2525 4250 2034 4250 
z
M 2034 4750 
Q 2819 4750 3233 4129 
Q 3647 3509 3647 2328 
Q 3647 1150 3233 529 
Q 2819 -91 2034 -91 
Q 1250 -91 836 529 
Q 422 1150 422 2328 
Q 422 3509 836 4129 
Q 1250 4750 2034 4750 
z
" transform="scale(0.015625)"/>
        <path id="DejaVuSans-2e" d="M 684 794 
L 1344 794 
L 1344 0 
L 684 0 
L 684 794 
z
" transform="scale(0.015625)"/>
       </defs>
       <use xlink:href="#DejaVuSans-30"/>
       <use xlink:href="#DejaVuSans-2e" x="63.623047"/>
       <use xlink:href="#DejaVuSans-30" x="95.410156"/>
      </g>
     </g>
    </g>
    <g id="ytick_2">
     <g id="line2d_6">
      <path d="M 54 324.130489 
L 388.8 324.130489 
" clip-path="url(#p5097824589)" style="fill: none; stroke: #b0b0b0; stroke-width: 0.8; stroke-linecap: square"/>
     </g>
     <g id="line2d_7">
      <g>
       <use xlink:href="#m714c3bb888" x="54" y="324.130489" style="stroke: #000000; stroke-width: 0.8"/>
      </g>
     </g>
     <g id="text_6">
      <!-- 0.1 -->
      <g transform="translate(31.096875 327.929707) scale(0.1 -0.1)">
       <defs>
        <path id="DejaVuSans-31" d="M 794 531 
L 1825 531 
L 1825 4091 
L 703 3866 
L 703 4441 
L 1819 4666 
L 2450 4666 
L 2450 531 
L 3481 531 
L 3481 0 
L 794 0 
L 794 531 
z
" transform="scale(0.015625)"/>
       </defs>
       <use xlink:href="#DejaVuSans-30"/>
       <use xlink:href="#DejaVuSans-2e" x="63.623047"/>
       <use xlink:href="#DejaVuSans-31" x="95.410156"/>
      </g>
     </g>
    </g>
    <g id="ytick_3">
     <g id="line2d_8">
      <path d="M 54 278.674378 
L 388.8 278.674378 
" clip-path="url(#p5097824589)" style="fill: none; stroke: #b0b0b0; stroke-width: 0.8; stroke-linecap: square"/>
     </g>
     <g id="line2d_9">
      <g>
       <use xlink:href="#m714c3bb888" x="54" y="278.674378" style="stroke: #000000; stroke-width: 0.8"/>
      </g>
     </g>
     <g id="text_7">
      <!-- 0.2 -->
      <g transform="translate(31.096875 282.473597) scale(0.1 -0.1)">
       <defs>
        <path id="DejaVuSans-32" d="M 1228 531 
L 3431 531 
L 3431 0 
L 469 0 
L 469 531 
Q 828 903 1448 1529 
Q 2069 2156 2228 2338 
Q 2531 2678 2651 2914 
Q 2772 3150 2772 3378 
Q 2772 3750 2511 3984 
Q 2250 4219 1831 4219 
Q 1534 4219 1204 4116 
Q 875 4013 500 3803 
L 500 4441 
Q 881 4594 1212 4672 
Q 1544 4750 1819 4750 
Q 2544 4750 2975 4387 
Q 3406 4025 3406 3419 
Q 3406 3131 3298 2873 
Q 3191 2616 2906 2266 
Q 2828 2175 2409 1742 
Q 1991 1309 1228 531 
z
" transform="scale(0.015625)"/>
       </defs>
       <use xlink:href="#DejaVuSans-30"/>
       <use xlink:href="#DejaVuSans-2e" x="63.623047"/>
       <use xlink:href="#DejaVuSans-32" x="95.410156"/>
      </g>
     </g>
    </g>
    <g id="ytick_4">
     <g id="line2d_10">
      <path d="M 54 233.218268 
L 388.8 233.218268 
" clip-path="url(#p5097824589)" style="fill: none; stroke: #b0b0b0; stroke-width: 0.8; stroke-linecap: square"/>
     </g>
     <g id="line2d_11">
      <g>
       <use xlink:href="#m714c3bb888" x="54" y="233.218268" style="stroke: #000000; stroke-width: 0.8"/>
      </g>
     </g>
     <g id="text_8">
      <!-- 0.3 -->
      <g transform="translate(31.096875 237.017487) scale(0.1 -0.1)">
       <defs>
        <path id="DejaVuSans-33" d="M 2597 2516 
Q 3050 2419 3304 2112 
Q 3559 1806 3559 1356 
Q 3559 666 3084 287 
Q 2609 -91 1734 -91 
Q 1441 -91 1130 -33 
Q 819 25 488 141 
L 488 750 
Q 750 597 1062 519 
Q 1375 441 1716 441 
Q 2309 441 2620 675 
Q 2931 909 2931 1356 
Q 2931 1769 2642 2001 
Q 2353 2234 1838 2234 
L 1294 2234 
L 1294 2753 
L 1863 2753 
Q 2328 2753 2575 2939 
Q 2822 3125 2822 3475 
Q 2822 3834 2567 4026 
Q 2313 4219 1838 4219 
Q 1578 4219 1281 4162 
Q 984 4106 628 3988 
L 628 4550 
Q 988 4650 1302 4700 
Q 1616 4750 1894 4750 
Q 2613 4750 3031 4423 
Q 3450 4097 3450 3541 
Q 3450 3153 3228 2886 
Q 3006 2619 2597 2516 
z
" transform="scale(0.015625)"/>
       </defs>
       <use xlink:href="#DejaVuSans-30"/>
       <use xlink:href="#DejaVuSans-2e" x="63.623047"/>
       <use xlink:href="#DejaVuSans-33" x="95.410156"/>
      </g>
     </g>
    </g>
    <g id="ytick_5">
     <g id="line2d_12">
      <path d="M 54 187.762158 
L 388.8 187.762158 
" clip-path="url(#p5097824589)" style="fill: none; stroke: #b0b0b0; stroke-width: 0.8; stroke-linecap: square"/>
     </g>
     <g id="line2d_13">
      <g>
       <use xlink:href="#m714c3bb888" x="54" y="187.762158" style="stroke: #000000; stroke-width: 0.8"/>
      </g>
     </g>
     <g id="text_9">
      <!-- 0.4 -->
      <g transform="translate(31.096875 191.561377) scale(0.1 -0.1)">
       <defs>
        <path id="DejaVuSans-34" d="M 2419 4116 
L 825 1625 
L 2419 1625 
L 2419 4116 
z
M 2253 4666 
L 3047 4666 
L 3047 1625 
L 3713 1625 
L 3713 1100 
L 3047 1100 
L 3047 0 
L 2419 0 
L 2419 1100 
L 313 1100 
L 313 1709 
L 2253 4666 
z
" transform="scale(0.015625)"/>
       </defs>
       <use xlink:href="#DejaVuSans-30"/>
       <use xlink:href="#DejaVuSans-2e" x="63.623047"/>
       <use xlink:href="#DejaVuSans-34" x="95.410156"/>
      </g>
     </g>
    </g>
    <g id="ytick_6">
     <g id="line2d_14">
      <path d="M 54 142.306048 
L 388.8 142.306048 
" clip-path="url(#p5097824589)" style="fill: none; stroke: #b0b0b0; stroke-width: 0.8; stroke-linecap: square"/>
     </g>
     <g id="line2d_15">
      <g>
       <use xlink:href="#m714c3bb888" x="54" y="142.306048" style="stroke: #000000; stroke-width: 0.8"/>
      </g>
     </g>
     <g id="text_10">
      <!-- 0.5 -->
      <g transform="translate(31.096875 146.105267) scale(0.1 -0.1)">
       <use xlink:href="#DejaVuSans-30"/>
       <use xlink:href="#DejaVuSans-2e" x="63.623047"/>
       <use xlink:href="#DejaVuSans-35" x="95.410156"/>
      </g>
     </g>
    </g>
    <g id="ytick_7">
     <g id="line2d_16">
      <path d="M 54 96.849938 
L 388.8 96.849938 
" clip-path="url(#p5097824589)" style="fill: none; stroke: #b0b0b0; stroke-width: 0.8; stroke-linecap: square"/>
     </g>
     <g id="line2d_17">
      <g>
       <use xlink:href="#m714c3bb888" x="54" y="96.849938" style="stroke: #000000; stroke-width: 0.8"/>
      </g>
     </g>
     <g id="text_11">
      <!-- 0.6 -->
      <g transform="translate(31.096875 100.649157) scale(0.1 -0.1)">
       <defs>
        <path id="DejaVuSans-36" d="M 2113 2584 
Q 1688 2584 1439 2293 
Q 1191 2003 1191 1497 
Q 1191 994 1439 701 
Q 1688 409 2113 409 
Q 2538 409 2786 701 
Q 3034 994 3034 1497 
Q 3034 2003 2786 2293 
Q 2538 2584 2113 2584 
z
M 3366 4563 
L 3366 3988 
Q 3128 4100 2886 4159 
Q 2644 4219 2406 4219 
Q 1781 4219 1451 3797 
Q 1122 3375 1075 2522 
Q 1259 2794 1537 2939 
Q 1816 3084 2150 3084 
Q 2853 3084 3261 2657 
Q 3669 2231 3669 1497 
Q 3669 778 3244 343 
Q 2819 -91 2113 -91 
Q 1303 -91 875 529 
Q 447 1150 447 2328 
Q 447 3434 972 4092 
Q 1497 4750 2381 4750 
Q 2619 4750 2861 4703 
Q 3103 4656 3366 4563 
z
" transform="scale(0.015625)"/>
       </defs>
       <use xlink:href="#DejaVuSans-30"/>
       <use xlink:href="#DejaVuSans-2e" x="63.623047"/>
       <use xlink:href="#DejaVuSans-36" x="95.410156"/>
      </g>
     </g>
    </g>
    <g id="text_12">
     <!-- RMSD (nm) -->
     <g transform="translate(25.017187 246.502187) rotate(-90) scale(0.1 -0.1)">
      <defs>
       <path id="DejaVuSans-4d" d="M 628 4666 
L 1569 4666 
L 2759 1491 
L 3956 4666 
L 4897 4666 
L 4897 0 
L 4281 0 
L 4281 4097 
L 3078 897 
L 2444 897 
L 1241 4097 
L 1241 0 
L 628 0 
L 628 4666 
z
" transform="scale(0.015625)"/>
       <path id="DejaVuSans-53" d="M 3425 4513 
L 3425 3897 
Q 3066 4069 2747 4153 
Q 2428 4238 2131 4238 
Q 1616 4238 1336 4038 
Q 1056 3838 1056 3469 
Q 1056 3159 1242 3001 
Q 1428 2844 1947 2747 
L 2328 2669 
Q 3034 2534 3370 2195 
Q 3706 1856 3706 1288 
Q 3706 609 3251 259 
Q 2797 -91 1919 -91 
Q 1588 -91 1214 -16 
Q 841 59 441 206 
L 441 856 
Q 825 641 1194 531 
Q 1563 422 1919 422 
Q 2459 422 2753 634 
Q 3047 847 3047 1241 
Q 3047 1584 2836 1778 
Q 2625 1972 2144 2069 
L 1759 2144 
Q 1053 2284 737 2584 
Q 422 2884 422 3419 
Q 422 4038 858 4394 
Q 1294 4750 2059 4750 
Q 2388 4750 2728 4690 
Q 3069 4631 3425 4513 
z
" transform="scale(0.015625)"/>
       <path id="DejaVuSans-28" d="M 1984 4856 
Q 1566 4138 1362 3434 
Q 1159 2731 1159 2009 
Q 1159 1288 1364 580 
Q 1569 -128 1984 -844 
L 1484 -844 
Q 1016 -109 783 600 
Q 550 1309 550 2009 
Q 550 2706 781 3412 
Q 1013 4119 1484 4856 
L 1984 4856 
z
" transform="scale(0.015625)"/>
       <path id="DejaVuSans-6e" d="M 3513 2113 
L 3513 0 
L 2938 0 
L 2938 2094 
Q 2938 2591 2744 2837 
Q 2550 3084 2163 3084 
Q 1697 3084 1428 2787 
Q 1159 2491 1159 1978 
L 1159 0 
L 581 0 
L 581 3500 
L 1159 3500 
L 1159 2956 
Q 1366 3272 1645 3428 
Q 1925 3584 2291 3584 
Q 2894 3584 3203 3211 
Q 3513 2838 3513 2113 
z
" transform="scale(0.015625)"/>
       <path id="DejaVuSans-6d" d="M 3328 2828 
Q 3544 3216 3844 3400 
Q 4144 3584 4550 3584 
Q 5097 3584 5394 3201 
Q 5691 2819 5691 2113 
L 5691 0 
L 5113 0 
L 5113 2094 
Q 5113 2597 4934 2840 
Q 4756 3084 4391 3084 
Q 3944 3084 3684 2787 
Q 3425 2491 3425 1978 
L 3425 0 
L 2847 0 
L 2847 2094 
Q 2847 2600 2669 2842 
Q 2491 3084 2119 3084 
Q 1678 3084 1418 2786 
Q 1159 2488 1159 1978 
L 1159 0 
L 581 0 
L 581 3500 
L 1159 3500 
L 1159 2956 
Q 1356 3278 1631 3431 
Q 1906 3584 2284 3584 
Q 2666 3584 2933 3390 
Q 3200 3197 3328 2828 
z
" transform="scale(0.015625)"/>
       <path id="DejaVuSans-29" d="M 513 4856 
L 1013 4856 
Q 1481 4119 1714 3412 
Q 1947 2706 1947 2009 
Q 1947 1309 1714 600 
Q 1481 -109 1013 -844 
L 513 -844 
Q 928 -128 1133 580 
Q 1338 1288 1338 2009 
Q 1338 2731 1133 3434 
Q 928 4138 513 4856 
z
" transform="scale(0.015625)"/>
      </defs>
      <use xlink:href="#DejaVuSans-52"/>
      <use xlink:href="#DejaVuSans-4d" x="69.482422"/>
      <use xlink:href="#DejaVuSans-53" x="155.761719"/>
      <use xlink:href="#DejaVuSans-44" x="219.238281"/>
      <use xlink:href="#DejaVuSans-20" x="296.240234"/>
      <use xlink:href="#DejaVuSans-28" x="328.027344"/>
      <use xlink:href="#DejaVuSans-6e" x="367.041016"/>
      <use xlink:href="#DejaVuSans-6d" x="430.419922"/>
      <use xlink:href="#DejaVuSans-29" x="527.832031"/>
     </g>
    </g>
   </g>
   <g id="line2d_18">
    <path d="M 112.698701 137.795771 
L 112.698701 131.142971 
L 221.4 131.142971 
L 221.4 137.795771 
" style="fill: none; stroke: #333333; stroke-width: 1.5; stroke-linecap: square"/>
   </g>
   <g id="line2d_19">
    <path d="M 221.4 109.942971 
L 221.4 103.290171 
L 330.101299 103.290171 
L 330.101299 109.942971 
" style="fill: none; stroke: #333333; stroke-width: 1.5; stroke-linecap: square"/>
   </g>
   <g id="line2d_20">
    <path d="M 112.698701 82.090171 
L 112.698701 75.437371 
L 330.101299 75.437371 
L 330.101299 82.090171 
" style="fill: none; stroke: #333333; stroke-width: 1.5; stroke-linecap: square"/>
   </g>
   <g id="patch_3">
    <path d="M 54 384.48 
L 54 51.84 
" style="fill: none; stroke: #000000; stroke-width: 0.8; stroke-linejoin: miter; stroke-linecap: square"/>
   </g>
   <g id="patch_4">
    <path d="M 54 384.48 
L 388.8 384.48 
" style="fill: none; stroke: #000000; stroke-width: 0.8; stroke-linejoin: miter; stroke-linecap: square"/>
   </g>
   <g id="text_13">
    <!-- **** -->
    <g transform="translate(157.049351 128.063283) scale(0.1 -0.1)">
     <defs>
      <path id="DejaVuSans-2a" d="M 3009 3897 
L 1888 3291 
L 3009 2681 
L 2828 2375 
L 1778 3009 
L 1778 1831 
L 1422 1831 
L 1422 3009 
L 372 2375 
L 191 2681 
L 1313 3291 
L 191 3897 
L 372 4206 
L 1422 3572 
L 1422 4750 
L 1778 4750 
L 1778 3572 
L 2828 4206 
L 3009 3897 
z
" transform="scale(0.015625)"/>
     </defs>
     <use xlink:href="#DejaVuSans-2a"/>
     <use xlink:href="#DejaVuSans-2a" x="50"/>
     <use xlink:href="#DejaVuSans-2a" x="100"/>
     <use xlink:href="#DejaVuSans-2a" x="150"/>
    </g>
   </g>
   <g id="text_14">
    <!-- *** -->
    <g transform="translate(268.250649 100.210483) scale(0.1 -0.1)">
     <use xlink:href="#DejaVuSans-2a"/>
     <use xlink:href="#DejaVuSans-2a" x="50"/>
     <use xlink:href="#DejaVuSans-2a" x="100"/>
    </g>
   </g>
   <g id="text_15">
    <!-- **** -->
    <g transform="translate(211.4 72.357683) scale(0.1 -0.1)">
     <use xlink:href="#DejaVuSans-2a"/>
     <use xlink:href="#DejaVuSans-2a" x="50"/>
     <use xlink:href="#DejaVuSans-2a" x="100"/>
     <use xlink:href="#DejaVuSans-2a" x="150"/>
    </g>
   </g>
   <g id="text_16">
    <!-- RMSD -->
    <g transform="translate(203.625 45.84) scale(0.12 -0.12)">
     <use xlink:href="#DejaVuSans-52"/>
     <use xlink:href="#DejaVuSans-4d" x="69.482422"/>
     <use xlink:href="#DejaVuSans-53" x="155.761719"/>
     <use xlink:href="#DejaVuSans-44" x="219.238281"/>
    </g>
   </g>
   <g id="patch_5">
    <path d="M 96.393506 235.058059 
L 129.003896 235.058059 
L 129.003896 204.092948 
L 96.393506 204.092948 
L 96.393506 235.058059 
z
" clip-path="url(#p5097824589)" style="fill: #407ea8; stroke: #434343; stroke-linejoin: miter"/>
   </g>
   <g id="line2d_21">
    <path d="M 112.698701 235.058059 
L 112.698701 280.528897 
" clip-path="url(#p5097824589)" style="fill: none; stroke: #434343"/>
   </g>
   <g id="line2d_22">
    <path d="M 112.698701 204.092948 
L 112.698701 157.754171 
" clip-path="url(#p5097824589)" style="fill: none; stroke: #434343"/>
   </g>
   <g id="line2d_23">
    <path d="M 104.546104 280.528897 
L 120.851299 280.528897 
" clip-path="url(#p5097824589)" style="fill: none; stroke: #434343; stroke-linecap: square"/>
   </g>
   <g id="line2d_24">
    <path d="M 104.546104 157.754171 
L 120.851299 157.754171 
" clip-path="url(#p5097824589)" style="fill: none; stroke: #434343; stroke-linecap: square"/>
   </g>
   <g id="patch_6">
    <path d="M 205.094805 240.561657 
L 237.705195 240.561657 
L 237.705195 216.032268 
L 205.094805 216.032268 
L 205.094805 240.561657 
z
" clip-path="url(#p5097824589)" style="fill: #e6944c; stroke: #434343; stroke-linejoin: miter"/>
   </g>
   <g id="line2d_25">
    <path d="M 221.4 240.561657 
L 221.4 277.244375 
" clip-path="url(#p5097824589)" style="fill: none; stroke: #434343"/>
   </g>
   <g id="line2d_26">
    <path d="M 221.4 216.032268 
L 221.4 180.000755 
" clip-path="url(#p5097824589)" style="fill: none; stroke: #434343"/>
   </g>
   <g id="line2d_27">
    <path d="M 213.247403 277.244375 
L 229.552597 277.244375 
" clip-path="url(#p5097824589)" style="fill: none; stroke: #434343; stroke-linecap: square"/>
   </g>
   <g id="line2d_28">
    <path d="M 213.247403 180.000755 
L 229.552597 180.000755 
" clip-path="url(#p5097824589)" style="fill: none; stroke: #434343; stroke-linecap: square"/>
   </g>
   <g id="patch_7">
    <path d="M 313.796104 234.739093 
L 346.406494 234.739093 
L 346.406494 208.747381 
L 313.796104 208.747381 
L 313.796104 234.739093 
z
" clip-path="url(#p5097824589)" style="fill: #489848; stroke: #434343; stroke-linejoin: miter"/>
   </g>
   <g id="line2d_29">
    <path d="M 330.101299 234.739093 
L 330.101299 273.712617 
" clip-path="url(#p5097824589)" style="fill: none; stroke: #434343"/>
   </g>
   <g id="line2d_30">
    <path d="M 330.101299 208.747381 
L 330.101299 170.963216 
" clip-path="url(#p5097824589)" style="fill: none; stroke: #434343"/>
   </g>
   <g id="line2d_31">
    <path d="M 321.948701 273.712617 
L 338.253896 273.712617 
" clip-path="url(#p5097824589)" style="fill: none; stroke: #434343; stroke-linecap: square"/>
   </g>
   <g id="line2d_32">
    <path d="M 321.948701 170.963216 
L 338.253896 170.963216 
" clip-path="url(#p5097824589)" style="fill: none; stroke: #434343; stroke-linecap: square"/>
   </g>
   <g id="line2d_33">
    <path d="M 96.393506 220.72752 
L 129.003896 220.72752 
" clip-path="url(#p5097824589)" style="fill: none; stroke: #434343"/>
   </g>
   <g id="line2d_34">
    <path d="M 205.094805 228.89321 
L 237.705195 228.89321 
" clip-path="url(#p5097824589)" style="fill: none; stroke: #434343"/>
   </g>
   <g id="line2d_35">
    <path d="M 313.796104 220.982484 
L 346.406494 220.982484 
" clip-path="url(#p5097824589)" style="fill: none; stroke: #434343"/>
   </g>
  </g>
 </g>
 <defs>
  <clipPath id="p5097824589">
   <rect x="54" y="51.84" width="334.8" height="332.64"/>
  </clipPath>
 </defs>
</svg>
