<?xml version="1.0" encoding="utf-8" standalone="no"?>
<!DOCTYPE svg PUBLIC "-//W3C//DTD SVG 1.1//EN"
  "http://www.w3.org/Graphics/SVG/1.1/DTD/svg11.dtd">
<svg xmlns:xlink="http://www.w3.org/1999/xlink" width="576pt" height="360pt" viewBox="0 0 576 360" xmlns="http://www.w3.org/2000/svg" version="1.1">
 <metadata>
  <rdf:RDF xmlns:dc="http://purl.org/dc/elements/1.1/" xmlns:cc="http://creativecommons.org/ns#" xmlns:rdf="http://www.w3.org/1999/02/22-rdf-syntax-ns#">
   <cc:Work>
    <dc:type rdf:resource="http://purl.org/dc/dcmitype/StillImage"/>
    <dc:date>2025-01-16T18:07:17.964104</dc:date>
    <dc:format>image/svg+xml</dc:format>
    <dc:creator>
     <cc:Agent>
      <dc:title>Matplotlib v3.9.2, https://matplotlib.org/</dc:title>
     </cc:Agent>
    </dc:creator>
   </cc:Work>
  </rdf:RDF>
 </metadata>
 <defs>
  <style type="text/css">*{stroke-linejoin: round; stroke-linecap: butt}</style>
 </defs>
 <g id="figure_1">
  <g id="patch_1">
   <path d="M 0 360 
L 576 360 
L 576 0 
L 0 0 
z
" style="fill: #ffffff"/>
  </g>
  <g id="axes_1">
   <g id="patch_2">
    <path d="M 72 320.4 
L 518.4 320.4 
L 518.4 43.2 
L 72 43.2 
z
" style="fill: #ffffff"/>
   </g>
   <g id="matplotlib.axis_1">
    <g id="xtick_1">
     <g id="line2d_1">
      <path d="M 92.290909 320.4 
L 92.290909 43.2 
" clip-path="url(#p9b9a322128)" style="fill: none; stroke: #b0b0b0; stroke-width: 0.8; stroke-linecap: square"/>
     </g>
     <g id="line2d_2">
      <defs>
       <path id="m415e34e5c5" d="M 0 0 
L 0 3.5 
" style="stroke: #000000; stroke-width: 0.8"/>
      </defs>
      <g>
       <use xlink:href="#m415e34e5c5" x="92.290909" y="320.4" style="stroke: #000000; stroke-width: 0.8"/>
      </g>
     </g>
     <g id="text_1">
      <!-- 0 -->
      <g transform="translate(87.837159 338.037813) scale(0.14 -0.14)">
       <defs>
        <path id="DejaVuSans-30" d="M 2034 4250 
Q 1547 4250 1301 3770 
Q 1056 3291 1056 2328 
Q 1056 1369 1301 889 
Q 1547 409 2034 409 
Q 2525 409 2770 889 
Q 3016 1369 3016 2328 
Q 3016 3291 2770 3770 
Q 2525 4250 2034 4250 
z
M 2034 4750 
Q 2819 4750 3233 4129 
Q 3647 3509 3647 2328 
Q 3647 1150 3233 529 
Q 2819 -91 2034 -91 
Q 1250 -91 836 529 
Q 422 1150 422 2328 
Q 422 3509 836 4129 
Q 1250 4750 2034 4750 
z
" transform="scale(0.015625)"/>
       </defs>
       <use xlink:href="#DejaVuSans-30"/>
      </g>
     </g>
    </g>
    <g id="xtick_2">
     <g id="line2d_3">
      <path d="M 132.872727 320.4 
L 132.872727 43.2 
" clip-path="url(#p9b9a322128)" style="fill: none; stroke: #b0b0b0; stroke-width: 0.8; stroke-linecap: square"/>
     </g>
     <g id="line2d_4">
      <g>
       <use xlink:href="#m415e34e5c5" x="132.872727" y="320.4" style="stroke: #000000; stroke-width: 0.8"/>
      </g>
     </g>
     <g id="text_2">
      <!-- 10 -->
      <g transform="translate(123.965227 338.037813) scale(0.14 -0.14)">
       <defs>
        <path id="DejaVuSans-31" d="M 794 531 
L 1825 531 
L 1825 4091 
L 703 3866 
L 703 4441 
L 1819 4666 
L 2450 4666 
L 2450 531 
L 3481 531 
L 3481 0 
L 794 0 
L 794 531 
z
" transform="scale(0.015625)"/>
       </defs>
       <use xlink:href="#DejaVuSans-31"/>
       <use xlink:href="#DejaVuSans-30" x="63.623047"/>
      </g>
     </g>
    </g>
    <g id="xtick_3">
     <g id="line2d_5">
      <path d="M 173.454545 320.4 
L 173.454545 43.2 
" clip-path="url(#p9b9a322128)" style="fill: none; stroke: #b0b0b0; stroke-width: 0.8; stroke-linecap: square"/>
     </g>
     <g id="line2d_6">
      <g>
       <use xlink:href="#m415e34e5c5" x="173.454545" y="320.4" style="stroke: #000000; stroke-width: 0.8"/>
      </g>
     </g>
     <g id="text_3">
      <!-- 20 -->
      <g transform="translate(164.547045 338.037813) scale(0.14 -0.14)">
       <defs>
        <path id="DejaVuSans-32" d="M 1228 531 
L 3431 531 
L 3431 0 
L 469 0 
L 469 531 
Q 828 903 1448 1529 
Q 2069 2156 2228 2338 
Q 2531 2678 2651 2914 
Q 2772 3150 2772 3378 
Q 2772 3750 2511 3984 
Q 2250 4219 1831 4219 
Q 1534 4219 1204 4116 
Q 875 4013 500 3803 
L 500 4441 
Q 881 4594 1212 4672 
Q 1544 4750 1819 4750 
Q 2544 4750 2975 4387 
Q 3406 4025 3406 3419 
Q 3406 3131 3298 2873 
Q 3191 2616 2906 2266 
Q 2828 2175 2409 1742 
Q 1991 1309 1228 531 
z
" transform="scale(0.015625)"/>
       </defs>
       <use xlink:href="#DejaVuSans-32"/>
       <use xlink:href="#DejaVuSans-30" x="63.623047"/>
      </g>
     </g>
    </g>
    <g id="xtick_4">
     <g id="line2d_7">
      <path d="M 214.036364 320.4 
L 214.036364 43.2 
" clip-path="url(#p9b9a322128)" style="fill: none; stroke: #b0b0b0; stroke-width: 0.8; stroke-linecap: square"/>
     </g>
     <g id="line2d_8">
      <g>
       <use xlink:href="#m415e34e5c5" x="214.036364" y="320.4" style="stroke: #000000; stroke-width: 0.8"/>
      </g>
     </g>
     <g id="text_4">
      <!-- 30 -->
      <g transform="translate(205.128864 338.037813) scale(0.14 -0.14)">
       <defs>
        <path id="DejaVuSans-33" d="M 2597 2516 
Q 3050 2419 3304 2112 
Q 3559 1806 3559 1356 
Q 3559 666 3084 287 
Q 2609 -91 1734 -91 
Q 1441 -91 1130 -33 
Q 819 25 488 141 
L 488 750 
Q 750 597 1062 519 
Q 1375 441 1716 441 
Q 2309 441 2620 675 
Q 2931 909 2931 1356 
Q 2931 1769 2642 2001 
Q 2353 2234 1838 2234 
L 1294 2234 
L 1294 2753 
L 1863 2753 
Q 2328 2753 2575 2939 
Q 2822 3125 2822 3475 
Q 2822 3834 2567 4026 
Q 2313 4219 1838 4219 
Q 1578 4219 1281 4162 
Q 984 4106 628 3988 
L 628 4550 
Q 988 4650 1302 4700 
Q 1616 4750 1894 4750 
Q 2613 4750 3031 4423 
Q 3450 4097 3450 3541 
Q 3450 3153 3228 2886 
Q 3006 2619 2597 2516 
z
" transform="scale(0.015625)"/>
       </defs>
       <use xlink:href="#DejaVuSans-33"/>
       <use xlink:href="#DejaVuSans-30" x="63.623047"/>
      </g>
     </g>
    </g>
    <g id="xtick_5">
     <g id="line2d_9">
      <path d="M 254.618182 320.4 
L 254.618182 43.2 
" clip-path="url(#p9b9a322128)" style="fill: none; stroke: #b0b0b0; stroke-width: 0.8; stroke-linecap: square"/>
     </g>
     <g id="line2d_10">
      <g>
       <use xlink:href="#m415e34e5c5" x="254.618182" y="320.4" style="stroke: #000000; stroke-width: 0.8"/>
      </g>
     </g>
     <g id="text_5">
      <!-- 40 -->
      <g transform="translate(245.710682 338.037813) scale(0.14 -0.14)">
       <defs>
        <path id="DejaVuSans-34" d="M 2419 4116 
L 825 1625 
L 2419 1625 
L 2419 4116 
z
M 2253 4666 
L 3047 4666 
L 3047 1625 
L 3713 1625 
L 3713 1100 
L 3047 1100 
L 3047 0 
L 2419 0 
L 2419 1100 
L 313 1100 
L 313 1709 
L 2253 4666 
z
" transform="scale(0.015625)"/>
       </defs>
       <use xlink:href="#DejaVuSans-34"/>
       <use xlink:href="#DejaVuSans-30" x="63.623047"/>
      </g>
     </g>
    </g>
    <g id="xtick_6">
     <g id="line2d_11">
      <path d="M 295.2 320.4 
L 295.2 43.2 
" clip-path="url(#p9b9a322128)" style="fill: none; stroke: #b0b0b0; stroke-width: 0.8; stroke-linecap: square"/>
     </g>
     <g id="line2d_12">
      <g>
       <use xlink:href="#m415e34e5c5" x="295.2" y="320.4" style="stroke: #000000; stroke-width: 0.8"/>
      </g>
     </g>
     <g id="text_6">
      <!-- 50 -->
      <g transform="translate(286.2925 338.037813) scale(0.14 -0.14)">
       <defs>
        <path id="DejaVuSans-35" d="M 691 4666 
L 3169 4666 
L 3169 4134 
L 1269 4134 
L 1269 2991 
Q 1406 3038 1543 3061 
Q 1681 3084 1819 3084 
Q 2600 3084 3056 2656 
Q 3513 2228 3513 1497 
Q 3513 744 3044 326 
Q 2575 -91 1722 -91 
Q 1428 -91 1123 -41 
Q 819 9 494 109 
L 494 744 
Q 775 591 1075 516 
Q 1375 441 1709 441 
Q 2250 441 2565 725 
Q 2881 1009 2881 1497 
Q 2881 1984 2565 2268 
Q 2250 2553 1709 2553 
Q 1456 2553 1204 2497 
Q 953 2441 691 2322 
L 691 4666 
z
" transform="scale(0.015625)"/>
       </defs>
       <use xlink:href="#DejaVuSans-35"/>
       <use xlink:href="#DejaVuSans-30" x="63.623047"/>
      </g>
     </g>
    </g>
    <g id="xtick_7">
     <g id="line2d_13">
      <path d="M 335.781818 320.4 
L 335.781818 43.2 
" clip-path="url(#p9b9a322128)" style="fill: none; stroke: #b0b0b0; stroke-width: 0.8; stroke-linecap: square"/>
     </g>
     <g id="line2d_14">
      <g>
       <use xlink:href="#m415e34e5c5" x="335.781818" y="320.4" style="stroke: #000000; stroke-width: 0.8"/>
      </g>
     </g>
     <g id="text_7">
      <!-- 60 -->
      <g transform="translate(326.874318 338.037813) scale(0.14 -0.14)">
       <defs>
        <path id="DejaVuSans-36" d="M 2113 2584 
Q 1688 2584 1439 2293 
Q 1191 2003 1191 1497 
Q 1191 994 1439 701 
Q 1688 409 2113 409 
Q 2538 409 2786 701 
Q 3034 994 3034 1497 
Q 3034 2003 2786 2293 
Q 2538 2584 2113 2584 
z
M 3366 4563 
L 3366 3988 
Q 3128 4100 2886 4159 
Q 2644 4219 2406 4219 
Q 1781 4219 1451 3797 
Q 1122 3375 1075 2522 
Q 1259 2794 1537 2939 
Q 1816 3084 2150 3084 
Q 2853 3084 3261 2657 
Q 3669 2231 3669 1497 
Q 3669 778 3244 343 
Q 2819 -91 2113 -91 
Q 1303 -91 875 529 
Q 447 1150 447 2328 
Q 447 3434 972 4092 
Q 1497 4750 2381 4750 
Q 2619 4750 2861 4703 
Q 3103 4656 3366 4563 
z
" transform="scale(0.015625)"/>
       </defs>
       <use xlink:href="#DejaVuSans-36"/>
       <use xlink:href="#DejaVuSans-30" x="63.623047"/>
      </g>
     </g>
    </g>
    <g id="xtick_8">
     <g id="line2d_15">
      <path d="M 376.363636 320.4 
L 376.363636 43.2 
" clip-path="url(#p9b9a322128)" style="fill: none; stroke: #b0b0b0; stroke-width: 0.8; stroke-linecap: square"/>
     </g>
     <g id="line2d_16">
      <g>
       <use xlink:href="#m415e34e5c5" x="376.363636" y="320.4" style="stroke: #000000; stroke-width: 0.8"/>
      </g>
     </g>
     <g id="text_8">
      <!-- 70 -->
      <g transform="translate(367.456136 338.037813) scale(0.14 -0.14)">
       <defs>
        <path id="DejaVuSans-37" d="M 525 4666 
L 3525 4666 
L 3525 4397 
L 1831 0 
L 1172 0 
L 2766 4134 
L 525 4134 
L 525 4666 
z
" transform="scale(0.015625)"/>
       </defs>
       <use xlink:href="#DejaVuSans-37"/>
       <use xlink:href="#DejaVuSans-30" x="63.623047"/>
      </g>
     </g>
    </g>
    <g id="xtick_9">
     <g id="line2d_17">
      <path d="M 416.945455 320.4 
L 416.945455 43.2 
" clip-path="url(#p9b9a322128)" style="fill: none; stroke: #b0b0b0; stroke-width: 0.8; stroke-linecap: square"/>
     </g>
     <g id="line2d_18">
      <g>
       <use xlink:href="#m415e34e5c5" x="416.945455" y="320.4" style="stroke: #000000; stroke-width: 0.8"/>
      </g>
     </g>
     <g id="text_9">
      <!-- 80 -->
      <g transform="translate(408.037955 338.037813) scale(0.14 -0.14)">
       <defs>
        <path id="DejaVuSans-38" d="M 2034 2216 
Q 1584 2216 1326 1975 
Q 1069 1734 1069 1313 
Q 1069 891 1326 650 
Q 1584 409 2034 409 
Q 2484 409 2743 651 
Q 3003 894 3003 1313 
Q 3003 1734 2745 1975 
Q 2488 2216 2034 2216 
z
M 1403 2484 
Q 997 2584 770 2862 
Q 544 3141 544 3541 
Q 544 4100 942 4425 
Q 1341 4750 2034 4750 
Q 2731 4750 3128 4425 
Q 3525 4100 3525 3541 
Q 3525 3141 3298 2862 
Q 3072 2584 2669 2484 
Q 3125 2378 3379 2068 
Q 3634 1759 3634 1313 
Q 3634 634 3220 271 
Q 2806 -91 2034 -91 
Q 1263 -91 848 271 
Q 434 634 434 1313 
Q 434 1759 690 2068 
Q 947 2378 1403 2484 
z
M 1172 3481 
Q 1172 3119 1398 2916 
Q 1625 2713 2034 2713 
Q 2441 2713 2670 2916 
Q 2900 3119 2900 3481 
Q 2900 3844 2670 4047 
Q 2441 4250 2034 4250 
Q 1625 4250 1398 4047 
Q 1172 3844 1172 3481 
z
" transform="scale(0.015625)"/>
       </defs>
       <use xlink:href="#DejaVuSans-38"/>
       <use xlink:href="#DejaVuSans-30" x="63.623047"/>
      </g>
     </g>
    </g>
    <g id="xtick_10">
     <g id="line2d_19">
      <path d="M 457.527273 320.4 
L 457.527273 43.2 
" clip-path="url(#p9b9a322128)" style="fill: none; stroke: #b0b0b0; stroke-width: 0.8; stroke-linecap: square"/>
     </g>
     <g id="line2d_20">
      <g>
       <use xlink:href="#m415e34e5c5" x="457.527273" y="320.4" style="stroke: #000000; stroke-width: 0.8"/>
      </g>
     </g>
     <g id="text_10">
      <!-- 90 -->
      <g transform="translate(448.619773 338.037813) scale(0.14 -0.14)">
       <defs>
        <path id="DejaVuSans-39" d="M 703 97 
L 703 672 
Q 941 559 1184 500 
Q 1428 441 1663 441 
Q 2288 441 2617 861 
Q 2947 1281 2994 2138 
Q 2813 1869 2534 1725 
Q 2256 1581 1919 1581 
Q 1219 1581 811 2004 
Q 403 2428 403 3163 
Q 403 3881 828 4315 
Q 1253 4750 1959 4750 
Q 2769 4750 3195 4129 
Q 3622 3509 3622 2328 
Q 3622 1225 3098 567 
Q 2575 -91 1691 -91 
Q 1453 -91 1209 -44 
Q 966 3 703 97 
z
M 1959 2075 
Q 2384 2075 2632 2365 
Q 2881 2656 2881 3163 
Q 2881 3666 2632 3958 
Q 2384 4250 1959 4250 
Q 1534 4250 1286 3958 
Q 1038 3666 1038 3163 
Q 1038 2656 1286 2365 
Q 1534 2075 1959 2075 
z
" transform="scale(0.015625)"/>
       </defs>
       <use xlink:href="#DejaVuSans-39"/>
       <use xlink:href="#DejaVuSans-30" x="63.623047"/>
      </g>
     </g>
    </g>
    <g id="xtick_11">
     <g id="line2d_21">
      <path d="M 498.109091 320.4 
L 498.109091 43.2 
" clip-path="url(#p9b9a322128)" style="fill: none; stroke: #b0b0b0; stroke-width: 0.8; stroke-linecap: square"/>
     </g>
     <g id="line2d_22">
      <g>
       <use xlink:href="#m415e34e5c5" x="498.109091" y="320.4" style="stroke: #000000; stroke-width: 0.8"/>
      </g>
     </g>
     <g id="text_11">
      <!-- 100 -->
      <g transform="translate(484.747841 338.037813) scale(0.14 -0.14)">
       <use xlink:href="#DejaVuSans-31"/>
       <use xlink:href="#DejaVuSans-30" x="63.623047"/>
       <use xlink:href="#DejaVuSans-30" x="127.246094"/>
      </g>
     </g>
    </g>
    <g id="text_12">
     <!-- Time (ns) -->
     <g transform="translate(252.904219 358.626562) scale(0.18 -0.18)">
      <defs>
       <path id="DejaVuSans-54" d="M -19 4666 
L 3928 4666 
L 3928 4134 
L 2272 4134 
L 2272 0 
L 1638 0 
L 1638 4134 
L -19 4134 
L -19 4666 
z
" transform="scale(0.015625)"/>
       <path id="DejaVuSans-69" d="M 603 3500 
L 1178 3500 
L 1178 0 
L 603 0 
L 603 3500 
z
M 603 4863 
L 1178 4863 
L 1178 4134 
L 603 4134 
L 603 4863 
z
" transform="scale(0.015625)"/>
       <path id="DejaVuSans-6d" d="M 3328 2828 
Q 3544 3216 3844 3400 
Q 4144 3584 4550 3584 
Q 5097 3584 5394 3201 
Q 5691 2819 5691 2113 
L 5691 0 
L 5113 0 
L 5113 2094 
Q 5113 2597 4934 2840 
Q 4756 3084 4391 3084 
Q 3944 3084 3684 2787 
Q 3425 2491 3425 1978 
L 3425 0 
L 2847 0 
L 2847 2094 
Q 2847 2600 2669 2842 
Q 2491 3084 2119 3084 
Q 1678 3084 1418 2786 
Q 1159 2488 1159 1978 
L 1159 0 
L 581 0 
L 581 3500 
L 1159 3500 
L 1159 2956 
Q 1356 3278 1631 3431 
Q 1906 3584 2284 3584 
Q 2666 3584 2933 3390 
Q 3200 3197 3328 2828 
z
" transform="scale(0.015625)"/>
       <path id="DejaVuSans-65" d="M 3597 1894 
L 3597 1613 
L 953 1613 
Q 991 1019 1311 708 
Q 1631 397 2203 397 
Q 2534 397 2845 478 
Q 3156 559 3463 722 
L 3463 178 
Q 3153 47 2828 -22 
Q 2503 -91 2169 -91 
Q 1331 -91 842 396 
Q 353 884 353 1716 
Q 353 2575 817 3079 
Q 1281 3584 2069 3584 
Q 2775 3584 3186 3129 
Q 3597 2675 3597 1894 
z
M 3022 2063 
Q 3016 2534 2758 2815 
Q 2500 3097 2075 3097 
Q 1594 3097 1305 2825 
Q 1016 2553 972 2059 
L 3022 2063 
z
" transform="scale(0.015625)"/>
       <path id="DejaVuSans-20" transform="scale(0.015625)"/>
       <path id="DejaVuSans-28" d="M 1984 4856 
Q 1566 4138 1362 3434 
Q 1159 2731 1159 2009 
Q 1159 1288 1364 580 
Q 1569 -128 1984 -844 
L 1484 -844 
Q 1016 -109 783 600 
Q 550 1309 550 2009 
Q 550 2706 781 3412 
Q 1013 4119 1484 4856 
L 1984 4856 
z
" transform="scale(0.015625)"/>
       <path id="DejaVuSans-6e" d="M 3513 2113 
L 3513 0 
L 2938 0 
L 2938 2094 
Q 2938 2591 2744 2837 
Q 2550 3084 2163 3084 
Q 1697 3084 1428 2787 
Q 1159 2491 1159 1978 
L 1159 0 
L 581 0 
L 581 3500 
L 1159 3500 
L 1159 2956 
Q 1366 3272 1645 3428 
Q 1925 3584 2291 3584 
Q 2894 3584 3203 3211 
Q 3513 2838 3513 2113 
z
" transform="scale(0.015625)"/>
       <path id="DejaVuSans-73" d="M 2834 3397 
L 2834 2853 
Q 2591 2978 2328 3040 
Q 2066 3103 1784 3103 
Q 1356 3103 1142 2972 
Q 928 2841 928 2578 
Q 928 2378 1081 2264 
Q 1234 2150 1697 2047 
L 1894 2003 
Q 2506 1872 2764 1633 
Q 3022 1394 3022 966 
Q 3022 478 2636 193 
Q 2250 -91 1575 -91 
Q 1294 -91 989 -36 
Q 684 19 347 128 
L 347 722 
Q 666 556 975 473 
Q 1284 391 1588 391 
Q 1994 391 2212 530 
Q 2431 669 2431 922 
Q 2431 1156 2273 1281 
Q 2116 1406 1581 1522 
L 1381 1569 
Q 847 1681 609 1914 
Q 372 2147 372 2553 
Q 372 3047 722 3315 
Q 1072 3584 1716 3584 
Q 2034 3584 2315 3537 
Q 2597 3491 2834 3397 
z
" transform="scale(0.015625)"/>
       <path id="DejaVuSans-29" d="M 513 4856 
L 1013 4856 
Q 1481 4119 1714 3412 
Q 1947 2706 1947 2009 
Q 1947 1309 1714 600 
Q 1481 -109 1013 -844 
L 513 -844 
Q 928 -128 1133 580 
Q 1338 1288 1338 2009 
Q 1338 2731 1133 3434 
Q 928 4138 513 4856 
z
" transform="scale(0.015625)"/>
      </defs>
      <use xlink:href="#DejaVuSans-54"/>
      <use xlink:href="#DejaVuSans-69" x="57.958984"/>
      <use xlink:href="#DejaVuSans-6d" x="85.742188"/>
      <use xlink:href="#DejaVuSans-65" x="183.154297"/>
      <use xlink:href="#DejaVuSans-20" x="244.677734"/>
      <use xlink:href="#DejaVuSans-28" x="276.464844"/>
      <use xlink:href="#DejaVuSans-6e" x="315.478516"/>
      <use xlink:href="#DejaVuSans-73" x="378.857422"/>
      <use xlink:href="#DejaVuSans-29" x="430.957031"/>
     </g>
    </g>
   </g>
   <g id="matplotlib.axis_2">
    <g id="ytick_1">
     <g id="line2d_23">
      <defs>
       <path id="m4c52e74a61" d="M 0 0 
L -3.5 0 
" style="stroke: #000000; stroke-width: 0.8"/>
      </defs>
      <g>
       <use xlink:href="#m4c52e74a61" x="72" y="308.067278" style="stroke: #000000; stroke-width: 0.8"/>
      </g>
     </g>
     <g id="text_13">
      <!-- 0.0 -->
      <g transform="translate(42.735625 313.386184) scale(0.14 -0.14)">
       <defs>
        <path id="DejaVuSans-2e" d="M 684 794 
L 1344 794 
L 1344 0 
L 684 0 
L 684 794 
z
" transform="scale(0.015625)"/>
       </defs>
       <use xlink:href="#DejaVuSans-30"/>
       <use xlink:href="#DejaVuSans-2e" x="63.623047"/>
       <use xlink:href="#DejaVuSans-30" x="95.410156"/>
      </g>
     </g>
    </g>
    <g id="ytick_2">
     <g id="line2d_24">
      <g>
       <use xlink:href="#m4c52e74a61" x="72" y="254.622383" style="stroke: #000000; stroke-width: 0.8"/>
      </g>
     </g>
     <g id="text_14">
      <!-- 0.1 -->
      <g transform="translate(42.735625 259.94129) scale(0.14 -0.14)">
       <use xlink:href="#DejaVuSans-30"/>
       <use xlink:href="#DejaVuSans-2e" x="63.623047"/>
       <use xlink:href="#DejaVuSans-31" x="95.410156"/>
      </g>
     </g>
    </g>
    <g id="ytick_3">
     <g id="line2d_25">
      <g>
       <use xlink:href="#m4c52e74a61" x="72" y="201.177489" style="stroke: #000000; stroke-width: 0.8"/>
      </g>
     </g>
     <g id="text_15">
      <!-- 0.2 -->
      <g transform="translate(42.735625 206.496395) scale(0.14 -0.14)">
       <use xlink:href="#DejaVuSans-30"/>
       <use xlink:href="#DejaVuSans-2e" x="63.623047"/>
       <use xlink:href="#DejaVuSans-32" x="95.410156"/>
      </g>
     </g>
    </g>
    <g id="ytick_4">
     <g id="line2d_26">
      <g>
       <use xlink:href="#m4c52e74a61" x="72" y="147.732594" style="stroke: #000000; stroke-width: 0.8"/>
      </g>
     </g>
     <g id="text_16">
      <!-- 0.3 -->
      <g transform="translate(42.735625 153.0515) scale(0.14 -0.14)">
       <use xlink:href="#DejaVuSans-30"/>
       <use xlink:href="#DejaVuSans-2e" x="63.623047"/>
       <use xlink:href="#DejaVuSans-33" x="95.410156"/>
      </g>
     </g>
    </g>
    <g id="ytick_5">
     <g id="line2d_27">
      <g>
       <use xlink:href="#m4c52e74a61" x="72" y="94.2877" style="stroke: #000000; stroke-width: 0.8"/>
      </g>
     </g>
     <g id="text_17">
      <!-- 0.4 -->
      <g transform="translate(42.735625 99.606606) scale(0.14 -0.14)">
       <use xlink:href="#DejaVuSans-30"/>
       <use xlink:href="#DejaVuSans-2e" x="63.623047"/>
       <use xlink:href="#DejaVuSans-34" x="95.410156"/>
      </g>
     </g>
    </g>
    <g id="text_18">
     <!-- RMSD (nm) -->
     <g transform="translate(34.992188 232.815937) rotate(-90) scale(0.18 -0.18)">
      <defs>
       <path id="DejaVuSans-52" d="M 2841 2188 
Q 3044 2119 3236 1894 
Q 3428 1669 3622 1275 
L 4263 0 
L 3584 0 
L 2988 1197 
Q 2756 1666 2539 1819 
Q 2322 1972 1947 1972 
L 1259 1972 
L 1259 0 
L 628 0 
L 628 4666 
L 2053 4666 
Q 2853 4666 3247 4331 
Q 3641 3997 3641 3322 
Q 3641 2881 3436 2590 
Q 3231 2300 2841 2188 
z
M 1259 4147 
L 1259 2491 
L 2053 2491 
Q 2509 2491 2742 2702 
Q 2975 2913 2975 3322 
Q 2975 3731 2742 3939 
Q 2509 4147 2053 4147 
L 1259 4147 
z
" transform="scale(0.015625)"/>
       <path id="DejaVuSans-4d" d="M 628 4666 
L 1569 4666 
L 2759 1491 
L 3956 4666 
L 4897 4666 
L 4897 0 
L 4281 0 
L 4281 4097 
L 3078 897 
L 2444 897 
L 1241 4097 
L 1241 0 
L 628 0 
L 628 4666 
z
" transform="scale(0.015625)"/>
       <path id="DejaVuSans-53" d="M 3425 4513 
L 3425 3897 
Q 3066 4069 2747 4153 
Q 2428 4238 2131 4238 
Q 1616 4238 1336 4038 
Q 1056 3838 1056 3469 
Q 1056 3159 1242 3001 
Q 1428 2844 1947 2747 
L 2328 2669 
Q 3034 2534 3370 2195 
Q 3706 1856 3706 1288 
Q 3706 609 3251 259 
Q 2797 -91 1919 -91 
Q 1588 -91 1214 -16 
Q 841 59 441 206 
L 441 856 
Q 825 641 1194 531 
Q 1563 422 1919 422 
Q 2459 422 2753 634 
Q 3047 847 3047 1241 
Q 3047 1584 2836 1778 
Q 2625 1972 2144 2069 
L 1759 2144 
Q 1053 2284 737 2584 
Q 422 2884 422 3419 
Q 422 4038 858 4394 
Q 1294 4750 2059 4750 
Q 2388 4750 2728 4690 
Q 3069 4631 3425 4513 
z
" transform="scale(0.015625)"/>
       <path id="DejaVuSans-44" d="M 1259 4147 
L 1259 519 
L 2022 519 
Q 2988 519 3436 956 
Q 3884 1394 3884 2338 
Q 3884 3275 3436 3711 
Q 2988 4147 2022 4147 
L 1259 4147 
z
M 628 4666 
L 1925 4666 
Q 3281 4666 3915 4102 
Q 4550 3538 4550 2338 
Q 4550 1131 3912 565 
Q 3275 0 1925 0 
L 628 0 
L 628 4666 
z
" transform="scale(0.015625)"/>
      </defs>
      <use xlink:href="#DejaVuSans-52"/>
      <use xlink:href="#DejaVuSans-4d" x="69.482422"/>
      <use xlink:href="#DejaVuSans-53" x="155.761719"/>
      <use xlink:href="#DejaVuSans-44" x="219.238281"/>
      <use xlink:href="#DejaVuSans-20" x="296.240234"/>
      <use xlink:href="#DejaVuSans-28" x="328.027344"/>
      <use xlink:href="#DejaVuSans-6e" x="367.041016"/>
      <use xlink:href="#DejaVuSans-6d" x="430.419922"/>
      <use xlink:href="#DejaVuSans-29" x="527.832031"/>
     </g>
    </g>
   </g>
   <g id="line2d_28">
    <path d="M 96.349091 218.152772 
L 96.754909 215.288763 
L 97.160727 213.758504 
L 98.784 210.367695 
L 99.189818 209.793626 
L 99.595636 208.963821 
L 101.218909 206.833153 
L 102.030545 206.162111 
L 102.436364 205.871715 
L 102.842182 205.805492 
L 103.653818 205.892865 
L 104.059636 206.234932 
L 107.306182 205.079939 
L 107.712 204.82979 
L 108.929455 203.395841 
L 110.146909 202.812758 
L 110.958545 202.100886 
L 111.364364 201.986501 
L 112.581818 200.62953 
L 113.393455 200.204009 
L 113.799273 199.680334 
L 115.016727 198.896795 
L 115.828364 197.934346 
L 116.234182 197.639983 
L 116.64 197.495651 
L 117.045818 197.56184 
L 117.857455 197.086593 
L 118.263273 196.518993 
L 118.669091 196.176165 
L 119.480727 194.227437 
L 119.886545 193.710482 
L 120.292364 192.398356 
L 120.698182 192.048775 
L 121.104 191.253994 
L 121.915636 190.265731 
L 122.727273 188.941551 
L 124.756364 185.551102 
L 125.162182 184.620485 
L 126.785455 179.429457 
L 127.191273 177.170852 
L 127.597091 175.661025 
L 128.408727 173.785653 
L 128.814545 172.779483 
L 130.032 171.251008 
L 132.872727 165.507921 
L 133.684364 163.487032 
L 134.090182 162.517993 
L 134.901818 161.510475 
L 135.307636 161.542473 
L 135.713455 161.425405 
L 136.119273 160.85552 
L 136.525091 160.954234 
L 136.930909 160.339798 
L 137.336727 160.074258 
L 138.148364 159.153073 
L 138.554182 159.076229 
L 138.96 159.160955 
L 139.365818 158.708525 
L 140.177455 158.579742 
L 140.989091 157.958498 
L 141.394909 157.80643 
L 141.800727 158.20588 
L 142.206545 158.076307 
L 143.018182 158.84035 
L 143.424 159.834919 
L 143.829818 159.970565 
L 144.235636 159.766456 
L 145.047273 159.763999 
L 145.453091 159.206302 
L 145.858909 158.437166 
L 146.670545 157.799818 
L 147.888 155.848541 
L 148.293818 155.468947 
L 149.105455 154.044222 
L 149.511273 153.858078 
L 149.917091 153.510655 
L 150.728727 152.568904 
L 152.757818 148.084334 
L 153.569455 146.945029 
L 154.381091 145.592846 
L 155.192727 143.490343 
L 155.598545 143.065431 
L 156.004364 141.718858 
L 156.410182 140.938838 
L 156.816 140.527453 
L 157.221818 140.466906 
L 157.627636 140.185705 
L 158.033455 139.740465 
L 158.845091 139.762239 
L 160.062545 140.554136 
L 160.468364 141.215697 
L 160.874182 141.465408 
L 161.685818 142.608723 
L 162.091636 143.17038 
L 162.497455 143.271539 
L 162.903273 143.621164 
L 163.309091 144.721026 
L 163.714909 145.481237 
L 164.120727 146.536859 
L 164.526545 146.810452 
L 164.932364 147.617793 
L 165.338182 148.815785 
L 166.555636 151.131469 
L 167.367273 151.948921 
L 167.773091 152.414609 
L 168.178909 153.056901 
L 168.584727 153.937049 
L 168.990545 154.270491 
L 169.396364 155.243885 
L 169.802182 155.683353 
L 170.208 155.817015 
L 170.613818 156.118197 
L 173.048727 159.373555 
L 173.454545 159.332436 
L 173.860364 159.475887 
L 174.672 159.439978 
L 175.077818 159.172729 
L 175.483636 159.267981 
L 176.701091 158.335714 
L 177.106909 157.685199 
L 177.512727 157.480515 
L 178.324364 156.347592 
L 178.730182 156.434795 
L 179.541818 155.507407 
L 179.947636 154.70633 
L 180.353455 154.367222 
L 181.165091 153.884402 
L 181.570909 153.380299 
L 182.788364 151.096206 
L 184.411636 146.470004 
L 184.817455 145.143129 
L 186.034909 142.558005 
L 186.440727 142.299636 
L 186.846545 141.426737 
L 187.658182 139.346839 
L 188.064 138.349238 
L 188.875636 137.618923 
L 189.281455 137.261525 
L 189.687273 137.06485 
L 190.904727 136.009932 
L 191.716364 134.575827 
L 192.122182 134.350657 
L 192.528 133.813021 
L 192.933818 132.669976 
L 193.339636 132.18748 
L 193.745455 131.116876 
L 194.557091 129.894211 
L 195.774545 126.114217 
L 196.180364 125.606489 
L 196.992 124.090699 
L 197.397818 123.027172 
L 197.803636 122.716857 
L 198.209455 122.102321 
L 198.615273 121.925825 
L 199.021091 122.00087 
L 199.426909 122.333742 
L 199.832727 122.818506 
L 200.238545 122.816741 
L 201.050182 123.74103 
L 201.456 124.07723 
L 201.861818 124.215257 
L 202.673455 125.274626 
L 203.079273 126.088914 
L 203.485091 127.688149 
L 204.296727 129.728298 
L 204.702545 130.51073 
L 205.514182 131.10756 
L 205.92 131.41583 
L 206.325818 131.930111 
L 206.731636 132.081849 
L 207.137455 132.506348 
L 207.543273 133.535862 
L 208.354909 134.21415 
L 208.760727 134.761855 
L 209.572364 136.737762 
L 210.789818 139.588147 
L 211.195636 140.843374 
L 211.601455 141.723068 
L 212.007273 143.071792 
L 212.818909 143.779433 
L 213.630545 145.732288 
L 214.036364 145.78811 
L 214.848 146.245863 
L 215.659636 145.659599 
L 216.877091 145.084406 
L 217.282909 144.86248 
L 217.688727 144.81147 
L 218.094545 144.22973 
L 218.500364 143.192895 
L 219.312 141.814938 
L 219.717818 140.979295 
L 220.123636 140.546531 
L 220.529455 139.62611 
L 221.746909 136.138495 
L 223.370182 133.296825 
L 224.181818 131.162161 
L 224.587636 130.524889 
L 225.805091 126.702839 
L 227.022545 122.361104 
L 227.428364 121.056435 
L 228.24 120.170831 
L 228.645818 120.112648 
L 229.457455 118.337815 
L 231.080727 114.854432 
L 231.486545 114.826006 
L 233.109818 116.253264 
L 233.515636 115.967136 
L 233.921455 115.478067 
L 234.327273 115.692942 
L 234.733091 115.641666 
L 235.950545 113.886475 
L 236.356364 113.052679 
L 236.762182 112.768273 
L 237.168 112.646329 
L 237.573818 112.018345 
L 237.979636 112.268719 
L 238.385455 111.504175 
L 239.197091 111.711155 
L 239.602909 111.377517 
L 240.008727 111.942067 
L 240.414545 113.073456 
L 242.443636 116.403071 
L 243.255273 116.898709 
L 244.066909 116.965687 
L 244.472727 116.642145 
L 244.878545 116.464463 
L 245.690182 117.413069 
L 247.719273 120.497959 
L 248.530909 121.335571 
L 249.342545 121.715645 
L 250.154182 123.639376 
L 250.56 124.023771 
L 251.371636 125.798875 
L 251.777455 126.399887 
L 252.183273 126.522858 
L 252.589091 126.890904 
L 253.400727 127.968321 
L 253.806545 129.165581 
L 254.212364 129.696869 
L 254.618182 130.457203 
L 255.429818 130.222048 
L 255.835636 130.659452 
L 256.241455 130.617775 
L 256.647273 129.69695 
L 257.053091 129.059599 
L 257.458909 129.067061 
L 257.864727 128.962336 
L 258.676364 129.295609 
L 259.082182 130.225256 
L 259.893818 131.582681 
L 261.517091 131.073369 
L 261.922909 130.504859 
L 262.328727 130.551784 
L 262.734545 130.034987 
L 263.140364 130.050299 
L 264.357818 127.745304 
L 264.763636 127.235144 
L 265.169455 127.289466 
L 265.981091 126.287387 
L 266.386909 126.17514 
L 267.198545 124.976004 
L 267.604364 124.55954 
L 268.010182 124.722043 
L 268.416 125.451738 
L 269.227636 125.490998 
L 269.633455 125.602596 
L 270.039273 125.489575 
L 270.445091 125.029128 
L 270.850909 125.228707 
L 271.662545 124.848124 
L 272.88 123.894059 
L 273.285818 123.602235 
L 273.691636 123.079714 
L 274.097455 123.54903 
L 274.503273 123.040381 
L 274.909091 122.739474 
L 275.314909 122.724459 
L 275.720727 121.95507 
L 276.126545 121.621226 
L 276.532364 121.449776 
L 276.938182 121.709054 
L 277.344 121.803622 
L 277.749818 121.746964 
L 278.155636 121.350465 
L 278.561455 120.498538 
L 278.967273 120.908622 
L 279.373091 121.160737 
L 279.778909 121.774558 
L 280.590545 122.303973 
L 281.402182 122.016923 
L 281.808 122.127821 
L 283.025455 121.414862 
L 283.837091 121.135402 
L 284.242909 120.905212 
L 284.648727 120.833259 
L 285.460364 120.328487 
L 285.866182 119.756283 
L 286.272 119.601633 
L 286.677818 119.965474 
L 287.083636 119.773346 
L 287.895273 120.490952 
L 288.301091 120.687921 
L 288.706909 121.119043 
L 289.924364 123.353552 
L 290.330182 123.526402 
L 290.736 124.330941 
L 291.141818 124.881536 
L 291.547636 125.185746 
L 291.953455 126.087664 
L 292.359273 126.647747 
L 293.982545 128.185344 
L 294.794182 130.224903 
L 295.2 130.618752 
L 295.605818 130.525452 
L 296.011636 130.625958 
L 296.417455 131.324637 
L 297.634909 132.107692 
L 298.040727 132.130934 
L 298.852364 133.379079 
L 299.258182 134.274053 
L 299.664 134.743285 
L 300.069818 135.464363 
L 300.475636 135.574181 
L 300.881455 136.015261 
L 301.287273 136.776854 
L 301.693091 136.994014 
L 302.098909 137.356454 
L 302.504727 137.419941 
L 302.910545 136.758894 
L 303.722182 137.10449 
L 304.128 136.984764 
L 304.533818 136.606455 
L 304.939636 135.900063 
L 306.157091 134.485258 
L 306.562909 133.292083 
L 306.968727 131.566665 
L 307.374545 130.603813 
L 308.592 125.178171 
L 309.403636 122.246211 
L 309.809455 120.505762 
L 310.215273 119.355072 
L 310.621091 117.426749 
L 311.026909 116.576361 
L 311.838545 114.178867 
L 312.244364 113.373167 
L 313.867636 107.740627 
L 314.273455 106.260319 
L 315.896727 98.63739 
L 317.52 93.925081 
L 317.925818 93.416939 
L 318.331636 93.323856 
L 318.737455 92.36064 
L 319.143273 92.671809 
L 320.360727 90.928044 
L 320.766545 90.688108 
L 321.172364 90.91538 
L 321.984 90.230897 
L 322.389818 90.01695 
L 322.795636 90.515451 
L 323.201455 91.418441 
L 323.607273 91.311754 
L 324.824727 92.719497 
L 326.042182 94.201633 
L 326.448 94.340319 
L 326.853818 95.059648 
L 327.259636 94.711604 
L 327.665455 94.87028 
L 328.071273 95.682414 
L 328.477091 95.805667 
L 328.882909 96.231897 
L 329.694545 98.061693 
L 330.100364 98.385214 
L 330.506182 99.218686 
L 330.912 100.336036 
L 331.317818 100.755613 
L 331.723636 102.272943 
L 332.129455 103.284411 
L 332.535273 102.985053 
L 333.346909 103.764261 
L 333.752727 104.148381 
L 334.564364 104.596076 
L 334.970182 105.59747 
L 335.376 106.08683 
L 335.781818 106.777542 
L 336.593455 107.227922 
L 336.999273 107.766944 
L 337.405091 107.978076 
L 337.810909 108.472353 
L 338.216727 108.523811 
L 339.028364 109.243799 
L 339.434182 108.933494 
L 339.84 109.251088 
L 341.057455 111.411323 
L 341.869091 113.076064 
L 342.680727 114.360353 
L 343.086545 115.338477 
L 344.304 117.065097 
L 344.709818 117.444718 
L 345.115636 117.190408 
L 345.927273 115.575225 
L 346.333091 115.247064 
L 346.738909 115.074354 
L 347.144727 114.539887 
L 347.550545 114.717653 
L 348.362182 113.727171 
L 348.768 113.996303 
L 349.579636 113.434878 
L 349.985455 112.701529 
L 350.391273 112.278109 
L 351.202909 110.55191 
L 352.014545 108.319567 
L 353.637818 105.623294 
L 354.043636 104.626145 
L 354.855273 103.42035 
L 355.261091 102.247008 
L 355.666909 101.826026 
L 356.072727 101.966046 
L 356.478545 101.329692 
L 356.884364 101.203067 
L 358.507636 99.592958 
L 358.913455 99.108914 
L 359.319273 98.429454 
L 359.725091 98.02057 
L 360.130909 97.282606 
L 360.536727 96.77884 
L 360.942545 96.904924 
L 361.754182 98.682564 
L 362.565818 100.607954 
L 363.377455 101.592732 
L 364.189091 102.296314 
L 364.594909 102.864795 
L 365.000727 103.16991 
L 365.406545 103.721529 
L 365.812364 103.602207 
L 366.218182 104.503046 
L 367.841455 106.599505 
L 369.058909 109.04083 
L 369.870545 110.380675 
L 370.682182 112.628194 
L 371.088 113.299922 
L 371.899636 115.785215 
L 372.305455 115.859022 
L 372.711273 116.67282 
L 373.117091 116.700718 
L 373.522909 117.072752 
L 373.928727 116.957482 
L 375.146182 118.883751 
L 376.363636 119.983076 
L 376.769455 120.097337 
L 377.175273 120.337853 
L 377.986909 120.215189 
L 378.392727 119.892968 
L 378.798545 120.09011 
L 379.204364 119.544723 
L 380.016 119.612683 
L 380.421818 120.078393 
L 381.233455 121.667853 
L 382.045091 123.527185 
L 382.450909 123.198153 
L 382.856727 123.531229 
L 383.262545 123.439798 
L 383.668364 123.926421 
L 384.074182 124.588103 
L 384.885818 125.020501 
L 385.291636 125.625572 
L 386.103273 126.514986 
L 386.509091 126.347411 
L 386.914909 126.481607 
L 387.320727 126.800924 
L 387.726545 127.279834 
L 388.132364 127.538809 
L 388.538182 127.993201 
L 388.944 127.801601 
L 389.349818 128.458985 
L 389.755636 128.524837 
L 390.161455 129.185379 
L 390.567273 129.029148 
L 391.378909 129.071069 
L 392.596364 129.737054 
L 393.002182 130.578635 
L 393.408 130.65338 
L 393.813818 131.185165 
L 394.219636 131.324946 
L 394.625455 132.636156 
L 395.031273 133.216458 
L 395.842909 136.127119 
L 396.248727 137.063674 
L 397.060364 137.001626 
L 397.466182 137.51556 
L 397.872 137.719335 
L 398.683636 138.932307 
L 399.089455 139.205107 
L 399.495273 139.997303 
L 399.901091 140.061429 
L 400.712727 140.861668 
L 401.118545 140.820615 
L 401.930182 141.366717 
L 402.336 141.470938 
L 403.147636 142.873873 
L 403.553455 143.444551 
L 404.365091 143.259441 
L 405.176727 143.997678 
L 405.582545 143.360045 
L 406.394182 142.648682 
L 406.8 142.813519 
L 407.205818 143.390585 
L 408.017455 143.935598 
L 408.423273 144.413769 
L 408.829091 144.675137 
L 409.234909 144.355294 
L 409.640727 144.365975 
L 410.046545 143.519263 
L 410.452364 143.535314 
L 410.858182 143.128402 
L 411.264 142.979873 
L 411.669818 142.493509 
L 412.481455 141.034085 
L 413.293091 141.088612 
L 413.698909 140.409833 
L 414.104727 139.970801 
L 414.916364 138.292574 
L 415.322182 137.665937 
L 415.728 137.264408 
L 416.133818 137.143746 
L 416.945455 136.33229 
L 417.351273 136.577923 
L 417.757091 135.876594 
L 418.162909 135.713757 
L 418.568727 135.413587 
L 419.786182 132.918713 
L 420.192 132.770638 
L 420.597818 132.414801 
L 421.003636 131.741493 
L 421.409455 131.318724 
L 421.815273 131.773146 
L 422.221091 132.428168 
L 422.626909 132.371034 
L 423.032727 132.591426 
L 423.438545 132.538014 
L 423.844364 132.626715 
L 424.250182 132.302752 
L 424.656 132.5189 
L 425.873455 132.0297 
L 426.685091 132.346681 
L 427.090909 132.017343 
L 427.496727 131.523832 
L 427.902545 131.351089 
L 428.308364 130.969511 
L 428.714182 131.214597 
L 429.12 131.073466 
L 429.525818 130.523517 
L 429.931636 130.271617 
L 430.337455 130.499979 
L 430.743273 130.959617 
L 431.554909 132.183866 
L 431.960727 132.402853 
L 432.366545 132.278178 
L 432.772364 132.396141 
L 433.178182 132.739825 
L 433.584 132.156134 
L 434.801455 132.377193 
L 435.207273 132.902869 
L 435.613091 133.084502 
L 436.424727 134.180536 
L 436.830545 134.516964 
L 437.236364 135.017105 
L 437.642182 135.962758 
L 438.048 136.351938 
L 438.453818 136.313432 
L 438.859636 136.749893 
L 439.265455 136.761516 
L 439.671273 136.601017 
L 440.482909 137.188005 
L 440.888727 136.824957 
L 442.106182 136.52098 
L 442.917818 137.130145 
L 443.729455 137.30765 
L 444.135273 136.974449 
L 444.541091 137.216073 
L 444.946909 137.194813 
L 445.758545 138.381803 
L 446.164364 138.667351 
L 446.570182 138.430955 
L 446.976 138.434798 
L 447.381818 138.221176 
L 448.193455 138.685504 
L 448.599273 138.810193 
L 449.410909 138.774142 
L 450.222545 140.001532 
L 450.628364 140.067285 
L 451.034182 140.321714 
L 451.44 140.298813 
L 452.251636 140.455005 
L 452.657455 140.375872 
L 453.469091 140.933221 
L 453.874909 140.744736 
L 454.280727 140.784985 
L 454.686545 141.159811 
L 455.092364 141.128184 
L 455.498182 141.583747 
L 456.715636 142.239824 
L 457.527273 143.112008 
L 457.933091 143.3544 
L 458.338909 143.786851 
L 458.744727 144.428476 
L 459.150545 144.542826 
L 459.962182 144.294169 
L 461.179636 145.834479 
L 461.585455 145.298549 
L 461.991273 145.179626 
L 462.802909 145.29455 
L 464.426182 143.366399 
L 464.832 143.099164 
L 465.643636 142.111616 
L 466.049455 141.880126 
L 466.455273 141.288175 
L 466.861091 140.956071 
L 468.484364 139.100911 
L 468.890182 138.03613 
L 469.296 137.734575 
L 470.107636 136.391708 
L 470.513455 136.165414 
L 470.919273 135.286193 
L 471.325091 134.808894 
L 472.542545 132.611088 
L 474.977455 127.308559 
L 475.383273 126.595084 
L 475.789091 126.412814 
L 476.194909 127.0335 
L 476.600727 127.053164 
L 477.412364 126.145005 
L 477.818182 125.75773 
L 478.224 125.00961 
L 478.629818 124.739956 
L 479.441455 124.830262 
L 479.847273 125.576747 
L 481.470545 127.170708 
L 481.876364 127.63184 
L 482.688 128.127768 
L 483.093818 127.929162 
L 483.499636 127.910396 
L 484.311273 127.550593 
L 484.717091 127.634124 
L 485.122909 128.674834 
L 485.528727 128.582595 
L 485.934545 128.914271 
L 486.340364 128.913146 
L 486.340364 128.913146 
" clip-path="url(#p9b9a322128)" style="fill: none; stroke: #3aa63a; stroke-width: 0.8; stroke-linecap: square"/>
   </g>
   <g id="line2d_29">
    <path d="M 92.290909 307.8 
L 92.696727 257.542559 
L 93.102545 240.45334 
L 93.508364 238.068415 
L 93.914182 241.622447 
L 94.32 233.646331 
L 94.725818 231.046718 
L 95.131636 237.331624 
L 95.537455 228.301735 
L 95.943273 222.43589 
L 96.349091 223.52467 
L 97.160727 216.504362 
L 97.566545 216.41233 
L 97.972364 216.5802 
L 98.378182 210.88089 
L 98.784 211.154689 
L 99.189818 207.87857 
L 99.595636 199.881076 
L 100.407273 212.003126 
L 100.813091 206.077317 
L 101.218909 210.898153 
L 101.624727 205.057535 
L 102.030545 207.930305 
L 102.436364 203.504533 
L 102.842182 212.310808 
L 103.248 212.448589 
L 103.653818 217.596615 
L 104.465455 210.06329 
L 104.871273 211.31652 
L 105.277091 205.881815 
L 105.682909 207.306122 
L 106.088727 205.251433 
L 106.494545 207.841105 
L 106.900364 196.299947 
L 107.306182 197.744296 
L 107.712 210.461455 
L 108.117818 205.468205 
L 108.523636 193.239639 
L 108.929455 196.332175 
L 109.335273 204.309947 
L 109.741091 203.773574 
L 110.146909 206.669059 
L 110.552727 203.405606 
L 110.958545 208.083959 
L 111.364364 204.139405 
L 111.770182 205.584181 
L 112.176 205.063467 
L 112.581818 199.449508 
L 112.987636 199.042686 
L 113.393455 199.98198 
L 113.799273 206.093029 
L 114.205091 204.96438 
L 114.610909 208.231948 
L 115.016727 213.227388 
L 115.422545 209.300792 
L 115.828364 213.563771 
L 116.234182 200.608942 
L 117.045818 204.52207 
L 117.451636 208.024795 
L 117.857455 196.594963 
L 118.263273 198.652057 
L 118.669091 201.411951 
L 119.074909 205.232193 
L 119.480727 202.442636 
L 119.886545 198.692087 
L 120.292364 189.743916 
L 120.698182 195.343711 
L 121.104 203.547289 
L 121.509818 198.822172 
L 121.915636 198.811697 
L 122.321455 191.528761 
L 122.727273 193.088871 
L 123.133091 191.724583 
L 123.538909 178.803799 
L 123.944727 193.921756 
L 124.350545 186.669551 
L 124.756364 183.044758 
L 125.162182 189.506193 
L 125.568 183.362969 
L 125.973818 193.58484 
L 126.379636 192.294466 
L 126.785455 196.627351 
L 127.191273 185.849012 
L 127.597091 187.876391 
L 128.408727 199.290189 
L 128.814545 202.097062 
L 129.220364 189.049399 
L 129.626182 190.965399 
L 130.032 183.388997 
L 130.437818 191.251275 
L 130.843636 166.467114 
L 131.655273 188.622588 
L 132.061091 161.078746 
L 132.466909 186.625673 
L 132.872727 170.745699 
L 133.278545 186.234991 
L 133.684364 186.781358 
L 134.090182 173.275352 
L 134.496 169.004464 
L 134.901818 174.928403 
L 135.307636 183.349501 
L 135.713455 173.653101 
L 136.525091 162.491188 
L 137.336727 154.221766 
L 137.742545 163.171488 
L 138.148364 138.262693 
L 138.554182 129.41286 
L 138.96 102.744659 
L 139.365818 131.331532 
L 139.771636 144.981251 
L 140.177455 152.729425 
L 140.583273 146.422713 
L 140.989091 163.755855 
L 141.394909 170.01174 
L 141.800727 161.007344 
L 142.206545 161.002534 
L 142.612364 161.915533 
L 143.018182 158.040618 
L 143.424 159.078999 
L 143.829818 156.441921 
L 144.235636 161.790098 
L 144.641455 161.338756 
L 145.453091 153.438425 
L 145.858909 152.203847 
L 146.264727 159.901836 
L 146.670545 174.437725 
L 147.076364 167.747012 
L 147.482182 172.360376 
L 147.888 165.827218 
L 148.293818 165.027309 
L 148.699636 162.048237 
L 149.105455 160.12406 
L 149.917091 170.838479 
L 150.322909 170.201576 
L 150.728727 172.393511 
L 151.134545 156.831213 
L 151.540364 181.590683 
L 151.946182 170.260579 
L 152.352 152.879605 
L 152.757818 152.244466 
L 153.163636 152.036298 
L 153.569455 170.199759 
L 153.975273 157.988562 
L 154.381091 156.074006 
L 154.786909 142.163262 
L 155.192727 142.527435 
L 155.598545 136.757364 
L 156.004364 136.816902 
L 156.410182 151.189089 
L 156.816 147.864763 
L 157.221818 141.447956 
L 157.627636 139.246293 
L 158.033455 149.618397 
L 158.439273 146.897571 
L 158.845091 134.982673 
L 159.250909 138.161308 
L 159.656727 127.840084 
L 160.062545 141.258173 
L 160.468364 134.890481 
L 160.874182 131.249387 
L 161.28 149.42669 
L 162.091636 132.328172 
L 162.497455 142.107466 
L 162.903273 137.14035 
L 163.309091 134.775147 
L 163.714909 135.51461 
L 164.120727 124.305612 
L 164.526545 134.281102 
L 164.932364 135.154231 
L 165.338182 141.445871 
L 165.744 139.836592 
L 166.149818 142.245086 
L 166.555636 124.445371 
L 166.961455 134.049579 
L 167.367273 139.834721 
L 167.773091 127.727796 
L 168.178909 139.05977 
L 168.584727 136.424189 
L 168.990545 149.82261 
L 169.396364 140.788232 
L 169.802182 152.390156 
L 170.208 156.813256 
L 170.613818 158.120304 
L 171.019636 151.066807 
L 171.425455 149.454856 
L 171.831273 152.602279 
L 172.237091 163.27934 
L 172.642909 161.177512 
L 173.048727 173.64642 
L 173.454545 161.398881 
L 173.860364 161.712603 
L 174.266182 153.664764 
L 174.672 160.88255 
L 175.077818 178.977174 
L 175.483636 168.569743 
L 175.889455 170.064971 
L 176.295273 152.20187 
L 177.106909 179.169041 
L 177.512727 179.928333 
L 177.918545 162.818805 
L 178.324364 171.176625 
L 178.730182 156.669329 
L 179.136 155.276555 
L 179.541818 153.40267 
L 179.947636 161.206319 
L 180.353455 159.511528 
L 180.759273 147.618756 
L 181.165091 174.090013 
L 181.976727 145.183059 
L 182.382545 154.292367 
L 182.788364 147.040216 
L 183.194182 158.349209 
L 183.6 160.329289 
L 184.005818 149.965896 
L 184.411636 157.604401 
L 184.817455 158.466734 
L 185.223273 148.177844 
L 185.629091 146.526289 
L 186.034909 149.919185 
L 186.440727 157.847842 
L 186.846545 147.430363 
L 187.252364 154.876894 
L 187.658182 137.3971 
L 188.064 144.161567 
L 188.469818 146.487114 
L 188.875636 135.156904 
L 189.281455 165.45909 
L 189.687273 140.659323 
L 190.093091 137.13522 
L 190.498909 157.152898 
L 190.904727 143.930738 
L 191.310545 158.833473 
L 191.716364 136.526643 
L 192.122182 156.500657 
L 192.528 144.750209 
L 192.933818 155.322998 
L 193.339636 159.004924 
L 194.557091 132.589785 
L 194.962909 113.020723 
L 195.368727 107.409383 
L 195.774545 114.977287 
L 196.180364 106.099395 
L 196.586182 106.436526 
L 196.992 110.870742 
L 197.397818 134.30713 
L 197.803636 132.150521 
L 198.209455 134.848313 
L 198.615273 119.37639 
L 199.021091 98.771085 
L 199.426909 123.422436 
L 199.832727 120.425246 
L 200.644364 145.208125 
L 201.050182 144.170813 
L 201.456 140.310862 
L 201.861818 132.395352 
L 202.267636 138.608428 
L 202.673455 141.092814 
L 203.079273 118.313905 
L 203.485091 126.629129 
L 203.890909 128.390299 
L 204.296727 122.656143 
L 204.702545 100.765328 
L 205.108364 115.857044 
L 205.514182 122.634925 
L 205.92 112.946114 
L 206.325818 115.941861 
L 206.731636 109.274877 
L 207.137455 107.493719 
L 207.543273 91.948737 
L 207.949091 116.217529 
L 208.354909 126.902767 
L 208.760727 113.716469 
L 209.166545 112.781931 
L 209.572364 146.592347 
L 209.978182 125.539922 
L 210.384 132.789027 
L 210.789818 135.591571 
L 211.195636 126.33561 
L 211.601455 126.799939 
L 212.007273 114.906686 
L 212.413091 126.10708 
L 212.818909 123.400416 
L 213.224727 124.31876 
L 214.036364 154.171849 
L 214.442182 155.201732 
L 214.848 151.9479 
L 215.253818 162.740508 
L 215.659636 167.37541 
L 216.065455 158.078243 
L 216.471273 164.446844 
L 216.877091 155.322785 
L 217.282909 157.929346 
L 217.688727 152.641668 
L 218.094545 152.96656 
L 218.500364 144.677951 
L 218.906182 158.072792 
L 219.312 159.494479 
L 219.717818 140.573383 
L 220.123636 141.577559 
L 220.529455 144.564327 
L 220.935273 144.741444 
L 221.746909 157.308369 
L 222.152727 157.560896 
L 222.558545 150.669017 
L 222.964364 159.483951 
L 223.370182 142.681517 
L 223.776 145.897671 
L 224.181818 131.167189 
L 224.587636 140.258753 
L 224.993455 156.667993 
L 225.399273 147.94461 
L 225.805091 148.825222 
L 226.210909 136.303671 
L 226.616727 140.335393 
L 227.022545 122.719528 
L 227.428364 115.757102 
L 227.834182 120.372656 
L 228.24 111.554195 
L 229.051636 114.52338 
L 229.457455 122.278341 
L 229.863273 116.558615 
L 230.269091 112.69845 
L 230.674909 131.298717 
L 231.080727 120.732607 
L 231.486545 129.314789 
L 231.892364 150.064876 
L 232.298182 121.261391 
L 232.704 115.80269 
L 233.109818 115.888576 
L 233.515636 106.503118 
L 233.921455 122.903272 
L 234.327273 118.016217 
L 234.733091 123.326502 
L 235.138909 130.446164 
L 235.544727 110.942679 
L 235.950545 103.738627 
L 236.356364 116.086696 
L 236.762182 95.748669 
L 237.168 97.749967 
L 237.573818 93.842343 
L 237.979636 95.329501 
L 238.385455 92.986103 
L 238.791273 103.553281 
L 239.197091 107.297202 
L 239.602909 124.868708 
L 240.008727 128.286295 
L 240.414545 128.839877 
L 240.820364 107.932074 
L 241.226182 118.00136 
L 241.632 111.538108 
L 242.037818 108.777519 
L 242.443636 95.232552 
L 242.849455 118.525387 
L 243.255273 121.582488 
L 244.066909 134.297296 
L 244.472727 121.885788 
L 244.878545 132.525651 
L 245.284364 103.078262 
L 245.690182 102.715585 
L 246.096 125.153623 
L 246.501818 110.647396 
L 246.907636 107.507401 
L 247.313455 98.67761 
L 247.719273 104.953483 
L 248.125091 116.713017 
L 248.530909 109.885164 
L 248.936727 110.924935 
L 249.342545 90.769208 
L 249.748364 116.51805 
L 250.154182 92.321515 
L 250.56 124.017812 
L 250.965818 125.60411 
L 251.371636 117.100653 
L 252.183273 148.994161 
L 252.589091 141.527214 
L 252.994909 124.187125 
L 253.400727 116.456481 
L 253.806545 126.234813 
L 254.212364 123.536166 
L 254.618182 101.624454 
L 255.024 114.740419 
L 255.429818 107.255622 
L 255.835636 127.589427 
L 256.241455 115.344614 
L 257.053091 126.53186 
L 257.458909 137.345793 
L 257.864727 137.46289 
L 258.270545 136.848167 
L 258.676364 123.086481 
L 259.082182 143.311846 
L 259.488 138.342273 
L 259.893818 147.529931 
L 260.299636 149.216545 
L 260.705455 129.286997 
L 261.111273 140.327376 
L 261.517091 147.933814 
L 261.922909 134.809298 
L 262.734545 147.671239 
L 263.140364 141.487719 
L 263.546182 122.718085 
L 263.952 109.872338 
L 264.357818 131.434841 
L 264.763636 131.058963 
L 265.169455 132.847817 
L 265.575273 138.659628 
L 265.981091 137.769557 
L 266.386909 122.734867 
L 266.792727 118.348965 
L 267.198545 121.866762 
L 267.604364 134.596801 
L 268.010182 131.857643 
L 268.416 112.161169 
L 268.821818 116.033144 
L 269.227636 124.485615 
L 269.633455 112.267471 
L 270.039273 134.678892 
L 270.445091 128.423007 
L 270.850909 138.810343 
L 271.256727 139.809709 
L 271.662545 136.483352 
L 272.474182 108.589927 
L 272.88 119.668573 
L 273.285818 119.38104 
L 273.691636 114.605418 
L 274.097455 139.339875 
L 274.503273 116.17627 
L 274.909091 123.698959 
L 275.314909 109.297431 
L 275.720727 106.086355 
L 276.126545 121.600499 
L 276.532364 128.810109 
L 276.938182 131.459906 
L 277.344 119.72159 
L 277.749818 128.45641 
L 278.155636 130.319446 
L 278.561455 112.694602 
L 278.967273 127.540578 
L 279.373091 124.829159 
L 279.778909 129.218214 
L 280.184727 139.060145 
L 280.590545 130.607781 
L 280.996364 133.456394 
L 281.402182 137.311748 
L 281.808 134.138778 
L 282.213818 119.351698 
L 282.619636 130.718038 
L 283.025455 112.977753 
L 283.431273 112.014623 
L 283.837091 120.511559 
L 284.242909 114.091491 
L 284.648727 105.849968 
L 285.054545 104.360192 
L 285.460364 103.58476 
L 285.866182 131.04015 
L 286.272 114.332902 
L 286.677818 116.386736 
L 287.083636 138.209729 
L 287.489455 109.034161 
L 287.895273 123.129611 
L 288.301091 116.328481 
L 288.706909 118.961016 
L 289.112727 123.451296 
L 289.518545 117.114709 
L 289.924364 98.745485 
L 290.330182 105.262769 
L 290.736 132.57963 
L 291.141818 133.783584 
L 291.547636 133.850283 
L 291.953455 117.583527 
L 292.359273 131.279904 
L 292.765091 124.394705 
L 293.170909 124.393316 
L 293.576727 124.157517 
L 293.982545 117.169757 
L 294.388364 115.77538 
L 294.794182 110.006965 
L 295.2 122.690882 
L 295.605818 118.500428 
L 296.011636 120.01062 
L 296.417455 136.18203 
L 296.823273 121.664312 
L 297.229091 122.208969 
L 297.634909 114.423598 
L 298.040727 127.952799 
L 298.446545 133.905331 
L 298.852364 123.032929 
L 299.258182 128.37325 
L 299.664 125.323364 
L 300.475636 131.336395 
L 300.881455 136.318902 
L 301.287273 139.515281 
L 301.693091 127.341069 
L 302.504727 146.514478 
L 302.910545 138.410522 
L 303.316364 150.378116 
L 303.722182 145.110908 
L 304.128 145.532909 
L 304.533818 131.135977 
L 304.939636 128.000792 
L 305.345455 142.096296 
L 305.751273 136.12634 
L 306.157091 142.581148 
L 306.562909 143.009455 
L 306.968727 148.333582 
L 307.374545 130.05158 
L 308.186182 145.530718 
L 309.403636 132.936803 
L 309.809455 125.087191 
L 310.215273 141.014143 
L 310.621091 141.856809 
L 311.026909 145.805906 
L 311.432727 141.460194 
L 311.838545 147.343515 
L 312.244364 124.403363 
L 312.650182 153.825205 
L 313.056 152.128063 
L 313.461818 130.895368 
L 313.867636 128.921167 
L 314.273455 130.492287 
L 314.679273 107.463469 
L 315.085091 130.348787 
L 315.490909 134.881235 
L 315.896727 120.534327 
L 316.302545 113.257911 
L 316.708364 103.080721 
L 317.114182 118.240579 
L 317.52 122.648553 
L 318.331636 90.22717 
L 318.737455 77.497772 
L 319.143273 99.896421 
L 319.549091 75.993566 
L 319.954909 69.474357 
L 320.360727 78.52835 
L 320.766545 75.794056 
L 321.172364 66.064306 
L 321.578182 72.478334 
L 321.984 90.098742 
L 322.389818 65.448246 
L 322.795636 108.993917 
L 323.201455 100.783606 
L 323.607273 81.701801 
L 324.013091 105.642495 
L 324.824727 75.856907 
L 325.230545 82.764179 
L 325.636364 80.579512 
L 326.042182 65.874897 
L 326.448 62.118843 
L 326.853818 77.409748 
L 327.259636 55.8 
L 327.665455 69.891281 
L 328.071273 96.626769 
L 328.477091 81.352592 
L 328.882909 100.881196 
L 329.288727 110.347249 
L 329.694545 110.569687 
L 330.100364 125.197822 
L 330.506182 91.963648 
L 330.912 119.910251 
L 331.317818 104.942955 
L 331.723636 106.219646 
L 332.535273 103.660491 
L 332.941091 112.17159 
L 333.346909 104.138181 
L 333.752727 109.371612 
L 334.158545 97.136045 
L 334.564364 110.167193 
L 334.970182 113.617382 
L 335.376 95.628953 
L 335.781818 93.635458 
L 336.187636 89.349926 
L 336.593455 97.32059 
L 336.999273 97.559062 
L 337.405091 88.526874 
L 337.810909 87.53622 
L 338.216727 95.646162 
L 338.622545 94.221428 
L 339.028364 95.072164 
L 339.434182 107.130615 
L 339.84 114.187158 
L 340.245818 110.572626 
L 340.651636 109.467813 
L 341.057455 114.92924 
L 341.463273 116.88372 
L 341.869091 93.520338 
L 342.274909 99.213769 
L 342.680727 106.812831 
L 343.086545 94.192835 
L 343.492364 116.493198 
L 343.898182 110.350028 
L 344.304 84.65244 
L 345.115636 113.115855 
L 345.521455 125.712068 
L 345.927273 117.631895 
L 346.333091 136.043394 
L 346.738909 132.019421 
L 347.144727 139.484657 
L 347.550545 132.5714 
L 347.956364 116.184447 
L 348.362182 112.901541 
L 348.768 125.221391 
L 349.173818 120.616846 
L 349.579636 123.909265 
L 349.985455 111.429936 
L 350.391273 114.632728 
L 350.797091 121.47004 
L 351.202909 101.205179 
L 351.608727 108.332697 
L 352.014545 119.964177 
L 352.420364 113.978402 
L 352.826182 132.772834 
L 353.232 133.56462 
L 353.637818 119.110929 
L 354.043636 114.190471 
L 354.449455 120.363464 
L 354.855273 133.346404 
L 355.261091 120.060805 
L 355.666909 130.012832 
L 356.072727 135.381105 
L 356.478545 125.757443 
L 356.884364 99.295433 
L 357.290182 85.256047 
L 357.696 81.949571 
L 358.101818 80.393897 
L 358.507636 92.305375 
L 358.913455 85.434179 
L 359.319273 101.303464 
L 360.130909 91.395262 
L 360.536727 95.417738 
L 360.942545 88.638093 
L 361.348364 102.306999 
L 361.754182 96.37809 
L 362.16 100.695101 
L 362.565818 101.609116 
L 363.377455 92.423702 
L 363.783273 90.338656 
L 364.189091 89.7242 
L 364.594909 86.406502 
L 365.000727 99.640259 
L 365.812364 84.02334 
L 366.218182 87.720177 
L 366.624 90.11066 
L 367.029818 74.53639 
L 367.435636 84.365869 
L 367.841455 113.933508 
L 368.247273 94.51003 
L 368.653091 108.913376 
L 369.058909 118.135186 
L 369.464727 119.667825 
L 369.870545 102.974045 
L 370.276364 94.45744 
L 371.088 106.168019 
L 371.493818 103.705438 
L 371.899636 100.494255 
L 372.711273 130.800824 
L 373.117091 131.757915 
L 373.522909 123.899164 
L 373.928727 118.898432 
L 374.334545 120.460626 
L 375.146182 104.382852 
L 375.552 112.693426 
L 375.957818 112.581994 
L 376.363636 114.134515 
L 376.769455 107.622308 
L 377.175273 110.702871 
L 377.581091 97.534103 
L 377.986909 132.411653 
L 378.392727 121.991235 
L 378.798545 118.380337 
L 379.204364 120.790168 
L 379.610182 114.83026 
L 380.016 126.065393 
L 380.827636 116.566311 
L 381.233455 124.169221 
L 381.639273 120.367151 
L 382.045091 134.304671 
L 382.450909 127.339626 
L 382.856727 116.97976 
L 383.262545 123.587634 
L 383.668364 134.726351 
L 384.074182 116.885804 
L 384.48 127.061926 
L 384.885818 110.029305 
L 385.291636 133.016542 
L 385.697455 115.057027 
L 386.103273 130.321049 
L 386.509091 123.385345 
L 386.914909 121.777562 
L 387.320727 120.628069 
L 387.726545 115.199671 
L 388.132364 118.512988 
L 388.538182 119.800903 
L 388.944 140.421439 
L 389.755636 120.013079 
L 390.161455 106.009608 
L 390.567273 128.346314 
L 390.973091 90.932322 
L 391.378909 106.421882 
L 391.784727 113.372818 
L 392.190545 131.210372 
L 392.596364 142.472975 
L 393.002182 142.862268 
L 393.408 148.121619 
L 394.219636 119.250367 
L 394.625455 135.314299 
L 395.031273 114.723103 
L 395.437091 140.255065 
L 395.842909 141.297562 
L 396.248727 132.621745 
L 396.654545 132.230208 
L 397.060364 140.769152 
L 397.466182 139.911629 
L 397.872 140.2013 
L 398.277818 127.601666 
L 398.683636 132.707471 
L 399.089455 129.752449 
L 399.495273 142.744048 
L 399.901091 145.085362 
L 400.306909 135.061451 
L 400.712727 119.397928 
L 401.118545 136.324674 
L 401.524364 135.650627 
L 401.930182 141.478686 
L 402.336 124.071844 
L 402.741818 125.458686 
L 403.147636 121.381054 
L 403.553455 129.894399 
L 403.959273 120.918542 
L 404.365091 130.167181 
L 404.770909 153.464131 
L 405.176727 143.411254 
L 405.582545 152.008827 
L 405.988364 125.604323 
L 406.394182 158.458022 
L 406.8 151.558393 
L 407.205818 158.040618 
L 407.611636 155.740029 
L 408.017455 150.835017 
L 408.423273 129.448882 
L 408.829091 141.752538 
L 409.234909 163.419633 
L 409.640727 156.272607 
L 410.046545 160.727613 
L 410.452364 141.530261 
L 410.858182 146.226303 
L 411.264 146.410955 
L 411.669818 142.8201 
L 412.075636 155.107776 
L 412.481455 150.821068 
L 412.887273 130.588113 
L 413.293091 152.381178 
L 413.698909 150.143654 
L 414.104727 144.370162 
L 414.510545 157.691676 
L 414.916364 158.734867 
L 415.322182 152.579565 
L 415.728 139.023909 
L 416.133818 141.401084 
L 416.539636 147.18767 
L 416.945455 136.801189 
L 417.351273 110.819381 
L 418.162909 129.399232 
L 418.568727 130.665341 
L 418.974545 148.541322 
L 419.380364 131.424633 
L 419.786182 141.651313 
L 420.192 140.045401 
L 420.597818 140.621911 
L 421.003636 140.670386 
L 421.409455 143.838492 
L 421.815273 118.14037 
L 422.221091 126.246357 
L 422.626909 142.18154 
L 423.032727 145.617245 
L 423.438545 138.586035 
L 423.844364 126.863058 
L 424.250182 121.335038 
L 424.656 128.817537 
L 425.061818 144.564969 
L 425.467636 136.26845 
L 425.873455 138.711363 
L 426.685091 111.19093 
L 427.496727 130.349802 
L 427.902545 137.993598 
L 428.308364 137.054839 
L 428.714182 136.415798 
L 429.12 140.413423 
L 429.525818 124.328006 
L 429.931636 143.630164 
L 430.337455 132.363392 
L 430.743273 124.947112 
L 431.149091 120.562011 
L 431.554909 123.702006 
L 431.960727 133.100932 
L 432.772364 120.255345 
L 433.178182 119.890423 
L 433.584 128.996257 
L 433.989818 145.476418 
L 434.395636 127.113874 
L 434.801455 139.481023 
L 435.207273 146.404863 
L 435.613091 134.972679 
L 436.018909 128.692797 
L 436.424727 148.691289 
L 436.830545 134.971396 
L 437.236364 138.876668 
L 438.048 124.448471 
L 438.453818 132.617523 
L 439.265455 125.876785 
L 439.671273 131.676305 
L 440.077091 111.599944 
L 440.482909 131.138489 
L 440.888727 123.172313 
L 441.294545 122.566997 
L 441.700364 126.192431 
L 442.106182 147.845844 
L 442.512 142.323383 
L 442.917818 139.900726 
L 443.323636 141.420966 
L 443.729455 139.109314 
L 444.135273 133.006602 
L 444.946909 150.163161 
L 445.352727 117.065807 
L 445.758545 127.818332 
L 446.164364 143.042805 
L 446.570182 138.302777 
L 446.976 145.97415 
L 447.381818 127.82731 
L 447.787636 147.958292 
L 448.193455 152.686027 
L 448.599273 140.62469 
L 449.005091 140.260998 
L 449.410909 157.716528 
L 449.816727 144.563472 
L 450.222545 143.936189 
L 450.628364 144.572291 
L 451.034182 139.94594 
L 451.44 139.984902 
L 451.845818 144.286521 
L 452.251636 142.858473 
L 452.657455 134.169402 
L 453.063273 130.675763 
L 453.469091 131.27798 
L 453.874909 131.449966 
L 454.686545 143.348937 
L 455.092364 132.991904 
L 455.498182 128.993104 
L 455.904 118.34827 
L 456.309818 121.264865 
L 456.715636 130.288127 
L 457.121455 145.688167 
L 457.527273 147.530733 
L 457.933091 137.614353 
L 458.338909 138.389999 
L 458.744727 142.47709 
L 459.150545 131.355849 
L 459.556364 152.102088 
L 459.962182 147.001308 
L 460.368 137.994186 
L 460.773818 141.631806 
L 461.179636 148.862633 
L 461.585455 142.720211 
L 461.991273 151.25953 
L 462.397091 145.672935 
L 462.802909 148.479914 
L 463.208727 145.058105 
L 463.614545 132.65921 
L 464.020364 149.374101 
L 464.426182 149.5207 
L 464.832 152.19396 
L 465.237818 150.985678 
L 465.643636 150.17711 
L 466.049455 146.173446 
L 466.455273 158.929246 
L 466.861091 143.307197 
L 467.266909 158.168458 
L 467.672727 147.975127 
L 468.078545 150.251238 
L 468.484364 155.14663 
L 468.890182 154.380551 
L 469.296 145.351945 
L 469.701818 140.973686 
L 470.107636 148.747994 
L 470.513455 163.748639 
L 471.325091 128.679596 
L 471.730909 123.359103 
L 472.136727 141.462386 
L 472.542545 147.636233 
L 472.948364 142.415041 
L 473.354182 124.250992 
L 473.76 142.773816 
L 474.165818 139.044859 
L 474.571636 141.556449 
L 474.977455 122.234088 
L 475.383273 111.022686 
L 475.789091 129.626105 
L 476.194909 132.927396 
L 476.600727 127.30478 
L 477.006545 119.302208 
L 477.412364 131.690307 
L 477.818182 133.460616 
L 478.224 127.581517 
L 478.629818 132.388779 
L 479.441455 125.706563 
L 479.847273 120.18763 
L 480.253091 126.114562 
L 480.658909 106.929448 
L 481.064727 140.131768 
L 481.470545 121.210779 
L 481.876364 126.237325 
L 482.282182 137.121698 
L 482.688 123.760421 
L 483.093818 124.215237 
L 483.499636 129.675595 
L 483.905455 124.936904 
L 484.311273 113.870069 
L 484.717091 119.053102 
L 485.122909 114.141302 
L 485.528727 113.099287 
L 485.934545 112.862473 
L 486.340364 105.687923 
L 486.746182 131.404217 
L 487.152 119.383926 
L 487.557818 121.388804 
L 487.963636 148.186555 
L 488.369455 142.248934 
L 488.775273 126.787861 
L 489.181091 126.937079 
L 489.586909 108.759989 
L 489.992727 112.849005 
L 490.804364 142.599479 
L 491.210182 124.803291 
L 491.616 140.882081 
L 492.021818 144.471814 
L 492.427636 143.777725 
L 492.833455 140.657933 
L 493.239273 144.01144 
L 493.645091 150.135583 
L 494.050909 144.381653 
L 494.456727 136.497622 
L 494.862545 124.444516 
L 495.268364 128.605521 
L 495.674182 118.965131 
L 496.08 112.53694 
L 496.891636 148.557837 
L 497.297455 136.4422 
L 497.703273 134.477833 
L 498.109091 126.192324 
L 498.109091 126.192324 
" clip-path="url(#p9b9a322128)" style="fill: none; stroke: #3aa63a; stroke-opacity: 0.5; stroke-width: 1.5; stroke-linecap: square"/>
   </g>
   <g id="patch_3">
    <path d="M 72 320.4 
L 72 43.2 
" style="fill: none; stroke: #000000; stroke-width: 0.8; stroke-linejoin: miter; stroke-linecap: square"/>
   </g>
   <g id="patch_4">
    <path d="M 72 320.4 
L 518.4 320.4 
" style="fill: none; stroke: #000000; stroke-width: 0.8; stroke-linejoin: miter; stroke-linecap: square"/>
   </g>
   <g id="text_19">
    <!-- RMSD -->
    <g transform="translate(268.5375 37.2) scale(0.18 -0.18)">
     <use xlink:href="#DejaVuSans-52"/>
     <use xlink:href="#DejaVuSans-4d" x="69.482422"/>
     <use xlink:href="#DejaVuSans-53" x="155.761719"/>
     <use xlink:href="#DejaVuSans-44" x="219.238281"/>
    </g>
   </g>
   <g id="legend_1">
    <g id="patch_5">
     <path d="M 384.653125 315.4 
L 511.4 315.4 
Q 513.4 315.4 513.4 313.4 
L 513.4 299.721875 
Q 513.4 297.721875 511.4 297.721875 
L 384.653125 297.721875 
Q 382.653125 297.721875 382.653125 299.721875 
L 382.653125 313.4 
Q 382.653125 315.4 384.653125 315.4 
z
" style="fill: #ffffff; opacity: 0.8; stroke: #cccccc; stroke-linejoin: miter"/>
    </g>
    <g id="line2d_30">
     <path d="M 386.653125 305.820312 
L 396.653125 305.820312 
L 406.653125 305.820312 
" style="fill: none; stroke: #3aa63a; stroke-width: 0.8; stroke-linecap: square"/>
    </g>
    <g id="text_20">
     <!-- ssDNA-hnRNPA2B1 -->
     <g transform="translate(414.653125 309.320312) scale(0.1 -0.1)">
      <defs>
       <path id="DejaVuSans-4e" d="M 628 4666 
L 1478 4666 
L 3547 763 
L 3547 4666 
L 4159 4666 
L 4159 0 
L 3309 0 
L 1241 3903 
L 1241 0 
L 628 0 
L 628 4666 
z
" transform="scale(0.015625)"/>
       <path id="DejaVuSans-41" d="M 2188 4044 
L 1331 1722 
L 3047 1722 
L 2188 4044 
z
M 1831 4666 
L 2547 4666 
L 4325 0 
L 3669 0 
L 3244 1197 
L 1141 1197 
L 716 0 
L 50 0 
L 1831 4666 
z
" transform="scale(0.015625)"/>
       <path id="DejaVuSans-2d" d="M 313 2009 
L 1997 2009 
L 1997 1497 
L 313 1497 
L 313 2009 
z
" transform="scale(0.015625)"/>
       <path id="DejaVuSans-68" d="M 3513 2113 
L 3513 0 
L 2938 0 
L 2938 2094 
Q 2938 2591 2744 2837 
Q 2550 3084 2163 3084 
Q 1697 3084 1428 2787 
Q 1159 2491 1159 1978 
L 1159 0 
L 581 0 
L 581 4863 
L 1159 4863 
L 1159 2956 
Q 1366 3272 1645 3428 
Q 1925 3584 2291 3584 
Q 2894 3584 3203 3211 
Q 3513 2838 3513 2113 
z
" transform="scale(0.015625)"/>
       <path id="DejaVuSans-50" d="M 1259 4147 
L 1259 2394 
L 2053 2394 
Q 2494 2394 2734 2622 
Q 2975 2850 2975 3272 
Q 2975 3691 2734 3919 
Q 2494 4147 2053 4147 
L 1259 4147 
z
M 628 4666 
L 2053 4666 
Q 2838 4666 3239 4311 
Q 3641 3956 3641 3272 
Q 3641 2581 3239 2228 
Q 2838 1875 2053 1875 
L 1259 1875 
L 1259 0 
L 628 0 
L 628 4666 
z
" transform="scale(0.015625)"/>
       <path id="DejaVuSans-42" d="M 1259 2228 
L 1259 519 
L 2272 519 
Q 2781 519 3026 730 
Q 3272 941 3272 1375 
Q 3272 1813 3026 2020 
Q 2781 2228 2272 2228 
L 1259 2228 
z
M 1259 4147 
L 1259 2741 
L 2194 2741 
Q 2656 2741 2882 2914 
Q 3109 3088 3109 3444 
Q 3109 3797 2882 3972 
Q 2656 4147 2194 4147 
L 1259 4147 
z
M 628 4666 
L 2241 4666 
Q 2963 4666 3353 4366 
Q 3744 4066 3744 3513 
Q 3744 3084 3544 2831 
Q 3344 2578 2956 2516 
Q 3422 2416 3680 2098 
Q 3938 1781 3938 1306 
Q 3938 681 3513 340 
Q 3088 0 2303 0 
L 628 0 
L 628 4666 
z
" transform="scale(0.015625)"/>
      </defs>
      <use xlink:href="#DejaVuSans-73"/>
      <use xlink:href="#DejaVuSans-73" x="52.099609"/>
      <use xlink:href="#DejaVuSans-44" x="104.199219"/>
      <use xlink:href="#DejaVuSans-4e" x="181.201172"/>
      <use xlink:href="#DejaVuSans-41" x="256.005859"/>
      <use xlink:href="#DejaVuSans-2d" x="322.164062"/>
      <use xlink:href="#DejaVuSans-68" x="358.248047"/>
      <use xlink:href="#DejaVuSans-6e" x="421.626953"/>
      <use xlink:href="#DejaVuSans-52" x="485.005859"/>
      <use xlink:href="#DejaVuSans-4e" x="554.488281"/>
      <use xlink:href="#DejaVuSans-50" x="629.292969"/>
      <use xlink:href="#DejaVuSans-41" x="683.220703"/>
      <use xlink:href="#DejaVuSans-32" x="751.628906"/>
      <use xlink:href="#DejaVuSans-42" x="815.251953"/>
      <use xlink:href="#DejaVuSans-31" x="883.855469"/>
     </g>
    </g>
   </g>
  </g>
 </g>
 <defs>
  <clipPath id="p9b9a322128">
   <rect x="72" y="43.2" width="446.4" height="277.2"/>
  </clipPath>
 </defs>
</svg>
