<?xml version="1.0" encoding="utf-8" standalone="no"?>
<!DOCTYPE svg PUBLIC "-//W3C//DTD SVG 1.1//EN"
  "http://www.w3.org/Graphics/SVG/1.1/DTD/svg11.dtd">
<svg xmlns:xlink="http://www.w3.org/1999/xlink" width="576pt" height="360pt" viewBox="0 0 576 360" xmlns="http://www.w3.org/2000/svg" version="1.1">
 <metadata>
  <rdf:RDF xmlns:dc="http://purl.org/dc/elements/1.1/" xmlns:cc="http://creativecommons.org/ns#" xmlns:rdf="http://www.w3.org/1999/02/22-rdf-syntax-ns#">
   <cc:Work>
    <dc:type rdf:resource="http://purl.org/dc/dcmitype/StillImage"/>
    <dc:date>2025-01-16T18:07:17.334199</dc:date>
    <dc:format>image/svg+xml</dc:format>
    <dc:creator>
     <cc:Agent>
      <dc:title>Matplotlib v3.9.2, https://matplotlib.org/</dc:title>
     </cc:Agent>
    </dc:creator>
   </cc:Work>
  </rdf:RDF>
 </metadata>
 <defs>
  <style type="text/css">*{stroke-linejoin: round; stroke-linecap: butt}</style>
 </defs>
 <g id="figure_1">
  <g id="patch_1">
   <path d="M 0 360 
L 576 360 
L 576 0 
L 0 0 
z
" style="fill: #ffffff"/>
  </g>
  <g id="axes_1">
   <g id="patch_2">
    <path d="M 72 320.4 
L 518.4 320.4 
L 518.4 43.2 
L 72 43.2 
z
" style="fill: #ffffff"/>
   </g>
   <g id="matplotlib.axis_1">
    <g id="xtick_1">
     <g id="line2d_1">
      <path d="M 92.290909 320.4 
L 92.290909 43.2 
" clip-path="url(#p430c666511)" style="fill: none; stroke: #b0b0b0; stroke-width: 0.8; stroke-linecap: square"/>
     </g>
     <g id="line2d_2">
      <defs>
       <path id="md6f866eca4" d="M 0 0 
L 0 3.5 
" style="stroke: #000000; stroke-width: 0.8"/>
      </defs>
      <g>
       <use xlink:href="#md6f866eca4" x="92.290909" y="320.4" style="stroke: #000000; stroke-width: 0.8"/>
      </g>
     </g>
     <g id="text_1">
      <!-- 0 -->
      <g transform="translate(87.837159 338.037813) scale(0.14 -0.14)">
       <defs>
        <path id="DejaVuSans-30" d="M 2034 4250 
Q 1547 4250 1301 3770 
Q 1056 3291 1056 2328 
Q 1056 1369 1301 889 
Q 1547 409 2034 409 
Q 2525 409 2770 889 
Q 3016 1369 3016 2328 
Q 3016 3291 2770 3770 
Q 2525 4250 2034 4250 
z
M 2034 4750 
Q 2819 4750 3233 4129 
Q 3647 3509 3647 2328 
Q 3647 1150 3233 529 
Q 2819 -91 2034 -91 
Q 1250 -91 836 529 
Q 422 1150 422 2328 
Q 422 3509 836 4129 
Q 1250 4750 2034 4750 
z
" transform="scale(0.015625)"/>
       </defs>
       <use xlink:href="#DejaVuSans-30"/>
      </g>
     </g>
    </g>
    <g id="xtick_2">
     <g id="line2d_3">
      <path d="M 132.872727 320.4 
L 132.872727 43.2 
" clip-path="url(#p430c666511)" style="fill: none; stroke: #b0b0b0; stroke-width: 0.8; stroke-linecap: square"/>
     </g>
     <g id="line2d_4">
      <g>
       <use xlink:href="#md6f866eca4" x="132.872727" y="320.4" style="stroke: #000000; stroke-width: 0.8"/>
      </g>
     </g>
     <g id="text_2">
      <!-- 10 -->
      <g transform="translate(123.965227 338.037813) scale(0.14 -0.14)">
       <defs>
        <path id="DejaVuSans-31" d="M 794 531 
L 1825 531 
L 1825 4091 
L 703 3866 
L 703 4441 
L 1819 4666 
L 2450 4666 
L 2450 531 
L 3481 531 
L 3481 0 
L 794 0 
L 794 531 
z
" transform="scale(0.015625)"/>
       </defs>
       <use xlink:href="#DejaVuSans-31"/>
       <use xlink:href="#DejaVuSans-30" x="63.623047"/>
      </g>
     </g>
    </g>
    <g id="xtick_3">
     <g id="line2d_5">
      <path d="M 173.454545 320.4 
L 173.454545 43.2 
" clip-path="url(#p430c666511)" style="fill: none; stroke: #b0b0b0; stroke-width: 0.8; stroke-linecap: square"/>
     </g>
     <g id="line2d_6">
      <g>
       <use xlink:href="#md6f866eca4" x="173.454545" y="320.4" style="stroke: #000000; stroke-width: 0.8"/>
      </g>
     </g>
     <g id="text_3">
      <!-- 20 -->
      <g transform="translate(164.547045 338.037813) scale(0.14 -0.14)">
       <defs>
        <path id="DejaVuSans-32" d="M 1228 531 
L 3431 531 
L 3431 0 
L 469 0 
L 469 531 
Q 828 903 1448 1529 
Q 2069 2156 2228 2338 
Q 2531 2678 2651 2914 
Q 2772 3150 2772 3378 
Q 2772 3750 2511 3984 
Q 2250 4219 1831 4219 
Q 1534 4219 1204 4116 
Q 875 4013 500 3803 
L 500 4441 
Q 881 4594 1212 4672 
Q 1544 4750 1819 4750 
Q 2544 4750 2975 4387 
Q 3406 4025 3406 3419 
Q 3406 3131 3298 2873 
Q 3191 2616 2906 2266 
Q 2828 2175 2409 1742 
Q 1991 1309 1228 531 
z
" transform="scale(0.015625)"/>
       </defs>
       <use xlink:href="#DejaVuSans-32"/>
       <use xlink:href="#DejaVuSans-30" x="63.623047"/>
      </g>
     </g>
    </g>
    <g id="xtick_4">
     <g id="line2d_7">
      <path d="M 214.036364 320.4 
L 214.036364 43.2 
" clip-path="url(#p430c666511)" style="fill: none; stroke: #b0b0b0; stroke-width: 0.8; stroke-linecap: square"/>
     </g>
     <g id="line2d_8">
      <g>
       <use xlink:href="#md6f866eca4" x="214.036364" y="320.4" style="stroke: #000000; stroke-width: 0.8"/>
      </g>
     </g>
     <g id="text_4">
      <!-- 30 -->
      <g transform="translate(205.128864 338.037813) scale(0.14 -0.14)">
       <defs>
        <path id="DejaVuSans-33" d="M 2597 2516 
Q 3050 2419 3304 2112 
Q 3559 1806 3559 1356 
Q 3559 666 3084 287 
Q 2609 -91 1734 -91 
Q 1441 -91 1130 -33 
Q 819 25 488 141 
L 488 750 
Q 750 597 1062 519 
Q 1375 441 1716 441 
Q 2309 441 2620 675 
Q 2931 909 2931 1356 
Q 2931 1769 2642 2001 
Q 2353 2234 1838 2234 
L 1294 2234 
L 1294 2753 
L 1863 2753 
Q 2328 2753 2575 2939 
Q 2822 3125 2822 3475 
Q 2822 3834 2567 4026 
Q 2313 4219 1838 4219 
Q 1578 4219 1281 4162 
Q 984 4106 628 3988 
L 628 4550 
Q 988 4650 1302 4700 
Q 1616 4750 1894 4750 
Q 2613 4750 3031 4423 
Q 3450 4097 3450 3541 
Q 3450 3153 3228 2886 
Q 3006 2619 2597 2516 
z
" transform="scale(0.015625)"/>
       </defs>
       <use xlink:href="#DejaVuSans-33"/>
       <use xlink:href="#DejaVuSans-30" x="63.623047"/>
      </g>
     </g>
    </g>
    <g id="xtick_5">
     <g id="line2d_9">
      <path d="M 254.618182 320.4 
L 254.618182 43.2 
" clip-path="url(#p430c666511)" style="fill: none; stroke: #b0b0b0; stroke-width: 0.8; stroke-linecap: square"/>
     </g>
     <g id="line2d_10">
      <g>
       <use xlink:href="#md6f866eca4" x="254.618182" y="320.4" style="stroke: #000000; stroke-width: 0.8"/>
      </g>
     </g>
     <g id="text_5">
      <!-- 40 -->
      <g transform="translate(245.710682 338.037813) scale(0.14 -0.14)">
       <defs>
        <path id="DejaVuSans-34" d="M 2419 4116 
L 825 1625 
L 2419 1625 
L 2419 4116 
z
M 2253 4666 
L 3047 4666 
L 3047 1625 
L 3713 1625 
L 3713 1100 
L 3047 1100 
L 3047 0 
L 2419 0 
L 2419 1100 
L 313 1100 
L 313 1709 
L 2253 4666 
z
" transform="scale(0.015625)"/>
       </defs>
       <use xlink:href="#DejaVuSans-34"/>
       <use xlink:href="#DejaVuSans-30" x="63.623047"/>
      </g>
     </g>
    </g>
    <g id="xtick_6">
     <g id="line2d_11">
      <path d="M 295.2 320.4 
L 295.2 43.2 
" clip-path="url(#p430c666511)" style="fill: none; stroke: #b0b0b0; stroke-width: 0.8; stroke-linecap: square"/>
     </g>
     <g id="line2d_12">
      <g>
       <use xlink:href="#md6f866eca4" x="295.2" y="320.4" style="stroke: #000000; stroke-width: 0.8"/>
      </g>
     </g>
     <g id="text_6">
      <!-- 50 -->
      <g transform="translate(286.2925 338.037813) scale(0.14 -0.14)">
       <defs>
        <path id="DejaVuSans-35" d="M 691 4666 
L 3169 4666 
L 3169 4134 
L 1269 4134 
L 1269 2991 
Q 1406 3038 1543 3061 
Q 1681 3084 1819 3084 
Q 2600 3084 3056 2656 
Q 3513 2228 3513 1497 
Q 3513 744 3044 326 
Q 2575 -91 1722 -91 
Q 1428 -91 1123 -41 
Q 819 9 494 109 
L 494 744 
Q 775 591 1075 516 
Q 1375 441 1709 441 
Q 2250 441 2565 725 
Q 2881 1009 2881 1497 
Q 2881 1984 2565 2268 
Q 2250 2553 1709 2553 
Q 1456 2553 1204 2497 
Q 953 2441 691 2322 
L 691 4666 
z
" transform="scale(0.015625)"/>
       </defs>
       <use xlink:href="#DejaVuSans-35"/>
       <use xlink:href="#DejaVuSans-30" x="63.623047"/>
      </g>
     </g>
    </g>
    <g id="xtick_7">
     <g id="line2d_13">
      <path d="M 335.781818 320.4 
L 335.781818 43.2 
" clip-path="url(#p430c666511)" style="fill: none; stroke: #b0b0b0; stroke-width: 0.8; stroke-linecap: square"/>
     </g>
     <g id="line2d_14">
      <g>
       <use xlink:href="#md6f866eca4" x="335.781818" y="320.4" style="stroke: #000000; stroke-width: 0.8"/>
      </g>
     </g>
     <g id="text_7">
      <!-- 60 -->
      <g transform="translate(326.874318 338.037813) scale(0.14 -0.14)">
       <defs>
        <path id="DejaVuSans-36" d="M 2113 2584 
Q 1688 2584 1439 2293 
Q 1191 2003 1191 1497 
Q 1191 994 1439 701 
Q 1688 409 2113 409 
Q 2538 409 2786 701 
Q 3034 994 3034 1497 
Q 3034 2003 2786 2293 
Q 2538 2584 2113 2584 
z
M 3366 4563 
L 3366 3988 
Q 3128 4100 2886 4159 
Q 2644 4219 2406 4219 
Q 1781 4219 1451 3797 
Q 1122 3375 1075 2522 
Q 1259 2794 1537 2939 
Q 1816 3084 2150 3084 
Q 2853 3084 3261 2657 
Q 3669 2231 3669 1497 
Q 3669 778 3244 343 
Q 2819 -91 2113 -91 
Q 1303 -91 875 529 
Q 447 1150 447 2328 
Q 447 3434 972 4092 
Q 1497 4750 2381 4750 
Q 2619 4750 2861 4703 
Q 3103 4656 3366 4563 
z
" transform="scale(0.015625)"/>
       </defs>
       <use xlink:href="#DejaVuSans-36"/>
       <use xlink:href="#DejaVuSans-30" x="63.623047"/>
      </g>
     </g>
    </g>
    <g id="xtick_8">
     <g id="line2d_15">
      <path d="M 376.363636 320.4 
L 376.363636 43.2 
" clip-path="url(#p430c666511)" style="fill: none; stroke: #b0b0b0; stroke-width: 0.8; stroke-linecap: square"/>
     </g>
     <g id="line2d_16">
      <g>
       <use xlink:href="#md6f866eca4" x="376.363636" y="320.4" style="stroke: #000000; stroke-width: 0.8"/>
      </g>
     </g>
     <g id="text_8">
      <!-- 70 -->
      <g transform="translate(367.456136 338.037813) scale(0.14 -0.14)">
       <defs>
        <path id="DejaVuSans-37" d="M 525 4666 
L 3525 4666 
L 3525 4397 
L 1831 0 
L 1172 0 
L 2766 4134 
L 525 4134 
L 525 4666 
z
" transform="scale(0.015625)"/>
       </defs>
       <use xlink:href="#DejaVuSans-37"/>
       <use xlink:href="#DejaVuSans-30" x="63.623047"/>
      </g>
     </g>
    </g>
    <g id="xtick_9">
     <g id="line2d_17">
      <path d="M 416.945455 320.4 
L 416.945455 43.2 
" clip-path="url(#p430c666511)" style="fill: none; stroke: #b0b0b0; stroke-width: 0.8; stroke-linecap: square"/>
     </g>
     <g id="line2d_18">
      <g>
       <use xlink:href="#md6f866eca4" x="416.945455" y="320.4" style="stroke: #000000; stroke-width: 0.8"/>
      </g>
     </g>
     <g id="text_9">
      <!-- 80 -->
      <g transform="translate(408.037955 338.037813) scale(0.14 -0.14)">
       <defs>
        <path id="DejaVuSans-38" d="M 2034 2216 
Q 1584 2216 1326 1975 
Q 1069 1734 1069 1313 
Q 1069 891 1326 650 
Q 1584 409 2034 409 
Q 2484 409 2743 651 
Q 3003 894 3003 1313 
Q 3003 1734 2745 1975 
Q 2488 2216 2034 2216 
z
M 1403 2484 
Q 997 2584 770 2862 
Q 544 3141 544 3541 
Q 544 4100 942 4425 
Q 1341 4750 2034 4750 
Q 2731 4750 3128 4425 
Q 3525 4100 3525 3541 
Q 3525 3141 3298 2862 
Q 3072 2584 2669 2484 
Q 3125 2378 3379 2068 
Q 3634 1759 3634 1313 
Q 3634 634 3220 271 
Q 2806 -91 2034 -91 
Q 1263 -91 848 271 
Q 434 634 434 1313 
Q 434 1759 690 2068 
Q 947 2378 1403 2484 
z
M 1172 3481 
Q 1172 3119 1398 2916 
Q 1625 2713 2034 2713 
Q 2441 2713 2670 2916 
Q 2900 3119 2900 3481 
Q 2900 3844 2670 4047 
Q 2441 4250 2034 4250 
Q 1625 4250 1398 4047 
Q 1172 3844 1172 3481 
z
" transform="scale(0.015625)"/>
       </defs>
       <use xlink:href="#DejaVuSans-38"/>
       <use xlink:href="#DejaVuSans-30" x="63.623047"/>
      </g>
     </g>
    </g>
    <g id="xtick_10">
     <g id="line2d_19">
      <path d="M 457.527273 320.4 
L 457.527273 43.2 
" clip-path="url(#p430c666511)" style="fill: none; stroke: #b0b0b0; stroke-width: 0.8; stroke-linecap: square"/>
     </g>
     <g id="line2d_20">
      <g>
       <use xlink:href="#md6f866eca4" x="457.527273" y="320.4" style="stroke: #000000; stroke-width: 0.8"/>
      </g>
     </g>
     <g id="text_10">
      <!-- 90 -->
      <g transform="translate(448.619773 338.037813) scale(0.14 -0.14)">
       <defs>
        <path id="DejaVuSans-39" d="M 703 97 
L 703 672 
Q 941 559 1184 500 
Q 1428 441 1663 441 
Q 2288 441 2617 861 
Q 2947 1281 2994 2138 
Q 2813 1869 2534 1725 
Q 2256 1581 1919 1581 
Q 1219 1581 811 2004 
Q 403 2428 403 3163 
Q 403 3881 828 4315 
Q 1253 4750 1959 4750 
Q 2769 4750 3195 4129 
Q 3622 3509 3622 2328 
Q 3622 1225 3098 567 
Q 2575 -91 1691 -91 
Q 1453 -91 1209 -44 
Q 966 3 703 97 
z
M 1959 2075 
Q 2384 2075 2632 2365 
Q 2881 2656 2881 3163 
Q 2881 3666 2632 3958 
Q 2384 4250 1959 4250 
Q 1534 4250 1286 3958 
Q 1038 3666 1038 3163 
Q 1038 2656 1286 2365 
Q 1534 2075 1959 2075 
z
" transform="scale(0.015625)"/>
       </defs>
       <use xlink:href="#DejaVuSans-39"/>
       <use xlink:href="#DejaVuSans-30" x="63.623047"/>
      </g>
     </g>
    </g>
    <g id="xtick_11">
     <g id="line2d_21">
      <path d="M 498.109091 320.4 
L 498.109091 43.2 
" clip-path="url(#p430c666511)" style="fill: none; stroke: #b0b0b0; stroke-width: 0.8; stroke-linecap: square"/>
     </g>
     <g id="line2d_22">
      <g>
       <use xlink:href="#md6f866eca4" x="498.109091" y="320.4" style="stroke: #000000; stroke-width: 0.8"/>
      </g>
     </g>
     <g id="text_11">
      <!-- 100 -->
      <g transform="translate(484.747841 338.037813) scale(0.14 -0.14)">
       <use xlink:href="#DejaVuSans-31"/>
       <use xlink:href="#DejaVuSans-30" x="63.623047"/>
       <use xlink:href="#DejaVuSans-30" x="127.246094"/>
      </g>
     </g>
    </g>
    <g id="text_12">
     <!-- Time (ns) -->
     <g transform="translate(252.904219 358.626562) scale(0.18 -0.18)">
      <defs>
       <path id="DejaVuSans-54" d="M -19 4666 
L 3928 4666 
L 3928 4134 
L 2272 4134 
L 2272 0 
L 1638 0 
L 1638 4134 
L -19 4134 
L -19 4666 
z
" transform="scale(0.015625)"/>
       <path id="DejaVuSans-69" d="M 603 3500 
L 1178 3500 
L 1178 0 
L 603 0 
L 603 3500 
z
M 603 4863 
L 1178 4863 
L 1178 4134 
L 603 4134 
L 603 4863 
z
" transform="scale(0.015625)"/>
       <path id="DejaVuSans-6d" d="M 3328 2828 
Q 3544 3216 3844 3400 
Q 4144 3584 4550 3584 
Q 5097 3584 5394 3201 
Q 5691 2819 5691 2113 
L 5691 0 
L 5113 0 
L 5113 2094 
Q 5113 2597 4934 2840 
Q 4756 3084 4391 3084 
Q 3944 3084 3684 2787 
Q 3425 2491 3425 1978 
L 3425 0 
L 2847 0 
L 2847 2094 
Q 2847 2600 2669 2842 
Q 2491 3084 2119 3084 
Q 1678 3084 1418 2786 
Q 1159 2488 1159 1978 
L 1159 0 
L 581 0 
L 581 3500 
L 1159 3500 
L 1159 2956 
Q 1356 3278 1631 3431 
Q 1906 3584 2284 3584 
Q 2666 3584 2933 3390 
Q 3200 3197 3328 2828 
z
" transform="scale(0.015625)"/>
       <path id="DejaVuSans-65" d="M 3597 1894 
L 3597 1613 
L 953 1613 
Q 991 1019 1311 708 
Q 1631 397 2203 397 
Q 2534 397 2845 478 
Q 3156 559 3463 722 
L 3463 178 
Q 3153 47 2828 -22 
Q 2503 -91 2169 -91 
Q 1331 -91 842 396 
Q 353 884 353 1716 
Q 353 2575 817 3079 
Q 1281 3584 2069 3584 
Q 2775 3584 3186 3129 
Q 3597 2675 3597 1894 
z
M 3022 2063 
Q 3016 2534 2758 2815 
Q 2500 3097 2075 3097 
Q 1594 3097 1305 2825 
Q 1016 2553 972 2059 
L 3022 2063 
z
" transform="scale(0.015625)"/>
       <path id="DejaVuSans-20" transform="scale(0.015625)"/>
       <path id="DejaVuSans-28" d="M 1984 4856 
Q 1566 4138 1362 3434 
Q 1159 2731 1159 2009 
Q 1159 1288 1364 580 
Q 1569 -128 1984 -844 
L 1484 -844 
Q 1016 -109 783 600 
Q 550 1309 550 2009 
Q 550 2706 781 3412 
Q 1013 4119 1484 4856 
L 1984 4856 
z
" transform="scale(0.015625)"/>
       <path id="DejaVuSans-6e" d="M 3513 2113 
L 3513 0 
L 2938 0 
L 2938 2094 
Q 2938 2591 2744 2837 
Q 2550 3084 2163 3084 
Q 1697 3084 1428 2787 
Q 1159 2491 1159 1978 
L 1159 0 
L 581 0 
L 581 3500 
L 1159 3500 
L 1159 2956 
Q 1366 3272 1645 3428 
Q 1925 3584 2291 3584 
Q 2894 3584 3203 3211 
Q 3513 2838 3513 2113 
z
" transform="scale(0.015625)"/>
       <path id="DejaVuSans-73" d="M 2834 3397 
L 2834 2853 
Q 2591 2978 2328 3040 
Q 2066 3103 1784 3103 
Q 1356 3103 1142 2972 
Q 928 2841 928 2578 
Q 928 2378 1081 2264 
Q 1234 2150 1697 2047 
L 1894 2003 
Q 2506 1872 2764 1633 
Q 3022 1394 3022 966 
Q 3022 478 2636 193 
Q 2250 -91 1575 -91 
Q 1294 -91 989 -36 
Q 684 19 347 128 
L 347 722 
Q 666 556 975 473 
Q 1284 391 1588 391 
Q 1994 391 2212 530 
Q 2431 669 2431 922 
Q 2431 1156 2273 1281 
Q 2116 1406 1581 1522 
L 1381 1569 
Q 847 1681 609 1914 
Q 372 2147 372 2553 
Q 372 3047 722 3315 
Q 1072 3584 1716 3584 
Q 2034 3584 2315 3537 
Q 2597 3491 2834 3397 
z
" transform="scale(0.015625)"/>
       <path id="DejaVuSans-29" d="M 513 4856 
L 1013 4856 
Q 1481 4119 1714 3412 
Q 1947 2706 1947 2009 
Q 1947 1309 1714 600 
Q 1481 -109 1013 -844 
L 513 -844 
Q 928 -128 1133 580 
Q 1338 1288 1338 2009 
Q 1338 2731 1133 3434 
Q 928 4138 513 4856 
z
" transform="scale(0.015625)"/>
      </defs>
      <use xlink:href="#DejaVuSans-54"/>
      <use xlink:href="#DejaVuSans-69" x="57.958984"/>
      <use xlink:href="#DejaVuSans-6d" x="85.742188"/>
      <use xlink:href="#DejaVuSans-65" x="183.154297"/>
      <use xlink:href="#DejaVuSans-20" x="244.677734"/>
      <use xlink:href="#DejaVuSans-28" x="276.464844"/>
      <use xlink:href="#DejaVuSans-6e" x="315.478516"/>
      <use xlink:href="#DejaVuSans-73" x="378.857422"/>
      <use xlink:href="#DejaVuSans-29" x="430.957031"/>
     </g>
    </g>
   </g>
   <g id="matplotlib.axis_2">
    <g id="ytick_1">
     <g id="line2d_23">
      <defs>
       <path id="m3372ca3eda" d="M 0 0 
L -3.5 0 
" style="stroke: #000000; stroke-width: 0.8"/>
      </defs>
      <g>
       <use xlink:href="#m3372ca3eda" x="72" y="308.078279" style="stroke: #000000; stroke-width: 0.8"/>
      </g>
     </g>
     <g id="text_13">
      <!-- 0.0 -->
      <g transform="translate(42.735625 313.397185) scale(0.14 -0.14)">
       <defs>
        <path id="DejaVuSans-2e" d="M 684 794 
L 1344 794 
L 1344 0 
L 684 0 
L 684 794 
z
" transform="scale(0.015625)"/>
       </defs>
       <use xlink:href="#DejaVuSans-30"/>
       <use xlink:href="#DejaVuSans-2e" x="63.623047"/>
       <use xlink:href="#DejaVuSans-30" x="95.410156"/>
      </g>
     </g>
    </g>
    <g id="ytick_2">
     <g id="line2d_24">
      <g>
       <use xlink:href="#m3372ca3eda" x="72" y="252.255003" style="stroke: #000000; stroke-width: 0.8"/>
      </g>
     </g>
     <g id="text_14">
      <!-- 0.1 -->
      <g transform="translate(42.735625 257.573909) scale(0.14 -0.14)">
       <use xlink:href="#DejaVuSans-30"/>
       <use xlink:href="#DejaVuSans-2e" x="63.623047"/>
       <use xlink:href="#DejaVuSans-31" x="95.410156"/>
      </g>
     </g>
    </g>
    <g id="ytick_3">
     <g id="line2d_25">
      <g>
       <use xlink:href="#m3372ca3eda" x="72" y="196.431727" style="stroke: #000000; stroke-width: 0.8"/>
      </g>
     </g>
     <g id="text_15">
      <!-- 0.2 -->
      <g transform="translate(42.735625 201.750633) scale(0.14 -0.14)">
       <use xlink:href="#DejaVuSans-30"/>
       <use xlink:href="#DejaVuSans-2e" x="63.623047"/>
       <use xlink:href="#DejaVuSans-32" x="95.410156"/>
      </g>
     </g>
    </g>
    <g id="ytick_4">
     <g id="line2d_26">
      <g>
       <use xlink:href="#m3372ca3eda" x="72" y="140.608451" style="stroke: #000000; stroke-width: 0.8"/>
      </g>
     </g>
     <g id="text_16">
      <!-- 0.3 -->
      <g transform="translate(42.735625 145.927358) scale(0.14 -0.14)">
       <use xlink:href="#DejaVuSans-30"/>
       <use xlink:href="#DejaVuSans-2e" x="63.623047"/>
       <use xlink:href="#DejaVuSans-33" x="95.410156"/>
      </g>
     </g>
    </g>
    <g id="ytick_5">
     <g id="line2d_27">
      <g>
       <use xlink:href="#m3372ca3eda" x="72" y="84.785175" style="stroke: #000000; stroke-width: 0.8"/>
      </g>
     </g>
     <g id="text_17">
      <!-- 0.4 -->
      <g transform="translate(42.735625 90.104082) scale(0.14 -0.14)">
       <use xlink:href="#DejaVuSans-30"/>
       <use xlink:href="#DejaVuSans-2e" x="63.623047"/>
       <use xlink:href="#DejaVuSans-34" x="95.410156"/>
      </g>
     </g>
    </g>
    <g id="text_18">
     <!-- RMSD (nm) -->
     <g transform="translate(34.992188 232.815937) rotate(-90) scale(0.18 -0.18)">
      <defs>
       <path id="DejaVuSans-52" d="M 2841 2188 
Q 3044 2119 3236 1894 
Q 3428 1669 3622 1275 
L 4263 0 
L 3584 0 
L 2988 1197 
Q 2756 1666 2539 1819 
Q 2322 1972 1947 1972 
L 1259 1972 
L 1259 0 
L 628 0 
L 628 4666 
L 2053 4666 
Q 2853 4666 3247 4331 
Q 3641 3997 3641 3322 
Q 3641 2881 3436 2590 
Q 3231 2300 2841 2188 
z
M 1259 4147 
L 1259 2491 
L 2053 2491 
Q 2509 2491 2742 2702 
Q 2975 2913 2975 3322 
Q 2975 3731 2742 3939 
Q 2509 4147 2053 4147 
L 1259 4147 
z
" transform="scale(0.015625)"/>
       <path id="DejaVuSans-4d" d="M 628 4666 
L 1569 4666 
L 2759 1491 
L 3956 4666 
L 4897 4666 
L 4897 0 
L 4281 0 
L 4281 4097 
L 3078 897 
L 2444 897 
L 1241 4097 
L 1241 0 
L 628 0 
L 628 4666 
z
" transform="scale(0.015625)"/>
       <path id="DejaVuSans-53" d="M 3425 4513 
L 3425 3897 
Q 3066 4069 2747 4153 
Q 2428 4238 2131 4238 
Q 1616 4238 1336 4038 
Q 1056 3838 1056 3469 
Q 1056 3159 1242 3001 
Q 1428 2844 1947 2747 
L 2328 2669 
Q 3034 2534 3370 2195 
Q 3706 1856 3706 1288 
Q 3706 609 3251 259 
Q 2797 -91 1919 -91 
Q 1588 -91 1214 -16 
Q 841 59 441 206 
L 441 856 
Q 825 641 1194 531 
Q 1563 422 1919 422 
Q 2459 422 2753 634 
Q 3047 847 3047 1241 
Q 3047 1584 2836 1778 
Q 2625 1972 2144 2069 
L 1759 2144 
Q 1053 2284 737 2584 
Q 422 2884 422 3419 
Q 422 4038 858 4394 
Q 1294 4750 2059 4750 
Q 2388 4750 2728 4690 
Q 3069 4631 3425 4513 
z
" transform="scale(0.015625)"/>
       <path id="DejaVuSans-44" d="M 1259 4147 
L 1259 519 
L 2022 519 
Q 2988 519 3436 956 
Q 3884 1394 3884 2338 
Q 3884 3275 3436 3711 
Q 2988 4147 2022 4147 
L 1259 4147 
z
M 628 4666 
L 1925 4666 
Q 3281 4666 3915 4102 
Q 4550 3538 4550 2338 
Q 4550 1131 3912 565 
Q 3275 0 1925 0 
L 628 0 
L 628 4666 
z
" transform="scale(0.015625)"/>
      </defs>
      <use xlink:href="#DejaVuSans-52"/>
      <use xlink:href="#DejaVuSans-4d" x="69.482422"/>
      <use xlink:href="#DejaVuSans-53" x="155.761719"/>
      <use xlink:href="#DejaVuSans-44" x="219.238281"/>
      <use xlink:href="#DejaVuSans-20" x="296.240234"/>
      <use xlink:href="#DejaVuSans-28" x="328.027344"/>
      <use xlink:href="#DejaVuSans-6e" x="367.041016"/>
      <use xlink:href="#DejaVuSans-6d" x="430.419922"/>
      <use xlink:href="#DejaVuSans-29" x="527.832031"/>
     </g>
    </g>
   </g>
   <g id="line2d_28">
    <path d="M 96.349091 180.556006 
L 96.754909 177.37504 
L 97.566545 175.044961 
L 98.784 170.637142 
L 99.189818 169.726813 
L 100.001455 168.584321 
L 100.407273 168.433552 
L 101.218909 168.571511 
L 101.624727 168.477103 
L 102.030545 168.562057 
L 102.842182 169.554772 
L 103.248 170.517842 
L 104.059636 171.467978 
L 104.465455 171.943399 
L 104.871273 172.713718 
L 105.277091 172.726268 
L 106.088727 175.058766 
L 106.900364 176.566312 
L 107.306182 175.74566 
L 107.712 176.598377 
L 108.117818 176.443363 
L 108.523636 176.731207 
L 109.335273 177.046521 
L 109.741091 176.926766 
L 110.146909 177.602914 
L 110.552727 177.231461 
L 111.364364 176.241029 
L 111.770182 176.622053 
L 112.176 176.598968 
L 112.581818 176.305125 
L 112.987636 176.17275 
L 113.393455 176.370998 
L 113.799273 176.772684 
L 115.016727 178.757333 
L 115.422545 179.11375 
L 115.828364 178.974357 
L 116.234182 179.113496 
L 116.64 178.99864 
L 117.045818 178.436696 
L 117.451636 177.645242 
L 121.509818 167.003238 
L 122.321455 165.178779 
L 123.133091 162.865064 
L 123.538909 163.18875 
L 123.944727 162.115449 
L 124.756364 161.255323 
L 125.162182 160.322623 
L 125.568 160.032293 
L 125.973818 159.275005 
L 126.379636 157.895847 
L 126.785455 157.262534 
L 127.191273 157.013059 
L 128.814545 154.111123 
L 130.032 151.194353 
L 131.655273 147.598987 
L 132.872727 145.934677 
L 133.278545 146.102 
L 133.684364 146.027104 
L 134.090182 146.438158 
L 134.496 146.199257 
L 135.307636 146.334517 
L 136.525091 146.57795 
L 137.336727 147.278539 
L 137.742545 146.993772 
L 138.148364 146.923769 
L 138.554182 147.008868 
L 138.96 147.21503 
L 139.365818 147.885663 
L 140.989091 147.584177 
L 141.394909 148.08116 
L 141.800727 147.859778 
L 142.612364 148.640374 
L 143.018182 148.747824 
L 143.424 148.436697 
L 144.235636 148.87166 
L 144.641455 148.911156 
L 145.047273 148.556007 
L 145.453091 149.037364 
L 145.858909 149.113453 
L 146.264727 149.366726 
L 147.076364 149.303732 
L 147.482182 149.551774 
L 148.699636 149.735244 
L 149.105455 149.435455 
L 150.322909 147.898012 
L 151.134545 147.643408 
L 152.352 146.151383 
L 152.757818 146.066759 
L 153.569455 145.494003 
L 153.975273 145.500472 
L 154.786909 144.705419 
L 155.192727 144.509016 
L 156.004364 143.142291 
L 156.410182 142.940691 
L 157.221818 142.343285 
L 157.627636 142.315212 
L 158.033455 142.058599 
L 159.250909 142.418952 
L 160.062545 141.482546 
L 160.468364 141.287346 
L 160.874182 141.587547 
L 161.28 141.702653 
L 161.685818 141.577721 
L 162.091636 141.222764 
L 162.497455 141.161399 
L 162.903273 140.254922 
L 163.714909 139.557219 
L 164.120727 139.832007 
L 164.526545 139.591886 
L 164.932364 139.01142 
L 165.338182 138.761696 
L 165.744 138.068861 
L 166.555636 138.40377 
L 167.367273 138.701955 
L 167.773091 138.598635 
L 168.584727 138.853768 
L 169.396364 138.364063 
L 169.802182 137.685878 
L 170.208 137.270378 
L 170.613818 137.475168 
L 171.019636 137.507073 
L 171.831273 136.638042 
L 173.048727 136.749193 
L 173.454545 136.44599 
L 173.860364 135.969145 
L 174.266182 136.314022 
L 175.483636 134.706069 
L 175.889455 134.767033 
L 176.701091 134.171665 
L 177.918545 131.807896 
L 178.324364 131.728066 
L 178.730182 131.335405 
L 179.136 132.109585 
L 179.947636 132.501529 
L 180.759273 131.909414 
L 181.165091 131.878393 
L 181.570909 131.646269 
L 182.382545 131.7073 
L 182.788364 131.19137 
L 183.194182 131.134119 
L 184.411636 131.598983 
L 184.817455 131.405584 
L 185.223273 131.699771 
L 186.440727 131.777385 
L 186.846545 131.674023 
L 187.252364 131.441221 
L 188.469818 133.101728 
L 189.281455 133.332379 
L 189.687273 133.660682 
L 190.093091 133.800619 
L 190.498909 133.373273 
L 190.904727 133.46254 
L 191.310545 133.844998 
L 191.716364 134.045065 
L 192.528 135.796417 
L 193.339636 137.133009 
L 194.151273 139.629465 
L 194.962909 141.667286 
L 196.586182 144.112413 
L 197.397818 146.160016 
L 197.803636 146.750552 
L 198.209455 147.705913 
L 199.426909 148.140979 
L 199.832727 148.153351 
L 200.238545 147.992617 
L 200.644364 147.429241 
L 201.050182 147.487989 
L 202.267636 148.327739 
L 202.673455 148.307965 
L 203.079273 148.103692 
L 203.485091 148.09477 
L 204.296727 147.467569 
L 205.108364 146.371105 
L 205.514182 146.206616 
L 206.325818 144.852858 
L 207.137455 143.649346 
L 207.949091 141.654835 
L 208.354909 140.041969 
L 209.166545 137.803651 
L 209.572364 137.216339 
L 210.384 134.647085 
L 210.789818 133.078768 
L 211.601455 130.725588 
L 212.818909 126.5552 
L 213.224727 124.922256 
L 214.848 120.292339 
L 215.253818 119.869118 
L 215.659636 118.975734 
L 216.065455 117.760766 
L 216.471273 117.137213 
L 217.282909 115.032663 
L 217.688727 113.306218 
L 218.094545 112.19094 
L 218.500364 111.523908 
L 218.906182 111.26013 
L 219.717818 110.000362 
L 220.123636 108.770792 
L 220.529455 108.283087 
L 220.935273 108.074296 
L 221.341091 107.454095 
L 221.746909 106.386398 
L 222.152727 106.01023 
L 223.370182 104.327503 
L 223.776 103.503772 
L 224.587636 102.635789 
L 225.805091 100.415347 
L 226.616727 99.005531 
L 227.022545 98.477436 
L 227.834182 97.099392 
L 228.24 96.674397 
L 228.645818 96.057674 
L 229.051636 95.165442 
L 229.457455 94.886498 
L 230.269091 93.978564 
L 230.674909 93.242524 
L 231.080727 92.978824 
L 231.892364 91.682475 
L 232.298182 91.454067 
L 232.704 91.044334 
L 233.109818 91.864831 
L 233.515636 92.121469 
L 233.921455 92.17883 
L 234.327273 91.807332 
L 234.733091 91.235806 
L 235.138909 90.395247 
L 235.544727 90.166531 
L 235.950545 90.207099 
L 236.356364 90.72245 
L 236.762182 90.382476 
L 237.168 90.411076 
L 237.573818 90.597068 
L 237.979636 91.001496 
L 238.791273 90.956542 
L 239.197091 91.036118 
L 239.602909 91.342957 
L 240.008727 91.914136 
L 240.414545 92.163089 
L 241.226182 94.153135 
L 241.632 95.113217 
L 242.037818 94.607198 
L 242.443636 94.570684 
L 244.066909 95.381946 
L 244.878545 96.273167 
L 245.284364 96.820385 
L 245.690182 96.922894 
L 246.096 96.768828 
L 246.501818 96.758199 
L 246.907636 96.884054 
L 247.313455 97.128072 
L 247.719273 96.963206 
L 248.125091 97.08921 
L 248.530909 96.808196 
L 248.936727 96.963178 
L 249.342545 96.204834 
L 249.748364 95.917748 
L 250.56 96.537308 
L 250.965818 97.389796 
L 251.777455 97.87375 
L 252.183273 97.672715 
L 252.589091 97.679406 
L 253.400727 98.127759 
L 253.806545 97.917972 
L 254.212364 97.981962 
L 254.618182 98.21324 
L 255.024 97.595522 
L 255.429818 97.727791 
L 255.835636 98.173076 
L 256.241455 98.271345 
L 256.647273 98.714332 
L 257.053091 98.565455 
L 257.458909 98.194956 
L 257.864727 98.040395 
L 259.488 101.087304 
L 259.893818 101.140226 
L 260.299636 101.646888 
L 260.705455 101.570549 
L 261.111273 101.85675 
L 261.517091 102.315631 
L 262.328727 104.657152 
L 263.140364 108.389879 
L 263.546182 109.793026 
L 264.357818 113.943516 
L 265.575273 120.821136 
L 266.386909 124.294589 
L 266.792727 125.914918 
L 267.198545 126.719391 
L 267.604364 127.960908 
L 268.416 131.213822 
L 268.821818 132.422853 
L 269.227636 134.168123 
L 269.633455 134.834037 
L 270.850909 137.628356 
L 271.256727 139.402424 
L 271.662545 139.952253 
L 272.474182 140.422482 
L 272.88 141.148564 
L 273.285818 141.633683 
L 274.097455 143.821393 
L 274.503273 144.635191 
L 274.909091 145.037971 
L 275.314909 144.685376 
L 275.720727 144.962925 
L 276.126545 146.443101 
L 276.532364 146.636483 
L 277.749818 148.895486 
L 278.155636 149.012803 
L 278.561455 149.468503 
L 278.967273 149.125203 
L 279.778909 147.801844 
L 280.996364 144.560166 
L 281.808 141.695903 
L 282.213818 140.692038 
L 282.619636 139.237019 
L 283.025455 138.210755 
L 283.837091 137.679602 
L 284.648727 134.80129 
L 285.054545 133.937585 
L 285.460364 131.623479 
L 285.866182 131.136838 
L 286.272 131.299095 
L 286.677818 130.643586 
L 287.083636 130.238788 
L 287.489455 129.28646 
L 287.895273 129.392153 
L 288.301091 129.692134 
L 288.706909 129.816943 
L 289.112727 129.267198 
L 289.518545 129.230822 
L 289.924364 128.41631 
L 290.330182 127.092929 
L 290.736 126.424506 
L 291.141818 126.148649 
L 291.547636 126.409604 
L 291.953455 126.154447 
L 292.359273 125.431674 
L 293.170909 124.778138 
L 294.794182 121.02113 
L 295.2 120.427212 
L 296.823273 118.891478 
L 298.040727 118.632759 
L 298.852364 119.328743 
L 299.258182 119.205509 
L 299.664 118.004672 
L 300.069818 117.527323 
L 300.475636 117.442978 
L 301.287273 116.832887 
L 301.693091 117.965255 
L 302.098909 117.780741 
L 302.910545 116.302929 
L 304.533818 112.106214 
L 305.751273 108.481204 
L 306.157091 106.891768 
L 306.562909 106.731999 
L 307.780364 105.793604 
L 308.186182 105.394188 
L 308.592 105.224174 
L 308.997818 105.249041 
L 309.403636 105.401976 
L 309.809455 105.386136 
L 310.215273 105.983594 
L 311.026909 105.52439 
L 311.838545 106.065224 
L 312.650182 107.426596 
L 314.273455 109.550156 
L 314.679273 109.409072 
L 315.490909 109.871286 
L 315.896727 110.914082 
L 317.52 112.633199 
L 317.925818 112.145758 
L 318.331636 112.06089 
L 318.737455 112.259993 
L 319.143273 112.726906 
L 320.766545 117.703726 
L 321.172364 118.784947 
L 321.578182 120.225972 
L 321.984 121.192244 
L 322.389818 122.702385 
L 323.201455 124.372176 
L 324.013091 124.793974 
L 324.418909 125.411975 
L 324.824727 125.294234 
L 325.636364 125.717789 
L 326.042182 125.835742 
L 326.448 125.746517 
L 327.259636 126.905365 
L 327.665455 126.795174 
L 328.071273 126.894262 
L 328.477091 126.674872 
L 328.882909 126.624553 
L 329.694545 125.805108 
L 330.506182 124.361104 
L 332.129455 124.018237 
L 332.535273 124.373368 
L 333.752727 124.475398 
L 334.564364 125.199445 
L 335.781818 127.238149 
L 336.187636 127.47172 
L 336.593455 127.849414 
L 336.999273 127.967833 
L 337.405091 128.504032 
L 337.810909 128.62972 
L 338.622545 129.337989 
L 339.028364 129.123848 
L 339.434182 128.344821 
L 340.651636 128.254505 
L 341.057455 128.848258 
L 341.463273 128.654059 
L 342.680727 127.660982 
L 343.086545 127.137649 
L 343.492364 126.885496 
L 343.898182 126.862358 
L 344.304 126.320668 
L 345.521455 125.791918 
L 345.927273 125.863622 
L 346.333091 126.333083 
L 346.738909 127.315326 
L 347.144727 127.718601 
L 347.550545 128.446046 
L 347.956364 128.626458 
L 348.362182 128.596802 
L 349.173818 127.434287 
L 349.985455 128.148449 
L 350.391273 128.497165 
L 350.797091 128.520507 
L 351.608727 127.837123 
L 352.014545 127.952867 
L 352.420364 127.920625 
L 352.826182 128.097819 
L 353.637818 127.986073 
L 354.043636 128.422396 
L 354.855273 128.618089 
L 355.261091 129.130904 
L 355.666909 130.101478 
L 356.072727 130.391562 
L 356.478545 131.398338 
L 358.507636 133.895637 
L 359.319273 135.409304 
L 360.130909 135.866528 
L 360.536727 136.894294 
L 360.942545 137.492397 
L 361.348364 137.665374 
L 362.16 137.184471 
L 362.565818 136.675213 
L 362.971636 135.774922 
L 363.377455 135.503519 
L 363.783273 135.082748 
L 365.000727 135.880344 
L 365.406545 136.689685 
L 366.218182 136.468865 
L 367.435636 136.860675 
L 367.841455 136.529077 
L 369.058909 133.454062 
L 369.464727 132.638467 
L 369.870545 131.563719 
L 370.276364 130.133367 
L 370.682182 129.512699 
L 371.088 129.133624 
L 371.899636 127.278467 
L 374.334545 117.351195 
L 374.740364 116.761961 
L 375.552 114.718423 
L 376.363636 113.839164 
L 377.175273 112.453898 
L 377.581091 112.552147 
L 377.986909 112.501662 
L 378.392727 111.691163 
L 378.798545 111.435218 
L 379.204364 111.398831 
L 379.610182 111.211666 
L 380.421818 109.778579 
L 380.827636 109.391697 
L 381.233455 109.580948 
L 381.639273 109.437178 
L 382.045091 109.433103 
L 382.856727 108.917164 
L 383.262545 108.791383 
L 383.668364 108.893289 
L 384.074182 109.220117 
L 384.48 110.198678 
L 384.885818 110.254174 
L 386.103273 113.107145 
L 386.509091 114.304666 
L 387.726545 115.679881 
L 388.132364 116.052694 
L 388.538182 117.663414 
L 390.161455 122.101063 
L 391.378909 124.299103 
L 391.784727 125.506573 
L 393.408 127.092468 
L 393.813818 127.158594 
L 394.219636 127.997458 
L 394.625455 129.26862 
L 395.437091 129.80555 
L 395.842909 129.861857 
L 396.654545 131.438836 
L 397.060364 131.908323 
L 397.466182 132.138112 
L 397.872 132.72421 
L 398.277818 133.008034 
L 399.089455 133.351328 
L 399.495273 133.611196 
L 400.306909 134.645126 
L 400.712727 134.656212 
L 401.118545 135.383873 
L 401.524364 135.372672 
L 401.930182 134.975119 
L 403.147636 135.361323 
L 403.553455 135.700236 
L 403.959273 136.441822 
L 404.365091 136.94655 
L 404.770909 137.144293 
L 405.176727 137.738017 
L 405.582545 138.01951 
L 407.205818 140.462712 
L 407.611636 140.762151 
L 408.017455 140.616735 
L 408.423273 140.83626 
L 408.829091 140.706545 
L 409.234909 141.243529 
L 410.046545 141.676027 
L 410.452364 141.486331 
L 411.264 141.61074 
L 412.075636 142.076605 
L 412.481455 141.9143 
L 412.887273 140.904178 
L 413.293091 140.397939 
L 413.698909 140.069772 
L 414.510545 139.083578 
L 414.916364 139.050552 
L 415.322182 138.795685 
L 415.728 137.861134 
L 416.133818 136.521438 
L 416.945455 135.167979 
L 417.351273 134.839465 
L 417.757091 134.821804 
L 418.568727 135.087574 
L 418.974545 135.599173 
L 419.380364 135.552883 
L 419.786182 135.740589 
L 420.192 135.672746 
L 420.597818 136.102828 
L 421.003636 136.705317 
L 421.409455 136.412093 
L 422.221091 137.084363 
L 422.626909 137.559357 
L 423.844364 138.376272 
L 425.061818 139.831924 
L 425.467636 139.946123 
L 426.279273 140.760402 
L 426.685091 140.857085 
L 427.090909 141.12582 
L 427.902545 142.336712 
L 428.714182 143.359874 
L 429.525818 145.129753 
L 429.931636 145.654814 
L 430.337455 145.91906 
L 431.960727 148.535093 
L 432.366545 149.489281 
L 433.584 151.117978 
L 434.801455 151.505564 
L 435.207273 151.067827 
L 435.613091 151.115277 
L 436.018909 150.880277 
L 436.830545 150.883473 
L 437.236364 150.845611 
L 437.642182 151.17044 
L 438.048 151.062332 
L 440.077091 149.849764 
L 440.888727 149.810511 
L 441.294545 149.285387 
L 442.106182 148.989162 
L 442.512 148.666318 
L 442.917818 148.706519 
L 443.323636 148.491267 
L 445.352727 148.188941 
L 445.758545 147.959959 
L 446.164364 147.917891 
L 446.976 148.21398 
L 447.787636 147.71728 
L 448.599273 148.256415 
L 449.410909 148.626657 
L 449.816727 148.452424 
L 450.222545 148.403032 
L 451.034182 149.101124 
L 451.845818 149.451368 
L 453.469091 148.432704 
L 453.874909 148.518572 
L 454.280727 148.486397 
L 455.092364 148.886139 
L 456.309818 149.638123 
L 457.121455 149.780521 
L 457.527273 150.462496 
L 457.933091 150.500689 
L 458.338909 150.684456 
L 458.744727 151.084218 
L 459.150545 151.321311 
L 459.962182 151.120026 
L 460.368 150.409541 
L 460.773818 149.994598 
L 461.585455 149.981521 
L 462.397091 150.3495 
L 462.802909 150.383858 
L 463.208727 150.011401 
L 464.020364 150.477447 
L 464.832 150.480732 
L 465.237818 150.35959 
L 465.643636 150.458845 
L 466.049455 150.900068 
L 466.455273 151.162542 
L 467.266909 150.822454 
L 467.672727 150.610463 
L 468.078545 149.854156 
L 468.484364 149.805385 
L 470.513455 147.12014 
L 471.325091 145.741097 
L 472.136727 144.22864 
L 472.542545 143.829288 
L 473.354182 142.606041 
L 475.383273 139.023691 
L 475.789091 138.775885 
L 476.194909 138.197348 
L 476.600727 138.496057 
L 477.006545 138.442708 
L 478.224 137.265798 
L 479.441455 135.383672 
L 479.847273 135.047318 
L 480.658909 133.538045 
L 481.064727 132.768199 
L 481.470545 132.501681 
L 481.876364 131.891341 
L 482.282182 131.039295 
L 482.688 130.619917 
L 483.093818 130.516577 
L 483.905455 129.725092 
L 484.311273 129.476753 
L 486.340364 129.4761 
L 486.340364 129.4761 
" clip-path="url(#p430c666511)" style="fill: none; stroke: #ff9333; stroke-width: 0.8; stroke-linecap: square"/>
   </g>
   <g id="line2d_29">
    <path d="M 92.290909 307.8 
L 92.696727 216.541839 
L 93.102545 208.313265 
L 93.508364 214.019074 
L 93.914182 211.27709 
L 94.32 210.244974 
L 94.725818 203.6058 
L 95.131636 191.996512 
L 95.537455 189.439248 
L 95.943273 179.361304 
L 96.349091 174.972367 
L 96.754909 187.368093 
L 97.160727 192.217126 
L 97.566545 185.86533 
L 97.972364 167.038149 
L 98.378182 178.464615 
L 98.784 152.345183 
L 99.189818 165.012545 
L 100.001455 178.062129 
L 100.407273 158.083537 
L 100.813091 175.2109 
L 101.218909 140.192624 
L 101.624727 150.008142 
L 102.030545 156.956409 
L 102.436364 157.784492 
L 102.842182 171.143281 
L 103.248 154.147103 
L 103.653818 169.281016 
L 104.059636 163.303292 
L 104.465455 168.487265 
L 104.871273 162.389354 
L 105.277091 168.006683 
L 105.682909 162.80613 
L 106.088727 179.656442 
L 106.900364 186.795011 
L 107.306182 162.336489 
L 107.712 174.563573 
L 108.117818 192.348087 
L 109.335273 160.195834 
L 110.146909 149.058923 
L 110.552727 156.344754 
L 110.958545 167.192612 
L 111.364364 172.115666 
L 111.770182 163.620424 
L 112.176 173.330548 
L 112.581818 179.232743 
L 112.987636 188.62607 
L 113.393455 188.440793 
L 113.799273 189.263516 
L 114.205091 187.446636 
L 114.610909 197.764731 
L 115.016727 190.867989 
L 115.422545 186.997538 
L 115.828364 187.518257 
L 116.234182 197.078942 
L 116.64 188.896311 
L 117.045818 175.712918 
L 117.451636 188.82508 
L 117.857455 194.675583 
L 118.263273 191.007435 
L 118.669091 184.035331 
L 119.074909 138.317185 
L 119.480727 188.255794 
L 119.886545 163.080446 
L 120.292364 174.817066 
L 120.698182 174.071882 
L 121.104 169.417281 
L 121.509818 163.216487 
L 121.915636 189.852061 
L 122.321455 164.798296 
L 122.727273 160.183385 
L 123.133091 170.292311 
L 123.538909 177.577472 
L 123.944727 173.640144 
L 124.350545 180.594385 
L 124.756364 175.266332 
L 125.162182 179.386034 
L 125.568 176.26328 
L 125.973818 179.384024 
L 126.379636 180.203789 
L 126.785455 179.026532 
L 127.191273 181.449318 
L 127.597091 166.539926 
L 128.002909 169.186005 
L 128.408727 168.736293 
L 128.814545 156.754999 
L 129.220364 156.967909 
L 129.626182 145.308827 
L 130.032 151.768306 
L 130.437818 136.199082 
L 130.843636 154.085139 
L 131.249455 149.440977 
L 131.655273 155.178996 
L 132.061091 142.631598 
L 132.466909 143.306837 
L 132.872727 136.157271 
L 133.278545 150.23043 
L 133.684364 157.011786 
L 134.090182 153.510494 
L 134.901818 137.768386 
L 135.307636 151.264612 
L 135.713455 145.323732 
L 136.119273 145.905299 
L 136.525091 157.587212 
L 136.930909 136.763846 
L 137.336727 157.804086 
L 137.742545 132.924991 
L 138.148364 134.685713 
L 138.554182 139.465805 
L 138.96 150.204361 
L 139.365818 141.139833 
L 139.771636 144.301049 
L 140.177455 142.611781 
L 140.583273 157.974235 
L 140.989091 132.3499 
L 141.394909 147.588259 
L 141.800727 134.306673 
L 142.206545 143.058647 
L 142.612364 147.402535 
L 143.018182 142.700205 
L 143.424 143.087619 
L 143.829818 143.22059 
L 144.235636 139.615746 
L 144.641455 155.053505 
L 145.047273 163.447931 
L 145.453091 153.972041 
L 145.858909 161.751015 
L 146.264727 142.212254 
L 146.670545 140.93926 
L 147.076364 154.755353 
L 147.482182 152.543691 
L 147.888 159.173096 
L 148.293818 145.272095 
L 148.699636 154.939291 
L 149.105455 152.54838 
L 149.511273 138.839747 
L 149.917091 154.21169 
L 150.322909 156.91443 
L 150.728727 152.972302 
L 151.134545 164.593703 
L 151.540364 148.615575 
L 151.946182 138.728658 
L 152.352 150.146584 
L 152.757818 150.530592 
L 153.163636 156.643185 
L 153.569455 148.948784 
L 153.975273 147.483423 
L 154.381091 151.351138 
L 155.192727 137.759287 
L 155.598545 150.159925 
L 156.004364 152.679453 
L 156.410182 144.191636 
L 156.816 143.768272 
L 157.221818 151.604185 
L 157.627636 150.6318 
L 158.033455 144.437593 
L 158.439273 142.802362 
L 158.845091 145.139068 
L 159.250909 152.621899 
L 159.656727 145.143813 
L 160.062545 141.317574 
L 160.468364 146.801374 
L 160.874182 143.06194 
L 161.28 144.321927 
L 161.685818 132.894177 
L 162.091636 140.45717 
L 162.497455 136.800522 
L 162.903273 136.166817 
L 163.309091 134.9377 
L 163.714909 135.238196 
L 164.120727 136.615245 
L 164.526545 141.887139 
L 164.932364 143.208755 
L 165.744 139.098543 
L 166.149818 136.715001 
L 166.555636 142.60899 
L 166.961455 145.116181 
L 167.773091 124.889677 
L 168.990545 141.255387 
L 169.396364 155.520244 
L 169.802182 138.684279 
L 170.208 152.743203 
L 170.613818 154.138562 
L 171.019636 150.13073 
L 171.425455 118.366169 
L 172.642909 156.199669 
L 173.048727 148.37252 
L 173.454545 146.606886 
L 173.860364 136.43354 
L 174.266182 141.982988 
L 174.672 106.543302 
L 175.077818 128.152269 
L 175.889455 156.135305 
L 176.295273 131.712733 
L 176.701091 123.582743 
L 177.106909 133.072979 
L 177.512727 116.608518 
L 177.918545 137.890025 
L 178.324364 148.85768 
L 179.136 140.376171 
L 179.541818 130.804879 
L 179.947636 141.438041 
L 180.353455 140.620732 
L 180.759273 131.072663 
L 181.165091 134.435011 
L 181.570909 114.241276 
L 181.976727 122.478559 
L 182.382545 144.906564 
L 182.788364 143.885222 
L 183.194182 125.23193 
L 183.6 118.773568 
L 184.005818 127.781044 
L 184.411636 133.884091 
L 184.817455 133.860813 
L 185.223273 129.127278 
L 185.629091 136.446435 
L 186.034909 152.479383 
L 186.440727 133.340428 
L 186.846545 129.834392 
L 187.252364 129.519548 
L 187.658182 120.804698 
L 188.064 122.391083 
L 188.469818 130.762454 
L 188.875636 124.318382 
L 189.281455 111.284596 
L 190.093091 133.240337 
L 190.498909 126.276551 
L 190.904727 137.510483 
L 191.310545 138.118175 
L 191.716364 147.412415 
L 192.122182 143.590475 
L 192.528 120.572975 
L 193.339636 123.788005 
L 193.745455 118.079014 
L 194.151273 138.860792 
L 194.557091 128.220485 
L 194.962909 142.228554 
L 195.368727 148.081122 
L 195.774545 135.445747 
L 196.180364 147.686787 
L 196.586182 132.884743 
L 196.992 142.840154 
L 197.397818 135.350569 
L 197.803636 116.674054 
L 198.209455 122.234778 
L 198.615273 140.772069 
L 199.021091 134.573174 
L 199.426909 149.049824 
L 200.644364 139.252448 
L 201.050182 137.71848 
L 201.456 142.259425 
L 201.861818 142.043891 
L 202.267636 135.38557 
L 202.673455 136.911108 
L 203.079273 145.132705 
L 203.485091 137.522206 
L 203.890909 158.882647 
L 204.296727 154.367214 
L 204.702545 159.100749 
L 205.108364 149.443769 
L 205.514182 167.623512 
L 205.92 164.54469 
L 206.325818 176.727116 
L 206.731636 164.302641 
L 207.137455 162.889028 
L 207.543273 163.319816 
L 207.949091 164.837316 
L 208.354909 173.390447 
L 208.760727 166.759646 
L 209.572364 147.409457 
L 209.978182 156.293452 
L 210.789818 132.319253 
L 211.195636 149.626646 
L 211.601455 148.575996 
L 212.007273 129.016413 
L 212.413091 125.151712 
L 212.818909 135.234679 
L 213.224727 153.747967 
L 213.630545 141.128166 
L 214.036364 133.578626 
L 214.442182 121.443818 
L 214.848 132.601161 
L 215.253818 134.216295 
L 215.659636 138.918625 
L 216.065455 130.940139 
L 216.471273 117.794316 
L 216.877091 120.859572 
L 217.282909 131.138926 
L 217.688727 110.650165 
L 218.094545 119.502843 
L 218.500364 113.791564 
L 218.906182 110.364629 
L 219.312 108.202872 
L 219.717818 94.671589 
L 220.123636 94.368022 
L 220.529455 110.053749 
L 220.935273 113.881495 
L 221.341091 125.951269 
L 221.746909 121.46732 
L 222.152727 107.930734 
L 222.964364 120.524911 
L 223.370182 112.539559 
L 223.776 109.535262 
L 224.181818 112.415687 
L 224.587636 112.781106 
L 224.993455 101.441892 
L 225.399273 114.386472 
L 225.805091 98.363908 
L 226.210909 113.191742 
L 226.616727 95.390035 
L 227.022545 115.390398 
L 227.428364 113.89132 
L 227.834182 99.977257 
L 228.24 104.074294 
L 228.645818 86.917122 
L 229.051636 89.287267 
L 229.457455 84.690164 
L 230.269091 106.897333 
L 230.674909 110.892717 
L 231.080727 104.706716 
L 231.486545 111.720018 
L 231.892364 89.735807 
L 232.298182 111.43197 
L 232.704 109.442651 
L 233.109818 96.051541 
L 233.515636 88.431049 
L 233.921455 95.603447 
L 234.327273 96.977202 
L 234.733091 96.924561 
L 235.138909 82.44819 
L 235.544727 75.25363 
L 235.950545 78.469721 
L 236.356364 75.850548 
L 236.762182 82.044085 
L 237.168 79.418884 
L 237.573818 99.605864 
L 237.979636 88.573455 
L 238.385455 84.431982 
L 238.791273 92.870619 
L 239.197091 87.987031 
L 239.602909 89.955695 
L 240.008727 92.535456 
L 240.414545 87.746768 
L 240.820364 77.091835 
L 241.226182 90.284103 
L 241.632 95.30362 
L 242.037818 81.129421 
L 242.443636 83.750156 
L 242.849455 84.842003 
L 243.661091 89.760983 
L 244.066909 90.84094 
L 244.472727 87.684971 
L 244.878545 119.737022 
L 245.284364 99.552776 
L 245.690182 86.984612 
L 246.096 81.657118 
L 246.501818 84.036306 
L 246.907636 77.270358 
L 247.719273 113.342744 
L 248.125091 110.349835 
L 248.530909 97.833029 
L 248.936727 110.586638 
L 249.342545 103.49122 
L 249.748364 104.608188 
L 250.154182 92.532497 
L 250.56 98.249973 
L 250.965818 100.107604 
L 251.371636 94.721774 
L 251.777455 98.100757 
L 252.183273 88.427867 
L 252.589091 121.58533 
L 252.994909 115.911118 
L 253.400727 117.822172 
L 253.806545 79.365126 
L 254.212364 87.112894 
L 254.618182 91.742821 
L 255.024 102.65482 
L 255.429818 93.024914 
L 256.241455 107.511445 
L 256.647273 108.419634 
L 257.053091 98.980532 
L 257.864727 89.140954 
L 258.270545 80.704271 
L 258.676364 88.784355 
L 259.082182 94.602703 
L 259.488 81.072146 
L 259.893818 94.801155 
L 260.299636 79.600365 
L 260.705455 93.884258 
L 261.111273 89.403268 
L 261.517091 88.069315 
L 261.922909 99.581358 
L 262.328727 93.842781 
L 262.734545 118.135843 
L 263.140364 85.636313 
L 263.546182 106.55028 
L 263.952 105.301346 
L 264.357818 110.617452 
L 264.763636 106.402125 
L 265.169455 119.951662 
L 265.575273 95.099754 
L 265.981091 107.167797 
L 266.386909 101.783586 
L 266.792727 73.541251 
L 267.198545 105.398367 
L 267.604364 112.533195 
L 268.010182 102.031497 
L 268.416 106.147347 
L 268.821818 115.630271 
L 269.227636 101.091154 
L 269.633455 111.639744 
L 270.039273 111.689706 
L 270.445091 121.282545 
L 270.850909 126.421691 
L 271.256727 123.358054 
L 271.662545 95.141789 
L 272.068364 120.539704 
L 272.474182 104.457912 
L 272.88 119.867648 
L 273.285818 117.335783 
L 273.691636 140.133619 
L 274.097455 137.052676 
L 274.503273 162.25108 
L 275.314909 150.728597 
L 275.720727 160.357052 
L 276.126545 181.535844 
L 276.532364 177.403303 
L 276.938182 186.904759 
L 277.749818 163.660617 
L 278.155636 162.92816 
L 278.561455 158.655949 
L 278.967273 150.314779 
L 279.373091 135.296978 
L 279.778909 177.208703 
L 280.184727 164.759498 
L 280.590545 158.978663 
L 280.996364 176.212927 
L 281.402182 146.588241 
L 281.808 132.990249 
L 282.213818 153.062457 
L 282.619636 129.7712 
L 283.025455 144.503967 
L 283.431273 127.391509 
L 284.242909 113.627276 
L 284.648727 135.190635 
L 285.054545 135.035055 
L 285.460364 151.957937 
L 286.272 144.241598 
L 286.677818 137.393756 
L 287.083636 112.317885 
L 287.895273 154.348848 
L 288.301091 128.274968 
L 288.706909 132.405779 
L 289.112727 154.02552 
L 289.518545 145.590176 
L 289.924364 144.826291 
L 290.330182 155.28065 
L 290.736 148.519112 
L 291.141818 131.232876 
L 291.547636 123.107966 
L 291.953455 120.774832 
L 292.359273 135.59982 
L 292.765091 133.254405 
L 293.170909 123.542215 
L 293.576727 122.476661 
L 293.982545 123.506042 
L 294.388364 104.727371 
L 294.794182 117.60541 
L 295.2 140.92363 
L 295.605818 123.442012 
L 296.011636 117.92377 
L 296.417455 108.911939 
L 296.823273 124.430475 
L 297.229091 83.648669 
L 297.634909 127.122608 
L 298.040727 139.480542 
L 298.852364 113.579268 
L 299.258182 106.410833 
L 299.664 131.619229 
L 300.069818 131.745836 
L 300.475636 118.619607 
L 300.881455 113.200842 
L 301.287273 133.580022 
L 301.693091 119.377464 
L 302.098909 95.346102 
L 302.504727 117.504705 
L 302.910545 126.359448 
L 303.316364 122.756112 
L 304.128 125.437918 
L 304.533818 116.664229 
L 304.939636 117.875092 
L 305.345455 114.832333 
L 305.751273 104.241038 
L 306.157091 112.51857 
L 306.562909 117.850362 
L 306.968727 124.7624 
L 307.780364 104.349559 
L 308.186182 110.047441 
L 308.997818 131.183752 
L 309.403636 119.095445 
L 309.809455 118.645342 
L 310.215273 135.455237 
L 310.621091 120.617522 
L 311.026909 112.676047 
L 311.432727 92.890157 
L 312.244364 114.549979 
L 312.650182 99.085033 
L 313.056 109.853734 
L 313.461818 128.943396 
L 314.273455 111.002298 
L 314.679273 96.207846 
L 315.085091 73.256664 
L 315.490909 76.12492 
L 315.896727 76.967014 
L 316.302545 89.137995 
L 316.708364 72.394641 
L 317.114182 65.552605 
L 317.52 82.452823 
L 317.925818 55.8 
L 318.331636 88.955342 
L 318.737455 105.888327 
L 319.143273 114.164519 
L 319.549091 109.031625 
L 319.954909 108.277117 
L 320.360727 118.637359 
L 320.766545 117.658889 
L 321.172364 123.992486 
L 321.578182 114.198739 
L 321.984 128.139374 
L 322.389818 102.355775 
L 322.795636 109.645011 
L 323.201455 133.667441 
L 323.607273 128.217359 
L 324.013091 136.50438 
L 324.418909 132.3475 
L 325.230545 144.962164 
L 325.636364 147.817525 
L 326.042182 141.354641 
L 326.448 129.811895 
L 326.853818 129.003797 
L 327.259636 122.778329 
L 327.665455 134.601978 
L 328.071273 121.979052 
L 328.477091 127.357401 
L 328.882909 122.437026 
L 329.288727 124.827993 
L 329.694545 109.445777 
L 330.100364 116.347321 
L 330.506182 118.966437 
L 330.912 114.88436 
L 331.317818 124.694296 
L 331.723636 138.159261 
L 332.129455 120.102608 
L 332.535273 131.603208 
L 332.941091 115.643501 
L 333.346909 123.193599 
L 333.752727 121.103687 
L 334.158545 116.205641 
L 334.970182 135.184104 
L 335.376 121.30225 
L 335.781818 118.765808 
L 336.187636 132.997171 
L 336.593455 113.927717 
L 336.999273 128.570832 
L 337.405091 130.022739 
L 337.810909 118.916866 
L 338.622545 129.721182 
L 339.028364 128.633521 
L 339.434182 129.259803 
L 339.84 132.180867 
L 340.245818 127.728793 
L 340.651636 130.334736 
L 341.057455 125.586296 
L 341.463273 125.730711 
L 341.869091 120.058843 
L 342.274909 111.353147 
L 342.680727 125.991908 
L 343.086545 121.12222 
L 343.898182 129.780355 
L 344.304 136.184289 
L 345.115636 122.410231 
L 345.521455 127.024862 
L 345.927273 123.376978 
L 346.333091 131.378017 
L 346.738909 146.788255 
L 347.144727 149.016218 
L 347.550545 144.288768 
L 347.956364 147.502123 
L 348.362182 135.210341 
L 348.768 136.33998 
L 349.173818 137.091473 
L 349.579636 128.221099 
L 349.985455 136.191825 
L 350.391273 129.448262 
L 351.202909 104.023049 
L 351.608727 121.105752 
L 352.014545 117.305974 
L 352.420364 131.040844 
L 352.826182 137.677841 
L 353.232 120.802855 
L 354.449455 106.617435 
L 354.855273 108.787844 
L 355.666909 128.334253 
L 356.072727 110.513286 
L 356.478545 120.167587 
L 356.884364 118.116863 
L 357.290182 124.215388 
L 357.696 128.598855 
L 358.507636 150.642853 
L 358.913455 142.122937 
L 359.319273 150.219991 
L 359.725091 132.803352 
L 360.130909 128.59411 
L 360.536727 112.9953 
L 360.942545 105.956878 
L 361.348364 138.994768 
L 361.754182 139.006826 
L 362.16 137.325596 
L 362.565818 132.311717 
L 362.971636 129.963734 
L 363.783273 148.918527 
L 364.189091 146.212438 
L 364.594909 142.29811 
L 365.000727 134.423735 
L 365.406545 134.537893 
L 365.812364 145.674023 
L 366.624 133.292923 
L 367.435636 142.846016 
L 367.841455 132.709123 
L 368.247273 157.576997 
L 368.653091 151.699029 
L 369.058909 160.08402 
L 369.464727 139.73063 
L 369.870545 139.718126 
L 370.276364 125.351168 
L 370.682182 138.524122 
L 371.088 137.427864 
L 371.493818 128.663387 
L 371.899636 136.507227 
L 372.305455 151.623947 
L 372.711273 144.091712 
L 373.117091 125.035934 
L 373.522909 112.889794 
L 373.928727 120.688306 
L 374.334545 118.466986 
L 374.740364 114.631201 
L 375.146182 131.266817 
L 375.552 133.389162 
L 375.957818 144.262085 
L 376.769455 126.183159 
L 377.175273 138.330527 
L 377.581091 133.776799 
L 377.986909 135.391989 
L 378.392727 141.419787 
L 378.798545 140.473191 
L 379.610182 125.241476 
L 380.016 104.006804 
L 380.421818 109.188544 
L 380.827636 101.233113 
L 381.233455 101.799942 
L 381.639273 91.547942 
L 382.045091 88.459966 
L 382.450909 115.34814 
L 382.856727 118.129925 
L 383.262545 104.160206 
L 383.668364 102.877722 
L 384.074182 65.475569 
L 384.48 82.089748 
L 384.885818 87.91167 
L 385.291636 79.584623 
L 385.697455 80.284926 
L 386.103273 89.080497 
L 386.509091 101.7818 
L 386.914909 100.612972 
L 387.320727 93.597494 
L 387.726545 112.981345 
L 388.132364 117.01893 
L 388.538182 122.957746 
L 388.944 117.347283 
L 389.349818 128.965893 
L 390.161455 88.268324 
L 390.567273 108.229221 
L 390.973091 113.175721 
L 391.378909 123.78019 
L 391.784727 102.524863 
L 392.190545 117.802913 
L 392.596364 120.376086 
L 393.002182 133.753186 
L 393.408 132.579724 
L 393.813818 133.613795 
L 394.219636 123.148438 
L 394.625455 133.025808 
L 395.437091 137.456669 
L 395.842909 138.314617 
L 396.248727 143.149248 
L 396.654545 111.408356 
L 397.060364 137.109393 
L 397.466182 143.589303 
L 397.872 128.001155 
L 398.277818 136.360802 
L 398.683636 135.905619 
L 399.089455 133.602463 
L 399.495273 123.13878 
L 399.901091 117.790241 
L 400.306909 129.904394 
L 400.712727 126.476175 
L 401.118545 134.888296 
L 401.524364 122.104822 
L 401.930182 123.907634 
L 402.336 119.839122 
L 403.147636 133.046742 
L 403.553455 141.896294 
L 403.959273 130.14622 
L 404.365091 137.431102 
L 404.770909 134.836659 
L 405.176727 131.327106 
L 405.582545 131.610912 
L 405.988364 144.424977 
L 406.394182 139.114788 
L 406.8 120.948777 
L 407.205818 121.933388 
L 407.611636 126.032436 
L 408.423273 146.44684 
L 408.829091 139.155539 
L 409.234909 142.944767 
L 409.640727 156.023658 
L 410.046545 144.966742 
L 410.452364 128.131893 
L 410.858182 141.774097 
L 411.264 145.836692 
L 411.669818 161.958063 
L 412.075636 155.170399 
L 412.481455 143.592708 
L 413.293091 136.661355 
L 413.698909 127.687205 
L 414.510545 138.283747 
L 414.916364 145.017597 
L 415.322182 147.158978 
L 415.728 152.802209 
L 416.133818 137.979398 
L 416.539636 137.814106 
L 416.945455 150.225127 
L 417.351273 146.148018 
L 417.757091 146.591869 
L 418.162909 144.107175 
L 418.568727 150.929114 
L 418.974545 148.462507 
L 419.380364 145.024296 
L 419.786182 136.079676 
L 420.192 138.927222 
L 420.597818 132.242496 
L 421.003636 156.316005 
L 421.409455 140.598738 
L 421.815273 139.639192 
L 422.221091 136.837142 
L 422.626909 141.840136 
L 423.032727 123.199795 
L 423.844364 136.378387 
L 424.250182 130.46793 
L 424.656 106.041953 
L 425.467636 129.818091 
L 425.873455 135.337227 
L 426.279273 126.205432 
L 426.685091 126.810835 
L 427.090909 131.579427 
L 427.496727 108.454635 
L 427.902545 108.37023 
L 428.308364 124.233252 
L 428.714182 120.391494 
L 429.525818 135.954911 
L 429.931636 132.84656 
L 430.337455 137.885838 
L 430.743273 158.747722 
L 431.149091 143.165995 
L 431.554909 154.667208 
L 431.960727 150.088472 
L 432.366545 155.182681 
L 432.772364 161.913684 
L 433.178182 138.496154 
L 433.584 159.372273 
L 433.989818 160.258412 
L 434.395636 163.106962 
L 434.801455 160.982831 
L 435.207273 157.258637 
L 435.613091 158.851051 
L 436.424727 152.572105 
L 436.830545 157.399144 
L 437.236364 160.883968 
L 437.642182 157.493373 
L 438.048 155.315707 
L 438.453818 140.704467 
L 438.859636 152.589522 
L 439.265455 150.038454 
L 439.671273 151.819049 
L 440.077091 154.84093 
L 440.482909 152.931886 
L 440.888727 143.988941 
L 441.294545 151.754127 
L 441.700364 150.820538 
L 442.106182 145.907085 
L 442.512 151.873533 
L 442.917818 148.492317 
L 443.323636 155.840111 
L 443.729455 141.485658 
L 444.135273 146.537776 
L 444.541091 146.518908 
L 444.946909 143.821583 
L 445.352727 146.806342 
L 445.758545 141.881836 
L 446.164364 134.678735 
L 446.570182 145.630146 
L 446.976 141.238249 
L 447.381818 145.063986 
L 447.787636 145.267239 
L 448.193455 152.01979 
L 448.599273 153.379198 
L 449.005091 160.399198 
L 449.410909 151.489301 
L 449.816727 155.047979 
L 450.222545 151.006374 
L 450.628364 151.72348 
L 451.034182 152.962142 
L 451.44 146.75839 
L 451.845818 149.504783 
L 452.251636 153.693985 
L 452.657455 152.812201 
L 453.063273 136.394185 
L 453.469091 157.15514 
L 454.280727 142.401941 
L 454.686545 142.312513 
L 455.092364 143.979451 
L 455.498182 147.626498 
L 455.904 147.054309 
L 456.309818 151.072469 
L 456.715636 151.138507 
L 457.121455 144.634426 
L 457.527273 142.594867 
L 457.933091 149.137801 
L 458.338909 150.858386 
L 458.744727 158.765809 
L 459.150545 136.244746 
L 459.556364 148.219676 
L 460.368 156.586859 
L 460.773818 152.000921 
L 461.179636 153.149262 
L 461.585455 139.837029 
L 461.991273 139.906139 
L 462.802909 158.371976 
L 463.208727 147.573354 
L 463.614545 152.738626 
L 464.020364 134.934183 
L 464.426182 143.742817 
L 464.832 142.772161 
L 465.643636 154.923995 
L 466.049455 153.760973 
L 467.266909 164.567187 
L 467.672727 156.880936 
L 468.078545 157.85656 
L 468.484364 154.577165 
L 468.890182 157.624949 
L 469.296 163.673177 
L 469.701818 158.682856 
L 470.107636 156.723905 
L 470.513455 158.392407 
L 470.919273 151.796217 
L 471.325091 141.592504 
L 471.730909 141.962054 
L 472.136727 118.634903 
L 472.948364 148.763395 
L 473.354182 146.486475 
L 473.76 152.343899 
L 474.165818 154.107915 
L 474.571636 152.2327 
L 474.977455 143.867526 
L 475.383273 147.655637 
L 475.789091 155.450632 
L 476.194909 154.476628 
L 476.600727 155.243584 
L 477.006545 147.155238 
L 477.412364 157.119469 
L 477.818182 157.485949 
L 478.629818 144.081329 
L 479.035636 150.54773 
L 479.441455 139.093687 
L 479.847273 122.486374 
L 480.253091 132.983327 
L 480.658909 122.960872 
L 481.064727 121.744538 
L 481.470545 132.220334 
L 481.876364 130.059192 
L 482.282182 129.67496 
L 482.688 130.353213 
L 483.093818 133.20461 
L 483.499636 129.219275 
L 483.905455 131.730541 
L 484.311273 141.882506 
L 484.717091 131.22841 
L 485.122909 132.043821 
L 485.528727 133.579129 
L 485.934545 122.519086 
L 486.340364 139.222806 
L 486.746182 117.57828 
L 487.152 133.075268 
L 487.557818 131.680244 
L 487.963636 118.820571 
L 488.369455 130.583261 
L 488.775273 132.340801 
L 489.181091 133.324854 
L 489.586909 131.357753 
L 489.992727 135.83478 
L 490.398545 126.628796 
L 490.804364 125.434959 
L 491.210182 122.859329 
L 491.616 134.201502 
L 492.021818 128.857038 
L 492.427636 120.699303 
L 492.833455 124.449734 
L 493.239273 136.494499 
L 493.645091 132.705885 
L 494.050909 123.404108 
L 494.456727 133.629984 
L 494.862545 139.947727 
L 495.674182 125.824215 
L 496.08 112.552789 
L 496.485818 132.386855 
L 496.891636 125.709331 
L 497.297455 121.049148 
L 497.703273 125.548894 
L 498.109091 135.24791 
L 498.109091 135.24791 
" clip-path="url(#p430c666511)" style="fill: none; stroke: #ff9333; stroke-opacity: 0.5; stroke-width: 1.5; stroke-linecap: square"/>
   </g>
   <g id="patch_3">
    <path d="M 72 320.4 
L 72 43.2 
" style="fill: none; stroke: #000000; stroke-width: 0.8; stroke-linejoin: miter; stroke-linecap: square"/>
   </g>
   <g id="patch_4">
    <path d="M 72 320.4 
L 518.4 320.4 
" style="fill: none; stroke: #000000; stroke-width: 0.8; stroke-linejoin: miter; stroke-linecap: square"/>
   </g>
   <g id="text_19">
    <!-- RMSD -->
    <g transform="translate(268.5375 37.2) scale(0.18 -0.18)">
     <use xlink:href="#DejaVuSans-52"/>
     <use xlink:href="#DejaVuSans-4d" x="69.482422"/>
     <use xlink:href="#DejaVuSans-53" x="155.761719"/>
     <use xlink:href="#DejaVuSans-44" x="219.238281"/>
    </g>
   </g>
   <g id="legend_1">
    <g id="patch_5">
     <path d="M 395.823437 315.4 
L 511.4 315.4 
Q 513.4 315.4 513.4 313.4 
L 513.4 299.721875 
Q 513.4 297.721875 511.4 297.721875 
L 395.823437 297.721875 
Q 393.823437 297.721875 393.823437 299.721875 
L 393.823437 313.4 
Q 393.823437 315.4 395.823437 315.4 
z
" style="fill: #ffffff; opacity: 0.8; stroke: #cccccc; stroke-linejoin: miter"/>
    </g>
    <g id="line2d_30">
     <path d="M 397.823437 305.820312 
L 407.823437 305.820312 
L 417.823437 305.820312 
" style="fill: none; stroke: #ff9333; stroke-width: 0.8; stroke-linecap: square"/>
    </g>
    <g id="text_20">
     <!-- RNA-hnRNPA2B1 -->
     <g transform="translate(425.823437 309.320312) scale(0.1 -0.1)">
      <defs>
       <path id="DejaVuSans-4e" d="M 628 4666 
L 1478 4666 
L 3547 763 
L 3547 4666 
L 4159 4666 
L 4159 0 
L 3309 0 
L 1241 3903 
L 1241 0 
L 628 0 
L 628 4666 
z
" transform="scale(0.015625)"/>
       <path id="DejaVuSans-41" d="M 2188 4044 
L 1331 1722 
L 3047 1722 
L 2188 4044 
z
M 1831 4666 
L 2547 4666 
L 4325 0 
L 3669 0 
L 3244 1197 
L 1141 1197 
L 716 0 
L 50 0 
L 1831 4666 
z
" transform="scale(0.015625)"/>
       <path id="DejaVuSans-2d" d="M 313 2009 
L 1997 2009 
L 1997 1497 
L 313 1497 
L 313 2009 
z
" transform="scale(0.015625)"/>
       <path id="DejaVuSans-68" d="M 3513 2113 
L 3513 0 
L 2938 0 
L 2938 2094 
Q 2938 2591 2744 2837 
Q 2550 3084 2163 3084 
Q 1697 3084 1428 2787 
Q 1159 2491 1159 1978 
L 1159 0 
L 581 0 
L 581 4863 
L 1159 4863 
L 1159 2956 
Q 1366 3272 1645 3428 
Q 1925 3584 2291 3584 
Q 2894 3584 3203 3211 
Q 3513 2838 3513 2113 
z
" transform="scale(0.015625)"/>
       <path id="DejaVuSans-50" d="M 1259 4147 
L 1259 2394 
L 2053 2394 
Q 2494 2394 2734 2622 
Q 2975 2850 2975 3272 
Q 2975 3691 2734 3919 
Q 2494 4147 2053 4147 
L 1259 4147 
z
M 628 4666 
L 2053 4666 
Q 2838 4666 3239 4311 
Q 3641 3956 3641 3272 
Q 3641 2581 3239 2228 
Q 2838 1875 2053 1875 
L 1259 1875 
L 1259 0 
L 628 0 
L 628 4666 
z
" transform="scale(0.015625)"/>
       <path id="DejaVuSans-42" d="M 1259 2228 
L 1259 519 
L 2272 519 
Q 2781 519 3026 730 
Q 3272 941 3272 1375 
Q 3272 1813 3026 2020 
Q 2781 2228 2272 2228 
L 1259 2228 
z
M 1259 4147 
L 1259 2741 
L 2194 2741 
Q 2656 2741 2882 2914 
Q 3109 3088 3109 3444 
Q 3109 3797 2882 3972 
Q 2656 4147 2194 4147 
L 1259 4147 
z
M 628 4666 
L 2241 4666 
Q 2963 4666 3353 4366 
Q 3744 4066 3744 3513 
Q 3744 3084 3544 2831 
Q 3344 2578 2956 2516 
Q 3422 2416 3680 2098 
Q 3938 1781 3938 1306 
Q 3938 681 3513 340 
Q 3088 0 2303 0 
L 628 0 
L 628 4666 
z
" transform="scale(0.015625)"/>
      </defs>
      <use xlink:href="#DejaVuSans-52"/>
      <use xlink:href="#DejaVuSans-4e" x="69.482422"/>
      <use xlink:href="#DejaVuSans-41" x="144.287109"/>
      <use xlink:href="#DejaVuSans-2d" x="210.445312"/>
      <use xlink:href="#DejaVuSans-68" x="246.529297"/>
      <use xlink:href="#DejaVuSans-6e" x="309.908203"/>
      <use xlink:href="#DejaVuSans-52" x="373.287109"/>
      <use xlink:href="#DejaVuSans-4e" x="442.769531"/>
      <use xlink:href="#DejaVuSans-50" x="517.574219"/>
      <use xlink:href="#DejaVuSans-41" x="571.501953"/>
      <use xlink:href="#DejaVuSans-32" x="639.910156"/>
      <use xlink:href="#DejaVuSans-42" x="703.533203"/>
      <use xlink:href="#DejaVuSans-31" x="772.136719"/>
     </g>
    </g>
   </g>
  </g>
 </g>
 <defs>
  <clipPath id="p430c666511">
   <rect x="72" y="43.2" width="446.4" height="277.2"/>
  </clipPath>
 </defs>
</svg>
